<?xml version="1.0" encoding="iso-8859-1"?>
<!-- Generator: Adobe Illustrator 21.0.0, SVG Export Plug-In . SVG Version: 6.00 Build 0)  -->
<svg version="1.1" id="Layer_1" xmlns="http://www.w3.org/2000/svg" xmlns:xlink="http://www.w3.org/1999/xlink" x="0px" y="0px"
	 width="612px" height="792px" viewBox="0 0 612 792" enable-background="new 0 0 612 792" xml:space="preserve">
<g>
	<g>
		<g>
			<path fill="#39B54A" d="M130.863,265.091c11.131,1.162,28.899,2.308,38.241-4.607c10.097-7.475-16.735-11.443-20.238-11.781
				c-7.753-0.744-15.804-0.644-23.494,0.562c-4.855,0.76-11.423,1.406-15.218,4.652c-0.319,0.045-0.623,0.212-0.836,0.562
				c-0.072,0.123-0.086,0.226-0.149,0.347c-0.003,0.005-0.009,0.007-0.015,0.013c-0.021,0.026-0.013,0.065-0.031,0.093
				C105.007,263.112,126.515,264.635,130.863,265.091z M137.504,250.806c4.545-0.225,9.185,0.227,13.697,0.661
				c2.91,0.28,5.749,0.867,8.574,1.526c0.749,0.188,1.502,0.377,2.254,0.568c4.922,0.687,6.473,5.026,0.651,6.985
				c-6.911,2.458-14.859,2.547-22.163,2.629c-3.268,0.036-28.457-1.465-29.21-6.333
				C112.678,251.237,133.832,250.986,137.504,250.806z"/>
		</g>
		<path fill="#39B54A" d="M260.66,451.836c-12.982-16.878-26.143-33.409-41.352-48.652c-15.681-15.734-32.555-30.671-49.047-45.628
			c-0.09-0.082-0.157-0.143-0.247-0.184c-0.945-11.095-1.282-22.232-1.553-33.348c-0.292-10.891-0.517-21.823-1.26-32.714
			c4.23-0.654,8.797-1.737,11.497-4.311c3.712-3.535,4.477-7.887,4.342-12.689c-0.135-4.925,0.472-10.196-0.383-15.1
			c3.487-14.569-34.985-14.733-43.242-14.814c-6.637-0.082-39.237,1.716-41.375,11.688c-0.067,0.082-0.157,0.143-0.18,0.245
			c-1.283,5.149,0.697,11.913,1.012,17.144c0.27,4.373,0.832,8.889,4.86,11.606c2.677,1.819,5.917,3.147,9.427,4.148
			c-1.08,10.748,0.36,21.741-0.405,32.571c-0.9,12.383-0.45,24.99,0.45,37.373c0,0.02-0.023,0.02-0.023,0.02
			c-0.99,0.674-4.32,3.903-4.589,4.311c-0.878,0.756-1.642,1.43-1.89,1.676c-2.767,2.799-5.489,5.619-8.212,8.46
			c-3.352,3.29-6.727,6.539-9.989,9.89c-6.435,6.641-12.644,13.445-19.056,20.107c-6.097,6.334-11.406,13.507-16.694,20.434
			c-5.917,7.785-12.216,15.427-17.256,23.744c-5.152,8.46-22.904,28.484-8.437,37.005c7.042,4.128,15.861,5.251,23.983,6.314
			c11.632,1.553,23.264,2.758,34.94,3.862c40.857,3.882,81.107,3.923,122.054,0.838c9.562-0.715,19.169-1.226,28.685-2.37
			c9.314-1.124,19.956-1.982,28.685-5.333C283.878,481.076,267.927,461.256,260.66,451.836z M139.326,247.029
			c6.367-0.082,12.937,0.368,19.236,1.206c6.074,0.817,17.189,2.064,20.541,7.56c0.652,1.063,0.877,2.043,0.832,2.983
			c-0.225,0.633-0.427,1.287-0.562,1.941c-2.52,4.781-12.914,7.581-16.761,8.562c-7.267,1.859-14.714,2.207-22.229,1.941
			c-7.019-0.266-13.926-1.185-20.789-2.554c-3.375-0.674-15.816-3.964-18.831-8.521
			C100.606,247.193,129.494,247.132,139.326,247.029z M110.37,285.138c-9.809-3.086-8.617-12.689-9.269-21.19
			c0.18,0.184,0.338,0.388,0.54,0.572c6.03,5.721,19.326,7.213,27.403,8.255c11.587,1.492,22.881,1.655,34.265-0.899
			c5.625-1.267,11.744-2.922,15.681-6.58c0.023,4.189,0.787,8.603,0.518,12.26c-1.035,13.895-24.231,12.689-35.255,12.628
			C133.229,290.124,120.787,288.408,110.37,285.138z M255.665,487.308c-21.419,4.393-43.939,5.619-65.808,6.886
			c-41.127,2.37-81.669,0.572-122.616-3.801c-11.272-1.206-22.678-2.473-33.522-5.64c-17.279-5.047-3.712-23.07,1.98-31.447
			c11.047-16.306,22.341-32.878,35.975-47.57c5.602-6.048,11.294-12.015,17.031-17.961c0.833-0.797,1.62-1.676,2.362-2.493
			c0.495-0.511,0.945-1.022,1.44-1.512c3.802-3.923,7.785-7.703,11.677-11.524c0.225-0.245,0.765-0.776,1.417-1.471
			c2.272-2.248,4.567-4.495,6.975-6.62c0.742-0.633,2.002-1.471,2.655-2.452c0.517-0.123,0.945-0.49,0.99-1.144
			c1.057-12.812-1.102-25.706-0.202-38.579c0.742-10.626,0.877-21.537-0.45-32.142c8.73,2.043,18.764,2.329,26.481,2.942
			c6.704,0.531,13.702,0.041,20.339-0.817c0.788-0.102,1.665-0.204,2.565-0.327c-1.237,1.614-0.697,13.67-0.742,15.141
			c-0.135,6.396,0.225,12.853,0.36,19.249c0.225,10.625,0.495,21.68,2.025,32.224c0.09,0.613,0.495,1.001,1.035,1.144v0.02
			c0.068,0.082,0.135,0.164,0.225,0.245c13.589,13.098,27.718,25.746,41.555,38.66c12.959,12.097,24.073,25.093,35.233,38.558
			c6.592,7.928,12.937,16.04,18.719,24.479c3.353,4.863,6.84,10.012,7.2,15.877C270.986,484.734,261.874,486.042,255.665,487.308z"
			/>
		<path fill="#39B54A" d="M259.422,470.859c0-0.082-0.022-0.184-0.022-0.286c0-0.02-0.023-0.02-0.023-0.041
			c-6.367-17.971-44.333-56.54-53.614-65.289c-15.241-14.369-19.214-17.01-24.186-17.623c-12.689-1.614-24.024,0.814-36.841,0.32
			c-12.302-0.474-26.05,0.145-38.521-0.264c-18.872-0.619-75.989,73.919-72.497,85.84c1.579,5.391,10.372,7.54,15.164,8.5
			c9.764,1.982,19.911,3.147,29.878,3.842c18.291,1.308,36.695,2.166,54.986,2.534c19.866,0.429,95.641,0.05,119.489-9.522
			C258.124,476.907,259.737,474.129,259.422,470.859z"/>
		<g>
			<path fill="#FFFFFF" d="M98.87,450.09c-2.583-0.052-5.017,1.567-6.258,3.534c-0.057,0.09-0.091,0.179-0.142,0.269
				c-2.262,3.112-1.285,7.825,1.966,10.364c4.853,3.792,12.336,1.833,14.261-3.667C110.707,454.85,104.626,450.204,98.87,450.09z
				 M97.362,462.24c-2.562-1.3-3.317-4.149-2.571-6.585c0.767-1.454,2.113-2.604,3.999-2.675c3.608-0.135,6.526,2.427,6.536,5.664
				C105.339,462.34,100.426,463.792,97.362,462.24z"/>
			<path fill="#FFFFFF" d="M187.334,423.206c-2.693-1.508-5.929-1.279-8.45,0.052c-4.661,1.518-6.47,7.984-4.627,11.995
				c2.355,5.124,10.668,5.359,14.746,1.819C193.284,433.352,192.199,425.929,187.334,423.206z M186.369,434.556
				c-1.805,1.983-7.132,2.177-8.712-0.086c-1.646-2.358-0.954-6.273,1.196-8.557c2.072-1.011,4.677-1.167,6.672-0.054
				C188.624,427.589,188.515,432.199,186.369,434.556z"/>
			<path fill="#FFFFFF" d="M143.493,430.426c-0.764-1.113-2.753-3.03-4.336-3.051c-2.069-0.032-3.965,0.132-5.297,1.778
				c-0.796,0.984-1.018,1.952-0.885,2.936c-0.431,1.316-0.302,2.514,0.89,3.668c2.677,2.59,7.825,2.454,9.795-0.753
				C144.534,433.578,144.424,431.784,143.493,430.426z M140.902,433.45c-0.547,1.685-3.127,1.236-4.322,0.633
				c-0.978-0.495-0.869-1.032-0.721-1.909c0.089-0.517,0.289-1.229,0.649-1.753c0.633-0.351,1.386-0.311,2.152-0.288
				c0.591,0.019,1.334,0.942,1.708,1.28C141.055,432.036,141.171,432.626,140.902,433.45z"/>
			<path fill="#FFFFFF" d="M97.875,431.152c-1.569-1.209-3.494-1.077-4.577,0.066c-1.803,0.797-2.258,3.185-1.28,4.708
				c1.323,2.058,4.362,2.039,6.178,0.643C100.035,435.16,99.559,432.447,97.875,431.152z M96.333,434.789
				c-0.553,0.569-1.444,0.429-2.011-0.023c-0.456-0.361-0.411-0.954-0.19-1.502c0.549-0.52,1.01-0.95,1.869-0.523
				C96.813,433.147,96.913,434.192,96.333,434.789z"/>
			<path fill="#FFFFFF" d="M168.894,458.949c-3.833-1.205-7.567,0.786-8.878,3.814c-1.286,1.837-1.672,4.198-0.536,6.295
				c2.395,4.411,8.948,5.636,12.753,1.947C176.261,467.1,174.487,460.707,168.894,458.949z M170.034,468.506
				c-1.68,2.645-5.814,1.956-7.47-0.255c-1.155-1.54-0.837-3.513,0.227-5.051c0.769-0.732,1.725-1.284,3.05-1.557
				c1.966-0.406,3.798,1.035,4.721,2.468C171.532,465.618,170.91,467.125,170.034,468.506z"/>
			<path fill="#FFFFFF" d="M219.455,463.907c-1.6-1.742-3.818-2.055-5.72-1.308c-1.799-0.054-3.749,2.016-3.922,3.505
				c-0.351,3.068,2.847,5.316,6.043,5.097C219.513,470.948,221.885,466.548,219.455,463.907z M215.531,468.627
				c-1.349,0.093-2.865-0.783-2.903-2.076c-0.013-0.452,0.205-0.891,0.51-1.281c0.815-0.316,1.635-0.601,2.535-0.591
				C218.212,464.704,217.922,468.456,215.531,468.627z"/>
			<path fill="#FFFFFF" d="M170.711,403.246c-0.345-0.956-1.479-2.212-2.586-2.482c-1.249-0.304-2.143-0.028-3.063,0.493
				c-1.596-0.148-2.803,1.018-3.033,2.804c-0.34,2.653,2.753,3.874,5.181,3.717C169.752,407.613,171.531,405.5,170.711,403.246z
				 M167.248,405.051c-0.726,0.219-1.732,0.093-2.308-0.367c-0.816-0.655,0.112-1.456,0.887-1.669
				c0.707-0.041,1.379,0.037,1.822,0.652C168.032,404.199,168.015,404.819,167.248,405.051z"/>
			<path fill="#FFFFFF" d="M127.621,397.04c-1.904-0.68-4.15,0.2-5.569,1.299c-0.701,0.542-0.961,1.25-0.973,1.992
				c-1.062,1.684-0.553,3.938,1.102,5.778c2.761,3.072,7.52,2.122,9.958-0.654C135.006,402.188,130.811,398.178,127.621,397.04z
				 M129.472,403.349c-0.397,1.751-3.255,1.919-4.559,1.24c-0.851-0.442-1.424-1.201-1.619-1.997
				c0.048-0.069,0.123-0.117,0.143-0.202c0.314-1.529,0.473-2.707,2.595-2.671C127.746,399.747,129.843,401.722,129.472,403.349z"/>
		</g>
		<path fill="#39B54A" d="M159.448,374.043c-0.634-0.941-2.349-1.869-3.576-1.91c-1.365-0.044-2.079,0.57-2.806,1.495
			c-1.261,0.76-2.035,1.939-1.331,3.544c0.922,2.095,3.63,3.17,5.933,2.366C160.338,378.606,160.875,376.16,159.448,374.043z
			 M156.29,377.197c-0.79,0.255-1.668-0.358-2.049-0.924c-0.426-0.63,0.051-1.198,0.625-1.624c0.662-0.052,1.215,0.085,1.977,0.542
			C157.996,375.881,157.216,376.902,156.29,377.197z"/>
		<path fill="#39B54A" d="M142.249,349.294c-2.303-0.951-4.835-0.537-6.869,0.761c-1.112,0.706-1.64,1.525-1.872,2.449
			c-1.192,1.732-1.475,4.101-0.426,5.955c2.402,4.245,8.503,5.538,12.344,1.956C149.197,356.898,146.637,351.106,142.249,349.294z
			 M143.57,357.475c-1.131,3.159-5.814,2.278-7.394,0.12c-1.837-2.505-0.316-5.461,2.88-5.8c0.275-0.03,0.388-0.178,0.439-0.351
			c1.389-0.111,2.687,0.996,3.522,1.818C144.131,354.36,144.035,356.178,143.57,357.475z"/>
		<path fill="#39B54A" d="M145.63,327.689c-1.651-1.04-4.292-0.553-4.787,1.237c-0.794,0.916-0.772,2.259,0.247,3.328
			c1.374,1.449,4.343,1.595,5.619-0.011C147.95,330.681,147.276,328.727,145.63,327.689z M144.899,330.634
			c-0.281,1.06-2.982,0.339-2.507-0.891c0.468-0.366,0.888-0.584,1.626-0.409C144.679,329.49,145.059,330.041,144.899,330.634z"/>
		<path fill="#39B54A" d="M137.174,302.954c-1.006-1.215-2.296-1.379-3.88-1.382c-1.441,0.001-2.785,0.227-3.678,1.317
			c-0.518,0.632-0.517,1.338-0.31,2.012c-0.46,1.132-0.152,2.493,1.126,3.476c2.423,1.862,6.023,1.073,7.441-1.396
			C138.619,305.682,138.089,304.061,137.174,302.954z M135.284,305.963c-1.034,1.83-3.609,1.002-3.949-0.327
			c-0.009-0.301,0.022-0.571,0.086-0.813c0.121-0.259,0.343-0.519,0.679-0.773c0.197-0.079,0.41-0.144,0.716-0.152
			c0.503-0.012,1.063-0.007,1.564,0.07C135.205,304.093,135.624,305.359,135.284,305.963z"/>
	</g>
	<g>
		<path fill="#2E3192" d="M264.427,296.89c-2.265-5.246-5.238-10.12-8.918-14.628c-3.682-4.505-7.433-8.943-11.254-13.316
			c-3.823-4.369-7.327-8.776-10.511-13.214c-3.186-4.439-5.275-9.145-6.264-14.123c2.687,0.807,6.156,1.28,10.403,1.412
			c4.247,0.136,8.316-0.202,12.209-1.009c3.893-0.807,7.185-2.219,9.876-4.236c2.687-2.017,3.961-4.773,3.821-8.272
			c-0.143-2.825-1.417-5.176-3.821-7.061c-2.41-1.882-5.383-3.26-8.92-4.137c-3.54-0.873-7.398-1.21-11.572-1.009
			c-4.177,0.203-8.142,0.877-11.891,2.018c-3.753,1.143-7.081,2.824-9.979,5.044c-2.905,2.219-4.779,4.943-5.629,8.17
			c-11.326-4.842-21.094-8.035-29.303-9.583c-8.211-1.544-15.149-1.982-20.809-1.311c-5.66,0.674-10.087,2.254-13.271,4.741
			c-3.186,2.49-5.379,5.381-6.583,8.675c-1.202,3.298-1.487,6.693-0.85,10.189c0.637,3.499,1.984,6.626,4.034,9.381
			c2.054,2.759,4.671,4.877,7.857,6.356c3.186,1.482,6.831,1.885,10.935,1.21c2.549-0.403,4.917-1.276,7.114-2.622
			c2.193-1.343,3.999-3.027,5.416-5.045c1.413-2.017,2.261-4.404,2.546-7.162c0.283-2.756-0.211-5.883-1.485-9.382
			c-0.286-0.807-0.993-1.075-2.125-0.807c-1.134,0.271-1.417,0.877-0.848,1.816c0.705,2.153,1.061,4.338,1.061,6.557
			s-0.461,4.306-1.38,6.254c-0.923,1.952-2.303,3.601-4.142,4.944c-1.841,1.346-4.177,2.219-7.007,2.622
			c-4.388,0.675-8.208-0.267-11.467-2.825c-3.254-2.553-5.484-5.75-6.688-9.583c-1.202-3.833-1.096-7.698,0.319-11.601
			c1.415-3.899,4.638-6.825,9.661-8.776c5.027-1.948,12.104-2.421,21.235-1.412c9.129,1.009,20.842,4.609,35.143,10.793
			c0,4.978,1.024,9.684,3.078,14.123c2.05,4.438,4.671,8.776,7.857,13.012c3.184,4.237,6.583,8.443,10.192,12.609
			c3.61,4.172,6.934,8.443,9.979,12.812c3.043,4.372,5.592,8.978,7.644,13.82c2.052,4.842,3.008,10.088,2.867,15.737
			c-0.143,3.363-0.637,6.859-1.485,10.491c-0.85,3.631-2.16,7.127-3.928,10.491c-1.773,3.36-4.001,6.421-6.69,9.179
			c-2.689,2.756-5.875,4.943-9.555,6.557c-4.533,1.882-9.237,2.623-14.121,2.219c-4.884-0.403-9.342-1.784-13.376-4.136
			c-4.036-2.355-7.4-5.548-10.087-9.583c-2.691-4.035-4.034-8.808-4.034-14.324c0-4.571,0.989-8.505,2.973-11.802
			c1.98-3.295,4.458-5.851,7.431-7.667c2.973-1.816,6.121-2.891,9.45-3.229c3.324-0.334,6.334,0.101,9.024,1.312
			c2.689,1.21,4.706,3.263,6.053,6.153c1.342,2.894,1.593,6.626,0.743,11.198c-0.286,1.078,0.141,1.715,1.274,1.917
			c1.132,0.202,1.839-0.233,2.125-1.312c0.989-5.245,0.705-9.548-0.85-12.912c-1.56-3.36-3.858-5.851-6.901-7.465
			c-3.045-1.613-6.477-2.352-10.298-2.219c-3.823,0.136-7.47,1.078-10.937,2.825c-3.469,1.749-6.512,4.306-9.129,7.667
			c-2.621,3.363-4.142,7.465-4.566,12.307c-0.569,5.381,0.138,10.321,2.122,14.828c1.982,4.505,4.812,8.439,8.494,11.802
			c3.68,3.361,8.033,5.952,13.06,7.768c5.023,1.815,10.368,2.654,16.03,2.521c5.521,0,10.619-0.977,15.29-2.925
			c4.671-1.952,8.775-4.574,12.315-7.868c3.537-3.298,6.477-7.131,8.813-11.5c2.336-4.372,3.999-8.978,4.99-13.82
			c0.989-4.843,1.274-9.817,0.85-14.93C267.613,306.507,266.409,301.599,264.427,296.89z M228.86,229.806
			c1.485-2.352,3.43-4.201,5.84-5.547c2.404-1.343,5.06-2.185,7.962-2.522c2.9-0.334,5.627-0.302,8.175,0.101
			c2.546,0.404,4.704,1.245,6.475,2.522c1.769,1.28,2.724,2.925,2.867,4.943c0.141,3.228-1.061,5.649-3.61,7.264
			c-2.549,1.613-5.627,2.657-9.237,3.127c-3.61,0.473-7.325,0.539-11.148,0.202c-3.823-0.334-6.868-0.838-9.131-1.514
			C226.769,235.02,227.373,232.162,228.86,229.806z"/>
		<path fill="#2E3192" d="M336.958,283.513c1.839-0.188,3.362-0.991,4.566-2.408c1.202-1.416,1.731-3.067,1.593-4.957
			c-0.286-1.888-1.136-3.4-2.549-4.533c-1.417-1.133-3.116-1.651-5.095-1.559c-1.843,0.191-3.366,0.992-4.566,2.408
			c-1.202,1.416-1.734,3.116-1.593,5.099c0.286,1.795,1.132,3.257,2.549,4.391C333.276,283.089,334.974,283.608,336.958,283.513z"/>
		<path fill="#2E3192" d="M592.043,304.028c-1.347-0.334-2.16,0.035-2.441,1.109c-3.115,10.627-6.477,19-10.087,25.119
			c-3.61,6.121-7.149,10.424-10.616,12.912c-3.471,2.487-6.583,3.295-9.344,2.422c-2.76-0.874-4.957-3.027-6.583-6.456
			c-1.628-3.43-2.408-7.9-2.336-13.417c0.07-5.513,1.307-11.768,3.715-18.763c7.077-1.479,12.317-3.328,15.714-5.548
			c3.399-2.219,6.158-4.807,8.281-7.767c1.415-1.882,2.476-4,3.186-6.355c0.708-2.352,0.352-4.471-1.061-6.356
			c-1.56-2.553-4.46-3.833-8.707-3.833c-4.247,0-7.962,0.74-11.148,2.219c-3.184,1.482-6.018,3.465-8.492,5.952
			c-2.478,2.49-4.64,5.447-6.477,8.877c-1.841,3.429-3.471,7.096-4.884,10.995c-1.673,4.902-2.72,9.869-3.159,14.899
			c-1.225,2.989-2.502,5.946-3.856,8.855c-2.506,5.381-6.484,10.021-11.933,13.92c-2.799,2.017-5.341,3.263-7.623,3.733
			c-2.286,0.473-4.31,0.372-6.077-0.302c-1.767-0.671-3.313-1.816-4.639-3.43c-1.326-1.614-2.431-3.632-3.315-6.052
			c-1.327-4.035-2.026-8.54-2.099-13.517c-0.075-4.975,0.515-9.887,1.768-14.729c1.251-4.842,3.167-9.448,5.746-13.82
			c2.574-4.369,5.855-7.969,9.834-10.793c1.324-0.94,3.313-1.848,5.965-2.724c2.652-0.873,5.302-0.772,7.954,0.302
			c1.619-0.133,2.504-0.637,2.652-1.514c0.144-0.873-0.37-1.645-1.548-2.32c-2.799-0.939-6.263-1.277-10.385-1.009
			c-5.158,0.403-9.688,1.784-13.59,4.136c-3.905,2.355-7.291,5.246-10.163,8.675c-2.874,3.43-5.232,7.163-7.072,11.198
			c-1.843,4.035-3.203,7.938-4.088,11.701c-0.259,1.277-0.437,2.634-0.578,4.028c-0.095,0.251-0.173,0.47-0.272,0.729
			c-0.85,2.22-1.843,4.61-2.975,7.163c-1.134,2.556-2.408,5.113-3.821,7.667c-3.54,6.727-6.512,11.166-8.918,13.316
			c-2.41,2.153-4.355,2.622-5.84,1.412c-1.487-1.21-2.516-3.833-3.078-7.868c-0.569-4.035-0.637-8.944-0.213-14.728
			c0.281-5.11,0.637-10.422,1.061-15.939c0.424-5.513,0.246-10.523-0.53-15.031c-0.78-4.505-2.41-8.202-4.884-11.096
			c-2.478-2.891-6.477-4.338-11.998-4.338c-4.957,0-9.204,1.21-12.741,3.632c-3.54,2.421-6.512,5.245-8.918,8.474
			c0-2.286,0.033-4.439,0.108-6.456c0.068-2.017,0.105-3.966,0.105-5.851c0-0.404-0.743-0.807-2.23-1.21
			c-1.485-0.404-3.078-0.638-4.777-0.706c-1.701-0.066-3.291,0.035-4.779,0.302c-1.487,0.271-2.23,0.807-2.23,1.614
			c0,4.035-0.105,8.643-0.319,13.82c-0.177,4.349-0.388,8.901-0.615,13.581c-0.04,0.095-0.099,0.166-0.127,0.276
			c-3.116,10.627-6.477,19-10.087,25.119c-3.61,6.121-7.149,10.424-10.616,12.912c-3.471,2.487-6.583,3.295-9.344,2.422
			c-2.76-0.874-4.957-3.027-6.583-6.456c-1.628-3.43-2.408-7.9-2.336-13.417c0.07-5.513,1.307-11.768,3.715-18.763
			c7.077-1.479,12.317-3.328,15.714-5.548c3.399-2.219,6.159-4.807,8.281-7.767c1.415-1.882,2.476-4,3.186-6.355
			c0.707-2.352,0.352-4.471-1.061-6.356c-1.56-2.553-4.46-3.833-8.707-3.833s-7.962,0.74-11.148,2.219
			c-3.184,1.482-6.018,3.465-8.492,5.952c-2.478,2.49-4.64,5.447-6.477,8.877c-1.841,3.429-3.471,7.096-4.884,10.995
			c-1.698,4.978-2.76,10.021-3.186,15.132c-0.254,3.061-0.208,5.958,0.07,8.728c-0.009,0.018-0.018,0.037-0.026,0.055
			c-2.267,4.674-4.746,8.335-7.433,10.978c-1.984,1.888-3.397,2.571-4.247,2.054c-0.848-0.52-1.274-1.864-1.274-4.037
			c0-2.171,0.246-5.004,0.745-8.499c0.494-3.493,0.954-7.246,1.38-11.261c0.424-4.012,0.705-8.074,0.848-12.181
			c0.141-4.108-0.073-7.908-0.637-11.402c-0.567-0.943-1.415-1.699-2.546-2.266c-1.136-0.567-2.338-0.897-3.61-0.992
			c-1.274-0.092-2.549,0.095-3.823,0.567c-1.274,0.474-2.336,1.229-3.186,2.266c0.85,2.078,1.096,4.462,0.745,7.153
			c-0.356,2.691-0.745,6.493-1.169,11.402c-0.424,4.249-0.776,8.547-1.061,12.889c-0.15,2.3-0.204,4.466-0.175,6.514
			c-1.433,3.143-3.303,6.161-5.621,9.052c-2.418,3.04-4.799,5.11-7.138,6.206c-2.342,1.101-4.577,1.464-6.712,1.091
			c-2.134-0.369-4.174-1.348-6.122-2.932c-1.948-1.584-3.779-3.695-5.497-6.332c-2.702-4.432-4.869-9.566-6.5-15.405
			c-1.633-5.835-2.522-11.755-2.667-17.751c-0.148-5.995,0.503-11.87,1.949-17.628c1.442-5.754,3.892-10.77,7.344-15.041
			c1.149-1.421,3.032-2.963,5.647-4.625c2.616-1.659,5.533-2.171,8.757-1.538c1.721-0.542,2.528-1.345,2.417-2.412
			c-0.115-1.061-0.916-1.848-2.409-2.361c-3.341-0.439-7.218-0.012-11.624,1.285c-5.492,1.702-9.994,4.405-13.511,8.101
			c-3.519,3.7-6.305,7.908-8.363,12.627c-2.061,4.72-3.464,9.673-4.21,14.859c-0.749,5.186-1.014,10.102-0.804,14.741
			c0.331,4.448,1.329,9.34,2.996,14.665c1.665,5.33,4.03,10.256,7.097,14.773c3.063,4.522,6.87,8.002,11.422,10.437
			c4.547,2.439,9.87,2.991,15.967,1.658c6.257-1.368,11.703-5.151,16.339-11.357c0.789-1.093,1.511-2.194,2.201-3.3
			c0.468,1.764,1.111,3.288,1.979,4.503c1.413,1.983,3.61,2.784,6.583,2.408c2.83-0.378,5.379-1.299,7.644-2.762
			c2.263-1.465,4.317-3.258,6.159-5.382c1.211-1.4,2.297-2.912,3.325-4.475c1.095,3.893,2.853,7.29,5.338,10.146
			c2.689,3.093,6.229,5.045,10.619,5.852c5.66,1.075,10.649,0.031,14.969-3.128c4.317-3.159,8.07-7.263,11.254-12.307
			c3.186-5.044,5.767-10.355,7.751-15.938c0.102-0.287,0.189-0.542,0.289-0.824c-0.156,2.872-0.319,5.731-0.5,8.553
			c-0.426,6.592-0.85,12.443-1.274,17.553c0,1.346,0.71,2.017,2.122,2.017h9.981c1.274,0,1.911-0.536,1.911-1.614
			c0.705-8.07,1.272-16.071,1.698-24.009c0.424-7.935,0.776-15.939,1.061-24.008c0.138,0,0.213-0.066,0.213-0.202
			c0.705-1.211,1.626-2.79,2.76-4.741c1.132-1.949,2.687-3.664,4.671-5.145c4.671-3.763,8.281-5.68,10.83-5.75
			c2.549-0.066,4.352,1.079,5.416,3.43c1.061,2.355,1.591,5.684,1.591,9.986c0,4.306-0.105,8.979-0.316,14.022
			c-0.213,5.044-0.393,10.189-0.532,15.434c-0.143,5.246,0.213,9.987,1.061,14.224c0.85,4.236,2.3,7.702,4.352,10.39
			c2.052,2.689,5.203,4.035,9.45,4.035c2.687,0,5.308-1.009,7.857-3.026c2.549-2.017,4.954-4.54,7.22-7.566
			c2.263-3.026,4.317-6.356,6.159-9.986c1.007-1.992,1.939-3.934,2.821-5.845c0.376,3.763,1.211,7.394,2.566,10.873
			c1.619,4.171,4.123,7.635,7.514,10.39c3.386,2.758,7.879,4.136,13.478,4.136c5.746,0,11.343-2.083,16.794-6.255
			c5.448-4.302,9.503-9.078,12.154-14.323c0.241-0.477,0.479-0.999,0.718-1.491c0.187,1.424,0.42,2.822,0.751,4.167
			c1.061,4.306,2.938,8.004,5.627,11.096c2.689,3.093,6.229,5.045,10.619,5.852c5.66,1.075,10.649,0.031,14.969-3.128
			c4.317-3.159,8.07-7.263,11.254-12.307c3.186-5.044,5.767-10.355,7.751-15.938c1.982-5.58,3.537-10.189,4.671-13.821
			C593.849,305.072,593.387,304.365,592.043,304.028z M564.97,288.796c3.397-3.36,6.297-5.447,8.705-6.254
			c2.406-0.807,3.928-0.435,4.566,1.109c0.637,1.547-0.461,4.205-3.291,7.969c-1.841,2.422-4.034,4.54-6.583,6.356
			c-2.549,1.816-6.655,3.464-12.315,4.943C558.598,296.866,561.571,292.159,564.97,288.796z M381.933,288.796
			c3.397-3.36,6.297-5.447,8.705-6.254c2.406-0.807,3.928-0.435,4.566,1.109c0.637,1.547-0.461,4.205-3.291,7.969
			c-1.841,2.422-4.034,4.54-6.583,6.356s-6.655,3.464-12.315,4.943C375.561,296.866,378.534,292.159,381.933,288.796z"/>
	</g>
	<g>
		<path d="M250.431,365.872c13.444-2.812,33.121-3.124,47.537,2.03c59.228,21.084,40.912,159.146-54.159,132.752
			c-5.067-1.407-2.729-9.059,2.922-5.468c3.311,0.938,6.624,1.407,9.74,1.718v-0.467c-1.169-10.778,0.391-86.993,1.56-122.913
			c-3.313,0.781-6.04,1.718-7.015,2.343C249.458,376.804,243.614,367.278,250.431,365.872z M272.642,371.651
			c3.702,22.646-5.844,112.916-6.624,125.567C329.725,493.937,324.854,374.93,272.642,371.651z"/>
		<path d="M349.787,498.311c3.507-0.469,6.82-0.782,10.326-0.938c0.584-41.699,1.364-84.179,2.338-129.003
			c-5.26,0-11.104,0.312-17.144,0.626c-4.091,0.312-0.584-3.905-1.364-6.56c-0.973-3.28,30.197-0.78,43.835-0.312
			c0.584-1.249,3.702,5.622-1.362,5.622c-2.338,0.312-6.624,0.469-12.469,0.469c0,0.156,0.193,0.312,0.193,0.468
			c1.364,44.356-3.116,84.18-5.649,128.38c0,0-0.196,0.156-0.196,0.311c4.482,0.156,8.962,0.625,13.637,1.405
			c1.56-1.249,5.067,4.374,0,4.374c-2.922,0.625-6.04,0.938-30.197,1.094C347.645,503.621,349.787,501.279,349.787,498.311z"/>
		<path d="M404.917,386.956c-0.584-2.812-4.675-15.15-4.091-16.711c1.753-3.749,4.675-3.436,7.209-0.469
			c8.378,10.152,14.613,67.001,17.728,95.113c11.495-30.611,29.224-59.036,38.186-90.115c0.584-2.03,3.118-15.618,9.158-7.028
			c8.96,12.807-30.784,95.894-36.821,115.103l-4.482,12.182l-1.169,4.53l-0.389,1.249c2.533,6.872-15.002,1.249-14.222-1.874
			c-3.702-13.9-2.338-29.986-3.507-44.198C410.568,432.247,409.01,409.289,404.917,386.956z"/>
		<path d="M512.259,366.184c-1.364-4.061,16.171-6.559,14.417-0.625c0.973,33.734,3.311,67.47,9.74,100.734l6.429,0.782
			c4.871,0.625,2.338,4.997,0,4.372c-1.169-0.313-3.116-0.313-5.453-0.313c1.362,6.717,2.922,13.589,4.869,20.304l3.898,9.215
			c2.531,2.029-5.455,3.592-7.013,1.094c-5.651-9.215-9.353-19.524-12.275-30.144c-11.493,0.782-26.69,2.5-38.768,3.281
			c-2.924,8.902-5.262,17.335-6.431,24.676c-0.584,2.812-9.546,4.216-10.715,0.78c-0.193-0.625,2.533-10.62,6.82-24.987
			c-6.04,0.156-10.131-0.469-10.131-2.031c0-1.718,0.389-4.997,2.142-3.903l10.131-1.407
			C491.217,429.905,509.53,371.182,512.259,366.184z M525.312,465.514c-5.651-25.925-5.455-53.568-6.82-73.248
			c-8.182,22.958-19.482,50.29-27.859,74.497C502.128,465.669,513.817,465.045,525.312,465.514z"/>
	</g>
	<path fill="#39B54A" d="M133.466,200.666c-6.374-2.633-13.382-1.486-19.012,2.106c-3.077,1.955-4.54,4.22-5.18,6.778
		c-3.299,4.795-4.082,11.35-1.18,16.482c6.649,11.749,23.533,15.327,34.164,5.413C152.695,221.713,145.611,205.68,133.466,200.666z
		 M137.122,223.309c-3.131,8.743-16.091,6.304-20.465,0.333c-5.083-6.935-0.875-15.114,7.97-16.053
		c0.762-0.083,1.074-0.492,1.214-0.97c3.845-0.307,7.438,2.757,9.748,5.031C138.676,214.688,138.409,219.718,137.122,223.309z"/>
	<path fill="#39B54A" d="M166.155,192.08c-4.571-2.878-11.878-1.531-13.25,3.424c-2.199,2.535-2.136,6.251,0.684,9.212
		c3.804,4.01,12.019,4.415,15.552-0.031C172.577,200.36,170.711,194.951,166.155,192.08z M164.132,200.231
		c-0.778,2.935-8.253,0.938-6.94-2.466c1.294-1.012,2.458-1.617,4.501-1.132C163.525,197.063,164.574,198.589,164.132,200.231z"/>
	<path fill="#39B54A" d="M147.938,163.35c-2.785-3.361-6.356-3.817-10.738-3.825c-3.987,0.002-7.707,0.628-10.18,3.645
		c-1.433,1.749-1.432,3.703-0.859,5.57c-1.274,3.132-0.422,6.901,3.118,9.619c6.707,5.155,16.671,2.97,20.596-3.865
		C151.936,170.9,150.471,166.411,147.938,163.35z M142.706,171.678c-2.862,5.064-9.989,2.773-10.93-0.905
		c-0.025-0.834,0.06-1.58,0.237-2.251c0.336-0.718,0.95-1.436,1.879-2.14c0.544-0.218,1.135-0.398,1.982-0.422
		c1.393-0.033,2.943-0.018,4.329,0.193C142.487,166.501,143.647,170.005,142.706,171.678z"/>
	<g>
		<g>
			<path fill="#2E3192" d="M561.856,452.776c12.215-0.737,20.83,7.246,21.081,19.169c0.217,10.309-9.837,19.906-18.905,16.348
				c-2.614-1.026-5.487-1.269-8.11-2.276c-10.094-3.875-14.569-18.702-8.063-27.383c1.588-2.119,4.424-3.408,6.929-4.441
				C557.067,453.252,559.676,453.179,561.856,452.776z"/>
			<path fill="#2E3192" d="M563.1,405.056c12.215-0.737,20.83,7.246,21.081,19.169c0.217,10.309-9.837,19.906-18.905,16.348
				c-2.615-1.026-5.487-1.269-8.11-2.276c-10.094-3.875-14.569-18.702-8.063-27.383c1.588-2.119,4.424-3.408,6.929-4.441
				C558.311,405.532,560.92,405.459,563.1,405.056z"/>
			<path fill="#2E3192" d="M558.887,360.976c12.215-0.737,20.83,7.246,21.081,19.169c0.217,10.309-9.837,19.906-18.905,16.348
				c-2.615-1.026-5.488-1.269-8.11-2.276c-10.094-3.875-14.569-18.702-8.063-27.383c1.588-2.119,4.424-3.408,6.929-4.441
				C554.098,361.453,556.707,361.379,558.887,360.976z"/>
		</g>
	</g>
</g>
<g>
</g>
<g>
</g>
<g>
</g>
<g>
</g>
<g>
</g>
<g>
</g>
</svg>
