<?xml version="1.0" encoding="iso-8859-1"?>
<!-- Generator: Adobe Illustrator 21.0.0, SVG Export Plug-In . SVG Version: 6.00 Build 0)  -->
<svg version="1.1" id="Layer_1" xmlns="http://www.w3.org/2000/svg" xmlns:xlink="http://www.w3.org/1999/xlink" x="0px" y="0px"
	 width="612px" height="792px" viewBox="0 0 612 792" enable-background="new 0 0 612 792" xml:space="preserve">
<g>
	<path fill="#39B54A" d="M68.202,114.402c-0.17-9.385,2.243-11.844,3.288-12.463c1.538-0.91,3.578-0.117,5.028,0.708
		c5.656,3.222,11.713,12.434,11.713,21.014c0,2.721,1.886,4.895,4.695,5.403c2.759,0.49,6.209-0.75,7.457-4.084
		c1.248-3.269,0.144-12.381-1.163-15.427c-6.459-14.951-19.266-23.059-31.096-19.731c-10.048,2.828-19.561,14.488-16.129,38.742
		c1.304,9.117,8.478,22.788,16.789,38.619c12.99,24.743,29.157,55.539,21.5,70.396c-2.639,5.121-8.015,8.17-16.433,9.319
		c-4.328,0.596-8.13-0.939-11.314-4.552c-7.925-8.992-9.992-28.22-5.031-46.76l0.13-0.489l-0.053-0.503
		c-0.245-2.317-1.57-4.089-3.631-4.858c-2.453-0.912-5.52-0.21-7.63,1.761l-0.29,0.319c-1.245,1.601-3.804,5.39-4.554,8.194
		c-10.468,35.206,4.951,53.703,21.335,58.848c3.663,1.149,7.539,1.729,11.476,1.729c16.629,0,34.326-10.335,41.383-31.676
		c5.73-17.425-7.526-37.079-21.564-57.885C81.544,152.393,68.546,133.125,68.202,114.402z"/>
	<path fill="#39B54A" d="M154.763,90.789c-14.82,9.431-25.424,28.524-29.854,53.764c-6.012,34.238,0.386,73.054,15.206,92.283
		c4.416,5.775,12.74,9.542,22.267,10.077c0.764,0.043,1.524,0.064,2.277,0.064c8.635,0,16.39-2.791,21.059-7.654
		c6.087-6.355,18.792-31.218,15.475-41.868c0.027-1.875-0.774-3.469-2.259-4.445c-2.33-1.53-5.464-1.024-7.396,0.096
		c-1.804,1.046-2.812,2.748-2.692,4.616c0.74,8.444-4.227,18.385-5.847,21.625c-4.507,8.795-10.737,14.259-16.262,14.259
		c-5.73-0.003-9.886-5.77-12.365-10.612c-12.301-24.017-14.006-106.818,10.572-122.397c10.718-6.842,16.353-0.378,23.144,9.484
		c0.641,0.931,1.256,1.825,1.852,2.644c0.133,4.448,3.054,5.749,4.004,6.055c3.027,0.976,6.76-0.748,8.853-4.1
		c2.45-3.924-2.716-13.288-9.08-19.574C182.289,83.811,168.088,82.234,154.763,90.789z"/>
	<path fill="#39B54A" d="M256.439,84.035c-0.551-0.146-1.107-0.122-1.609,0.043c-2.636-0.117-5.858-0.311-9.33-0.521
		c-25.31-1.538-31.628-1.285-33.786,1.325c-0.694,0.841-0.942,1.923-0.676,2.966c0.122,0.489-0.128,1.628-0.311,2.461
		c-0.386,1.742-0.865,3.913,0.588,5.565c0.62,0.705,1.836,1.514,3.831,1.322l0.729-0.043c4.464-0.269,8.731-0.524,12.698-0.615
		c-0.92,49.585-1.623,94.842-2.15,138.173c-2.463,0.197-4.927,0.492-7.582,0.904l-2.304,0.359v2.333
		c0,0.676-0.133,1.391-0.261,2.086c-0.277,1.503-0.62,3.373,0.535,5.039c0.785,1.133,2.038,1.838,3.833,2.158l0.245,0.045
		l0.253-0.003c22.155-0.165,26.002-0.474,29.165-1.224c2.392-0.114,4.134-1.359,4.701-3.379c0.713-2.538-0.777-5.438-2.61-6.555
		c-0.886-0.54-1.868-0.689-2.761-0.479c-3.32-0.617-6.515-1.04-9.683-1.282c0.623-12.37,1.365-24.546,2.083-36.342
		c2.091-34.312,4.068-66.763,3.248-102.057c4.134-0.053,7.209-0.223,9.165-0.505c2.828-0.09,4.794-1.873,5.156-4.698
		C259.884,88.94,259.065,84.718,256.439,84.035z"/>
	<path fill="#39B54A" d="M327.559,90.377l-3.195-0.306c-18.819-1.793-32.421-3.091-52.256,2.296
		c-3.772,1.011-5.063,3.384-5.015,5.27c0.024,0.897,0.466,3.895,5.158,4.89l0.564,0.059c0.077,0,0.152,0,0.229-0.003
		c-3.389,12.676-5.089,29.492-5.182,51.181c-1.096,0.649-1.838,1.647-2.099,2.87c-0.505,2.368,0.926,4.674,2.104,6.023
		c0.141,16.042,0.958,32.112,1.679,46.332c0.442,8.657,0.859,16.885,1.048,23.783c-0.75,0.149-1.407,0.301-1.937,0.503
		c-3.677,1.144-5.017,4.198-4.443,6.624c0.521,2.195,2.439,3.607,4.746,3.607c0.311,0,0.633-0.027,0.958-0.08
		c3.772-0.633,13.969-0.423,23.815-0.231c22.602,0.466,29.018,0.269,31.155-1.854c0.612-0.575,2.591-3.461,1.995-6.19
		c-0.338-1.543-1.429-2.724-3.001-3.248c-6.278-2.083-24.249-1.796-36.486-1.024c-0.128-16.385,1.609-45.629,3.043-67.63
		c8.018-0.423,16.563-0.644,22.285,0.274c1.921,0.33,3.575-0.404,4.491-1.913c1.548-2.546,0.319-6.738-1.269-8.843
		c-0.575-0.641-2.277-2.559-24.751-1.724l3.674-49.143l3.129,0.008c9.979,0.048,19.428,0.09,28.949-1.16
		c0.857,0.21,1.766,0.067,2.551-0.439c1.934-1.237,2.527-4.336,1.969-6.494C330.946,91.808,329.416,90.488,327.559,90.377z"/>
	<path fill="#39B54A" d="M402.071,87.719c-1.189,0.79-2.075,2.352-1.386,4.525c-4.241,17.233-5.353,42.597-6.528,69.423
		c-0.37,8.444-0.748,17.068-1.229,25.712c-3.32-11.522-6.917-23.575-10.428-35.355c-7.608-25.507-14.794-49.601-15.674-56.999
		l-0.176-1.476l-1.75-0.854c-3.195-1.562-7.167-3.512-10.809-2.224c-1.953,0.689-3.477,2.173-4.546,4.461
		c-11.743,26.326-10.596,87.22-9.838,127.515c0.162,8.665,0.303,16.148,0.303,22.288c0,3.203,1.881,4.264,2.69,4.57
		c0.479,0.184,0.976,0.263,1.484,0.263c3.887,0,8.337-4.695,8.335-4.695c9.84-10.354,9.085-37.624,8.207-69.202
		c-0.354-12.719-0.716-25.73-0.349-37.885c2.424,8.992,5.028,18.696,7.638,28.423c9.324,34.746,18.133,67.566,19.949,73.014
		c2.256,6.334,10.021,5.185,14.182,4.565l4.397-0.689l-0.335-1.051l-1.069-5.978c-0.881-14.209,2.064-43.216,4.911-71.272
		c4.847-47.763,6.547-69.21,2.463-74.158C410.411,88.145,404.902,85.852,402.071,87.719z"/>
	<path fill="#39B54A" d="M449.499,90.789c-14.82,9.431-25.422,28.521-29.854,53.759c-6.01,34.241,0.386,73.057,15.206,92.288
		c4.416,5.775,12.74,9.542,22.267,10.077c0.763,0.043,1.524,0.064,2.277,0.064c8.635,0,16.39-2.791,21.059-7.654
		c6.087-6.355,18.792-31.218,15.475-41.868c0.027-1.875-0.774-3.469-2.259-4.445c-2.33-1.53-5.464-1.024-7.396,0.096
		c-1.804,1.046-2.812,2.748-2.692,4.616c0.74,8.444-4.227,18.385-5.847,21.625c-4.507,8.795-10.737,14.259-16.262,14.259
		c-5.73-0.003-9.886-5.77-12.365-10.612c-12.301-24.017-14.006-106.818,10.572-122.397c10.716-6.842,16.35-0.378,23.145,9.484
		c0.641,0.931,1.256,1.825,1.852,2.644c0.133,4.448,3.054,5.749,4.004,6.055c3.033,0.976,6.76-0.748,8.853-4.1
		c2.45-3.924-2.716-13.288-9.08-19.574C477.025,83.811,462.827,82.234,449.499,90.789z"/>
	<path fill="#39B54A" d="M576.37,93.814c-0.521-2.006-2.051-3.325-3.908-3.437l-3.195-0.306
		c-18.819-1.793-32.421-3.091-52.256,2.296c-3.772,1.011-5.063,3.384-5.015,5.27c0.024,0.897,0.466,3.895,5.158,4.89l0.564,0.059
		c0.077,0,0.152,0,0.229-0.003c-3.389,12.676-5.089,29.492-5.182,51.181c-1.096,0.649-1.838,1.647-2.099,2.87
		c-0.505,2.368,0.926,4.674,2.104,6.023c0.141,16.042,0.958,32.112,1.679,46.332c0.442,8.657,0.859,16.885,1.048,23.783
		c-0.75,0.149-1.407,0.301-1.937,0.503c-3.677,1.144-5.017,4.198-4.443,6.624c0.521,2.195,2.439,3.607,4.746,3.607
		c0.311,0,0.633-0.027,0.958-0.08c3.77-0.633,13.966-0.423,23.815-0.231c22.602,0.466,29.018,0.269,31.155-1.854
		c0.612-0.575,2.591-3.461,1.995-6.19c-0.338-1.543-1.429-2.724-3.001-3.248c-6.278-2.083-24.248-1.796-36.486-1.024
		c-0.128-16.385,1.609-45.629,3.043-67.63c8.021-0.423,16.56-0.644,22.285,0.274c1.923,0.33,3.575-0.404,4.491-1.913
		c1.548-2.546,0.319-6.738-1.269-8.843c-0.575-0.641-2.277-2.559-24.751-1.724l3.674-49.143l3.128,0.008
		c9.984,0.048,19.428,0.09,28.949-1.16c0.854,0.21,1.764,0.067,2.551-0.439C576.336,99.071,576.929,95.971,576.37,93.814z"/>
</g>
<g>
	<path d="M381.478,295.093c8.723-0.536,14.993-23.839-4.361-18.75C362.94,285.985,373.572,295.628,381.478,295.093z"/>
	<path d="M570.106,345.985c-5.18,12.589-26.987,50.624-43.07,54.374c-12.268,2.679-13.085-19.017-8.451-39.91
		c16.084,0.536,47.978-33.214,20.173-45.267c-14.116-6.135-32.552,12.435-36.475,39.571c-5.894,4.555-13.645,8.591-20.766,11.589
		c1.091-3.214,1.908-6.161,2.453-9.375c0.273-2.143,0.546-5.357,0.546-8.839c0-5.089-0.546-10.714-2.454-13.928
		c-3.543-6.429-8.45-8.839-13.63-8.839c-12.267,0-25.896,13.928-28.896,25.178c-1.09,3.75-1.362,7.232-1.362,10.179
		c0,11.518,5.997,19.017,19.082,19.821c-3.544,9.375-8.724,17.411-13.63,19.286c-1.091,0-2.182,0.268-3.271,0.268
		c-3.271,0-4.635-3.214-5.725-6.696c-1.908-7.232-5.997-19.285-8.724-61.338c16.901-24.642,62.152-65.892,62.152-100.712
		c0-9.107-2.998-17.678-10.631-25.446c-1.908-1.071-3.816-1.875-5.997-2.678c-1.636-0.268-2.999-0.268-4.635-0.268
		c-34.619,0-47.704,70.178-55.064,94.552c-2.181,6.964-2.453,15.535-3.816,22.5c-1.363,7.232-1.908,16.339-1.908,25.982
		c0,2.157,0.04,4.346,0.118,6.549c-12.412,21.141-25.242,30.001-26.012,23.45c-1.908-11.786,2.181-41.785,4.362-53.035
		c5.179-25.981-19.082-14.196-17.72-8.303c-1.204,6.251-2.298,21.452-2.874,34.314c-7.868,15.399-14.484,35.951-20.838,57.024
		c-4.089,14.196-8.45,28.66-12.54,41.785c-5.179,15.535-10.358,29.464-16.355,39.643c-8.451-18.75-2.726-61.07-0.272-68.303
		c2.453-27.321,23.443-48.749,3.271-53.838c-8.451-2.143-14.176-7.768-17.992-15c14.721-21.696,41.162-83.838,16.084-92.677
		c-16-5.52-30.569,14.718-36.344,39.989c-0.551-0.18-1.158-0.307-1.815-0.347c-7.633,0-15.538,0.268-23.443,1.071
		c0.272-16.339-0.273-29.731-2.454-35.892c-1.363-3.75-10.631-4.018-10.904,0.536c-1.09,12.321-2.726,25.446-4.634,38.839
		c-12.267,3.214-23.989,8.571-33.529,16.875c-4.634,3.214,3.271,5.893,6.27,3.75c8.178-4.018,16.628-5.893,25.079-7.768
		c-5.452,36.963-11.449,74.463-7.36,100.98c2.181,13.393,23.989,31.339,27.533,18.482c4.554-16.335,26.981-44.442,37.741-69.807
		c5.154,5.142,11.759,8.972,20.045,10.879c-1.908,1.875-7.36,16.607-12.268,35.893c-1.635,6.428-2.999,13.393-4.361,20.356
		c-1.908,10.446-2.999,21.16-2.999,31.071c0,22.768,6.542,40.713,26.442,39.374c8.996-0.536,19.899-33.749,29.44-68.838
		c6.169-22.394,11.798-45.522,16.145-61.414c3.307,30.921,27.045,17.331,43.396-4.797c1.631,13.531,5.014,26.369,10.782,34.872
		c4.907,4.554,13.63,6.696,20.99,6.696c1.363,0,2.727-0.268,4.089-0.268c14.721,0,26.987-14.464,34.348-30.536
		c7.934-2.684,16.485-6.833,23.854-11.804c-0.798,20.34,3.833,41.217,12.396,43.946c29.985,9.911,62.152-52.499,63.788-61.874
		C578.557,342.771,571.47,342.771,570.106,345.985z M534.396,325.36c9.814,8.304-1.907,22.5-13.63,26.25
		C524.037,340.092,528.944,329.914,534.396,325.36z M466.524,214.469c4.089,6.429,5.725,12.857,5.725,19.553
		c0,25.714-25.624,53.035-43.615,75.535C433.54,276.075,443.354,228.665,466.524,214.469z M310.061,272.325
		c11.177,8.036-5.725,45.267-15.811,64.017C289.343,311.432,297.521,279.289,310.061,272.325z M246.277,412.68
		c1.363-20.089,5.997-66.695,7.087-103.659c8.145-2.323,16.29-4.386,24.434-5.972c-3.01,17.377-1.822,36.355,5.809,50.675
		C275.848,372.182,253.684,402.976,246.277,412.68z M462.708,356.967c0,4.286-1.09,9.91-2.726,15.535
		c-7.088-0.268-10.358-5.357-10.358-11.25c0-8.839,6.542-19.821,16.355-23.036C465.979,341.967,462.708,349.467,462.708,356.967z"/>
</g>
<g>
	<g>
		<path fill="#39B54A" d="M129.897,283.608c9.354,0.977,24.284,1.94,32.134-3.872c8.485-6.281-14.063-9.616-17.007-9.899
			c-6.515-0.625-13.28-0.541-19.742,0.473c-4.079,0.639-9.599,1.182-12.788,3.909c-0.268,0.038-0.524,0.178-0.702,0.473
			c-0.06,0.103-0.072,0.19-0.126,0.292c-0.003,0.004-0.008,0.006-0.012,0.011c-0.018,0.021-0.011,0.054-0.026,0.078
			C108.169,281.945,126.242,283.225,129.897,283.608z M135.477,271.604c3.819-0.189,7.718,0.191,11.51,0.555
			c2.446,0.235,4.831,0.728,7.205,1.283c0.63,0.158,1.262,0.317,1.894,0.478c4.136,0.577,5.44,4.224,0.547,5.869
			c-5.807,2.065-12.486,2.14-18.624,2.209c-2.746,0.03-23.913-1.231-24.545-5.322C114.615,271.966,132.391,271.756,135.477,271.604z
			"/>
	</g>
	<path fill="#39B54A" d="M238.966,440.531c-10.909-14.183-21.968-28.074-34.749-40.883c-13.177-13.221-27.356-25.773-41.214-38.342
		c-0.076-0.069-0.132-0.12-0.208-0.155c-0.794-9.324-1.078-18.682-1.305-28.022c-0.246-9.152-0.435-18.338-1.059-27.49
		c3.554-0.549,7.392-1.459,9.661-3.623c3.119-2.97,3.762-6.628,3.649-10.663c-0.113-4.138,0.397-8.568-0.321-12.689
		c2.93-12.243-29.398-12.38-36.337-12.449c-5.577-0.069-32.971,1.442-34.768,9.822c-0.057,0.069-0.132,0.12-0.151,0.206
		c-1.078,4.327,0.586,10.01,0.851,14.406c0.227,3.675,0.7,7.469,4.084,9.753c2.25,1.528,4.972,2.644,7.922,3.486
		c-0.908,9.032,0.302,18.269-0.341,27.37c-0.756,10.405-0.378,21,0.378,31.405c0,0.017-0.019,0.017-0.019,0.017
		c-0.832,0.567-3.63,3.28-3.857,3.623c-0.738,0.635-1.38,1.202-1.588,1.408c-2.325,2.352-4.613,4.722-6.9,7.109
		c-2.817,2.764-5.653,5.495-8.394,8.31c-5.407,5.58-10.625,11.298-16.013,16.896c-5.123,5.323-9.585,11.35-14.028,17.171
		c-4.972,6.542-10.266,12.964-14.5,19.952c-4.329,7.109-19.246,23.936-7.09,31.096c5.917,3.469,13.328,4.413,20.153,5.306
		c9.774,1.305,19.549,2.318,29.361,3.245c34.332,3.262,68.155,3.297,102.563,0.704c8.035-0.601,16.108-1.03,24.105-1.992
		c7.827-0.944,16.769-1.666,24.105-4.482C258.476,465.102,245.072,448.447,238.966,440.531z M137.007,268.43
		c5.35-0.069,10.871,0.309,16.164,1.013c5.104,0.687,14.444,1.734,17.261,6.353c0.548,0.893,0.737,1.717,0.699,2.507
		c-0.189,0.532-0.359,1.082-0.473,1.631c-2.117,4.018-10.852,6.37-14.085,7.194c-6.106,1.562-12.364,1.854-18.679,1.631
		c-5.898-0.223-11.702-0.996-17.469-2.146c-2.836-0.567-13.291-3.331-15.824-7.16C104.471,268.568,128.746,268.516,137.007,268.43z
		 M112.676,300.454c-8.243-2.593-7.241-10.663-7.789-17.806c0.151,0.154,0.284,0.326,0.454,0.481
		c5.067,4.808,16.24,6.061,23.027,6.937c9.736,1.253,19.227,1.391,28.793-0.756c4.726-1.065,9.869-2.455,13.177-5.529
		c0.019,3.52,0.662,7.229,0.435,10.302c-0.87,11.676-20.361,10.663-29.625,10.611C131.884,304.643,121.429,303.201,112.676,300.454z
		 M234.768,470.339c-17.998,3.692-36.923,4.722-55.299,5.786c-34.559,1.992-68.627,0.481-103.036-3.194
		c-9.472-1.013-19.057-2.078-28.169-4.739c-14.52-4.241-3.119-19.386,1.663-26.426c9.283-13.702,18.774-27.628,30.23-39.973
		c4.707-5.082,9.49-10.096,14.311-15.093c0.7-0.67,1.361-1.408,1.985-2.095c0.416-0.429,0.794-0.859,1.21-1.271
		c3.195-3.297,6.542-6.473,9.812-9.684c0.189-0.206,0.643-0.652,1.191-1.236c1.909-1.889,3.838-3.778,5.861-5.563
		c0.624-0.532,1.682-1.236,2.231-2.06c0.435-0.103,0.794-0.412,0.832-0.962c0.889-10.766-0.926-21.601-0.17-32.418
		c0.624-8.929,0.737-18.098-0.378-27.009c7.336,1.717,15.767,1.957,22.252,2.473c5.634,0.446,11.514,0.034,17.091-0.687
		c0.662-0.086,1.399-0.172,2.155-0.275c-1.04,1.356-0.586,11.487-0.624,12.723c-0.114,5.374,0.189,10.8,0.302,16.175
		c0.189,8.929,0.416,18.218,1.702,27.078c0.075,0.515,0.416,0.841,0.87,0.962v0.017c0.057,0.069,0.113,0.137,0.189,0.206
		c11.419,11.006,23.292,21.635,34.919,32.487c10.89,10.165,20.229,21.086,29.606,32.401c5.539,6.662,10.871,13.479,15.729,20.57
		c2.817,4.087,5.747,8.414,6.05,13.342C247.643,468.176,239.986,469.275,234.768,470.339z"/>
	<path fill="#39B54A" d="M237.926,456.517c0-0.069-0.019-0.154-0.019-0.24c0-0.017-0.019-0.017-0.019-0.034
		c-5.35-15.101-37.254-47.511-45.052-54.863c-12.807-12.075-16.146-14.294-20.324-14.809c-10.663-1.357-20.188,0.684-30.958,0.269
		c-10.338-0.398-21.89,0.122-32.37-0.222c-15.858-0.52-63.854,62.115-60.92,72.132c1.327,4.53,8.715,6.336,12.742,7.143
		c8.205,1.666,16.731,2.644,25.107,3.228c15.37,1.099,30.835,1.82,46.205,2.129c16.694,0.361,80.368,0.042,100.408-8.001
		C236.834,461.599,238.19,459.264,237.926,456.517z"/>
	<g>
		<path fill="#FFFFFF" d="M103.012,439.064c-2.17-0.043-4.216,1.316-5.258,2.97c-0.048,0.075-0.076,0.151-0.119,0.226
			c-1.901,2.615-1.079,6.576,1.652,8.709c4.078,3.187,10.366,1.541,11.984-3.081C112.959,443.065,107.849,439.16,103.012,439.064z
			 M101.745,449.274c-2.153-1.092-2.787-3.486-2.161-5.533c0.644-1.222,1.776-2.188,3.36-2.248c3.032-0.113,5.484,2.039,5.492,4.759
			C108.448,449.358,104.319,450.579,101.745,449.274z"/>
		<path fill="#FFFFFF" d="M177.349,416.473c-2.263-1.267-4.982-1.074-7.101,0.044c-3.917,1.275-5.437,6.709-3.888,10.079
			c1.979,4.306,8.965,4.503,12.391,1.529C182.349,424.999,181.438,418.762,177.349,416.473z M176.538,426.011
			c-1.516,1.667-5.993,1.83-7.321-0.072c-1.383-1.982-0.802-5.271,1.005-7.19c1.741-0.85,3.93-0.981,5.607-0.045
			C178.433,420.156,178.342,424.03,176.538,426.011z"/>
		<path fill="#FFFFFF" d="M140.509,422.54c-0.642-0.935-2.314-2.546-3.644-2.564c-1.738-0.027-3.332,0.111-4.451,1.494
			c-0.669,0.827-0.855,1.64-0.744,2.467c-0.362,1.106-0.253,2.112,0.747,3.082c2.25,2.176,6.576,2.062,8.231-0.633
			C141.384,425.189,141.291,423.682,140.509,422.54z M138.332,425.082c-0.46,1.416-2.628,1.039-3.632,0.532
			c-0.822-0.416-0.73-0.868-0.606-1.604c0.075-0.435,0.243-1.033,0.545-1.473c0.532-0.295,1.165-0.261,1.808-0.242
			c0.497,0.016,1.121,0.791,1.435,1.076C138.461,423.894,138.558,424.389,138.332,425.082z"/>
		<path fill="#FFFFFF" d="M102.176,423.15c-1.319-1.016-2.936-0.905-3.846,0.055c-1.515,0.67-1.897,2.676-1.076,3.956
			c1.112,1.729,3.665,1.714,5.192,0.54C103.991,426.518,103.591,424.238,102.176,423.15z M100.88,426.207
			c-0.465,0.478-1.213,0.361-1.69-0.019c-0.383-0.303-0.345-0.802-0.159-1.262c0.461-0.437,0.848-0.798,1.571-0.439
			C101.284,424.827,101.367,425.706,100.88,426.207z"/>
		<path fill="#FFFFFF" d="M161.854,446.508c-3.221-1.012-6.359,0.661-7.46,3.205c-1.081,1.543-1.405,3.527-0.45,5.29
			c2.012,3.706,7.519,4.736,10.716,1.636C168.044,453.358,166.554,447.986,161.854,446.508z M162.812,454.54
			c-1.412,2.223-4.885,1.643-6.277-0.214c-0.97-1.294-0.703-2.952,0.19-4.245c0.646-0.615,1.449-1.079,2.563-1.309
			c1.652-0.341,3.192,0.869,3.967,2.074C164.071,452.113,163.548,453.379,162.812,454.54z"/>
		<path fill="#FFFFFF" d="M204.341,450.675c-1.345-1.464-3.208-1.727-4.806-1.099c-1.512-0.046-3.15,1.694-3.295,2.945
			c-0.295,2.578,2.392,4.467,5.078,4.283C204.39,456.591,206.383,452.894,204.341,450.675z M201.043,454.641
			c-1.133,0.078-2.407-0.658-2.439-1.744c-0.011-0.38,0.172-0.749,0.429-1.076c0.685-0.266,1.374-0.505,2.13-0.496
			C203.297,451.344,203.053,454.497,201.043,454.641z"/>
		<path fill="#FFFFFF" d="M163.381,399.701c-0.29-0.803-1.242-1.859-2.173-2.085c-1.05-0.255-1.801-0.024-2.574,0.414
			c-1.342-0.125-2.356,0.855-2.549,2.356c-0.286,2.229,2.313,3.255,4.353,3.123C162.575,403.371,164.07,401.595,163.381,399.701z
			 M160.471,401.218c-0.61,0.184-1.455,0.078-1.939-0.309c-0.686-0.55,0.094-1.224,0.745-1.403c0.594-0.034,1.159,0.031,1.531,0.548
			C161.13,400.502,161.115,401.023,160.471,401.218z"/>
		<path fill="#FFFFFF" d="M127.172,394.486c-1.6-0.571-3.487,0.168-4.68,1.092c-0.589,0.455-0.807,1.05-0.818,1.674
			c-0.892,1.415-0.465,3.309,0.926,4.855c2.32,2.581,6.319,1.784,8.368-0.549C133.378,398.812,129.852,395.442,127.172,394.486z
			 M128.727,399.787c-0.334,1.471-2.735,1.612-3.831,1.042c-0.715-0.372-1.197-1.009-1.361-1.678c0.04-0.058,0.104-0.098,0.12-0.169
			c0.264-1.285,0.397-2.275,2.181-2.244C127.277,396.761,129.039,398.42,128.727,399.787z"/>
	</g>
	<path fill="#39B54A" d="M153.916,375.161c-0.533-0.791-1.974-1.57-3.005-1.605c-1.147-0.037-1.747,0.479-2.358,1.257
		c-1.06,0.639-1.71,1.629-1.118,2.978c0.775,1.761,3.05,2.664,4.986,1.988C154.664,378.996,155.115,376.94,153.916,375.161z
		 M151.263,377.812c-0.664,0.214-1.402-0.301-1.722-0.777c-0.358-0.53,0.043-1.007,0.525-1.364c0.556-0.044,1.021,0.072,1.661,0.455
		C152.696,376.706,152.041,377.563,151.263,377.812z"/>
	<path fill="#39B54A" d="M139.464,354.365c-1.935-0.799-4.063-0.451-5.772,0.639c-0.934,0.593-1.378,1.281-1.573,2.058
		c-1.001,1.456-1.239,3.446-0.358,5.004c2.019,3.567,7.145,4.653,10.372,1.643C145.302,360.755,143.151,355.887,139.464,354.365z
		 M140.574,361.239c-0.95,2.654-4.885,1.914-6.213,0.101c-1.543-2.105-0.266-4.589,2.42-4.874c0.231-0.025,0.326-0.15,0.368-0.295
		c1.167-0.093,2.258,0.837,2.959,1.527C141.046,358.622,140.965,360.149,140.574,361.239z"/>
	<path fill="#39B54A" d="M142.305,336.21c-1.388-0.874-3.606-0.465-4.023,1.04c-0.668,0.77-0.649,1.898,0.208,2.797
		c1.155,1.218,3.649,1.34,4.722-0.009C144.255,338.724,143.688,337.081,142.305,336.21z M141.691,338.685
		c-0.236,0.891-2.506,0.285-2.107-0.749c0.393-0.307,0.746-0.491,1.367-0.344C141.506,337.723,141.825,338.186,141.691,338.685z"/>
	<path fill="#39B54A" d="M135.199,315.425c-0.846-1.021-1.93-1.159-3.26-1.161c-1.21,0.001-2.34,0.19-3.091,1.107
		c-0.435,0.531-0.435,1.124-0.261,1.691c-0.387,0.951-0.128,2.095,0.947,2.921c2.036,1.565,5.061,0.902,6.253-1.174
		C136.413,317.717,135.969,316.354,135.199,315.425z M133.611,317.953c-0.869,1.537-3.033,0.842-3.319-0.275
		c-0.007-0.253,0.018-0.48,0.072-0.683c0.102-0.218,0.288-0.436,0.57-0.65c0.165-0.066,0.344-0.121,0.602-0.128
		c0.423-0.01,0.893-0.006,1.314,0.059C133.544,316.381,133.897,317.445,133.611,317.953z"/>
</g>
<path d="M553.483,450.051c-2.097-1.483-10.192-5.676-24.283-12.574c-14.095-6.901-21.975-10.39-23.637-10.469
	c-3.454-0.165-6.345,0.973-8.671,3.418c-1.241,1.434-1.908,2.943-2.002,4.536c-0.151,2.546,1.115,5.003,3.802,7.366l11.157,6.601
	c-43.748-0.609-68.664-0.745-74.82-0.397c-0.633-1.163-1.273-2.322-1.851-3.527l-7.064-12.612c-2.238-4.821-5.323-7.273-9.259-7.361
	c-1.384-0.031-2.668,0.206-3.851,0.71c-3.218,1.165-4.861,3.293-4.93,6.382c-0.022,0.973,0.472,2.573,1.488,4.804l6.277,12.198
	l-5.43,0.012c-4.713-8.32-8.632-13.974-11.759-16.958c-1.675-1.363-3.684-2.068-6.022-2.12c-1.493-0.033-2.879,0.245-4.171,0.833
	c-2.585,1.268-4.008,3.091-4.273,5.471c-0.049,2.207,1.527,5.422,4.736,9.644c1.136,1.44,2.059,3.049,2.766,4.832
	c-2.453,0.211-4.746,0.338-6.873,0.378l-6.644-10.085c-0.621-0.809-1.623-2.466-3.003-4.97c-1.382-2.504-4.042-3.8-7.98-3.887
	c-1.17-0.026-2.292,0.127-3.363,0.456c-3.007,1.17-4.701,3.164-5.084,5.981c-0.061,2.737,1.77,6.62,5.491,11.65l1.39,2.15
	c-4.402,1.583-6.637,3.96-6.707,7.141c-0.047,2.118,0.741,3.75,2.368,4.888c1.623,1.142,3.387,2.087,5.285,2.836l-2.984,4.967
	c-3.744,5.572-5.637,9.329-5.681,11.269c-0.063,2.826,1.381,4.934,4.331,6.325c1.266,0.556,2.538,0.849,3.813,0.878
	c3.298,0.073,6.1-1.364,8.402-4.316c1.752-2.348,3.629-5.264,5.622-8.753l7.449-11.76l4.472-0.034
	c-5.24,10.572-8.03,16.431-8.375,17.568c-0.088,3.973,1.821,6.58,5.733,7.812c0.635,0.192,1.536,0.299,2.709,0.325
	c6.168,0.137,12.27-8.514,18.303-25.96l5.27-0.016l-1.519,3.676c-4.236,8.476-6.371,13.553-6.408,15.228
	c-0.075,3.356,1.737,5.65,5.436,6.878c0.738,0.282,1.693,0.435,2.866,0.461c4.362,0.097,7.834-2.916,10.42-9.042l8.835-17.333
	c0.695,0.092,1.403,0.172,2.17,0.209c1.609,0.077,12.004-0.123,31.155-0.6l6.14,0.115c2.424,0.054,4.482-0.104,6.249-0.43
	c8.878-0.23,19.096-0.501,30.676-0.816c-5.633,4.098-9.127,6.749-10.481,7.963c-2.963,2.308-4.515,4.736-4.665,7.282
	c-0.108,1.808,0.617,3.597,2.182,5.374c2.062,2.016,4.437,3.085,7.126,3.213c2.686,0.128,5.623-0.688,8.806-2.454
	c10.17-7.072,20.983-12.945,32.421-17.617c6.835-2.76,10.375-6.104,10.607-10.032C557.816,454.889,556.427,452.324,553.483,450.051z
	"/>
<g>
</g>
<g>
</g>
<g>
</g>
<g>
</g>
<g>
</g>
<g>
</g>
</svg>
