<?xml version="1.0" encoding="iso-8859-1"?>
<!-- Generator: Adobe Illustrator 21.0.0, SVG Export Plug-In . SVG Version: 6.00 Build 0)  -->
<svg version="1.1" id="Layer_1" xmlns="http://www.w3.org/2000/svg" xmlns:xlink="http://www.w3.org/1999/xlink" x="0px" y="0px"
	 width="612px" height="792px" viewBox="0 0 612 792" enable-background="new 0 0 612 792" xml:space="preserve">
<g>
	<path fill="#FFF200" d="M47.631,339.79l505.412-3.237l-6.133-215.812c0,0-2.679-33.768-41.295-33.768s-267.627-7.961-349.855,5.514
		c-26.96,4.418-5.452,112.579-28.621,113.448c0,0-84.954,19.56-80.411,74.763L47.631,339.79z"/>
	<ellipse cx="173.547" cy="339.704" rx="35.447" ry="33.915"/>
	<ellipse cx="469.668" cy="339.898" rx="35.447" ry="33.915"/>
	<path fill="#6BC7BC" d="M228.909,206.093h53.656c4.871,0,8.863-4.889,9.022-11.048l1.861-72.226
		c0.166-6.45-3.921-11.793-9.022-11.793h-52.725c-4.814,0-8.78,4.779-9.016,10.862l-2.792,72.226
		C219.641,200.634,223.75,206.093,228.909,206.093z"/>
	<path fill="#6BC7BC" d="M132.288,203.295c0.47,0.062,0.932,0.151,1.419,0.151h66.348c6.023,0,10.96-4.889,11.156-11.048
		l2.302-72.226c0.205-6.45-4.849-11.793-11.156-11.793h-58.376C137.027,135.986,143.329,190.731,132.288,203.295z"/>
	<path fill="#6BC7BC" d="M309.286,206.093h53.656c4.871,0,8.863-4.889,9.022-11.048l1.862-72.226
		c0.166-6.45-3.921-11.793-9.022-11.793h-52.725c-4.814,0-8.78,4.779-9.016,10.862l-2.792,72.226
		C300.018,200.634,304.127,206.093,309.286,206.093z"/>
	<path fill="#6BC7BC" d="M389.916,206.093h53.656c4.871,0,8.863-4.889,9.022-11.048l1.862-72.226
		c0.166-6.45-3.921-11.793-9.022-11.793h-52.725c-4.814,0-8.78,4.779-9.016,10.862l-2.792,72.226
		C380.649,200.634,384.758,206.093,389.916,206.093z"/>
	<path fill="#6BC7BC" d="M472.421,206.093h53.656c4.871,0,8.863-4.889,9.022-11.048l1.862-72.226
		c0.166-6.45-3.921-11.793-9.022-11.793h-52.725c-4.814,0-8.78,4.779-9.016,10.862l-2.792,72.226
		C463.154,200.634,467.263,206.093,472.421,206.093z"/>
	<rect x="157.578" y="243.317" width="371.913" height="11.301"/>
	<rect x="157.578" y="284.597" width="374.008" height="11.301"/>
	<polygon fill="#ED1C24" points="207.999,304.147 184.835,268.581 207.999,233.015 254.326,233.015 277.489,268.581 
		254.326,304.147 	"/>
	<g>
		<path fill="#FFFFFF" d="M199.312,273.315c1.174,0.553,2.978,1.105,4.84,1.105c2.005,0,3.065-0.763,3.065-1.92
			c0-1.104-0.916-1.736-3.236-2.498c-3.208-1.025-5.298-2.656-5.298-5.233c0-3.024,2.749-5.339,7.302-5.339
			c2.177,0,3.781,0.421,4.926,0.894l-0.973,3.235c-0.773-0.342-2.148-0.842-4.038-0.842c-1.89,0-2.806,0.789-2.806,1.709
			c0,1.131,1.088,1.631,3.579,2.498c3.409,1.157,5.013,2.788,5.013,5.286c0,2.972-2.492,5.496-7.79,5.496
			c-2.205,0-4.382-0.527-5.47-1.079L199.312,273.315z"/>
		<path fill="#FFFFFF" d="M218.36,263.085h-5.184v-3.366h14.836v3.366h-5.271v14.359h-4.381V263.085z"/>
		<path fill="#FFFFFF" d="M247.172,268.396c0,5.812-3.839,9.337-9.481,9.337c-5.727,0-9.078-3.972-9.078-9.021
			c0-5.312,3.695-9.283,9.395-9.283C243.936,259.429,247.172,263.506,247.172,268.396z M233.223,268.634
			c0,3.471,1.776,5.917,4.697,5.917c2.951,0,4.64-2.577,4.64-6.022c0-3.183-1.662-5.917-4.668-5.917
			C234.942,262.612,233.223,265.189,233.223,268.634z"/>
		<path fill="#FFFFFF" d="M250.038,259.955c1.346-0.21,3.236-0.367,5.9-0.367c2.693,0,4.611,0.473,5.9,1.42
			c1.232,0.894,2.063,2.367,2.063,4.103s-0.631,3.208-1.776,4.208c-1.489,1.289-3.693,1.867-6.271,1.867
			c-0.574,0-1.088-0.026-1.491-0.079v6.338h-4.324V259.955z M254.362,268.003c0.373,0.079,0.831,0.105,1.462,0.105
			c2.32,0,3.752-1.079,3.752-2.893c0-1.631-1.232-2.603-3.409-2.603c-0.888,0-1.489,0.079-1.805,0.157V268.003z"/>
	</g>
	<g>
		<path d="M201.562,188.469c-0.059,2.407-0.152,5.009-0.27,7.81c-0.063,0.606-0.666,0.973-1.812,1.095
			c-0.544,0-1.106-0.015-1.679-0.044c-0.573-0.031-1.161-0.078-1.768-0.137h-1.087c-0.784,0-1.298,0.03-1.538,0.091
			c-0.544-0.061-1.013-0.107-1.405-0.137c-0.392-0.031-0.651-0.046-0.769-0.046l-1.087,0.092c-0.906,0-1.694-0.031-2.359-0.092
			c-0.662-0.061-1.298-0.198-1.901-0.41c-0.606-0.213-1.239-0.562-1.904-1.05c-0.666-0.486-1.45-1.187-2.355-2.1l-5.798-5.571
			l-0.544,0.364c-0.122,1.707-0.196,3.182-0.229,4.43c-0.03,1.248-0.074,2.298-0.133,3.15l-0.362,0.366H159.97l-1.812-0.275
			c-2.537-2.25-4.515-4.032-5.935-5.341c-1.42-1.309-2.282-2.147-2.581-2.513c-0.906-1.095-1.527-2.084-1.86-2.967
			c-0.333-0.882-0.495-1.81-0.495-2.784c0-0.732,0.03-1.492,0.089-2.283c0.059-0.791,0.092-1.705,0.092-2.74
			c0-28.92,0.181-48.006,0.544-57.262l0.544-0.547h1.538c5.68,0,10.317,0.044,13.911,0.137c3.594,0.091,6.234,0.198,7.928,0.32
			c9.725,0.852,16.914,3.378,21.565,7.579c4.652,4.203,6.978,10.352,6.978,18.448c0,5.177-2.296,9.773-6.885,13.791v0.091
			c0.906,2.315,2.082,4.293,3.535,5.937c0.843,1.035,1.553,2.01,2.126,2.923c0.573,0.913,1.043,1.949,1.405,3.104
			c0.362,1.157,0.621,2.527,0.773,4.11c0.148,1.584,0.226,3.531,0.226,5.844C201.655,183.858,201.621,186.066,201.562,188.469z
			 M185.662,124.633c-3.897-2.953-10.287-4.43-19.166-4.43c-0.362,0-0.847,0-1.45,0c-0.544,0-1.209,0.031-1.993,0.092
			c-3.143,0.122-5.787,0.214-7.932,0.274c-2.145,0.061-3.82,0.091-5.029,0.091l-0.725,0.183c-0.362,0.305-0.544,4.354-0.544,12.147
			v5.114c0,0.671,0,1.553,0,2.648c0,1.096,0.03,2.344,0.092,3.746v6.484c0,2.738-0.033,5.038-0.092,6.894
			c-0.059,1.858-0.137,3.456-0.226,4.794c-0.092,1.34-0.166,2.498-0.226,3.47c-0.063,0.974-0.092,1.949-0.092,2.923
			c0,1.585,0.044,3.028,0.137,4.337c0.089,1.311,0.196,2.481,0.318,3.517v1.37c0,1.766,0.089,3.775,0.27,6.027
			c0.059,0.547,1.39,0.821,3.986,0.821c1.272,0,2.614-0.03,4.034-0.091c1.42-0.059,2.733-0.091,3.942-0.091
			c2.052,0,3.321,0.122,3.805,0.364l1.087-0.64c0.059-0.669,0.092-1.307,0.092-1.917c0-0.608,0-1.217,0-1.827l0.181-19.543
			l0.451-0.732h1.631c4.593,0,6.889,3.441,6.889,10.32c0,0.305,0,0.671,0,1.096c0,0.364-0.033,0.791-0.092,1.278l-0.451,8.586
			c0,1.157,0.089,2.1,0.27,2.831l0.544,0.64h15.586c0.181-0.183,0.274-0.974,0.274-2.376c0-5.539-0.063-10.045-0.181-13.515
			c-0.122-3.47-0.396-6.225-0.817-8.265s-1.043-3.531-1.856-4.476c-0.817-0.943-1.89-1.658-3.217-2.147l-4.349-1.095l-0.544-0.457
			c0-0.305,0.843-0.64,2.537-1.006c5.798-1.156,8.697-5.691,8.697-13.608C191.504,132.199,189.555,127.587,185.662,124.633z
			 M172.113,146.232l-0.089,0.183c-0.303,0.061-0.577,0.107-0.817,0.137c-0.24,0.031-0.455,0.046-0.636,0.046h-3.531
			c-0.788,0-1.209-0.64-1.268-1.919c0,0.183,0.03,0.305,0.089,0.366v-4.657c-0.059-0.305-0.089-0.64-0.089-1.006v-0.821
			c0-2.13,0.211-3.197,0.632-3.197h4.622c0.059,0.061,0.303,0.153,0.725,0.274c1.934,0.671,2.899,2.74,2.899,6.21
			C174.65,144.527,173.803,145.989,172.113,146.232z"/>
		<path d="M281.787,189.701c-0.063,2.071-0.152,4.293-0.274,6.667l-0.544,0.823c-0.303,0.061-0.666,0.107-1.087,0.137
			c-0.425,0.031-0.939,0.046-1.542,0.046c-23.803,0-36.094-0.152-36.878-0.457c0.059,0-0.636-0.823-2.086-2.466l-2.174-2.557
			c-1.512-1.705-2.688-3.165-3.535-4.384c-0.847-1.217-1.268-2.039-1.268-2.466l0.092-31.69c0-11.202,0.133-19.528,0.407-24.978
			c0.27-5.447,0.618-8.265,1.043-8.448h11.053c0.544,0,1.209,0,1.997,0c0.843,0,1.812-0.03,2.899-0.091h4.8h5.166
			c0.24,0,0.876,0.031,1.904,0.091c1.024,0.063,2.159,0.107,3.398,0.139c1.235,0.03,2.478,0.061,3.716,0.091
			c1.235,0.031,2.219,0.046,2.943,0.046c3.139,3.348,5.421,5.935,6.841,7.762c1.42,1.827,2.433,3.258,3.036,4.293v1.187
			c0,7.793-0.211,12.238-0.636,13.334l-0.632,0.638l-12.413-0.274c-1.028,0-2.355,0.092-3.986,0.274l-0.092,0.183
			c1.268,1.401,2.385,2.603,3.354,3.607c0.965,1.006,1.797,1.843,2.492,2.513c0.691,0.669,1.268,1.233,1.719,1.688
			c0.455,0.457,0.802,0.869,1.043,1.233l-0.092,8.677c0,2.557,1.572,5.632,4.715,9.224c3.139,3.592,4.711,6.728,4.711,9.407
			C281.875,185.714,281.846,187.632,281.787,189.701z M271.318,170.842c-0.27-0.457-1.043-0.684-2.311-0.684h-0.632
			c-1.753,0.183-4.123,0.259-7.115,0.227c-2.991-0.03-6.601,0.046-10.827,0.229l-0.906-1.006v-0.547c0-0.183,0-0.425,0-0.73
			c0-0.303,0.03-0.699,0.089-1.187l0.362-5.846c0.059-0.486,0.092-0.88,0.092-1.187c0-0.364,0-0.669,0-0.913l0.27-0.457
			c3.746-0.303,6.434-0.457,8.065-0.457s2.596-0.091,2.899-0.274c0.303-0.486,0.455-3.134,0.455-7.945v-2.283
			c0-0.486-0.303-0.823-0.906-1.004c-1.934-0.122-3.716-0.229-5.347-0.32c-1.631-0.092-3.143-0.137-4.53-0.137l-0.636-1.279
			l0.274-8.675c0.362-0.366,1.69-0.549,3.986-0.549h4.26c0.362,0,0.843,0.017,1.45,0.046c0.603,0.031,1.235,0.046,1.901,0.046
			c0.666,0,1.316,0.015,1.949,0.044c0.636,0.031,1.135,0.046,1.498,0.046h1.176c0.847,0,1.572-0.015,2.174-0.046
			c0.603-0.03,1.117-0.076,1.542-0.137c0.843-0.852,1.268-4.23,1.268-10.137v-0.913c-0.063-0.303-0.092-0.606-0.092-0.913
			l-0.181-2.008c-0.484-0.242-1.479-0.425-2.988-0.549c-1.512-0.12-3.957-0.181-7.34-0.181l-22.653-0.183
			c-0.362,0-0.924,0.044-1.679,0.137c-0.754,0.091-1.313,0.137-1.675,0.137l-0.636,0.73c-0.362,1.401-0.677,3.456-0.95,6.164
			c-0.274,2.71-0.407,6.044-0.407,10.001l0.089,8.858c0,0.488,0.015,1.538,0.044,3.152c0.033,1.612,0.063,3.424,0.092,5.434
			c0.03,2.008,0.059,4.003,0.089,5.981c0.033,1.978,0.048,3.548,0.048,4.704v10.228c0,5.055,0.3,7.915,0.906,8.584
			c1.205,0.244,2.492,0.412,3.849,0.503c1.361,0.091,2.733,0.168,4.123,0.227c0.24,0,0.695,0,1.361,0
			c0.662,0,1.568-0.03,2.718-0.091l12.595-0.366h11.6l0.725-0.547c0.181-5.722,0.27-9.588,0.27-11.598
			C271.725,172.075,271.592,171.299,271.318,170.842z"/>
		<path d="M362.104,197.374h-1.634c-11.175,0-16.973-0.183-17.398-0.549c-0.24-0.12-1.176-1.056-2.807-2.808
			c-1.631-1.751-3.986-4.317-7.07-7.701c-0.122,0-0.27,0.333-0.451,0.997c-1.028,6.099-1.753,9.18-2.174,9.239h-13.955
			c-1.028-0.547-4.289-4.14-9.788-10.777v-0.821c0-0.73,0.107-1.993,0.318-3.79c0.211-1.795,0.484-3.866,0.817-6.21
			c0.329-2.343,0.71-4.84,1.132-7.488c0.422-2.649,0.847-5.19,1.268-7.627c0.422-2.435,0.799-4.657,1.132-6.667
			c0.333-2.008,0.592-3.561,0.773-4.657c0.422-2.74,0.754-5.068,0.995-6.987c0.24-1.917,0.44-3.576,0.592-4.977
			c0.148-1.4,0.255-2.557,0.314-3.47c0.059-0.913,0.181-1.734,0.362-2.465c0.422-2.193,0.773-4.11,1.043-5.754
			c0.274-1.644,0.529-3.014,0.769-4.11l0.998-1.004c1.028-0.122,2.008-0.229,2.943-0.32c0.939-0.092,1.89-0.137,2.855-0.137
			l9.426-0.092c2.052-0.059,3.957,0.534,5.709,1.78c1.749,1.25,3.502,3.152,5.255,5.709l3.08,4.474
			c2.659,3.958,4.23,5.998,4.711,6.118c4.652,19.545,8.642,39.211,11.962,58.998L362.104,197.374z M350.142,184.313
			c0-0.425-0.137-1.49-0.407-3.197c-0.274-1.703-0.714-4.079-1.316-7.124l-7.429-36.621c-0.666-3.287-1.268-6.164-1.812-8.631
			s-0.998-4.55-1.361-6.257l-0.181-0.913l-0.632-0.638c-2.296-0.425-7.643-0.64-16.041-0.64c-1.268,0-2.326,0.244-3.169,0.73
			c-0.728,0.913-2.6,11.265-5.621,31.052c-0.422,2.862-0.891,5.798-1.405,8.812c-0.514,3.014-0.98,5.937-1.401,8.767
			c-0.425,2.831-0.773,5.512-1.043,8.037c-0.274,2.527-0.41,4.735-0.41,6.621l0.274,0.547l1.542,0.183l11.145-0.183
			c0.118-0.059,0.285-0.516,0.495-1.37c0.214-0.85,0.44-1.78,0.68-2.784c0.24-1.004,0.544-2.33,0.906-3.973l8.065-0.183
			c1.028,0,1.69,0.244,1.993,0.732c0.24,0.364,0.725,2.862,1.45,7.488l0.91,0.64c0.662,0,1.631,0.015,2.899,0.044
			c1.268,0.031,2.233,0.046,2.899,0.046h8.427c0.24,0,0.422-0.076,0.544-0.227V184.313z M329.302,163.674l-4.715-0.183l-0.181-0.457
			l0.274-1.917c0.3-2.679,0.558-4.916,0.769-6.713c0.211-1.795,0.392-3.241,0.544-4.337s0.259-1.917,0.318-2.466
			c0.059-0.547,0.092-0.913,0.092-1.096l0.27-0.181c0.362,0.244,0.573,0.762,0.636,1.551c0.3,1.644,0.555,3.077,0.769,4.293
			c0.211,1.218,0.436,2.254,0.68,3.104l0.906,4.476c0.118,0.73,0.211,1.37,0.27,1.917c0.059,0.547,0.092,0.974,0.092,1.279
			C330.026,163.43,329.782,163.674,329.302,163.674z"/>
		<path d="M445.086,179.064c-1.239,4.171-3.173,7.61-5.802,10.319c-2.625,2.71-5.95,4.72-9.965,6.027
			c-4.019,1.311-8.834,1.964-14.455,1.964l-16.13-0.547c-0.603-0.242-2.263-1.917-4.985-5.023c-1.209-1.339-2.159-2.404-2.851-3.197
			c-0.695-0.789-1.224-1.429-1.586-1.917c-0.362-0.486-0.606-0.928-0.725-1.324c-0.122-0.396-0.181-0.899-0.181-1.507v-0.274
			c0.059-0.366,0.089-0.852,0.089-1.462c0-0.606,0-1.339,0-2.191c0-28.068,0.274-48.006,0.817-59.819l0.27-0.274
			c0.303,0.061,0.603,0.091,0.906,0.091s0.603,0,0.906,0h2.086c0.603,0,1.542-0.015,2.81-0.046c1.268-0.03,2.596-0.044,3.986-0.044
			c1.45,0,2.792-0.015,4.031-0.046c1.239-0.03,2.189-0.046,2.855-0.046c7.795,0,12.927,0.457,15.405,1.37
			c6.464,2.376,12.203,8.008,17.217,16.895c4.77,8.464,7.159,17.171,7.159,26.119C446.942,169.916,446.321,174.893,445.086,179.064z
			 M430.495,129.747c-3.472-5.874-8.834-8.78-16.082-8.721l-23.562,0.183c-0.603,0.244-0.906,3.47-0.906,9.681
			c0,0.73,0.015,1.812,0.044,3.241c0.033,1.431,0.048,2.938,0.048,4.521c0,1.523,0.015,3.001,0.044,4.43
			c0.03,1.431,0.044,2.511,0.044,3.241c0,1.951,0,3.927,0,5.937s-0.03,4.049-0.089,6.12l-0.455,26.027v-0.091l0.725,0.73
			c1.209,0.122,2.477,0.214,3.805,0.274c1.331,0.061,2.722,0.092,4.171,0.092h20.116c5.979,0,10.361-2.239,13.138-6.713
			c2.777-4.474,4.167-11.461,4.167-20.959C435.705,144.952,433.971,135.623,430.495,129.747z M417.401,164.726
			c-0.122,1.492-0.377,2.648-0.769,3.47c-0.392,0.821-0.984,1.37-1.768,1.644c-0.784,0.274-1.841,0.41-3.173,0.41
			c-2.718,0-4.319-0.242-4.8-0.73l-0.181-12.238c-0.063-0.974-0.092-1.917-0.092-2.831s0-1.827,0-2.74v-4.84
			c0-1.462,0.03-2.877,0.092-4.247c0.059-1.37,0.166-2.572,0.314-3.607c0.152-1.035,0.318-1.873,0.499-2.513
			c0.181-0.638,0.422-0.958,0.725-0.958h2.086c1.45,0,2.64,0.122,3.579,0.364c0.936,0.244,1.675,0.686,2.219,1.326
			c0.544,0.638,0.921,1.492,1.135,2.557c0.211,1.065,0.314,2.42,0.314,4.064v15.068C417.582,161.3,417.523,163.234,417.401,164.726z
			"/>
		<path d="M521.115,146.415l-3.805,10.137c-0.544,1.401-0.95,2.465-1.224,3.197c-0.27,0.73-0.451,1.385-0.544,1.964
			c-0.089,0.579-0.133,1.231-0.133,1.964c0,0.669,0,1.734,0,3.195c0,0.671,0.011,1.523,0.044,2.557
			c0.03,1.037,0.074,2.283,0.137,3.746l0.362,9.498c0.059,1.888,0.104,3.441,0.133,4.657c0.03,1.218,0.048,2.071,0.048,2.557
			l-0.181,6.575c-1.15,0.61-4.323,0.913-9.514,0.913h-2.722c-0.24,0-0.603,0-1.087,0c-0.484,0-1.117-0.031-1.901-0.091l-4.715-0.183
			c-4.833-3.653-7.732-7.397-8.697-11.232c-0.606-2.193-0.906-7.002-0.906-14.431c0-8.037-0.152-12.571-0.455-13.608
			c-8.335-24.657-12.502-37.017-12.502-37.078c0-0.486,0.148-0.791,0.451-0.913h13.501c0.122,0.061,0.362,0.107,0.725,0.137
			c0.366,0.031,0.773,0.061,1.224,0.091c0.455,0.031,0.891,0.061,1.316,0.092c0.422,0.031,0.754,0.044,0.995,0.044
			c2.233,2.254,3.897,4.064,4.985,5.434c1.087,1.37,1.782,2.178,2.086,2.42c-0.122,0.124,0.329-1.126,1.357-3.744
			c0.965-2.616,1.542-3.927,1.723-3.927h8.971l6.434,0.549c0.299,0.305,0.618,0.625,0.95,0.958c0.333,0.336,0.68,0.717,1.043,1.143
			c2.958,4.14,5.133,7.246,6.523,9.315v0.913C525.738,133.935,524.199,138.318,521.115,146.415z M516.404,121.392H502.36
			l-0.455,0.274c-1.028,4.262-1.886,7.58-2.581,9.954c-0.695,2.374-1.376,4.079-2.037,5.114l-0.274,0.366
			c-1.209-2.923-2.16-5.404-2.855-7.444c-0.695-2.039-1.268-3.683-1.723-4.933c-0.451-1.246-0.784-2.16-0.995-2.738
			c-0.211-0.579-0.407-0.928-0.588-1.05c-5.258-0.183-8.52-0.275-9.788-0.275h-4.53c-1.209,0-1.812,0.153-1.812,0.457v0.092
			c0.3,1.461,1.054,3.912,2.263,7.351c1.209,3.441,2.869,7.934,4.985,13.48c3.383,8.845,5.073,15.83,5.073,20.953
			c0,14.395,0.244,22.172,0.725,23.331c1.331,0.061,2.751,0.105,4.26,0.137c1.509,0.031,3.139,0.044,4.896,0.044l7.518-0.547
			c0.181-0.73,0.274-2.378,0.274-4.94c0-0.488,0-1.098,0-1.83c0-0.73-0.03-1.616-0.092-2.653l-0.451-15.189v0.091
			c0-4.025,2.052-10.796,6.16-20.31c4.108-9.505,6.164-15.9,6.164-19.188L516.404,121.392z"/>
	</g>
	<g>
		<path fill="#ED1C24" d="M128.262,394.26v1.986c-0.445,0.449-1.208,1.409-2.416,2.819c-1.017,1.217-1.843,2.114-2.542,2.819
			c-2.098,2.05-4.195,3.203-6.356,3.524c-4.513,0.32-9.788,0.128-15.954-0.641l-0.318,8.007c3.432,17.681,4.64,31.518,3.686,41.511
			c-0.318,18.258-0.508,27.803-0.699,28.635c-0.953,4.1-2.67,6.983-5.212,8.649c-3.623,0.833-7.119,0.833-10.36,0.064
			c-3.813-0.897-6.61-2.755-8.326-5.638c-2.161-4.421-3.051-8.521-2.733-12.3c-0.064,0.32-0.064-13.069,0.127-40.294
			c0.318-6.086,0.636-16.015,0.89-29.853c-2.606-0.449-6.102-0.832-10.424-1.281c-5.403-0.449-8.899-0.833-10.488-1.025
			c-1.335-0.128-1.843-4.42-1.398-12.812c17.288-4.036,28.729-5.83,34.386-5.445l14.237,1.153
			c5.721,0.449,10.424,0.961,14.174,1.537c1.779-0.064,3.559,0.705,5.339,2.307c0.508,0.448,1.271,1.217,2.225,2.242
			c0.89,0.961,1.589,1.665,2.098,2.114C128.198,392.659,128.198,393.299,128.262,394.26z"/>
		<path fill="#ED1C24" d="M190.42,395.99c0.381,0.961,0.89,2.627,1.589,4.869c0.699,2.114,1.207,3.715,1.653,4.805
			c1.462,6.214,2.288,14.414,2.415,24.599c0.127,12.94,0.381,21.204,0.762,24.727c0.954,11.852-2.288,21.845-9.597,30.109
			c-1.97,2.114-4.958,3.652-8.898,4.612l-5.021,1.154c-2.098,0.448-3.75,0.833-4.958,1.217c-1.462-0.193-3.623-0.448-6.61-0.705
			c-3.051-0.192-5.275-0.448-6.737-0.705c-5.212-0.769-9.28-2.498-12.14-5.124c-3.814-3.78-6.611-7.752-8.39-12.044
			c-2.225-9.16-3.623-21.14-4.068-35.938c-0.064-4.997,0.572-12.172,1.907-21.461c1.335-9.673,3.75-16.656,7.246-20.883
			c3.496-4.292,10.297-7.88,20.53-10.891c10.233-3.011,18.496-1.922,24.788,3.332C187.114,389.52,188.958,392.274,190.42,395.99z
			 M153.746,432.889c1.589,16.335,3.623,30.429,6.102,42.345c1.843,1.729,3.75,2.946,5.721,3.587
			c2.479,0.769,4.513,0.449,6.229-0.896c2.606-6.278,4.322-11.275,5.085-15.054c0.572-4.485,0.381-10.25-0.572-17.297
			c-1.208-9.353-1.907-15.118-1.97-17.36c-0.445-14.221-0.827-23.446-1.271-27.61c-1.208-5.317-2.733-8.584-4.704-9.802
			l-14.746,5.445c-0.699,4.548-0.826,10.634-0.381,18.322C153.746,423.536,153.937,429.622,153.746,432.889z"/>
		<path fill="#ED1C24" d="M298.085,472.287c-0.318,0.705-1.144,2.947-2.352,6.726c-0.826,2.755-1.97,4.869-3.305,6.214
			c-1.335,1.857-3.496,3.203-6.483,3.907l-3.877,0.705c-1.589,0.321-2.796,0.641-3.75,0.961c-4.767,1.729-9.725,1.729-14.937,0
			c-5.021-1.666-9.216-4.485-12.458-8.521c-11.187-12.876-16.144-30.364-14.873-52.53c0.89-13.132,4.576-25.24,11.123-36.194
			c3.432-5.509,9.407-9.161,17.924-10.954c8.453-0.768,17.034,0.449,25.741,3.588l3.687,4.356c-1.399,1.601-3.75,2.499-7.055,2.819
			c-3.814,0.384-6.356,0.961-7.564,1.666c-5.402,2.499-9.788,8.84-13.157,19.026c-3.75,22.357-2.987,38.309,2.352,47.725
			c5.402,9.418,9.724,14.094,13.093,13.902c0.064-0.448,0.89-3.139,2.352-8.007c1.462-4.869,1.907-8.84,1.208-11.98
			c-2.034-1.024-4.704-1.538-7.945-1.538h-2.479c-0.318-6.79,0.127-10.569,1.208-11.403c3.432-1.665,7.055-2.498,10.869-2.562
			c4.004-0.064,7.627,0.769,10.741,2.499c1.844,0.832,2.988,2.306,3.56,4.484c0.445,1.922,0.381,3.908-0.255,5.83
			C301.581,452.812,300.501,459.218,298.085,472.287z M275.331,454.157v0.064C271.771,454.157,271.771,454.157,275.331,454.157z"/>
		<path fill="#ED1C24" d="M368.824,395.99c0.382,0.961,0.89,2.627,1.589,4.869c0.699,2.114,1.207,3.715,1.652,4.805
			c1.462,6.214,2.288,14.414,2.416,24.599c0.127,12.94,0.382,21.204,0.762,24.727c0.954,11.852-2.288,21.845-9.597,30.109
			c-1.97,2.114-4.958,3.652-8.898,4.612l-5.022,1.154c-2.097,0.448-3.749,0.833-4.958,1.217c-1.462-0.193-3.623-0.448-6.61-0.705
			c-3.051-0.192-5.276-0.448-6.738-0.705c-5.212-0.769-9.28-2.498-12.139-5.124c-3.813-3.78-6.611-7.752-8.39-12.044
			c-2.225-9.16-3.623-21.14-4.068-35.938c-0.064-4.997,0.572-12.172,1.907-21.461c1.335-9.673,3.75-16.656,7.246-20.883
			c3.496-4.292,10.297-7.88,20.529-10.891c10.234-3.011,18.497-1.922,24.789,3.332C365.519,389.52,367.362,392.274,368.824,395.99z
			 M332.151,432.889c1.589,16.335,3.623,30.429,6.102,42.345c1.842,1.729,3.749,2.946,5.72,3.587
			c2.479,0.769,4.513,0.449,6.229-0.896c2.606-6.278,4.322-11.275,5.085-15.054c0.572-4.485,0.381-10.25-0.572-17.297
			c-1.207-9.353-1.907-15.118-1.971-17.36c-0.445-14.221-0.826-23.446-1.27-27.61c-1.208-5.317-2.733-8.584-4.704-9.802
			l-14.745,5.445c-0.699,4.548-0.827,10.634-0.382,18.322C332.151,423.536,332.341,429.622,332.151,432.889z"/>
		<path fill="#ED1C24" d="M486.724,394.26v1.986c-0.445,0.449-1.208,1.409-2.416,2.819c-1.017,1.217-1.844,2.114-2.542,2.819
			c-2.098,2.05-4.195,3.203-6.356,3.524c-4.513,0.32-9.789,0.128-15.954-0.641l-0.318,8.007c3.433,17.681,4.64,31.518,3.686,41.511
			c-0.318,18.258-0.508,27.803-0.699,28.635c-0.953,4.1-2.669,6.983-5.211,8.649c-3.623,0.833-7.119,0.833-10.361,0.064
			c-3.813-0.897-6.61-2.755-8.326-5.638c-2.161-4.421-3.051-8.521-2.733-12.3c-0.063,0.32-0.063-13.069,0.127-40.294
			c0.318-6.086,0.635-16.015,0.89-29.853c-2.606-0.449-6.102-0.832-10.424-1.281c-5.402-0.449-8.898-0.833-10.487-1.025
			c-1.335-0.128-1.842-4.42-1.398-12.812c17.288-4.036,28.728-5.83,34.385-5.445l14.237,1.153
			c5.721,0.449,10.424,0.961,14.174,1.537c1.779-0.064,3.559,0.705,5.339,2.307c0.508,0.448,1.27,1.217,2.224,2.242
			c0.89,0.961,1.589,1.665,2.097,2.114C486.66,392.659,486.66,393.299,486.724,394.26z"/>
		<path fill="#ED1C24" d="M548.881,395.99c0.382,0.961,0.89,2.627,1.589,4.869c0.699,2.114,1.207,3.715,1.652,4.805
			c1.462,6.214,2.288,14.414,2.416,24.599c0.127,12.94,0.382,21.204,0.762,24.727c0.954,11.852-2.288,21.845-9.597,30.109
			c-1.97,2.114-4.958,3.652-8.898,4.612l-5.022,1.154c-2.097,0.448-3.75,0.833-4.958,1.217c-1.462-0.193-3.623-0.448-6.61-0.705
			c-3.051-0.192-5.276-0.448-6.738-0.705c-5.212-0.769-9.28-2.498-12.139-5.124c-3.814-3.78-6.611-7.752-8.39-12.044
			c-2.224-9.16-3.623-21.14-4.068-35.938c-0.063-4.997,0.572-12.172,1.907-21.461c1.335-9.673,3.75-16.656,7.246-20.883
			c3.496-4.292,10.297-7.88,20.529-10.891c10.234-3.011,18.497-1.922,24.789,3.332C545.576,389.52,547.419,392.274,548.881,395.99z
			 M512.207,432.889c1.588,16.335,3.622,30.429,6.102,42.345c1.843,1.729,3.749,2.946,5.72,3.587
			c2.479,0.769,4.513,0.449,6.229-0.896c2.606-6.278,4.322-11.275,5.085-15.054c0.572-4.485,0.381-10.25-0.572-17.297
			c-1.207-9.353-1.907-15.118-1.971-17.36c-0.445-14.221-0.826-23.446-1.27-27.61c-1.208-5.317-2.733-8.584-4.704-9.802
			l-14.745,5.445c-0.699,4.548-0.827,10.634-0.382,18.322C512.207,423.536,512.398,429.622,512.207,432.889z"/>
	</g>
	<g>
		<g>
			<path fill="#6BC7BC" d="M73.368,534.152v-26.63c4.794-3.935,10.666-6.727,17.617-8.375c6.951-1.646,14.22-2.51,21.811-2.591
				c1.118,0,2.236,0.021,3.356,0.061c1.118,0.041,2.236,0.06,3.356,0.06c1.118,0.081,2.235,0.161,3.356,0.241
				c1.117,0.081,2.235,0.202,3.355,0.361c8.069,0.804,14.261,4.299,18.575,10.484c4.314,6.187,6.472,12.974,6.472,20.365
				c0,0.241,0,0.503,0,0.783c0,0.282,0,0.584,0,0.905c-0.24,4.82-1.479,9.5-3.715,14.037c-2.238,4.539-5.554,8.296-9.947,11.268
				c-1.198,0.803-2.738,1.707-4.614,2.711c-1.878,1.005-3.895,2.03-6.052,3.072c-0.4,0.242-0.82,0.464-1.258,0.663
				c-0.44,0.202-0.899,0.422-1.378,0.663c-2.558,1.205-5.033,2.349-7.43,3.435c-2.397,1.084-4.314,1.988-5.752,2.711
				c-2.318,0.964-4.156,2.41-5.513,4.338c-1.359,1.928-2.037,4.298-2.037,7.109c0.24,0,0.48,0,0.719,0c0.24,0,0.519,0,0.839,0
				c3.434,0,6.43-0.461,8.988-1.386c2.556-0.923,4.074-4.277,4.554-10.062l30.2-0.121v32.294H72.409v-26.51
				c0-4.658,0.998-9.138,2.996-13.435c1.996-4.297,6.031-8.333,12.103-12.11c1.198-0.723,2.416-1.405,3.655-2.049
				c1.238-0.642,2.496-1.284,3.775-1.928c4.713-2.329,9.168-4.477,13.362-6.447c4.195-1.967,7.05-3.874,8.569-5.723
				c0.48-0.642,0.878-1.386,1.198-2.23c0.319-0.844,0.558-1.666,0.719-2.47c0-0.241,0-0.441,0-0.602c0-0.16,0-0.321,0-0.482
				c0-2.088-0.56-4.016-1.678-5.784c-1.12-1.766-2.797-2.651-5.033-2.651c-2.478,0-4.254,0.683-5.333,2.049
				c-1.079,1.367-1.738,2.852-1.978,4.458c-0.08,0.482-0.14,0.985-0.18,1.507c-0.041,0.523-0.06,1.023-0.06,1.506v6.507H73.368z"/>
			<path fill="#6BC7BC" d="M195.245,497.159l17.856,46.513v-18.074c0-0.242,0-0.522,0-0.844c0-0.321,0-0.643,0-0.965
				c0.079-1.606,0.019-3.133-0.18-4.579c-0.2-1.446-1.06-2.772-2.577-3.976v-18.075H243.3v17.954
				c-1.839,1.527-2.917,3.094-3.235,4.7c-0.32,1.607-0.48,3.575-0.48,5.904v74.831h-31.158l-19.893-46.514v16.147
				c0,2.41,0.159,4.539,0.48,6.387c0.318,1.849,1.438,3.253,3.355,4.218v19.762h-32.117v-18.919
				c1.598-0.882,2.636-2.007,3.116-3.374c0.479-1.365,0.758-2.73,0.839-4.097c0-0.401-0.021-0.784-0.06-1.145
				c-0.041-0.361-0.06-0.701-0.06-1.023c0-0.321,0-0.622,0-0.905c0-0.28,0-0.542,0-0.783v-43.742c0-0.241,0-0.542,0-0.904
				s0-0.703,0-1.024c0.079-1.928-0.021-3.675-0.3-5.242c-0.281-1.567-1.459-2.952-3.535-4.157v-18.075H195.245z"/>
			<path fill="#6BC7BC" d="M299.984,497.159c1.597,0.08,3.255,0.161,4.974,0.241c1.717,0.081,3.416,0.282,5.093,0.603
				c5.992,0.884,11.484,3.374,16.478,7.471c4.992,4.097,7.49,11.489,7.49,22.172v40.609c0,0.885-0.02,1.708-0.06,2.47
				c-0.041,0.765-0.06,1.548-0.06,2.35c-0.559,6.909-3.017,13.215-7.37,18.918c-4.355,5.705-12.882,8.556-25.586,8.556h-49.134
				v-18.919c2.397-0.882,3.794-2.087,4.195-3.614c0.399-1.525,0.599-3.453,0.599-5.784v-47.598c0-0.401-0.021-0.883-0.06-1.446
				c-0.041-0.561-0.14-1.124-0.299-1.687c-0.32-1.124-0.82-2.208-1.498-3.253c-0.68-1.044-1.659-1.727-2.936-2.049v-19.039H299.984z
				 M289.557,519.933v58.805c0.399,0.161,0.779,0.262,1.139,0.302c0.359,0.041,0.698,0.06,1.019,0.06c0.159,0,0.339,0.02,0.539,0.06
				c0.198,0.042,0.378,0.061,0.539,0.061c2.236,0,4.153-0.621,5.753-1.868c1.597-1.245,2.396-3.594,2.396-7.049v-42.778
				c0-3.211-0.959-5.26-2.876-6.145c-1.917-0.883-4.754-1.326-8.509-1.326V519.933z"/>
		</g>
	</g>
	<g>
		<path d="M326.242,581.754c-1.403,1.741-2.631,2.849-3.682,3.324c-3.506,1.898-6.488,2.689-8.942,2.531s-4.383-1.107-5.961-2.689
			c-1.578-1.424-2.63-3.481-3.156-5.855s-0.701-5.063-0.351-7.753c0.175-2.69,1.052-5.222,2.279-7.754
			c1.227-2.531,2.805-4.589,4.734-6.171c1.051-0.95,2.454-1.582,4.033-2.056c1.577-0.317,3.331-0.475,5.084-0.317
			c1.578,0.158,3.156,0.475,4.559,1.108c1.403,0.79,2.454,1.74,3.156,2.848c1.052-3.006,1.754-5.855,2.104-8.228v-0.158
			c0.175-1.424,1.051-2.374,2.454-3.165c1.228-0.633,2.63-0.95,4.208-0.95c1.403,0,2.63,0.317,3.857,1.108s1.753,2.057,1.753,3.639
			c0.175,4.59,0.526,9.495,1.052,14.875l1.578,17.247c2.98-1.898,6.136-3.956,9.116-6.33c2.98-2.373,5.436-4.747,7.013-7.436
			c0.526-0.633,1.403-0.95,2.631-0.95c1.227,0.158,1.753,0.791,1.577,2.216c-2.279,3.164-5.259,6.17-8.766,9.019
			c-3.506,2.848-7.188,5.696-11.221,8.386c0.7,8.545,1.051,16.931,1.227,25c0,8.07-0.702,15.032-2.103,20.887
			c-0.877,3.323-2.104,6.646-4.033,9.969c-1.929,3.324-4.208,6.171-6.837,8.544c-2.631,2.374-5.436,3.957-8.416,4.748
			c-3.156,0.79-6.311,0.315-9.642-1.424c-2.806-1.741-5.26-4.114-7.364-7.437c-2.279-3.323-3.857-6.961-5.084-10.918
			c-1.228-3.956-1.753-7.753-1.753-11.708c0-3.956,0.876-7.437,2.454-10.285c1.578-3.324,3.507-6.013,5.436-8.387
			c1.929-2.373,4.207-4.589,6.487-6.487c2.279-1.899,4.908-3.64,7.539-5.222c2.63-1.583,5.61-3.165,8.59-4.747l-1.227-14.557
			C329.046,578.273,327.643,580.173,326.242,581.754z M318.352,562.134c-1.578,1.741-2.98,3.798-3.857,6.329
			c-1.052,2.532-1.578,5.063-1.578,7.596c-0.175,2.689,0.526,4.589,1.929,6.012c1.928-1.74,4.033-4.272,5.961-7.753
			c1.929-3.481,3.857-7.121,5.436-10.76c-0.526-0.475-0.877-1.108-1.052-1.741c-0.351-0.632-1.052-1.107-1.928-1.423
			C321.508,559.919,319.929,560.394,318.352,562.134z M322.56,605.015c-2.98,2.689-5.085,5.38-6.663,8.069
			c-1.051,2.057-1.753,4.114-1.928,6.33c-0.351,2.216-0.351,4.43-0.175,6.804c0.175,2.373,0.702,4.589,1.403,6.803
			c0.7,2.216,1.402,4.273,2.279,6.33c0.526,1.424,1.403,3.006,2.279,4.589c0.877,1.424,2.104,2.69,3.682,3.797
			c0.175,0,0.175,0,0.175,0.158c2.28-1.898,4.208-4.589,5.611-8.069c1.228-3.639,2.279-7.596,2.805-12.026
			c0.526-4.589,0.877-9.335,0.877-14.557c-0.175-5.222-0.351-10.602-0.701-15.982C328.52,599.793,325.365,602.324,322.56,605.015z"
			/>
		<path d="M406.711,578.59c-1.403,3.956-2.805,8.228-4.208,12.976l-4.734,14.557c-1.577,4.905-3.506,9.019-5.785,12.658
			c-2.279,3.481-5.085,6.013-8.065,7.596c-2.98,1.423-6.662,1.107-10.695-0.95c-1.754-0.791-2.98-2.532-3.682-4.905
			c-0.877-2.532-1.228-5.38-1.403-8.545c-0.175-3.323-0.175-6.645,0-10.284c0.175-3.64,0.175-7.279,0.175-10.602
			c-0.175-3.324-0.351-6.488-0.7-9.178c-0.526-2.689-1.403-4.589-2.631-5.854c-2.279-2.216-4.033-5.696-5.259-10.443
			c-1.228-4.589-1.929-9.652-2.104-14.874s0.351-10.443,1.578-15.348c1.051-4.905,2.805-8.545,5.259-11.076
			c3.157-3.165,5.786-4.747,8.065-4.747c2.104,0,3.857,1.108,5.085,3.164c1.228,2.216,1.928,5.222,2.279,8.861
			c0.175,3.798,0.175,7.754-0.351,12.026c-0.526,4.272-1.577,8.386-2.98,12.501c-1.402,4.272-3.156,7.753-5.259,10.759
			c1.402,2.374,2.805,4.431,4.207,5.855c1.403,1.583,2.455,2.69,3.157,3.165c1.577,1.107,2.63,3.322,3.156,6.487
			c0.526,3.324,0.701,6.963,0.701,11.076v12.342c-0.175,4.114,0,7.753,0.525,10.918c2.631-2.69,4.734-5.696,6.663-9.02
			c1.753-3.481,3.331-7.278,4.908-11.234l4.383-12.659c1.403-4.43,3.156-8.861,5.085-13.291c0.175-0.475,0.702-0.791,1.402-1.108
			c0.526-0.317,1.228-0.475,2.104-0.475c0.702,0,1.402,0.158,2.103,0.317c0.702,0.317,1.228,0.791,1.403,1.424
			C409.516,572.102,407.939,574.793,406.711,578.59z M366.738,537.766c-0.877,2.69-1.403,5.38-1.578,8.07
			c-0.175,2.689,0.175,5.379,0.877,7.911c0.526,2.689,1.403,5.063,2.279,7.279c1.052-1.108,1.929-2.849,2.631-5.538
			c0.7-2.69,1.227-5.538,1.577-8.703c0.175-3.006,0.175-6.17,0-9.335c-0.175-3.164-0.701-5.855-1.402-7.911
			C369.017,532.228,367.615,535.077,366.738,537.766z"/>
		<path d="M426.699,547.418c1.402-1.265,2.63-1.74,3.682-1.265c0.876,0.157,1.753,0.315,2.63,0.632s1.753,0.791,2.454,1.424
			c0.877,0.791,1.403,1.583,1.754,2.532l0.526,3.323v6.488c0,2.215-0.175,4.272-0.351,6.17c-0.351,1.899-0.526,3.798-0.701,5.538
			c-0.175,1.741-0.175,3.64,0,5.38c0.175,1.741,0.877,3.798,1.928,6.013c1.403-0.791,3.331-2.531,5.611-5.222
			c2.279-2.689,4.208-5.855,5.785-9.335c0.175-0.475,0.702-0.791,1.228-0.95s1.052-0.158,1.578,0
			c0.525,0.158,0.876,0.475,1.227,0.95c0.175,0.475,0.175,1.108-0.175,1.899c-1.227,2.531-2.98,5.222-4.908,8.228
			c-2.104,3.006-4.383,5.538-6.839,7.437c-2.454,1.898-4.908,2.848-7.539,2.848c-2.63,0-5.084-1.741-7.364-5.222
			c-1.227-1.741-1.928-3.639-2.454-5.855c-0.526-2.056-0.701-4.43-0.877-6.804c-1.928,3.165-4.208,5.696-6.487,7.754
			c-2.279,2.057-4.734,2.848-7.013,2.689c-1.228-0.158-2.454-0.475-3.331-0.949c-1.052-0.475-2.104-1.583-3.156-3.324
			c-0.702-1.265-1.052-2.848-1.052-4.747c-0.175-1.74,0-3.639,0.526-5.696c0.526-2.056,1.051-3.956,1.928-6.013
			c0.702-2.056,1.403-3.797,2.28-5.221c1.227-2.057,2.63-3.482,4.382-4.273c1.578-0.633,2.981-0.948,3.857-0.948
			c3.682,0.158,5.786,2.056,6.488,5.695c0.351,1.741,0,2.69-0.877,2.532s-1.929-0.633-2.805-1.424
			c-0.877,1.108-1.578,2.374-2.455,3.797c-0.876,1.424-1.753,3.007-2.454,4.59c-0.701,1.582-1.228,3.164-1.578,4.747
			c-0.35,1.582-0.35,3.006-0.175,4.272c1.578-0.475,3.157-1.108,4.383-2.216c1.228-1.108,2.28-2.215,3.156-3.639
			c0.877-1.424,1.754-2.848,2.631-4.43l2.103-4.589c0.175-1.108,0.175-2.216,0.351-3.324v-3.164
			C424.419,550.742,425.12,548.684,426.699,547.418z"/>
		<path d="M498.577,594.413c2.28-1.899,4.559-4.272,6.839-6.963c2.279-2.689,4.382-5.855,6.487-9.177
			c1.928-3.322,3.682-6.329,4.909-9.177c0.175-0.475,0.7-0.791,1.402-0.95c0.526-0.158,1.228-0.317,1.929-0.317
			c0.526,0.158,1.051,0.317,1.577,0.791c0.351,0.475,0.351,1.108,0.175,1.899c-1.753,4.272-3.857,8.386-6.136,12.5
			c-2.28,4.114-4.734,7.912-7.013,11.235c-2.455,3.322-4.909,6.013-7.188,8.069c-2.455,2.057-4.734,3.324-6.663,3.64
			c-2.279,0.317-4.558,0-7.013-0.95c-2.454-0.95-4.733-2.374-7.013-4.114c-2.279-1.899-4.383-4.114-6.311-6.804
			c-1.929-2.689-3.682-5.855-4.909-9.177c-1.928,1.108-3.682,2.056-5.434,2.689c-1.754,0.791-3.506,1.108-5.085,1.266
			c-3.331,0.317-5.785-0.475-7.539-2.215c-1.754-1.741-2.98-3.798-3.506-6.488c-0.526-2.69-0.702-5.538-0.175-8.703
			c0.526-3.164,1.403-6.012,2.63-8.702c1.228-2.689,2.631-4.747,4.559-6.487c1.754-1.741,3.682-2.374,5.786-2.057
			c1.577,0.317,2.98,0.95,3.856,1.899c0.351,0.158,0.526,0.474,0.701,0.79c0,0.475,0,0.791-0.175,1.108
			c-0.175,0.475-0.526,0.633-0.876,0.791c-0.351,0.158-0.877,0.158-1.403-0.317l-1.228-0.475c-0.526,0-1.227,0.317-1.753,0.791
			c-1.228,1.108-2.28,2.848-2.805,4.905c-0.702,2.057-1.052,4.272-1.052,6.646c0,2.373,0.351,4.589,1.052,6.645
			c0.525,2.057,1.577,3.64,2.98,4.747c1.928,0.475,4.558-0.79,7.89-3.639c-1.052-6.646-1.578-13.449-1.403-20.57
			c0.175-7.12,0.701-14.082,1.928-21.045c1.228-6.961,2.806-13.766,5.085-20.254c2.28-6.487,5.085-12.341,8.416-17.88
			c1.577-2.532,3.331-5.222,5.61-8.228c2.28-3.007,4.734-5.538,7.539-7.754c2.806-2.215,5.786-3.797,9.117-4.589
			c3.156-0.791,6.487-0.475,10.168,1.108c2.98,1.423,4.909,4.114,5.786,8.228c0.7,4.114,0.526,9.019-0.351,14.715
			c-1.052,5.855-2.806,12.026-5.435,18.83c-2.63,6.803-5.785,13.607-9.292,20.411c-3.682,6.804-7.539,13.134-11.922,19.305
			c-4.383,6.17-8.767,11.55-13.15,16.14c0.351,2.215,0.877,4.43,1.578,6.803c0.526,2.374,1.403,4.589,2.454,6.646
			c1.052,2.056,2.28,3.639,3.682,4.905c1.228,1.266,2.806,1.899,4.559,2.056C494.195,597.103,496.299,596.154,498.577,594.413z
			 M487.532,514.665c-1.928,5.222-3.506,10.76-4.733,16.297c-1.228,5.538-1.929,11.235-2.28,16.931
			c-0.526,5.696-0.701,11.235-0.876,16.773c2.98-3.956,5.961-8.544,8.941-13.45c2.98-4.905,5.611-9.81,8.24-15.032
			c2.63-5.222,4.909-10.284,7.013-15.506c1.929-5.063,3.506-9.811,4.734-14.4c1.051-4.589,1.577-8.544,1.577-12.183
			c0-3.482-0.7-6.329-2.279-8.387c-2.63,1.741-5.085,3.957-7.013,6.488c-1.929,2.532-3.857,5.063-5.611,7.596
			C492.091,504.38,489.461,509.443,487.532,514.665z"/>
		<path d="M545.388,581.912c1.403-0.79,2.981-1.898,4.559-3.164c1.578-1.266,2.98-2.689,4.383-4.43
			c1.403-1.583,2.454-3.323,3.331-5.222c0.175-0.475,0.701-0.791,1.228-1.108c0.526-0.158,1.227-0.317,1.753-0.158
			s1.052,0.317,1.403,0.633c0.351,0.475,0.526,0.95,0.351,1.741c-0.175,1.423-1.228,3.323-2.805,5.855
			c-1.754,2.689-4.033,5.063-6.663,7.436c-2.805,2.374-6.136,4.272-9.818,5.855c-3.857,1.424-8.065,1.583-12.448,0.475
			c-4.559-1.108-8.065-3.322-10.695-6.963c-2.63-3.639-3.682-8.702-3.331-15.348c0.175-2.373,0.701-4.589,1.754-6.961
			c1.051-2.374,2.454-4.272,4.382-6.013c1.754-1.741,3.857-2.849,6.488-3.639c2.454-0.791,5.259-0.791,8.239,0
			c2.104,0.474,3.682,1.423,4.909,2.531c1.228,1.108,1.929,2.532,2.454,3.956c0.526,1.583,0.526,3.165,0.351,4.747
			c-0.351,1.741-1.051,3.165-2.103,4.589c-1.403,1.899-3.682,3.165-6.662,3.957c-3.156,0.79-5.962,1.423-8.416,1.582
			c0.351,1.899,0.877,3.64,1.753,5.38c0.877,1.741,1.929,3.165,3.157,4.272c1.227,1.108,2.63,1.899,4.208,2.374
			c1.577,0.475,3.156,0.317,4.908-0.475C542.934,583.495,543.986,582.862,545.388,581.912z M533.117,566.09
			c1.577-0.791,2.63-1.899,3.506-3.007c0.7-1.108,0.876-2.215,0.526-3.481c-0.351-1.108-1.403-2.216-3.332-3.322
			c-1.928,1.423-3.506,3.164-4.382,5.221c-0.877,2.057-1.403,4.115-1.578,6.488C529.784,567.514,531.538,566.881,533.117,566.09z
			 M532.415,555.489l-1.578-0.475l2.631,1.108L532.415,555.489z"/>
	</g>
	<path fill="#A7A9AC" d="M130.367,342.617H43.335c-1.933,0-3.5-1.567-3.5-3.5v-33.074c0-1.933,1.567-3.5,3.5-3.5h87.032
		c1.933,0,3.5,1.567,3.5,3.5v33.074C133.867,341.049,132.3,342.617,130.367,342.617z"/>
	<circle fill="#ED1C24" cx="84.522" cy="268.581" r="13.963"/>
	<path fill="#A7A9AC" d="M564.033,342.617h-54.939c-2.189,0-3.979-1.791-3.979-3.979v-25.963c0-2.189,1.791-3.979,3.979-3.979
		h54.939c2.189,0,3.979,1.791,3.979,3.979v25.963C568.012,340.826,566.222,342.617,564.033,342.617z"/>
</g>
<g>
	<g>
		<path fill="#FDD10C" d="M206.402,624.837c0.147,9.854-7.276,16.417-17.841,16.075c-9.135-0.295-17.214-8.816-13.689-15.944
			c1.016-2.055,1.351-4.354,2.351-6.417c3.848-7.939,17.158-10.861,24.574-5.235c1.81,1.373,2.834,3.712,3.645,5.773
			C206.178,620.966,206.135,623.067,206.402,624.837z"/>
		<path fill="#FDD10C" d="M248.593,628.012c0.147,9.854-7.276,16.417-17.841,16.075c-9.135-0.295-17.214-8.816-13.689-15.944
			c1.016-2.055,1.351-4.354,2.351-6.417c3.848-7.939,17.158-10.861,24.574-5.235c1.81,1.373,2.834,3.712,3.645,5.773
			C248.37,624.14,248.327,626.241,248.593,628.012z"/>
		<path fill="#FDD10C" d="M287.787,626.633c0.147,9.854-7.276,16.417-17.841,16.075c-9.135-0.295-17.214-8.816-13.689-15.944
			c1.016-2.055,1.351-4.354,2.351-6.417c3.848-7.939,17.158-10.861,24.574-5.235c1.81,1.373,2.834,3.712,3.645,5.773
			C287.564,622.761,287.521,624.862,287.787,626.633z"/>
	</g>
</g>
<path fill="#00A79D" d="M109.6,129.373c0.26-0.368,0.655-0.665,1.181-0.89c1.106-0.459,2.086-0.386,2.941,0.219
	c0.336,0.238,1.63,1.522,3.878,3.851c1.31-0.684,2.58-1.279,3.812-1.788c1.293-0.465,2.352-0.406,3.176,0.178
	c0.55,0.39,0.917,0.971,1.102,1.747c0.334,1.341,0.146,2.612-0.566,3.811c-0.782,1.104-1.446,2.105-1.993,3.008l2.976,3.765
	c1.1,1.424,1.258,2.756,0.473,3.995c-0.673,0.95-1.844,1.34-3.513,1.171l-4.963-0.96c-1.206,2.091-2.048,3.474-2.526,4.149
	c-0.933,1.317-2.054,1.766-3.362,1.347c-0.371-0.125-0.693-0.284-0.968-0.478c-0.887-0.628-1.311-1.712-1.276-3.251l0.109-3.651
	l-4.126-1.265c-0.71-0.227-1.279-0.492-1.707-0.795c-0.703-0.498-1.07-1.161-1.103-1.989c-0.032-0.829,0.125-1.488,0.472-1.978
	c0.434-0.613,1.297-1.199,2.587-1.758c1.291-0.56,2.465-1.132,3.522-1.718l-0.557-3.294
	C108.915,131.281,109.058,130.139,109.6,129.373z"/>
<path fill="#FFF200" d="M70.944,124.693c0.26-0.368,0.655-0.665,1.181-0.89c1.106-0.459,2.086-0.386,2.941,0.219
	c0.336,0.238,1.63,1.522,3.878,3.851c1.31-0.684,2.58-1.279,3.812-1.788c1.293-0.465,2.352-0.406,3.176,0.178
	c0.55,0.39,0.917,0.971,1.102,1.747c0.334,1.341,0.146,2.612-0.566,3.811c-0.782,1.104-1.446,2.105-1.993,3.008l2.976,3.765
	c1.1,1.424,1.258,2.756,0.473,3.995c-0.673,0.95-1.844,1.34-3.513,1.171l-4.963-0.96c-1.206,2.091-2.048,3.474-2.526,4.149
	c-0.933,1.317-2.054,1.766-3.362,1.347c-0.371-0.125-0.693-0.284-0.968-0.478c-0.887-0.628-1.311-1.712-1.276-3.251l0.109-3.651
	l-4.126-1.265c-0.71-0.227-1.279-0.492-1.707-0.795c-0.703-0.498-1.07-1.161-1.103-1.989c-0.032-0.829,0.125-1.488,0.472-1.978
	c0.434-0.613,1.297-1.199,2.587-1.758c1.291-0.56,2.465-1.132,3.522-1.718l-0.557-3.294C70.259,126.6,70.401,125.459,70.944,124.693
	z"/>
<path fill="#ED1C24" d="M76.79,209.296c-0.264,0-0.529-0.048-0.784-0.145c-0.778-0.299-1.32-1.013-1.396-1.844l-1.125-12.201
	l-10.688-5.99c-0.728-0.407-1.16-1.192-1.116-2.025c0.043-0.833,0.556-1.568,1.322-1.898l11.256-4.84l2.394-12.016
	c0.163-0.818,0.776-1.472,1.581-1.687c0.806-0.215,1.663,0.044,2.213,0.67l8.081,9.21l12.169-1.437
	c0.829-0.095,1.639,0.283,2.093,0.982c0.454,0.699,0.472,1.595,0.046,2.312l-6.262,10.532l5.126,11.129
	c0.349,0.757,0.237,1.647-0.287,2.295c-0.524,0.648-1.369,0.942-2.185,0.758l-11.951-2.7l-9,8.315
	C77.865,209.095,77.332,209.296,76.79,209.296z M68.808,187.464l7.822,4.384c0.629,0.352,1.044,0.991,1.111,1.709l0.823,8.929
	l6.586-6.085c0.53-0.489,1.266-0.685,1.969-0.527l8.746,1.976l-3.751-8.144c-0.302-0.655-0.262-1.416,0.106-2.036l4.582-7.707
	l-8.905,1.051c-0.719,0.084-1.428-0.19-1.903-0.73l-5.914-6.74l-1.752,8.793c-0.141,0.707-0.62,1.299-1.283,1.584L68.808,187.464z"
	/>
<g>
</g>
<g>
</g>
<g>
</g>
<g>
</g>
<g>
</g>
<g>
</g>
</svg>
