<?xml version="1.0" encoding="iso-8859-1"?>
<!-- Generator: Adobe Illustrator 21.0.0, SVG Export Plug-In . SVG Version: 6.00 Build 0)  -->
<svg version="1.1" id="Layer_1" xmlns="http://www.w3.org/2000/svg" xmlns:xlink="http://www.w3.org/1999/xlink" x="0px" y="0px"
	 width="612px" height="792px" viewBox="0 0 612 792" enable-background="new 0 0 612 792" xml:space="preserve">
<g>
	<g>
		<path fill="#99999B" d="M587.397,312.735c-0.598-87.826-54.528-167.448-135.651-200.306c-2.324-6.692-8.67-11.504-16.154-11.504
			c-9.451,0-17.113,7.662-17.113,17.113c0,5.494,2.599,10.37,6.623,13.501c-0.903,2.166-1.807,4.331-2.71,6.497
			c-0.218,0.521-0.286,1.064-0.252,1.603c1.438,0.276,2.671,0.829,3.703,1.583c1.502,0.327,2.79,0.942,3.842,1.788
			c0.282,0.013,0.562,0.03,0.831,0.062c0.682-0.636,1.263-1.416,1.649-2.342c0.783-1.878,1.566-3.756,2.349-5.634
			c0.358,0.022,0.714,0.054,1.077,0.054c3.746,0,7.201-1.218,10.02-3.26c71.875,29.832,120.973,101.139,121.516,180.844
			c-0.553,81.272-51.849,156.326-128.876,183.915c-37.243,13.34-76.808,14.623-113.71,5.403c-0.48-4.811-2.956-9.03-6.583-11.831
			c0.123-0.228,0.245-0.457,0.347-0.701c1.334-3.197,2.667-6.395,4.001-9.592c-1.114-0.037-2.134-0.217-3.049-0.529
			c-0.201,0.012-0.392,0.042-0.602,0.042c-2.571,0-4.628-0.793-6.186-2.054c-1.295,3.107-2.591,6.214-3.887,9.321
			c-0.355-0.022-0.708-0.051-1.067-0.051c-9.451,0-17.113,7.662-17.113,17.113c0,9.451,7.662,17.113,17.113,17.113
			c1.961,0,3.837-0.346,5.592-0.953c16.263,4.626,33.093,7.414,50.152,8.173c-1.61,4.602-2.545,9.929-2.545,15.628
			c0,9.817,2.738,18.569,7.015,24.305c-4.064,6.761-27.986,39.86-27.986,39.86l79.919-0.003l-29.136-38.609
			c4.848-5.665,8.023-14.988,8.023-25.552c0-6.121-1.079-11.814-2.916-16.637c5.913-0.63,11.827-1.481,17.726-2.616
			C513.803,505.159,586.706,414.269,587.397,312.735z"/>
		<circle fill="#6BC7BC" cx="375.364" cy="311.867" r="177.813"/>
		<g>
			<g>
				<path fill="#AB469A" d="M509.107,266.17c0.008,0.015,0.015,0.037,0.023,0.051c0.05,0.062,0.109,0.107,0.159,0.167
					c-0.03-0.086-0.054-0.178-0.084-0.262C509.172,266.141,509.14,266.156,509.107,266.17z"/>
				<path fill="#AB469A" d="M433.096,148.413c0.606,1.491,2.888,2.505,4.527,2.783c3.152,0.534,4.561,2.561,3.748,7.591
					c-1.372-1.579-2.446-2.815-3.913-4.503c-0.627,0.964-1.973,2.085-2,3.251c-0.094,3.963-1.823,4.89-4.667,4.611
					c-0.917-0.09-2.038-0.213-2.756,0.301c-6.147,4.409-13.241,4.612-20.093,6.337c1.123,1.604,2.65,2.816,2.838,4.277
					c0.291,2.26,0.056,4.916-0.766,6.931c-0.312,0.765-2.949,0.619-4.371,0.175c-1.994-0.621-3.861-1.864-5.749-2.923
					c-2.362-1.323-3.666,0.124-4.572,2.473c-0.826,2.143-1.406,4.429-2.306,6.521c-2.114,4.917-2.074,5.585,1.231,9.356
					c3.189,3.638,11.388,2.613,13.99-1.503c1.008-1.595,2.573-2.738,3.997-3.887c1.597-1.289,3.254-2.54,5.016-3.441
					c1.041-0.532,2.34-0.5,3.517-0.461c1.827,0.061,3.738,0.849,5.45,0.411c2.427-0.621,3.386,0.382,4.147,2.921
					c0.621,2.069,1.455,4.198,2.639,5.839c2.393,3.317,5.641,5.929,5.058,11.338c1.158-1.508,1.708-3.192,2.737-4.018
					c2.163-1.735,1.796-3.014,0.374-5.209c-2.211-3.414-4.003-7.218-5.972-10.857c3.585,3.042,6.623,6.362,9.349,10.016
					c0.867,1.162,1.364,3.268,1.23,4.846c-0.313,3.713-0.365,6.986,3.424,8.167c-0.392,0.709-0.648,0.985-0.706,1.312
					c-0.203,1.14-0.337,2.298-0.497,3.449c0.882-0.437,2.056-0.596,2.577-1.38c0.715-1.074,1.278-2.613,1.302-3.967
					c0.062-3.599,2.282-3.264,3.984-3.095c1.552,0.154,2.549,1.165,2.291,3.829c-0.271,2.79-0.289,7.199,1.065,8.316
					c3.254,2.683,7.273,4.721,11.177,5.384c3.709,0.629,4.318,0.456,3.137,5.028c-0.337,1.309-0.821,2.565-1.157,3.874
					c-0.882,3.434-3.044,4.428-5.641,3.788c-5.738-1.412-11.396-3.151-15.754-8.396c-0.945-1.138-2.046-2.187-3.228-2.924
					c-2.219-1.383-4.23-1.457-5.584,1.793c-0.344,0.824-1.799,1.918-2.081,1.693c-2.033-1.619-3.948-3.474-5.793-5.402
					c-1.108-1.158-1.84-2.944-3.056-3.82c-4.071-2.929-5.069-5.186-4.393-10.793c0.127-1.05-0.075-2.158-0.093-2.529
					c-4.697-1.455-8.934-3.117-13.281-3.99c-2.78-0.558-5.781-0.344-8.575,0.252c-2.388,0.51-4.126,0.205-6.031-1.68
					c-0.927-0.918-2.989-1.365-4.014-0.757c-3.988,2.363-8.89,3.425-10.638,9.536c-0.199,0.698-1.339,1.124-2.109,1.456
					c-6.808,2.941-11.818,8.743-16.656,14.854c-1.676,2.116-2.629,4.401-2.186,7.428c0.558,3.805-0.605,6.811-3.132,9.212
					c-0.764,0.727-1.602,1.876-1.724,2.944c-0.423,3.701-0.956,7.324,0.803,11.039c1.353,2.859,1.957,6.319,2.524,9.603
					c1.31,7.57,5.98,12.351,12.483,12.441c0.832,0.011,1.824-0.22,2.467,0.228c4.398,3.066,9.091,1.859,13.749,1.75
					c1.421-0.033,3.44,0.548,4.172,1.74c1.738,2.834,3.174,5.433,6.08,7.209c3.354,2.049,3.327,6.946,1.454,11.203
					c-1.151,2.614-2.743,6.259-2.032,8.471c1.554,4.843,3.022,9.484,2.732,14.735c-0.126,2.286-0.543,4.625-0.282,6.848
					c0.372,3.163-0.258,5.533-2.239,7.667c-5.386,5.802-6.201,12.939-4.875,21.23c0.783,4.89,0.038,10.119,0.098,15.193
					c0.035,2.929,0.247,5.862,0.483,8.78c0.297,3.678,1.22,7.406,0.916,10.996c-0.322,3.795,0.961,4.587,3.533,4.87
					c1.938,0.213,4.094,0.216,5.719,1.272c2.673,1.738,5.248,2.042,7.744,0.388c4.545-3.012,9.008-6.236,13.319-9.704
					c1.149-0.925,1.519-3.15,2.436-4.607c0.681-1.082,1.554-2.418,2.539-2.725c4.6-1.433,6.157-3.798,6.034-9.333
					c-0.025-1.097,0.529-2.761,1.245-3.236c2.781-1.846,5.802-3.17,8.602-4.98c2.027-1.311,4.94-2.634,5.539-4.738
					c1.406-4.932,2.497-10.41,2.186-15.533c-0.48-7.906-0.2-10.643,5.365-14.769c4.411-3.271,9.078-6.046,13.612-9.081
					c1.358-0.909,2.858-1.704,3.942-2.979c3.574-4.206,7.072-8.515,10.411-12.987c1.053-1.41,1.511-3.457,2.464-5.747
					c-4.049-0.362-7.258-0.607-10.46-0.945c-3.473-0.366-4.562-2.035-4.251-6.165c2.603,0,5.264,0.466,7.767-0.092
					c6.392-1.424,12.719-3.269,19.053-5.047c0.758-0.213,1.436-0.987,2.078-1.609c1.786-1.73,3.549-3.495,5.292-5.286
					c3.619-3.718,3.524-4.852,0.404-9.091c-1.123-1.527-1.534-3.808-2.223-5.795c-0.05-0.061-0.109-0.106-0.159-0.167
					c-0.008-0.015-0.015-0.036-0.023-0.051c-0.842,0.368-1.693,0.714-2.525,1.114c-4.263,2.045-3.658,1.285-6.872-2.349
					c-3.17-3.584-3.237-7.773-4.068-11.976c-0.142-0.717,0.419-1.634,0.656-2.459c0.552,0.465,1.228,0.814,1.626,1.425
					c0.5,0.767,0.904,1.703,1.123,2.643c1.269,5.427,3.835,8.967,8.84,9.407c0.449,0.039,0.818,1.405,1.22,2.196
					c0.033-0.014,0.065-0.029,0.098-0.043c0.031,0.084,0.055,0.177,0.084,0.262c2.939,3.548,6.558,5.782,10.613,6.316
					c5.897,0.776,9.511,4.793,12.104,10.664c0.386,0.874,0.828,2.123,0.586,2.906c-0.697,2.258,0.316,3.174,1.751,3.488
					c1.374,0.301,2.829,0.065,3.752,0.065c0.187,6.303,0.079,12.957,0.668,19.521c0.573,6.378-0.002,13.199,3.469,18.944
					c1.321-2.127,2.327-4.163,2.903-6.361c2.991-11.424,5.238-23.047,6.476-34.9c-7.503-55.217-40.493-102.318-86.777-129.141
					c-0.087,0.022-0.191-0.014-0.272,0.024c-2.793,1.319-5.813,3.15-7.641,5.844c-1.653,2.438-2.896,2.986-5.114,2.196
					c-1.177-0.42-2.443-0.47-3.637-0.834c-2.777-0.845-5.534-1.781-8.454-2.729c2.251-4.103,6.111,0.912,8.272-3.518
					c1.349-2.766,4.295-4.415,5.784-5.851c-0.058-0.41-0.108-0.762-0.162-1.144c-6.477-3.155-13.188-5.896-20.078-8.256
					C432.828,145.22,432.552,147.076,433.096,148.413z M508.342,210.761c-1.47,0.82-3.257,1.202-4.049,2.473
					c-0.538,0.864,0.191,3.027,0.6,4.511c0.245,0.893,0.824,1.914,1.49,2.335c2.71,1.71,4.617,3.294,1.154,6.664
					c-0.461,0.449,0.451,2.737,0.5,4.185c0.04,1.195-0.072,3.33-0.44,3.436c-1.046,0.301-2.426,0.131-3.359-0.512
					c-1.13-0.779-1.884-2.304-2.895-3.377c-1.799-1.908-2.767-3.7-1.204-6.713c0.693-1.335,0.506-3.641,0.174-5.355
					c-0.58-2.999-1.579-5.881-2.382-8.742C504.073,204.559,506.721,205.105,508.342,210.761z M476.972,290.775
					c-1.687-3.183-3.425-5.62-4.378-8.438c-1.994-5.899-3.453-11.922-3.561-18.509c-0.081-4.99-1.631-9.929-2.324-14.93
					c-0.205-1.481,0.278-3.099,0.445-4.654c0.361,0.01,0.722,0.02,1.083,0.031c0.256,0.482,0.625,0.925,0.752,1.452
					c1.26,5.23,2.478,10.473,3.71,15.712c0.281,1.195,0.964,2.474,0.794,3.565c-0.874,5.606,1.712,10.215,3.186,14.971
					C477.826,283.673,477.522,286.831,476.972,290.775z M485.535,173.739c-1.439,2.225-7.279,0.239-10.695-3.638
					C476.642,168.694,480.346,169.954,485.535,173.739z M463.756,199.886c1.792-2.114,4.018-3.699,5.863-5.351
					c3.135,2.024,1.896,7.696,5.765,6.291c1.4-1.11,2.725-2.413,4.235-3.232c0.582-0.316,1.99,0.194,2.278,0.82
					c0.326,0.709,0.117,2.321-0.379,2.928c-1.716,2.097-1.161,3.583,0.383,5.315c1.802,2.021,3.432,4.262,5.142,6.413
					c-1.951,2.751-3.921,2.666-5.992,0.984c-1.291-1.049-2.482-2.279-3.792-3.288c-2.572-1.982-5.22-3.579-8.486-2.688
					c-0.953,0.26-2.079,0.014-3.052-0.313C462.585,206.713,461.469,202.584,463.756,199.886z M450.314,171.177
					c-0.015,0.082-0.031,0.165-0.046,0.248c-0.147-0.049-0.295-0.098-0.443-0.148c-0.06,0.012-0.12,0.024-0.181,0.037
					c0,0-0.084-0.128-0.082-0.125c0.088,0.03,0.175,0.059,0.263,0.088C449.988,171.244,450.151,171.21,450.314,171.177z"/>
				<path fill="#AB469A" d="M310.023,295.16c-0.611-0.3-1.315-0.856-1.564-1.491c-2.065-5.284-6.356-7.204-10.76-9.038
					c-0.745-0.31-1.44-0.967-1.983-1.637c-1.152-1.42-2.007-3.201-3.315-4.384c-1.938-1.752-4.164-3.113-6.162-4.563
					c1.917-7.563,1.106-14.15-6.61-16.562c-1.165-0.364-2.47-1.279-3.116-2.372c-1.709-2.895-3.407-5.895-4.499-9.109
					c-0.776-2.282-1.945-2.704-3.794-3.406c-3.216-1.221-6.667-1.872-9.094-5.39c-3.681-5.335-11.903-5.941-16.816-2.156
					c-1.219,0.94-3.097,0.83-5.225,1.334c2.077,8.134-2.796,12.946-8.822,17.245c-1.795,1.28-3.365,3.298-2.399,6.284
					c0.164,0.507-0.294,1.587-0.755,1.963c-2.586,2.105-2.126,4.784-1.376,7.585c0.717,2.676,1.673,5.316,2.047,8.052
					c1.107,8.096,2.232,16.098,8.301,21.879c0.736,0.701,1.203,1.796,1.68,2.777c1.619,3.332,2.575,6.711,1.431,10.601
					c-1.486,5.055-2.884,10.162-3.967,15.337c-1.159,5.537-1.593,11.273-2.92,16.75c-1.463,6.032-3.666,11.861-0.333,17.943
					c0.175,0.32,0.103,0.878,0.015,1.292c-0.544,2.576,1.292,5.939-2.041,7.645c-0.161,0.082-0.14,1.146,0.091,1.544
					c3.511,6.055,7.071,12.074,11.019,18.78c0.594-2.865,0.443-5.088,1.362-6.036c3.112-3.209,3.268-6.42,0.494-10.449
					c0.532-0.28,1.066-0.365,1.263-0.696c1.464-2.454,4.705-4.26,2.514-8.169c-0.1-0.178,0.849-1.495,1.422-1.612
					c0.672-0.137,1.466,0.458,2.323,0.778c0.332-0.761,0.764-1.327,0.811-1.929c0.234-3.088,1.828-3.193,4.043-2.59
					c4.363,1.188,6.033-0.669,5.294-5.669c-0.155-1.052-0.216-2.121-0.378-3.761c2.858,1.774,5.008,3.962,7.72,1.5
					c4.922-4.468,9.635-9.09,10.902-16.525c0.067-0.389,0.337-0.982,0.6-1.047c3.845-0.953,7.263-3.983,11.608-2.7
					c0.963,0.284,2.793-0.308,3.262-1.152c2.573-4.633,5.476-9.238,7.009-14.318c1.063-3.52,2.839-5.54,5.15-7.707
					c2.586-2.425,5.15-5.032,7.142-8.034C313.176,299.563,313.175,296.709,310.023,295.16z"/>
				<path fill="#AB469A" d="M454.562,378.476c-0.213,1.396-0.957,3.016-1.931,3.878c-2.169,1.919-2.96,4.373-3.334,7.219
					c-0.423,3.208,0.279,4.417,3.177,4.36c1.162-0.023,2.769-0.6,3.389-1.552c4.3-6.614,8.469-13.337,12.485-20.166
					c0.785-1.334,0.713-3.286,1.065-5.098c-3.39,1.57-6.288,3.072-9.287,4.256C456.991,372.61,455.133,374.749,454.562,378.476z"/>
			</g>
		</g>
	</g>
	<g>
		<path d="M79.768,399.16l-1.206-0.237c-0.762-21.786-1.946-42.107-2.169-45.85c0.242-1.013,0.065-2.104-0.25-2.904
			c-0.602-1.535-1.856-2.553-3.356-2.719c-3.054-0.343-5.248,2.923-5.857,3.843c-0.819,1.048-1.527,1.954-1.1,47.573
			c-7.123,0.373-15.15,1.015-21.786,1.742c-0.188-6.405-0.479-12.853-0.759-19.118c-0.324-7.232-0.661-14.709-0.838-21.982
			c0-0.436-0.09-1.361-0.362-3.898c0.544-1.712,0.15-3.538-1.094-4.908c-1.494-1.644-3.879-2.303-5.77-1.617
			c-1.679,0.615-2.725,2.128-2.795,4.023l-2.305,49.508c-1.777,0.452-3.059,0.977-3.83,1.573l-0.231,0.199
			c-1.04,1.002-2.463,3.302-0.4,7.251c0.637,1.543,2.12,2.12,3.865,2.265l-1.813,40.695l0.161,0.487
			c0.653,1.982,2.507,3.313,4.957,3.563c2.602,0.28,6.04-0.729,7.425-3.133c2.009-3.391,3.517-34.592,3.9-43.389
			c6.266-1.078,13.865-2.382,21.723-3.313c0.079,12.444,0.223,24.505,0.332,33.351c0.073,6.198,0.131,10.811,0.131,12.861v1.23
			l0.909,0.83c1.271,1.16,2.817,1.777,4.415,1.777c0.234,0,0.468-0.014,0.705-0.041c2.052-0.234,3.985-1.464,5.368-3.47
			c0.787-1.249,2.61-4.137,1.127-47.565c4.151-0.147,4.984-2.393,5.15-3.351C84.185,403.42,84.123,400.872,79.768,399.16z"/>
		<path d="M114.09,346.713l-2.534-0.487l-0.163,0.419c-1.377-0.076-2.923-0.171-4.554-0.275
			c-17.115-1.064-20.942-0.866-22.679,1.214c-0.67,0.8-0.909,1.837-0.672,2.793c0.024,0.229-0.114,0.887-0.199,1.282
			c-0.28,1.309-0.664,3.106,0.634,4.565c0.558,0.632,1.617,1.35,3.541,1.176c2.561-0.161,5.019-0.313,7.327-0.392
			c-0.58,32.368-1.026,62.012-1.361,90.442c-1.317,0.128-2.648,0.302-4.061,0.531l-2.344,0.378v2.373
			c0,0.441-0.087,0.857-0.155,1.233c-0.599,3.372,0.626,5.365,3.639,5.92l0.261,0.049l0.267-0.003
			c14.222-0.112,16.905-0.321,19.012-0.827c2.286-0.15,3.498-1.603,3.873-2.967c0.544-1.984-0.441-4.445-2.197-5.487
			c-0.713-0.422-1.497-0.569-2.265-0.446c-1.777-0.338-3.498-0.585-5.199-0.751c0.395-7.931,0.852-15.683,1.304-23.348
			c1.334-22.64,2.599-44.061,2.12-67.293c2.175-0.049,3.843-0.158,4.984-0.324c2.305-0.103,3.963-1.647,4.254-3.996
			C117.136,350.779,116.524,347.323,114.09,346.713z"/>
		<path d="M140.713,367.93c-0.112-6.268,1.486-7.401,1.669-7.507c0.395-0.24,1.168-0.065,2.058,0.441
			c3.394,1.933,7.175,7.855,7.175,13.266c0,2.284,1.611,4.162,3.919,4.567c2.567,0.463,5.065-0.972,5.931-3.367
			c0.961-2.589,0.079-8.947-0.762-10.98c-4.328-10.346-13.021-16.029-21.157-13.811c-6.696,1.824-13.686,9.987-11.356,26.99
			c0.863,6.247,5.536,15.444,10.95,26.097c8.353,16.44,18.751,36.9,13.83,46.348c-1.573,3.021-4.774,4.834-9.78,5.542
			c-2.382,0.348-4.404-0.487-6.206-2.507c-4.29-4.81-6.775-16.862-3.217-30.594l0.128-0.487l-0.052-0.498
			c-0.199-1.924-1.345-3.449-3.062-4.075c-1.946-0.713-4.352-0.142-5.977,1.426l-0.291,0.329c-0.844,1.121-2.58,3.786-3.097,5.781
			c-7.052,24.499,3.606,37.194,14.878,40.618c2.316,0.702,4.761,1.056,7.243,1.056c11.171,0,23.139-7.161,27.836-21.837
			c3.838-12.055-4.853-25.365-14.053-39.456C149.259,392.935,140.928,380.175,140.713,367.93z"/>
		<path d="M225.257,358.692c6.799-0.18,10.376-0.83,11.04-3.797c0.664-2.961-2.567-4.581-3.821-5.21
			c-3.895-1.881-61.103-0.836-65.14,1.189c-0.593,0.302-2.169,1.105-2.616,2.817c-0.427,1.628,0.408,2.877,0.958,3.704
			c0.128,0.188,0.267,0.397,0.438,0.683c0.983,1.581,2.599,4.192,28.672,3.084c-1.587,21.402-3.674,84.887-2.991,93.221
			c0.163,2.646,2.082,4.388,4.801,4.388c0.068,0,0.133,0,0.199-0.003c2.452-0.076,8.027-2.226,8.027-5.463
			c0.038-5.049,1.113-15.308,2.36-27.189c2.469-23.56,5.49-52.388,3.321-65.82C217.516,359.723,222.875,359.051,225.257,358.692z"/>
		<path d="M249.808,349.843c-0.011-0.008-0.025-0.016-0.038-0.024c-1.943-1.307-4.35-0.367-6.394,0.694
			c-18.922,9.423-26.84,51.963-20.781,80.902c3.743,17.864,12.281,28.019,24.045,28.601c0.264,0.014,0.528,0.019,0.789,0.019
			c5.936,0,11.23-3.449,15.746-10.264c14.584-22.009,17.031-72.078,10.041-86.509C269.449,355.646,260.001,347.08,249.808,349.843z
			 M259.386,362.418c4.913,5.449,5.536,13.027,5.776,20.966l0.003,0.019c0.329,8.781-6.851,56.152-16.034,63.569
			c-0.539,0.435-0.928,0.585-1.206,0.626c-14.638-12.795-13-63.909-5.332-79.745c0.144-0.193,0.397-0.517,0.727-0.944
			c0.904-1.173,2.286-2.967,3.664-4.897c1.745-0.193,3.361-1.464,4.083-2.03l0.395-0.31
			C253.256,358.164,254.985,357.412,259.386,362.418z"/>
		<path d="M322.797,439.166c-8.081-6.777-20.063-16.827-25.975-31.116c3.204-1.481,6.614-3.939,9.382-6.051
			c17.15-13.06,21.418-29.84,11.122-43.817c-5.83-7.757-17.847-10.308-26.375-8.206c-0.699-0.836-1.5-1.206-2.06-1.369
			c-1.856-0.544-3.895,0.207-5.675,2.05c-1.067,1.026-1.832,2.768-2.447,5.591c-0.746,0.92-1.715,2.496-1.062,4.224
			c0.082,0.218,0.188,0.425,0.31,0.612c-2.673,22.333-0.955,78.757-0.171,91.215l0.071,1.111l0.814,0.757
			c1.81,1.682,5.354,2.735,8.568,2.735c2.273,0,4.382-0.528,5.599-1.731c1.179-1.162,1.679-3.092,0.468-5.052l-0.757-22.994
			c9.693,12.526,21.946,24.284,29.78,25.447l0.318,0.038c2.491,0.308,5.599,0.691,6.897-1.641c0.338-0.607,0.955-2.229-0.593-4.154
			C329.319,444.634,326.442,442.223,322.797,439.166z M309.346,367.981c3.487,9.829-6.151,21.299-15.907,27.477l-0.09-2.782
			c-0.169-3.291-0.425-6.639-0.683-10.003c-0.471-6.135-0.955-12.48-0.879-18.525c0-1.116,0.117-2.395,0.267-3.764
			C298.828,358,305.132,356.582,309.346,367.981z"/>
		<path d="M385.691,350.618c-0.438-2.006-1.971-3.438-4.001-3.732c-2.235-0.324-4.54,0.806-5.61,2.746
			c-8.212,14.848-15.966,30.828-22.635,46.628l-13.533-45.447c-0.773-2.365-3.176-3.827-5.697-3.489
			c-2.387,0.324-4.069,2.158-4.186,4.556c-0.623,11.922,11.097,48.67,16.508,61.944c-5.852,15.811-9.431,29.244-10.362,38.904
			c-0.161,1.606,0.738,3.454,3.1,3.977c0.392,0.084,0.857,0.128,1.369,0.128c3.182,0,8.236-1.652,9.347-4.869l35.602-99.813
			l0.269-0.751L385.691,350.618z"/>
	</g>
	<path fill="#AB469A" d="M313.181,186.149c-0.052-0.417-1.541-0.324-4.363,0.278c1.179,0.372-0.566,4.585-5.289,12.644
		c-4.722,8.012-9.341,12.365-13.808,12.968c-4.467,0.602-8.059-0.325-10.83-2.825c-2.774-2.501-4.004-5.558-3.748-9.124
		c1.078-0.14,2.823-0.51,5.185-1.112c1.745-0.463,3.13-0.881,4.208-1.251c3.133-1.158,5.493-2.64,7.085-4.446
		c4.056-4.955,5.645-9.634,4.774-13.94c-0.566-1.715-1.489-3.104-2.774-4.261c-1.385-1.297-3.027-2.039-4.826-2.224
		c-6.979-0.74-12.267,0.046-15.809,2.409c-6.47,2.964-10.934,9.124-13.4,18.479c-0.202,1.219-0.319,2.424-0.372,3.621
		c-0.719,1.205-1.473,2.459-2.279,3.789c-7.137,10.189-12.526,15.562-16.067,16.117c-1.026,0.509-2.055,0.416-3.133-0.37
		c-0.871-0.649-1.489-1.482-1.848-2.501c-2.256-4.955-3.386-13.616-3.386-25.889c-0.411-2.455,0.101-4.215,1.59-5.28
		c4.262-5.604,6.622-8.8,7.085-9.633c4.671-7.688,6.982-14.358,6.878-20.008c-0.874-5.789-2.567-9.586-5.185-11.486
		c-1.437-1.528-4.056-1.991-7.904-1.482c-4.878,2.872-8.726,7.133-11.448,12.737c-0.359,1.019-1.334,3.288-2.926,6.762
		c-2.658,9.026-3.93,18.931-3.849,29.704c-0.704,1.746-1.367,3.22-1.987,4.429c-3.492,6.669-7.137,12.134-10.885,16.441
		c-1.59,1.898-3.593,2.964-5.953,3.195c-2.823-0.927-4.311-5.651-4.57-14.219c-0.204-8.568-0.101-20.1,0.259-34.689
		c7.237-0.973,11.497-1.482,12.73-1.575c1.489-1.528,1.693-2.733,0.667-3.521c-1.026-0.787-5.441-1.203-13.296-1.157l-0.46-13.988
		c-2.926-1.112-4.981-1.806-6.162-2.037c-2.771-0.509-4.771-0.139-6.004,1.204l-1.693,15.33c-6.315,0.973-8.522,3.057-6.674,6.298
		c2.001,0.51,4.156,0.649,6.467,0.418c-0.567,2.008-0.873,8.592-0.859,19.744c-0.118,0.284-0.233,0.563-0.358,0.864
		c-1.181,3.243-2.259,5.789-3.234,7.689c-3.492,6.669-7.137,12.134-10.885,16.441c-1.59,1.898-3.593,2.964-5.953,3.195
		c-2.823-0.927-4.311-5.651-4.57-14.219c-0.204-8.568-0.101-20.1,0.259-34.689c7.237-0.973,11.497-1.482,12.73-1.575
		c1.489-1.528,1.693-2.733,0.667-3.521c-1.026-0.787-5.441-1.203-13.296-1.157l-0.46-13.988c-2.926-1.112-4.981-1.806-6.162-2.037
		c-2.771-0.509-4.771-0.139-6.004,1.204l-1.693,15.33c-6.315,0.973-8.522,3.057-6.674,6.298c2.001,0.51,4.156,0.649,6.467,0.418
		c-0.639,2.262-0.947,10.325-0.838,24.194c-0.239,0.487-0.483,0.984-0.741,1.51c-1.233,2.548-2.463,5.001-3.645,7.271
		c-2.104,4.446-4.056,7.734-5.852,9.91c-2.259,2.733-5.03,4.725-8.367,5.974c-1.644,0.649-2.926-0.278-3.8-2.778
		c-1.282-5.466-1.334-13.061-0.101-22.834c1.23-9.725,1.845-14.45,1.845-14.171c0-0.973-0.923-2.085-2.771-3.336
		c-3.748-1.203-7.648-1.064-11.652,0.418c-0.155,0.416-0.463,2.222-0.874,5.418c-0.67,5.25-1.137,9.73-1.419,13.479
		c-1.626,2.836-3.625,6.213-6.006,10.141c-7.137,10.189-12.526,15.562-16.067,16.117c-1.026,0.509-2.055,0.416-3.133-0.37
		c-0.871-0.649-1.489-1.482-1.848-2.501c-2.256-4.955-3.386-13.616-3.386-25.889c-0.411-2.455,0.101-4.215,1.59-5.28
		c4.262-5.604,6.622-8.8,7.085-9.633c4.671-7.688,6.982-14.358,6.878-20.008c-0.874-5.789-2.567-9.586-5.185-11.486
		c-1.437-1.528-4.056-1.991-7.904-1.482c-4.878,2.872-8.726,7.133-11.448,12.737c-0.359,1.019-1.334,3.288-2.926,6.762
		c-4.105,13.94-4.927,29.965-2.515,48.073c1.952,7.688,5.544,12.598,10.833,14.774c3.541,1.436,7.39,1.575,11.601,0.416
		c4.208-1.157,8.47-4.446,12.782-9.771c4.363-5.327,7.39-10.097,9.189-14.265c0.036-0.068,0.069-0.131,0.105-0.199
		c-0.03,0.851-0.084,1.931-0.173,3.255c-0.103,1.76-0.155,3.103-0.103,4.03c0.155,2.779,0.923,5.094,2.363,6.948
		c1.796,2.315,3.334,3.843,4.619,4.539c2.618,1.436,6.519,2.13,11.704,2.084c6.723-1.343,11.756-5.188,14.989-11.533
		c1.078-1.528,2.308-3.89,3.797-7.086c0.338-0.711,0.65-1.362,0.947-1.981c1.071,10.573,4.31,17.169,9.668,19.719
		c5.082,1.066,9.086,1.158,12.063,0.279c3.13-1.019,6.93-4.864,11.345-11.486l6.636-12.927c0.559,13.171,3.912,21.245,9.981,24.134
		c5.082,1.066,9.086,1.158,12.063,0.279c3.13-1.019,6.93-4.864,11.345-11.486l5.205-10.14c0.224,3.393,0.568,6.864,1.041,10.418
		c1.952,7.688,5.544,12.598,10.833,14.774c3.541,1.436,7.39,1.575,11.601,0.416c4.208-1.157,8.47-4.446,12.782-9.771
		c2.654-3.24,4.806-6.271,6.496-9.089c0.067,0.328,0.133,0.656,0.211,0.983c0.925,3.798,3.029,7.086,6.263,9.912
		c3.337,2.176,7.597,3.381,12.678,3.612c5.084,0.185,10.166-1.157,15.196-4.028c5.03-2.872,9.497-8.106,13.449-15.701
		C311.537,191.707,313.437,187.307,313.181,186.149z M284.588,178.692c0.719-0.555,1.693-0.925,2.926-1.066
		c0.359-0.046,0.923-0.046,1.641-0.093c0.719,0,1.285,0,1.644-0.046c1.693,2.872,2.104,5.234,1.233,7.086
		c-0.925,3.381-2.978,6.16-6.211,8.337c-3.236,2.222-6.777,3.195-10.574,2.918C276.632,187.631,279.71,181.888,284.588,178.692z
		 M70.296,162.39c0.77-7.04,3.234-12.504,7.341-16.395c2.823,2.64,4.159,6.16,4.004,10.652c-0.103,4.492-4.056,11.903-11.856,22.277
		C69.373,174.895,69.525,169.384,70.296,162.39z M232.295,162.39c0.77-7.04,3.234-12.504,7.341-16.395
		c2.823,2.64,4.159,6.16,4.004,10.652c-0.103,4.492-4.056,11.903-11.856,22.277C231.373,174.895,231.525,169.384,232.295,162.39z"/>
	<g>
		<g>
			<path d="M106.906,331.78c-4.233-0.161-6.475-2.373-6.729-6.638c0-7.401,0.381-19.229,1.143-35.482l0.127-7.362
				c0-7-0.593-10.5-1.777-10.5c-2.793,0-5.967,11.103-9.521,33.31l-2.031,13.035c-0.847,4.99-3.345,7.482-7.49,7.482
				c-4.741-0.32-7.109-3.177-7.109-8.569c-0.847-37.172-2.329-55.758-4.443-55.758c-1.186,0-2.792,2.616-4.824,7.845
				c-4.402,11.749-6.941,29.489-7.617,53.224c-0.254,5.632-2.666,8.65-7.236,9.051c-3.64,0-6.052-1.608-7.236-4.827
				c-0.847-2.976-1.523-5.993-2.031-9.052c-4.487-21.401-7.195-41.596-8.125-60.585c0-1.527,0.274-3.036,0.825-4.526
				c0.549-1.488,1.438-2.613,2.666-3.379c1.226-0.764,2.517-1.147,3.872-1.147c3.892,0.163,6.177,2.254,6.855,6.276l2.031,21.121
				c4.739-13.838,8.42-22.327,11.045-25.465c3.13-3.379,6.516-5.069,10.156-5.069c4.316,0.081,7.871,2.253,10.664,6.517
				c1.946,3.379,3.723,8.49,5.332,15.328c1.606-2.976,3.088-5.35,4.443-7.121c3.384-5.39,7.151-8.086,11.298-8.086
				c3.638,0,6.685,1.529,9.141,4.586c2.708,4.104,4.146,8.529,4.316,13.275c0.337,4.586,0.508,9.655,0.508,15.207
				c-0.085,12.551-0.254,24.662-0.508,36.327C114.65,328.12,112.067,331.78,106.906,331.78z"/>
			<path d="M136.229,334.797c-4.655,0-7.575-3.54-8.759-10.621c-2.202-13.355-3.345-27.275-3.428-41.758
				c0-10.057,1.057-15.971,3.174-17.741c1.353-1.045,2.92-1.569,4.697-1.569c4.57,0.081,6.897,2.615,6.982,7.603
				c0.169,3.943,0.254,7.966,0.254,12.069v2.896c0,14.564,1.226,28,3.682,40.31c0.168,0.886,0.254,1.689,0.254,2.414
				c0,3.059-1.567,5.11-4.697,6.155C137.626,334.718,136.906,334.797,136.229,334.797z M133.69,257.316
				c-2.963-0.08-5.29-1.488-6.982-4.224c-0.679-1.286-1.016-2.574-1.016-3.862c0-3.298,1.396-5.872,4.189-7.724
				c1.27-0.804,2.581-1.207,3.935-1.207c1.099,0,2.2,0.283,3.301,0.845c2.793,1.369,4.189,3.903,4.189,7.604
				c-0.085,2.253-0.551,3.943-1.396,5.069C138.217,256.15,136.145,257.316,133.69,257.316z"/>
			<path d="M179.392,335.884c-4.316,0-8.591-0.804-12.822-2.414c-11.088-3.941-16.63-11.424-16.63-22.448
				c0-6.597,3.215-11.666,9.648-15.207c3.215-1.608,6.347-2.414,9.394-2.414c3.723,0,7.405,1.167,11.045,3.5
				c5.754,3.702,8.632,7.121,8.632,10.258c0,1.369-0.551,2.697-1.65,3.983c-1.523,1.689-3.3,2.534-5.332,2.534
				c-2.371,0-4.868-1.246-7.49-3.741c-2.456-1.931-4.275-2.896-5.459-2.896c-0.678,0-1.396,0.242-2.158,0.724
				c-1.523,1.128-2.285,2.456-2.285,3.983v0.482c0.845,3.783,2.92,6.396,6.221,7.845c2.876,1.207,5.754,1.811,8.633,1.811
				c2.285,0,4.526-0.402,6.729-1.207c4.907-1.85,7.363-5.027,7.363-9.534c0-5.872-2.624-11.183-7.871-15.931
				c-3.132-2.815-6.348-5.552-9.648-8.207c-6.433-5.069-11.215-9.372-14.346-12.914c-3.386-4.104-5.078-8.608-5.078-13.517
				c0-5.953,2.622-11.183,7.871-15.689c4.485-3.941,10.706-6.074,18.662-6.396c6.516,0,12.355,2.495,17.519,7.483
				c3.047,3.3,4.57,7.081,4.57,11.345c0,3.862-1.396,7-4.189,9.414c-1.523,1.127-3.174,1.689-4.951,1.689
				c-1.27,0-2.497-0.32-3.682-0.965c-2.116-1.286-3.174-3.138-3.174-5.552c0-0.643,0.105-1.388,0.317-2.233
				c0.21-0.845,0.317-1.668,0.317-2.474c0-3.057-2.243-4.586-6.728-4.586c-1.777,0-3.513,0.202-5.205,0.604
				c-3.386,0.965-5.332,2.253-5.84,3.862c-0.508,1.61-0.762,2.896-0.762,3.862c0,1.61,0.782,3.339,2.349,5.189
				c1.565,1.852,5.437,5.31,11.616,10.379c14.98,10.783,22.47,21.805,22.47,33.069c0,12.793-6.306,21.12-18.916,24.982
				C185.4,335.361,182.354,335.802,179.392,335.884z M229.665,324.297c-2.963,0-5.459-0.281-7.49-0.845
				c-7.871-2.815-11.806-7.522-11.806-14.121c0-4.988,1.987-9.01,5.966-12.068c1.185-0.725,2.412-1.086,3.682-1.086
				c1.607,0,3.088,0.443,4.443,1.328c1.692,1.529,2.539,3.179,2.539,4.948c0,1.448-0.762,3.621-2.285,6.517
				c1.777,0.965,3.682,1.448,5.713,1.448c3.047,0,5.374-1.286,6.982-3.862c0.591-1.044,0.889-2.172,0.889-3.379
				c0-3.862-3.217-7.321-9.648-10.379c-13.542-7-20.312-14.803-20.312-23.413c0-4.345,1.27-8.367,3.808-12.069
				c3.47-5.229,8.547-8.569,15.234-10.017c1.438-0.242,2.92-0.362,4.443-0.362c1.099,0,2.241,0.081,3.428,0.241
				c8.716,1.128,13.879,5.311,15.488,12.552c0.168,0.805,0.254,1.529,0.254,2.172l-0.127,1.448
				c-0.593,4.185-1.904,6.559-3.936,7.121c-1.523,0.483-2.666,0.724-3.428,0.724h-0.381c-4.487-0.562-6.729-2.896-6.729-7
				l0.127-1.931c-1.354-1.126-2.792-1.69-4.316-1.69c-1.355,0-2.964,0.443-4.824,1.328c-3.047,1.61-4.57,4.064-4.57,7.362
				c0,1.288,0.337,2.375,1.016,3.259c0.676,0.886,3.301,2.776,7.871,5.672c4.57,2.896,7.786,5.11,9.648,6.638
				c7.701,4.99,11.553,11.024,11.553,18.103c0,4.345-1.396,8.448-4.189,12.311C243.629,321.28,237.281,324.297,229.665,324.297z"/>
		</g>
	</g>
	<g>
		<g>
			<path fill="#6BC7BC" d="M40.93,162.826c-6.207,0.018-10.283-5.004-9.987-12.073c0.256-6.112,5.684-11.45,10.147-9.032
				c1.287,0.697,2.732,0.94,4.023,1.626c4.97,2.64,6.708,11.573,3.108,16.49c-0.879,1.2-2.36,1.867-3.664,2.392
				C43.37,162.708,42.047,162.662,40.93,162.826z"/>
			<path fill="#6BC7BC" d="M40.831,191.804c-6.207,0.018-10.283-5.004-9.987-12.073c0.256-6.112,5.684-11.45,10.147-9.032
				c1.287,0.697,2.732,0.94,4.023,1.626c4.97,2.64,6.708,11.573,3.108,16.49c-0.879,1.2-2.36,1.866-3.664,2.392
				C43.271,191.686,41.948,191.64,40.831,191.804z"/>
			<path fill="#6BC7BC" d="M40.735,219.84c-6.207,0.018-10.283-5.004-9.987-12.073c0.256-6.112,5.684-11.45,10.147-9.032
				c1.287,0.697,2.732,0.94,4.023,1.626c4.97,2.64,6.708,11.573,3.108,16.49c-0.879,1.2-2.36,1.867-3.664,2.392
				C43.175,219.722,41.852,219.676,40.735,219.84z"/>
		</g>
	</g>
	<path fill="#AB469A" d="M102.248,146.793c0.252-0.371,0.568-0.773,0.818-1.212c1.976-3.467,3.938-6.941,5.909-10.411
		c0.222-0.391,0.436-0.795,0.713-1.146c0.599-0.761,1.233-0.814,2.009-0.26c0.657,0.469,1.096,1.097,1.363,1.835
		c1.211,3.345,3.007,6.394,4.769,9.461c0.412,0.718,0.817,1.453,1.593,2.032c0.539-0.267,1.054-0.499,1.548-0.771
		c1.689-0.93,3.36-1.892,5.06-2.801c0.505-0.27,1.072-0.44,1.627-0.599c0.605-0.174,1.166,0.177,1.319,0.781
		c0.047,0.186,0.069,0.383,0.066,0.575c-0.055,3.549,0.558,7.059,0.625,10.601c0.035,1.867,0.093,3.734,0.119,5.601
		c0.005,0.381-0.05,0.772-0.138,1.144c-0.372,1.569-0.785,1.908-2.429,1.826c-2.313-0.115-7.458-0.264-7.777-0.249
		c-0.643,0.03-9.94,0.285-10.133,0.288c-4.573,0.083-9.145,0.178-13.718,0.234c-0.963,0.012-1.935-0.076-2.891-0.202
		c-1.133-0.15-1.57-0.65-1.498-1.818c0.124-1.998,0.123-3.991,0.006-5.987c-0.185-3.148-0.375-6.295-0.541-9.444
		c-0.037-0.704-0.064-1.425,0.043-2.117c0.182-1.173,1.149-1.729,2.291-1.317c0.719,0.26,1.396,0.649,2.07,1.018
		c2.151,1.176,4.345,2.253,6.707,2.945C101.89,146.833,102.023,146.799,102.248,146.793z M93.989,161.33
		c0.907,0.05,1.603,0.127,2.299,0.12c1.931-0.021,3.862-0.067,5.793-0.123c2.252-0.065,21.858-0.488,23.333-0.348
		c0.522,0.05,1.738,0.408,1.589-1.983c-0.121-3.987-0.614-12.632-0.772-13.11c-0.633,0.344-1.135,0.613-1.632,0.888
		c-1.633,0.903-3.243,1.85-4.904,2.699c-1.455,0.744-1.582,0.678-2.569-0.563c-0.441-0.554-0.91-1.095-1.279-1.695
		c-1.753-2.854-3.345-5.795-4.66-8.88c-0.137-0.322-0.335-0.619-0.575-1.056c-0.284,0.396-0.493,0.637-0.648,0.91
		c-1.877,3.304-3.744,6.612-5.617,9.918c-0.221,0.39-0.429,0.792-0.692,1.152c-0.242,0.331-0.619,0.509-1.023,0.389
		c-1.653-0.488-3.376-0.761-4.899-1.654c-0.662-0.388-1.395-0.655-2.083-1.003c-0.728-0.368-1.442-0.767-2.346-1.251
		C93.633,150.987,94.249,156.017,93.989,161.33z"/>
</g>
<g>
</g>
<g>
</g>
<g>
</g>
<g>
</g>
<g>
</g>
<g>
</g>
</svg>
