<?xml version="1.0" encoding="iso-8859-1"?>
<!-- Generator: Adobe Illustrator 21.0.0, SVG Export Plug-In . SVG Version: 6.00 Build 0)  -->
<svg version="1.1" id="Layer_1" xmlns="http://www.w3.org/2000/svg" xmlns:xlink="http://www.w3.org/1999/xlink" x="0px" y="0px"
	 width="612px" height="792px" viewBox="0 0 612 792" enable-background="new 0 0 612 792" xml:space="preserve">
<g>
	<path fill="#BCBEC0" d="M156.851,333.366l-47.007-0.326c-29.454,66.853-10.156,114.142,2.615,135.022l49.228,0.248
		C149.145,448.817,127.774,401.375,156.851,333.366z"/>
	<path fill="#EC008C" d="M109.844,333.04l-62.716-0.436c0,0-50.487,63.812,4.012,135.149l61.319,0.308
		C99.689,447.182,80.391,399.893,109.844,333.04z"/>
	<path fill="#FFF200" d="M298.583,433.092l-22.755-21.611l23.028-19.219l-22.75-22.328l21.267-19.228l-13.321-16.457l-127.2-0.883
		c-29.077,68.009-7.706,115.45,4.836,134.943l127.07,0.639l-13.198-17.354L298.583,433.092z"/>
</g>
<g>
	<polygon points="586.167,347.512 519.77,332.464 537.766,395.064 	"/>
	<polygon fill="#FFF200" points="479.847,407.398 451.681,391.657 468.477,367.848 440.112,351.413 455.201,327.993 
		437.464,314.978 309.87,347.566 327.863,359.991 313.557,383.799 342.455,399.478 326.456,423.72 355.131,438.711 338.91,462.265 
		357.069,475.583 480.061,443.915 462.852,430.514 	"/>
	<polygon fill="#E5B27F" points="437.464,314.978 455.201,327.993 440.112,351.413 468.477,367.848 451.681,391.657 
		479.847,407.398 462.852,430.514 480.061,443.915 490.878,441.13 537.766,395.064 519.77,332.464 439.885,314.359 	"/>
</g>
<g>
	<path d="M125.136,238.646c2.298,1.842,3.481,4.12,3.678,6.785c0.131,2.472-0.657,4.895-2.364,7.172
		c-1.248-0.048-3.086,0.146-5.385,0.485c-2.43,0.388-4.203,0.582-5.319,0.582c-2.562-2.036-3.284-5.476-2.233-10.274
		c-3.218-0.097-5.582,0-6.961,0.291c-2.43,0.533-3.875,1.696-4.335,3.538c0.329,3.441,1.642,6.64,3.94,9.596
		c2.496,3.15,5.779,5.476,9.786,6.93c7.684,3.102,12.872,5.476,15.565,7.124c5.451,3.247,8.734,6.882,9.982,11.001
		c1.248,2.375,1.51,5.186,0.788,8.529c-0.197,0.969-0.657,2.423-1.248,4.313c-0.591,1.89-0.985,3.295-1.182,4.265
		c-0.329,1.793-1.576,3.489-3.744,5.137l-6.173,3.925c-4.532,3.005-9.457,5.137-14.908,6.446c-5.911,1.405-11.624,1.647-17.141,0.63
		c-1.773,0.048-4.466-0.582-7.947-1.89c-7.355-5.331-11.559-8.675-12.675-10.032c-1.182-1.454-1.904-2.52-2.167-3.247
		c-0.46-1.211-0.263-2.326,0.657-3.344c0.854-2.956,4.729-5.573,11.493-7.851c2.102,1.599,3.744,3.828,4.86,6.688
		c0.394,0.921,0.788,2.181,1.248,3.731l1.051,3.732c0.263,0.242,2.102,1.793,5.583,4.652c3.612-1.502,5.91-2.52,6.896-3.102
		c2.43-1.406,3.809-3.005,4.203-4.846c0.985-4.458,0.919-8.675-0.328-12.6c-1.379-4.458-4.138-8.093-8.144-10.855
		c-7.815-5.67-12.347-9.014-13.463-10.032c-4.663-4.168-7.159-8.384-7.487-12.697c-0.788-3.925,0.197-7.754,2.89-11.437
		c2.692-3.586,6.502-6.3,11.361-8.093c5.583-1.211,10.836-1.551,15.828-0.969C117.649,233.654,122.115,235.544,125.136,238.646z"/>
	<path d="M171.036,235.448c-0.263-0.146,2.298,2.326,7.618,7.511c3.875,3.829,7.75,9.499,11.559,16.962
		c4.532,8.869,7.881,14.684,9.982,17.495c0.329-8.093,1.117-19.821,2.496-35.183c0.46-0.775,0.328-1.551-0.394-2.326
		c-0.197-0.194-0.525-0.533-1.051-0.969c-0.459-0.388-0.788-0.727-0.985-0.969c8.34-4.507,15.893-6.058,22.592-4.701
		c1.379,2.278,1.707,5.331,0.919,9.16c-0.985,4.992-1.444,8.142-1.313,9.353c-0.328,1.89-0.065,4.556,0.657,7.899
		c0.854,3.731,1.313,6.349,1.248,7.899c0.197,3.538,0.263,8.917,0.066,16.089c-0.197,7.124-0.197,12.455,0.065,16.041
		c0,1.405-0.263,3.586-0.788,6.542c-0.46,0.388-1.116,1.066-1.97,2.084c-0.788,0.969-1.445,1.696-1.97,2.132
		c-1.642,1.502-3.612,2.181-5.845,2.035c-4.86-0.048-9.194-0.921-13.004-2.52c-4.269-1.841-7.027-4.361-8.274-7.56
		c-1.313-3.877-4.598-9.886-9.786-18.028c-4.794-7.56-7.815-13.618-9.063-18.173c0.328,4.168,0.657,10.613,0.985,19.336
		c0.328,8.481,0.656,14.926,0.985,19.336c0.131,1.405-0.525,4.556-2.036,9.401c-7.815,1.406-13.135,1.551-15.894,0.533
		c-2.298-1.018-4.006-2.714-5.254-5.04c-0.263-0.533-1.051-2.617-2.298-6.251c0.066-0.824,0.459-2.375,1.182-4.652
		c0.591-1.89,0.854-3.441,0.723-4.652c-0.132-3.925-0.132-11.679,0.065-23.262c0.131-9.692-0.065-17.446-0.591-23.262
		c-0.197-1.502-0.197-3.102,0-4.846c0.197-1.745,0.722-3.344,1.642-4.798c0.919-1.454,1.182-3.102,0.788-4.991
		c0.197,0.048,3.087,0.193,8.8,0.436C166.439,233.654,169.131,234.333,171.036,235.448z"/>
	<path d="M283.069,233.751c4.926,10.71,7.881,19.53,8.866,26.509c0.065,0.775,3.415,14.054,9.917,39.835
		c0.196,4.556,0.262,7.318,0.131,8.335c-0.46,3.15-1.971,5.622-4.663,7.318c-12.084-3.925-19.768-11.922-23.117-24.085
		c-5.057-0.533-10.705-0.921-16.813-1.163c-0.722,2.471-2.036,5.864-4.006,10.08c-2.167,4.701-3.612,8.044-4.334,9.983
		c-2.167,1.89-5.385,3.102-9.654,3.731c-1.248,0.194-3.087,0.388-5.648,0.63c-2.495,0.242-4.334,0.436-5.517,0.63l-5.122-2.084
		c2.758-1.696,4.859-4.361,6.37-7.899c0.328-0.727,0.854-2.278,1.708-4.556c0.657-1.89,1.248-3.393,1.839-4.507
		c9.72-20.936,15.893-34.747,18.52-41.387c0.525-1.599,2.102-4.555,4.663-8.868c2.167-3.684,3.415-6.736,3.678-9.111
		c2.692-2.423,6.239-3.925,10.705-4.507C274.86,232.055,279.063,232.443,283.069,233.751z M269.146,273.587
		c-0.985-4.216-1.839-7.269-2.43-9.208c-0.329,2.036-1.445,5.088-3.218,9.159c-1.773,3.925-2.758,6.979-3.021,9.16l11.165,0.097
		C270.985,280.711,270.131,277.609,269.146,273.587z"/>
	<path d="M373.693,256.916c-0.197,0.873-0.46,2.133-0.657,3.732l-0.591,3.78c-0.591,2.956-1.708,5.331-3.415,7.027
		c-0.328,0.291-1.116,1.163-2.364,2.665c-0.985,1.115-1.773,1.987-2.495,2.666c-2.036,1.938-4.203,3.247-6.568,3.925
		c-2.495,1.115-5.845,1.938-10.113,2.375c-6.896,0.727-10.377,1.114-10.573,1.114c0.985,9.305,0.263,18.803-2.036,28.544
		c-8.997,2.957-16.747,3.732-23.117,2.278c0.131-1.599-0.723-3.634-2.496-6.106l-0.131-19.336
		c0.395-15.314,1.182-31.306,2.43-47.977c0.066-1.406,0.985-2.763,2.627-4.12l2.364-1.696l2.364-1.6l9.326,1.357
		c4.662-1.89,9.851-2.617,15.63-2.181c5.188,0.388,10.312,1.648,15.302,3.731c6.108,1.454,10.312,4.604,12.479,9.499
		C372.905,253.669,373.628,257.11,373.693,256.916z M352.94,244.268c-5.254-3.538-10.771-4.749-16.484-3.635
		c-1.051,4.022-1.379,9.547-0.92,16.526c0.525,8.093,0.592,13.618,0.264,16.574c1.247-1.26,3.939-3.102,8.143-5.476
		c3.744-2.132,6.174-4.119,7.422-5.961C356.421,254.881,356.946,248.872,352.94,244.268z"/>
	<path d="M416.639,305.233c0.46,3.586-0.263,6.3-2.102,8.19c-1.313,1.502-3.218,2.423-5.714,2.714
		c-2.43,0.291-4.531-0.097-6.305-1.163c-2.036-1.309-3.021-3.344-3.087-6.203c-0.065-2.278,0.788-3.974,2.431-5.088
		c1.642-1.163,4.203-1.599,7.552-1.357C412.764,302.567,415.193,303.537,416.639,305.233z M422.681,239.955
		c-0.657,2.278-0.854,3.78-0.657,4.458c0.197,1.018,0.065,2.52-0.328,4.41c-0.46,2.035-0.723,3.489-0.657,4.361l-0.591,15.799
		c0.132,1.793-0.065,3.877-0.525,6.3c-0.525,2.859-0.788,4.943-0.854,6.252c0,1.26-0.394,3.15-1.116,5.621
		c-0.723,2.472-1.117,4.362-1.117,5.622l-1.051,0.678c-0.459,0.339-0.787,0.533-0.984,0.63c-0.263-0.048-2.233-0.194-5.977-0.388
		c-2.496-0.145-4.203-0.824-5.188-1.938c-0.656-1.405-0.919-4.167-0.854-8.384c0.854-8.626,1.773-15.411,2.89-20.306
		c1.379-5.622,1.642-14.441,0.656-26.508c0.789-1.648,2.036-2.908,3.81-3.732c2.627-0.533,5.122-0.63,7.487-0.194
		c2.561,0.437,4.597,1.454,5.976,3.053C423.665,236.223,423.403,237.677,422.681,239.955z"/>
</g>
<g>
	<path fill="#AF4D9D" d="M181.302,214.644c-9.161-4.764-15.705-13.197-19.544-25.3c-0.174-0.837-1.309-4.571-3.402-11.33
		c-1.396-4.571-2.094-8.434-2.182-11.523c0-12.618,0.611-20.729,1.833-24.334c3.228-10.494,7.329-20.15,12.127-28.841
		c2.269-0.966,5.148-1.352,8.725-1.159c0.96,0.064,2.53,0.257,4.537,0.515c2.007,0.258,3.49,0.451,4.45,0.515
		c2.007-0.322,5.061-1.159,8.987-2.575c3.839-1.416,6.893-2.253,9.161-2.575c5.584-0.966,11.43,0,17.537,2.897
		c1.483,1.094,4.362,4.828,8.638,11.266c4.101,8.369,5.933,14.549,5.671,18.476c-0.087,2.253-0.087,6.502,0.174,12.683
		c0.175,5.343,0.087,9.527-0.349,12.682c-3.054,11.781-6.806,20.987-11.081,27.618l-3.403,6.051
		c-1.396,2.511-2.617,4.506-3.577,5.923c-3.054,4.377-7.067,7.532-11.866,9.463C196.833,218.378,188.02,218.249,181.302,214.644z
		 M214.893,191.082c5.758-10.493,8.987-21.051,9.685-31.673c-0.087-1.223-0.087-4.056,0.087-8.562
		c0.087-3.477-0.174-6.309-0.785-8.498c-2.879-10.622-5.148-17.124-6.806-19.635c-3.403-1.867-7.939-2.961-13.611-3.283
		c-2.181-0.129-4.014,0.322-5.671,1.288c-1.658,0.965-2.617,2.253-2.879,3.862c-0.611,3.992-1.309,9.786-2.094,17.446
		c-0.785,7.918-1.483,13.712-2.007,17.446c-0.873,3.862-0.174,11.073,2.182,21.695c2.617,11.91,5.933,19.571,10.034,22.918
		C205.819,202.541,209.746,198.228,214.893,191.082z"/>
	<path fill="#AF4D9D" d="M249.352,214.515c-2.53-2.639-3.665-5.408-3.49-8.305c-1.134-33.54-0.786-57.939,1.221-73.196
		c2.007-15.322,4.275-23.755,6.893-25.364c2.705-1.61,4.711-2.447,6.107-2.64c2.705-0.322,4.624,0.193,5.846,1.48
		c1.309,1.095,2.269,2.833,2.792,5.215c0.698,5.472,0.785,12.618,0.349,21.373c-0.785,11.266-1.134,19.828-0.959,25.75
		c1.483-0.708,3.49-1.931,6.02-3.669c2.705-1.867,4.886-3.219,6.369-3.991c5.41-2.704,11.43-3.669,17.974-2.961
		c6.631,0.708,11.168,4.12,13.612,10.236c2.442,6.052,2.269,14.871-0.611,26.395c-2.792,11.523-3.141,18.862-0.959,22.017
		c2.094,1.48,4.013,1.931,5.846,1.416c4.536-0.965,8.986-3.927,13.262-8.884c4.101-4.571,8.114-10.751,12.128-18.605
		c4.798-10.944,8.288-16.094,10.47-15.515c2.181,0.579,2.181,3.541-0.088,8.819c-8.638,22.854-18.496,36.244-29.402,40.107
		s-19.544,3.927-26.001,0.193c-6.456-3.734-9.597-9.335-9.423-16.803c0.175-7.468,1.396-18.927,3.577-34.377
		c0.262-1.095,0.437-2.253,0.523-3.541c0.088-1.545-0.785-2.704-2.705-3.476c-1.919-0.708-3.751-0.644-5.497,0.257
		c-2.879,1.352-5.846,4.12-9.074,8.305c-5.322,6.438-7.678,15.772-6.98,28.068c0.523,15.515,0.437,23.755-0.262,24.656
		C258.774,217.026,252.929,215.996,249.352,214.515z"/>
</g>
<g>
	<g>
		<g>
			<path fill="#00AAB1" d="M139.312,131.467c0.951,1.288,2.043,2.46,3.054,3.684c1.265,1.531,2.607,2.997,3.794,4.544
				c4.942,4.887,1.433,8.002,0.822,8.493c-1.73,1.39-4.946,6.315-15.95-0.957c-3.288-2.901-7.009-5.356-10.363-8.306
				c-2.406-2.116-4.74-4.351-6.923-6.775c-1.735-1.927-2.881-4.428-3.389-7.243c-0.523-2.897-0.455-4.693,0.956-7.483
				c0.492-0.973,2.184-3.126,3.074-3.608c3.528-1.912,6.786-1.94,9.482,0.579C124.166,114.676,134.996,125.621,139.312,131.467z
				 M116.634,124.613c0.721,1.42,1.506,2.846,2.541,3.952c5.056,5.401,10.512,10.268,16.245,14.623
				c0.846,0.642,3.844,3.123,4.869,3.48c6.331-5.867-14.862-21.723-20.731-26.797C118.829,119.423,113.637,117.681,116.634,124.613z
				"/>
			<path fill="#00AAB1" d="M107.969,210.03c-6.149-0.325-9.88-7.474-7.228-13.55c1.538-3.523,5.57-8.409,12.072-11.42
				c3.86-1.977,10.39-3.531,14.648-3.853c1.887-0.143,3.887,0.248,5.789,0.656c3.503,0.751,5.756,4.56,5.104,7.979
				c-0.555,2.91-2.31,4.854-4.426,6.605c-2.388,1.976-4.828,3.909-7.566,5.39C123.039,203.635,111.053,210.193,107.969,210.03z
				 M105.742,200.93c1.495,4.342,6.509,2.039,9.78,0.388c1.211-0.611,11.735-7.427,15.511-10.535
				c0.839-0.691,1.277-1.591,1.098-2.944c-0.429-3.25-6.183-1.503-6.996-1.373C107.668,191.352,105.393,199.916,105.742,200.93z"/>
			<path fill="#00AAB1" d="M134.421,168.942c-2.527,2.615-5.548,3.542-9.018,3.317c-3.989-0.259-7.998-0.317-11.965-0.938
				c-4.382-0.687-8.743-1.793-13.048-3.13c-2.748-0.854-5.013-2.9-6.682-5.982c-1.606-2.966-0.828-7.066,1.333-8.98
				c2.506-2.22,5.37-3.25,8.269-2.845c5.988,0.836,11.974,1.83,17.598,4.402C123.292,155.876,139.872,161.298,134.421,168.942z
				 M129.673,165.936c0.282-1.282-1.777-2.524-2.406-2.879c-3.76-2.12-6.657-3.427-10.965-4.165
				c-2.162-0.37-4.842-1.511-7.003-1.857c-2.43-0.39-5.286-0.901-7.742-0.932c-1.056-0.013-2.947,1.387-2.64,3.16
				c0.131,0.757,0.911,1.941,1.463,2.388c2.231,1.803,5.174,2.655,7.759,3.172c5.43,1.086,10.439,1.295,15.895,2.073
				C125.509,167.106,129.151,168.31,129.673,165.936z"/>
		</g>
	</g>
</g>
<g>
	<g>
		<g>
			<path fill="#00AAB1" d="M369.424,114.397c2.695-2.52,5.954-2.492,9.482-0.579c0.89,0.482,2.582,2.635,3.074,3.608
				c1.412,2.79,1.479,4.586,0.956,7.483c-0.508,2.815-1.654,5.316-3.389,7.243c-2.183,2.424-4.517,4.659-6.923,6.775
				c-3.354,2.95-7.076,5.405-10.363,8.306c-11.004,7.272-14.22,2.347-15.95,0.957c-0.611-0.491-4.12-3.607,0.822-8.493
				c1.187-1.547,2.529-3.013,3.794-4.544c1.011-1.224,2.103-2.396,3.054-3.684C358.296,125.621,369.126,114.676,369.424,114.397z
				 M373.733,119.871c-5.868,5.074-27.062,20.93-20.731,26.797c1.025-0.357,4.024-2.838,4.869-3.48
				c5.734-4.355,11.19-9.222,16.245-14.623c1.035-1.105,1.82-2.532,2.541-3.952C379.654,117.681,374.463,119.423,373.733,119.871z"
				/>
			<path fill="#00AAB1" d="M366.929,201.837c-2.738-1.481-5.177-3.415-7.566-5.39c-2.116-1.751-3.871-3.695-4.426-6.605
				c-0.652-3.418,1.601-7.227,5.104-7.979c1.902-0.408,3.902-0.799,5.789-0.656c4.257,0.322,10.788,1.876,14.648,3.853
				c6.502,3.011,10.534,7.897,12.072,11.42c2.653,6.076-1.079,13.225-7.228,13.55C382.239,210.193,370.253,203.635,366.929,201.837z
				 M368.156,186.466c-0.813-0.13-6.568-1.877-6.996,1.373c-0.178,1.352,0.259,2.253,1.098,2.944
				c3.776,3.108,14.3,9.924,15.511,10.535c3.27,1.65,8.285,3.954,9.78-0.388C387.899,199.916,385.624,191.352,368.156,186.466z"/>
			<path fill="#00AAB1" d="M372.383,154.786c5.624-2.572,11.609-3.567,17.598-4.402c2.899-0.405,5.763,0.625,8.269,2.845
				c2.161,1.914,2.94,6.013,1.333,8.98c-1.669,3.082-3.934,5.128-6.682,5.982c-4.305,1.337-8.666,2.444-13.048,3.13
				c-3.967,0.621-7.976,0.679-11.965,0.938c-3.47,0.225-6.491-0.701-9.018-3.317C353.42,161.298,369.999,155.876,372.383,154.786z
				 M369.258,166.896c5.456-0.778,10.465-0.987,15.895-2.073c2.585-0.517,5.528-1.369,7.759-3.172
				c0.552-0.446,1.332-1.631,1.463-2.388c0.307-1.773-1.585-3.174-2.64-3.16c-2.457,0.031-5.312,0.542-7.742,0.932
				c-2.161,0.347-4.841,1.487-7.003,1.857c-4.308,0.738-7.205,2.045-10.965,4.165c-0.629,0.355-2.688,1.597-2.406,2.879
				C364.141,168.31,367.783,167.106,369.258,166.896z"/>
		</g>
	</g>
</g>
<path fill="#EC008C" d="M56.564,208.452c0.127-0.502,0.448-0.988,0.959-1.456c1.082-0.969,2.277-1.321,3.585-1.057
	c0.515,0.104,2.674,0.891,6.477,2.363c1.213-1.295,2.422-2.48,3.629-3.556c1.3-1.057,2.581-1.459,3.843-1.204
	c0.842,0.17,1.562,0.623,2.161,1.36c1.053,1.268,1.455,2.691,1.202,4.267c-0.382,1.507-0.676,2.854-0.879,4.045l5.367,2.667
	c2,1.02,2.841,2.355,2.521,4.006c-0.329,1.297-1.522,2.222-3.578,2.775l-6.339,1.162c-0.399,2.734-0.715,4.562-0.949,5.483
	c-0.456,1.798-1.561,2.763-3.314,2.894c-0.5,0.031-0.959,0.004-1.38-0.08c-1.356-0.274-2.39-1.231-3.105-2.87l-1.665-3.899
	l-5.5,0.473c-0.951,0.072-1.754,0.042-2.409-0.091c-1.075-0.217-1.835-0.756-2.28-1.615c-0.445-0.86-0.583-1.625-0.414-2.294
	c0.212-0.837,0.944-1.833,2.195-2.988c1.251-1.156,2.358-2.274,3.32-3.355l-2.276-3.231
	C56.691,210.764,56.299,209.497,56.564,208.452z"/>
<path fill="#EC008C" d="M434.147,281.446c0.127-0.502,0.448-0.988,0.959-1.456c1.082-0.969,2.277-1.321,3.585-1.057
	c0.515,0.104,2.674,0.891,6.477,2.363c1.213-1.295,2.422-2.48,3.629-3.556c1.3-1.057,2.581-1.459,3.843-1.204
	c0.842,0.17,1.562,0.623,2.161,1.36c1.053,1.268,1.455,2.691,1.202,4.267c-0.382,1.507-0.676,2.854-0.879,4.045l5.367,2.667
	c2,1.02,2.841,2.355,2.521,4.006c-0.329,1.297-1.522,2.222-3.578,2.775l-6.339,1.162c-0.399,2.734-0.715,4.562-0.949,5.483
	c-0.456,1.798-1.561,2.763-3.314,2.894c-0.5,0.031-0.959,0.004-1.38-0.08c-1.357-0.274-2.39-1.231-3.105-2.87l-1.665-3.899
	l-5.5,0.473c-0.951,0.072-1.754,0.042-2.409-0.091c-1.075-0.217-1.835-0.756-2.28-1.615c-0.445-0.86-0.583-1.625-0.414-2.294
	c0.212-0.837,0.944-1.833,2.195-2.988c1.251-1.156,2.358-2.274,3.32-3.355l-2.276-3.231
	C434.274,283.759,433.882,282.492,434.147,281.446z"/>
<g>
</g>
<g>
</g>
<g>
</g>
<g>
</g>
<g>
</g>
<g>
</g>
</svg>
