  0
SECTION
  2
HEADER
  9
$ACADVER
  1
AC1024
  9
$ACADMAINTVER
 70
     6
  9
$DWGCODEPAGE
  3
ANSI_1252
  9
$INSBASE
 10
0.0
 20
0.0
 30
0.0
  9
$EXTMIN
 10
1.000000000000000E+20
 20
1.000000000000000E+20
 30
1.000000000000000E+20
  9
$EXTMAX
 10
-1.000000000000000E+20
 20
-1.000000000000000E+20
 30
-1.000000000000000E+20
  9
$LIMMIN
 10
0.0
 20
0.0
  9
$LIMMAX
 10
12.0
 20
9.0
  9
$ORTHOMODE
 70
     0
  9
$REGENMODE
 70
     1
  9
$FILLMODE
 70
     1
  9
$QTEXTMODE
 70
     0
  9
$MIRRTEXT
 70
     1
  9
$LTSCALE
 40
1.0
  9
$ATTMODE
 70
     1
  9
$TEXTSIZE
 40
0.2
  9
$TRACEWID
 40
0.05
  9
$TEXTSTYLE
  7
Standard
  9
$CLAYER
  8
0
  9
$CELTYPE
  6
ByLayer
  9
$CECOLOR
 62
   256
  9
$CELTSCALE
 40
1.0
  9
$DISPSILH
 70
     0
  9
$DIMSCALE
 40
1.0
  9
$DIMASZ
 40
0.18
  9
$DIMEXO
 40
0.0625
  9
$DIMDLI
 40
0.38
  9
$DIMRND
 40
0.0
  9
$DIMDLE
 40
0.0
  9
$DIMEXE
 40
0.18
  9
$DIMTP
 40
0.0
  9
$DIMTM
 40
0.0
  9
$DIMTXT
 40
0.18
  9
$DIMCEN
 40
0.09
  9
$DIMTSZ
 40
0.0
  9
$DIMTOL
 70
     0
  9
$DIMLIM
 70
     0
  9
$DIMTIH
 70
     1
  9
$DIMTOH
 70
     1
  9
$DIMSE1
 70
     0
  9
$DIMSE2
 70
     0
  9
$DIMTAD
 70
     0
  9
$DIMZIN
 70
     0
  9
$DIMBLK
  1

  9
$DIMASO
 70
     1
  9
$DIMSHO
 70
     1
  9
$DIMPOST
  1

  9
$DIMAPOST
  1

  9
$DIMALT
 70
     0
  9
$DIMALTD
 70
     2
  9
$DIMALTF
 40
25.4
  9
$DIMLFAC
 40
1.0
  9
$DIMTOFL
 70
     0
  9
$DIMTVP
 40
0.0
  9
$DIMTIX
 70
     0
  9
$DIMSOXD
 70
     0
  9
$DIMSAH
 70
     0
  9
$DIMBLK1
  1

  9
$DIMBLK2
  1

  9
$DIMSTYLE
  2
Standard
  9
$DIMCLRD
 70
     0
  9
$DIMCLRE
 70
     0
  9
$DIMCLRT
 70
     0
  9
$DIMTFAC
 40
1.0
  9
$DIMGAP
 40
0.09
  9
$DIMJUST
 70
     0
  9
$DIMSD1
 70
     0
  9
$DIMSD2
 70
     0
  9
$DIMTOLJ
 70
     1
  9
$DIMTZIN
 70
     0
  9
$DIMALTZ
 70
     0
  9
$DIMALTTZ
 70
     0
  9
$DIMUPT
 70
     0
  9
$DIMDEC
 70
     4
  9
$DIMTDEC
 70
     4
  9
$DIMALTU
 70
     2
  9
$DIMALTTD
 70
     2
  9
$DIMTXSTY
  7
Standard
  9
$DIMAUNIT
 70
     0
  9
$DIMADEC
 70
     0
  9
$DIMALTRND
 40
0.0
  9
$DIMAZIN
 70
     0
  9
$DIMDSEP
 70
    46
  9
$DIMATFIT
 70
     3
  9
$DIMFRAC
 70
     0
  9
$DIMLDRBLK
  1

  9
$DIMLUNIT
 70
     2
  9
$DIMLWD
 70
    -2
  9
$DIMLWE
 70
    -2
  9
$DIMTMOVE
 70
     0
  9
$DIMFXL
 40
1.0
  9
$DIMFXLON
 70
     0
  9
$DIMJOGANG
 40
0.7853981633974483
  9
$DIMTFILL
 70
     0
  9
$DIMTFILLCLR
 70
     0
  9
$DIMARCSYM
 70
     0
  9
$DIMLTYPE
  6

  9
$DIMLTEX1
  6

  9
$DIMLTEX2
  6

  9
$DIMTXTDIRECTION
 70
     0
  9
$LUNITS
 70
     2
  9
$LUPREC
 70
     4
  9
$SKETCHINC
 40
0.1
  9
$FILLETRAD
 40
0.5
  9
$AUNITS
 70
     0
  9
$AUPREC
 70
     0
  9
$MENU
  1
.
  9
$ELEVATION
 40
0.0
  9
$PELEVATION
 40
0.0
  9
$THICKNESS
 40
0.0
  9
$LIMCHECK
 70
     0
  9
$CHAMFERA
 40
0.5
  9
$CHAMFERB
 40
0.5
  9
$CHAMFERC
 40
1.0
  9
$CHAMFERD
 40
0.0
  9
$SKPOLY
 70
     0
  9
$TDCREATE
 40
2458302.547362604
  9
$TDUCREATE
 40
2458302.714029271
  9
$TDUPDATE
 40
2458302.547362697
  9
$TDUUPDATE
 40
2458302.714029363
  9
$TDINDWG
 40
0.0000000116
  9
$TDUSRTIMER
 40
0.0000000116
  9
$USRTIMER
 70
     1
  9
$ANGBASE
 50
0.0
  9
$ANGDIR
 70
     0
  9
$PDMODE
 70
     0
  9
$PDSIZE
 40
0.0
  9
$PLINEWID
 40
0.0
  9
$SPLFRAME
 70
     0
  9
$SPLINETYPE
 70
     6
  9
$SPLINESEGS
 70
     8
  9
$HANDSEED
  5
BC
  9
$SURFTAB1
 70
     6
  9
$SURFTAB2
 70
     6
  9
$SURFTYPE
 70
     6
  9
$SURFU
 70
     6
  9
$SURFV
 70
     6
  9
$UCSBASE
  2

  9
$UCSNAME
  2

  9
$UCSORG
 10
0.0
 20
0.0
 30
0.0
  9
$UCSXDIR
 10
1.0
 20
0.0
 30
0.0
  9
$UCSYDIR
 10
0.0
 20
1.0
 30
0.0
  9
$UCSORTHOREF
  2

  9
$UCSORTHOVIEW
 70
     0
  9
$UCSORGTOP
 10
0.0
 20
0.0
 30
0.0
  9
$UCSORGBOTTOM
 10
0.0
 20
0.0
 30
0.0
  9
$UCSORGLEFT
 10
0.0
 20
0.0
 30
0.0
  9
$UCSORGRIGHT
 10
0.0
 20
0.0
 30
0.0
  9
$UCSORGFRONT
 10
0.0
 20
0.0
 30
0.0
  9
$UCSORGBACK
 10
0.0
 20
0.0
 30
0.0
  9
$PUCSBASE
  2

  9
$PUCSNAME
  2

  9
$PUCSORG
 10
0.0
 20
0.0
 30
0.0
  9
$PUCSXDIR
 10
1.0
 20
0.0
 30
0.0
  9
$PUCSYDIR
 10
0.0
 20
1.0
 30
0.0
  9
$PUCSORTHOREF
  2

  9
$PUCSORTHOVIEW
 70
     0
  9
$PUCSORGTOP
 10
0.0
 20
0.0
 30
0.0
  9
$PUCSORGBOTTOM
 10
0.0
 20
0.0
 30
0.0
  9
$PUCSORGLEFT
 10
0.0
 20
0.0
 30
0.0
  9
$PUCSORGRIGHT
 10
0.0
 20
0.0
 30
0.0
  9
$PUCSORGFRONT
 10
0.0
 20
0.0
 30
0.0
  9
$PUCSORGBACK
 10
0.0
 20
0.0
 30
0.0
  9
$USERI1
 70
     0
  9
$USERI2
 70
     0
  9
$USERI3
 70
     0
  9
$USERI4
 70
     0
  9
$USERI5
 70
     0
  9
$USERR1
 40
0.0
  9
$USERR2
 40
0.0
  9
$USERR3
 40
0.0
  9
$USERR4
 40
0.0
  9
$USERR5
 40
0.0
  9
$WORLDVIEW
 70
     1
  9
$SHADEDGE
 70
     3
  9
$SHADEDIF
 70
    70
  9
$TILEMODE
 70
     1
  9
$MAXACTVP
 70
    64
  9
$PINSBASE
 10
0.0
 20
0.0
 30
0.0
  9
$PLIMCHECK
 70
     0
  9
$PEXTMIN
 10
1.000000000000000E+20
 20
1.000000000000000E+20
 30
1.000000000000000E+20
  9
$PEXTMAX
 10
-1.000000000000000E+20
 20
-1.000000000000000E+20
 30
-1.000000000000000E+20
  9
$PLIMMIN
 10
0.0
 20
0.0
  9
$PLIMMAX
 10
12.0
 20
9.0
  9
$UNITMODE
 70
     0
  9
$VISRETAIN
 70
     1
  9
$PLINEGEN
 70
     0
  9
$PSLTSCALE
 70
     1
  9
$TREEDEPTH
 70
  3020
  9
$CMLSTYLE
  2
Standard
  9
$CMLJUST
 70
     0
  9
$CMLSCALE
 40
1.0
  9
$PROXYGRAPHICS
 70
     1
  9
$MEASUREMENT
 70
     0
  9
$CELWEIGHT
370
    -1
  9
$ENDCAPS
280
     0
  9
$JOINSTYLE
280
     0
  9
$LWDISPLAY
290
     1
  9
$INSUNITS
 70
     1
  9
$HYPERLINKBASE
  1

  9
$STYLESHEET
  1

  9
$XEDIT
290
     1
  9
$CEPSNTYPE
380
     0
  9
$PSTYLEMODE
290
     1
  9
$FINGERPRINTGUID
  2
{BD6C5321-4F60-4169-B260-DCC4F80039B1}
  9
$VERSIONGUID
  2
{FAEB1C32-E019-11D5-929B-00C0DF256EC4}
  9
$EXTNAMES
290
     1
  9
$PSVPSCALE
 40
0.0
  9
$OLESTARTUP
290
     0
  9
$SORTENTS
280
   127
  9
$INDEXCTL
280
     0
  9
$HIDETEXT
280
     1
  9
$XCLIPFRAME
280
     2
  9
$HALOGAP
280
     0
  9
$OBSCOLOR
 70
   257
  9
$OBSLTYPE
280
     0
  9
$INTERSECTIONDISPLAY
280
     0
  9
$INTERSECTIONCOLOR
 70
   257
  9
$DIMASSOC
280
     2
  9
$PROJECTNAME
  1

  9
$CAMERADISPLAY
290
     0
  9
$LENSLENGTH
 40
50.0
  9
$CAMERAHEIGHT
 40
0.0
  9
$STEPSPERSEC
 40
2.0
  9
$STEPSIZE
 40
6.0
  9
$3DDWFPREC
 40
2.0
  9
$PSOLWIDTH
 40
0.25
  9
$PSOLHEIGHT
 40
4.0
  9
$LOFTANG1
 40
1.570796326794897
  9
$LOFTANG2
 40
1.570796326794897
  9
$LOFTMAG1
 40
0.0
  9
$LOFTMAG2
 40
0.0
  9
$LOFTPARAM
 70
     7
  9
$LOFTNORMALS
280
     1
  9
$LATITUDE
 40
37.795
  9
$LONGITUDE
 40
-122.394
  9
$NORTHDIRECTION
 40
0.0
  9
$TIMEZONE
 70
 -8000
  9
$LIGHTGLYPHDISPLAY
280
     1
  9
$TILEMODELIGHTSYNCH
280
     1
  9
$CMATERIAL
347
3C
  9
$SOLIDHIST
280
     1
  9
$SHOWHIST
280
     1
  9
$DWFFRAME
280
     2
  9
$DGNFRAME
280
     2
  9
$REALWORLDSCALE
290
     1
  9
$INTERFERECOLOR
 62
   256
  9
$CSHADOW
280
     0
  9
$SHADOWPLANELOCATION
 40
0.0
  0
ENDSEC
  0
SECTION
  2
CLASSES
  0
CLASS
  1
ACDBDICTIONARYWDFLT
  2
AcDbDictionaryWithDefault
  3
ObjectDBX Classes
 90
        0
 91
        4
280
     0
281
     0
  0
CLASS
  1
VISUALSTYLE
  2
AcDbVisualStyle
  3
ObjectDBX Classes
 90
     4095
 91
        4
280
     0
281
     0
  0
CLASS
  1
MATERIAL
  2
AcDbMaterial
  3
ObjectDBX Classes
 90
     1153
 91
        4
280
     0
281
     0
  0
CLASS
  1
SUN
  2
AcDbSun
  3
SCENEOE
 90
     1024
 91
        4
280
     0
281
     0
  0
ENDSEC
  0
SECTION
  2
TABLES
  0
TABLE
  2
VPORT
  5
8
330
0
100
AcDbSymbolTable
 70
     1
  0
VPORT
  5
29
330
8
100
AcDbSymbolTableRecord
100
AcDbViewportTableRecord
  2
*Active
 70
     0
 10
0.0
 20
0.0
 11
1.0
 21
1.0
 12
0.0
 22
0.0
 13
0.0
 23
0.0
 14
0.5
 24
0.5
 15
0.5
 25
0.5
 16
0.0
 26
0.0
 36
1.0
 17
306.0
 27
-396.0
 37
0.0
 40
792.0
 41
0.7727272727272727
 42
50.0
 43
0.0
 44
0.0
 50
0.0
 51
0.0
 71
     0
 72
   100
 73
     1
 74
     3
 75
     0
 76
     0
 77
     0
 78
     0
281
     0
 65
     1
110
0.0
120
0.0
130
0.0
111
1.0
121
0.0
131
0.0
112
0.0
122
1.0
132
0.0
 79
     0
146
0.0
 60
     3
 61
     5
292
     1
282
     1
141
0.0
142
0.0
 63
   250
361
3F
  0
ENDTAB
  0
TABLE
  2
LTYPE
  5
5
330
0
100
AcDbSymbolTable
 70
     1
  0
LTYPE
  5
14
330
5
100
AcDbSymbolTableRecord
100
AcDbLinetypeTableRecord
  2
ByBlock
 70
     0
  3

 72
    65
 73
     0
 40
0.0
  0
LTYPE
  5
15
330
5
100
AcDbSymbolTableRecord
100
AcDbLinetypeTableRecord
  2
ByLayer
 70
     0
  3

 72
    65
 73
     0
 40
0.0
  0
LTYPE
  5
16
330
5
100
AcDbSymbolTableRecord
100
AcDbLinetypeTableRecord
  2
Continuous
 70
     0
  3
Solid line
 72
    65
 73
     0
 40
0.0
  0
ENDTAB
  0
TABLE
  2
LAYER
  5
2
330
0
100
AcDbSymbolTable
 70
     2
  0
LAYER
  5
10
330
2
100
AcDbSymbolTableRecord
100
AcDbLayerTableRecord
  2
0
 70
     0
 62
     7
  6
Continuous
370
    -3
390
F
347
3E
  0
LAYER
  5
40
330
2
100
AcDbSymbolTableRecord
100
AcDbLayerTableRecord
  2
Layer 1
 70
     0
 62
     7
  6
Continuous
370
    -3
390
F
347
3E
  0
ENDTAB
  0
TABLE
  2
STYLE
  5
3
330
0
100
AcDbSymbolTable
 70
     1
  0
STYLE
  5
11
330
3
100
AcDbSymbolTableRecord
100
AcDbTextStyleTableRecord
  2
Standard
 70
     0
 40
0.0
 41
1.0
 50
0.0
 71
     0
 42
0.2
  3
txt
  4

  0
ENDTAB
  0
TABLE
  2
VIEW
  5
6
330
0
100
AcDbSymbolTable
 70
     0
  0
ENDTAB
  0
TABLE
  2
UCS
  5
7
330
0
100
AcDbSymbolTable
 70
     0
  0
ENDTAB
  0
TABLE
  2
APPID
  5
9
330
0
100
AcDbSymbolTable
 70
     1
  0
APPID
  5
12
330
9
100
AcDbSymbolTableRecord
100
AcDbRegAppTableRecord
  2
ACAD
 70
     0
  0
ENDTAB
  0
TABLE
  2
DIMSTYLE
  5
A
330
0
100
AcDbSymbolTable
 70
     1
100
AcDbDimStyleTable
  0
DIMSTYLE
105
27
330
A
100
AcDbSymbolTableRecord
100
AcDbDimStyleTableRecord
  2
Standard
 70
     0
178
     0
340
11
  0
ENDTAB
  0
TABLE
  2
BLOCK_RECORD
  5
1
330
0
100
AcDbSymbolTable
 70
     9
  0
BLOCK_RECORD
  5
1F
330
1
100
AcDbSymbolTableRecord
100
AcDbBlockTableRecord
  2
*Model_Space
340
22
 70
     0
280
     1
281
     0
  0
BLOCK_RECORD
  5
1B
330
1
100
AcDbSymbolTableRecord
100
AcDbBlockTableRecord
  2
*Paper_Space
340
1E
 70
     0
280
     1
281
     0
  0
BLOCK_RECORD
  5
23
330
1
100
AcDbSymbolTableRecord
100
AcDbBlockTableRecord
  2
*Paper_Space0
340
26
 70
     0
280
     1
281
     0
  0
BLOCK_RECORD
  5
41
330
1
100
AcDbSymbolTableRecord
100
AcDbBlockTableRecord
  2
block 2
340
0
102
{BLKREFS
331
42
102
}
 70
     0
280
     1
281
     0
  0
BLOCK_RECORD
  5
4B
330
1
100
AcDbSymbolTableRecord
100
AcDbBlockTableRecord
  2
block 3
340
0
102
{BLKREFS
331
4C
102
}
 70
     0
280
     1
281
     0
  0
BLOCK_RECORD
  5
7A
330
1
100
AcDbSymbolTableRecord
100
AcDbBlockTableRecord
  2
block 4
340
0
102
{BLKREFS
331
7B
102
}
 70
     0
280
     1
281
     0
  0
BLOCK_RECORD
  5
8B
330
1
100
AcDbSymbolTableRecord
100
AcDbBlockTableRecord
  2
block 5
340
0
102
{BLKREFS
331
8C
102
}
 70
     0
280
     1
281
     0
  0
BLOCK_RECORD
  5
94
330
1
100
AcDbSymbolTableRecord
100
AcDbBlockTableRecord
  2
block 6
340
0
102
{BLKREFS
331
95
102
}
 70
     0
280
     1
281
     0
  0
BLOCK_RECORD
  5
98
330
1
100
AcDbSymbolTableRecord
100
AcDbBlockTableRecord
  2
block 7
340
0
102
{BLKREFS
331
99
102
}
 70
     0
280
     1
281
     0
  0
BLOCK_RECORD
  5
A5
330
1
100
AcDbSymbolTableRecord
100
AcDbBlockTableRecord
  2
block 8
340
0
102
{BLKREFS
331
A6
102
}
 70
     0
280
     1
281
     0
  0
BLOCK_RECORD
  5
A9
330
1
100
AcDbSymbolTableRecord
100
AcDbBlockTableRecord
  2
block 9
340
0
102
{BLKREFS
331
AA
102
}
 70
     0
280
     1
281
     0
  0
ENDTAB
  0
ENDSEC
  0
SECTION
  2
BLOCKS
  0
BLOCK
  5
20
330
1F
100
AcDbEntity
  8
0
100
AcDbBlockBegin
  2
*Model_Space
 70
     0
 10
0.0
 20
0.0
 30
0.0
  3
*Model_Space
  1

  0
ENDBLK
  5
21
330
1F
100
AcDbEntity
  8
0
100
AcDbBlockEnd
  0
BLOCK
  5
1C
330
1B
100
AcDbEntity
 67
     1
  8
0
100
AcDbBlockBegin
  2
*Paper_Space
 70
     0
 10
0.0
 20
0.0
 30
0.0
  3
*Paper_Space
  1

  0
ENDBLK
  5
1D
330
1B
100
AcDbEntity
 67
     1
  8
0
100
AcDbBlockEnd
  0
BLOCK
  5
24
330
23
100
AcDbEntity
  8
0
100
AcDbBlockBegin
  2
*Paper_Space0
 70
     0
 10
0.0
 20
0.0
 30
0.0
  3
*Paper_Space0
  1

  0
ENDBLK
  5
25
330
23
100
AcDbEntity
  8
0
100
AcDbBlockEnd
  0
BLOCK
  5
43
330
41
100
AcDbEntity
  8
0
100
AcDbBlockBegin
  2
block 2
 70
     0
 10
0.0
 20
0.0
 30
0.0
  3
block 2
  1

  0
SPLINE
  5
45
330
41
100
AcDbEntity
  8
Layer 1
370
     0
100
AcDbSpline
210
0.0
220
0.0
230
1.0
 70
    11
 71
     3
 72
    17
 73
    13
 74
     0
 42
0.0000000001
 43
0.0000000001
 12
1.0
 22
0.0
 32
0.0
 13
1.0
 23
0.0
 33
0.0
 40
0.0
 40
0.0
 40
0.0
 40
0.0
 40
1.0
 40
1.0
 40
1.0
 40
2.0
 40
2.0
 40
2.0
 40
3.0
 40
3.0
 40
3.0
 40
4.0
 40
4.0
 40
4.0
 40
4.0
 10
156.8514070563278
 20
-333.3661684310764
 30
0.0
 10
156.8514070563278
 20
-333.3661684310764
 30
0.0
 10
109.844365897241
 20
-333.0397129075
 30
0.0
 10
109.844365897241
 20
-333.0397129075
 30
0.0
 10
80.39080312581154
 20
-399.8927231859525
 30
0.0
 10
99.68886417710655
 20
-447.1818016971265
 30
0.0
 10
112.4595302093367
 20
-468.0613528465583
 30
0.0
 10
112.4595302093367
 20
-468.0613528465583
 30
0.0
 10
161.687075249456
 20
-468.3090110664161
 30
0.0
 10
161.687075249456
 20
-468.3090110664161
 30
0.0
 10
149.1454580961881
 20
-448.8166179760956
 30
0.0
 10
127.7743425725976
 20
-401.3748405638653
 30
0.0
 10
156.8514070563278
 20
-333.3661684310764
 30
0.0
  0
HATCH
  5
46
330
41
100
AcDbEntity
  8
Layer 1
 62
     9
420
 12303808
100
AcDbHatch
 10
0.0
 20
0.0
 30
0.0
210
0.0
220
0.0
230
1.0
  2
SOLID
 70
     1
 71
     0
 91
        1
 92
        1
 93
        1
 72
     4
 94
        3
 73
     0
 74
     1
 95
       17
 96
       13
 40
0.0
 40
0.0
 40
0.0
 40
0.0
 40
1.0
 40
1.0
 40
1.0
 40
2.0
 40
2.0
 40
2.0
 40
3.0
 40
3.0
 40
3.0
 40
4.0
 40
4.0
 40
4.0
 40
4.0
 10
156.8514070563278
 20
-333.3661684310764
 10
156.8514070563278
 20
-333.3661684310764
 10
109.844365897241
 20
-333.0397129075
 10
109.844365897241
 20
-333.0397129075
 10
80.39080312581154
 20
-399.8927231859525
 10
99.68886417710655
 20
-447.1818016971265
 10
112.4595302093367
 20
-468.0613528465583
 10
112.4595302093367
 20
-468.0613528465583
 10
161.687075249456
 20
-468.3090110664161
 10
161.687075249456
 20
-468.3090110664161
 10
149.1454580961881
 20
-448.8166179760956
 10
127.7743425725976
 20
-401.3748405638653
 10
156.8514070563278
 20
-333.3661684310764
 97
        0
 97
        0
 75
     2
 76
     1
 98
        0
  0
SPLINE
  5
47
330
41
100
AcDbEntity
  8
Layer 1
370
     0
100
AcDbSpline
210
0.0
220
0.0
230
1.0
 70
    11
 71
     3
 72
    17
 73
    13
 74
     0
 42
0.0000000001
 43
0.0000000001
 12
1.0
 22
0.0
 32
0.0
 13
1.0
 23
0.0
 33
0.0
 40
0.0
 40
0.0
 40
0.0
 40
0.0
 40
1.0
 40
1.0
 40
1.0
 40
2.0
 40
2.0
 40
2.0
 40
3.0
 40
3.0
 40
3.0
 40
4.0
 40
4.0
 40
4.0
 40
4.0
 10
109.844365897241
 20
-333.0397129075
 30
0.0
 10
109.844365897241
 20
-333.0397129075
 30
0.0
 10
47.12821494061882
 20
-332.6041902453599
 30
0.0
 10
47.12821494061882
 20
-332.6041902453599
 30
0.0
 10
47.12821494061882
 20
-332.6041902453599
 30
0.0
 10
-3.358717587542742
 20
-396.41617520811
 30
0.0
 10
51.14012821683536
 20
-467.7529218511008
 30
0.0
 10
51.14012821683536
 20
-467.7529218511008
 30
0.0
 10
112.4595302093367
 20
-468.0613528465583
 30
0.0
 10
112.4595302093367
 20
-468.0613528465583
 30
0.0
 10
99.68886417710655
 20
-447.1818016971265
 30
0.0
 10
80.39080312581154
 20
-399.8927231859525
 30
0.0
 10
109.844365897241
 20
-333.0397129075
 30
0.0
  0
HATCH
  5
48
330
41
100
AcDbEntity
  8
Layer 1
 62
   230
420
 15466635
100
AcDbHatch
 10
0.0
 20
0.0
 30
0.0
210
0.0
220
0.0
230
1.0
  2
SOLID
 70
     1
 71
     0
 91
        1
 92
        1
 93
        1
 72
     4
 94
        3
 73
     0
 74
     1
 95
       17
 96
       13
 40
0.0
 40
0.0
 40
0.0
 40
0.0
 40
1.0
 40
1.0
 40
1.0
 40
2.0
 40
2.0
 40
2.0
 40
3.0
 40
3.0
 40
3.0
 40
4.0
 40
4.0
 40
4.0
 40
4.0
 10
109.844365897241
 20
-333.0397129075
 10
109.844365897241
 20
-333.0397129075
 10
47.12821494061882
 20
-332.6041902453599
 10
47.12821494061882
 20
-332.6041902453599
 10
47.12821494061882
 20
-332.6041902453599
 10
-3.358717587542742
 20
-396.41617520811
 10
51.14012821683536
 20
-467.7529218511008
 10
51.14012821683536
 20
-467.7529218511008
 10
112.4595302093367
 20
-468.0613528465583
 10
112.4595302093367
 20
-468.0613528465583
 10
99.68886417710655
 20
-447.1818016971265
 10
80.39080312581154
 20
-399.8927231859525
 10
109.844365897241
 20
-333.0397129075
 97
        0
 97
        0
 75
     2
 76
     1
 98
        0
  0
SPLINE
  5
49
330
41
100
AcDbEntity
  8
Layer 1
370
     0
100
AcDbSpline
210
0.0
220
0.0
230
1.0
 70
    11
 71
     3
 72
    35
 73
    31
 74
     0
 42
0.0000000001
 43
0.0000000001
 12
1.0
 22
0.0
 32
0.0
 13
1.0
 23
0.0
 33
0.0
 40
0.0
 40
0.0
 40
0.0
 40
0.0
 40
1.0
 40
1.0
 40
1.0
 40
2.0
 40
2.0
 40
2.0
 40
3.0
 40
3.0
 40
3.0
 40
4.0
 40
4.0
 40
4.0
 40
5.0
 40
5.0
 40
5.0
 40
6.0
 40
6.0
 40
6.0
 40
7.0
 40
7.0
 40
7.0
 40
8.0
 40
8.0
 40
8.0
 40
9.0
 40
9.0
 40
9.0
 40
10.0
 40
10.0
 40
10.0
 40
10.0
 10
298.5830334944694
 20
-433.0919245523073
 30
0.0
 10
298.5830334944694
 20
-433.0919245523073
 30
0.0
 10
275.8279613948243
 20
-411.4804669919613
 30
0.0
 10
275.8279613948243
 20
-411.4804669919613
 30
0.0
 10
275.8279613948243
 20
-411.4804669919613
 30
0.0
 10
298.8563239338546
 20
-392.2619432750298
 30
0.0
 10
298.8563239338546
 20
-392.2619432750298
 30
0.0
 10
298.8563239338546
 20
-392.2619432750298
 30
0.0
 10
276.1060540688395
 20
-369.9342809523287
 30
0.0
 10
276.1060540688395
 20
-369.9342809523287
 30
0.0
 10
276.1060540688395
 20
-369.9342809523287
 30
0.0
 10
297.3728806520357
 20
-350.7063873050283
 30
0.0
 10
297.3728806520357
 20
-350.7063873050283
 30
0.0
 10
297.3728806520357
 20
-350.7063873050283
 30
0.0
 10
284.0518393944703
 20
-334.2495570262063
 30
0.0
 10
284.0518393944703
 20
-334.2495570262063
 30
0.0
 10
284.0518393944703
 20
-334.2495570262063
 30
0.0
 10
156.8514070563278
 20
-333.3661684310764
 30
0.0
 10
156.8514070563278
 20
-333.3661684310764
 30
0.0
 10
127.7743425725976
 20
-401.3748405638653
 30
0.0
 10
149.1454580961881
 20
-448.8166179760956
 30
0.0
 10
161.687075249456
 20
-468.3090110664161
 30
0.0
 10
161.687075249456
 20
-468.3090110664161
 30
0.0
 10
288.7573013537531
 20
-468.9482536472697
 30
0.0
 10
288.7573013537531
 20
-468.9482536472697
 30
0.0
 10
288.7573013537531
 20
-468.9482536472697
 30
0.0
 10
275.559479304954
 20
-451.594090140974
 30
0.0
 10
275.559479304954
 20
-451.594090140974
 30
0.0
 10
275.559479304954
 20
-451.594090140974
 30
0.0
 10
298.5830334944694
 20
-433.0919245523073
 30
0.0
 10
298.5830334944694
 20
-433.0919245523073
 30
0.0
  0
HATCH
  5
4A
330
41
100
AcDbEntity
  8
Layer 1
 62
     2
420
 16773376
100
AcDbHatch
 10
0.0
 20
0.0
 30
0.0
210
0.0
220
0.0
230
1.0
  2
SOLID
 70
     1
 71
     0
 91
        1
 92
        1
 93
        1
 72
     4
 94
        3
 73
     0
 74
     1
 95
       35
 96
       31
 40
0.0
 40
0.0
 40
0.0
 40
0.0
 40
1.0
 40
1.0
 40
1.0
 40
2.0
 40
2.0
 40
2.0
 40
3.0
 40
3.0
 40
3.0
 40
4.0
 40
4.0
 40
4.0
 40
5.0
 40
5.0
 40
5.0
 40
6.0
 40
6.0
 40
6.0
 40
7.0
 40
7.0
 40
7.0
 40
8.0
 40
8.0
 40
8.0
 40
9.0
 40
9.0
 40
9.0
 40
10.0
 40
10.0
 40
10.0
 40
10.0
 10
298.5830334944694
 20
-433.0919245523073
 10
298.5830334944694
 20
-433.0919245523073
 10
275.8279613948243
 20
-411.4804669919613
 10
275.8279613948243
 20
-411.4804669919613
 10
275.8279613948243
 20
-411.4804669919613
 10
298.8563239338546
 20
-392.2619432750298
 10
298.8563239338546
 20
-392.2619432750298
 10
298.8563239338546
 20
-392.2619432750298
 10
276.1060540688395
 20
-369.9342809523287
 10
276.1060540688395
 20
-369.9342809523287
 10
276.1060540688395
 20
-369.9342809523287
 10
297.3728806520357
 20
-350.7063873050283
 10
297.3728806520357
 20
-350.7063873050283
 10
297.3728806520357
 20
-350.7063873050283
 10
284.0518393944703
 20
-334.2495570262063
 10
284.0518393944703
 20
-334.2495570262063
 10
284.0518393944703
 20
-334.2495570262063
 10
156.8514070563278
 20
-333.3661684310764
 10
156.8514070563278
 20
-333.3661684310764
 10
127.7743425725976
 20
-401.3748405638653
 10
149.1454580961881
 20
-448.8166179760956
 10
161.687075249456
 20
-468.3090110664161
 10
161.687075249456
 20
-468.3090110664161
 10
288.7573013537531
 20
-468.9482536472697
 10
288.7573013537531
 20
-468.9482536472697
 10
288.7573013537531
 20
-468.9482536472697
 10
275.559479304954
 20
-451.594090140974
 10
275.559479304954
 20
-451.594090140974
 10
275.559479304954
 20
-451.594090140974
 10
298.5830334944694
 20
-433.0919245523073
 10
298.5830334944694
 20
-433.0919245523073
 97
        0
 97
        0
 75
     2
 76
     1
 98
        0
  0
ENDBLK
  5
44
330
41
100
AcDbEntity
  8
0
100
AcDbBlockEnd
  0
BLOCK
  5
4D
330
4B
100
AcDbEntity
  8
0
100
AcDbBlockBegin
  2
block 3
 70
     0
 10
0.0
 20
0.0
 30
0.0
  3
block 3
  1

  0
POLYLINE
  5
4F
330
4B
100
AcDbEntity
  8
Layer 1
370
     0
100
AcDb2dPolyline
 66
     1
 10
0.0
 20
0.0
 30
0.0
  0
VERTEX
  5
50
330
4F
100
AcDbEntity
  8
Layer 1
370
     0
100
AcDbVertex
100
AcDb2dVertex
 10
586.1673224232582
 20
-347.5124798965762
 30
0.0
  0
VERTEX
  5
51
330
4F
100
AcDbEntity
  8
Layer 1
370
     0
100
AcDbVertex
100
AcDb2dVertex
 10
519.7699421730831
 20
-332.4642176513471
 30
0.0
  0
VERTEX
  5
52
330
4F
100
AcDbEntity
  8
Layer 1
370
     0
100
AcDbVertex
100
AcDb2dVertex
 10
537.766484093152
 20
-395.0641472591578
 30
0.0
  0
VERTEX
  5
53
330
4F
100
AcDbEntity
  8
Layer 1
370
     0
100
AcDbVertex
100
AcDb2dVertex
 10
586.1673224232582
 20
-347.5124798965762
 30
0.0
  0
SEQEND
  5
55
330
4F
100
AcDbEntity
  8
Layer 1
370
     0
  0
HATCH
  5
54
330
4B
100
AcDbEntity
  8
Layer 1
 62
   250
420
  2301728
100
AcDbHatch
 10
0.0
 20
0.0
 30
0.0
210
0.0
220
0.0
230
1.0
  2
SOLID
 70
     1
 71
     0
 91
        1
 92
        1
 93
        3
 72
     1
 10
586.1673224232582
 20
-347.5124798965762
 11
519.7699421730831
 21
-332.4642176513471
 72
     1
 10
519.7699421730831
 20
-332.4642176513471
 11
537.766484093152
 21
-395.0641472591578
 72
     1
 10
537.766484093152
 20
-395.0641472591578
 11
586.1673224232582
 21
-347.5124798965762
 97
        0
 75
     2
 76
     1
 98
        0
  0
POLYLINE
  5
56
330
4B
100
AcDbEntity
  8
Layer 1
370
     0
100
AcDb2dPolyline
 66
     1
 10
0.0
 20
0.0
 30
0.0
  0
VERTEX
  5
57
330
56
100
AcDbEntity
  8
Layer 1
370
     0
100
AcDbVertex
100
AcDb2dVertex
 10
479.8471811273248
 20
-407.3980824769969
 30
0.0
  0
VERTEX
  5
58
330
56
100
AcDbEntity
  8
Layer 1
370
     0
100
AcDbVertex
100
AcDb2dVertex
 10
451.6814610572637
 20
-391.6571316233567
 30
0.0
  0
VERTEX
  5
59
330
56
100
AcDbEntity
  8
Layer 1
370
     0
100
AcDbVertex
100
AcDb2dVertex
 10
468.4769810020953
 20
-367.8474993356631
 30
0.0
  0
VERTEX
  5
5A
330
56
100
AcDbEntity
  8
Layer 1
370
     0
100
AcDbVertex
100
AcDb2dVertex
 10
440.111773240511
 20
-351.4126420913817
 30
0.0
  0
VERTEX
  5
5B
330
56
100
AcDbEntity
  8
Layer 1
370
     0
100
AcDbVertex
100
AcDb2dVertex
 10
455.2010325337869
 20
-327.9934098270005
 30
0.0
  0
VERTEX
  5
5C
330
56
100
AcDbEntity
  8
Layer 1
370
     0
100
AcDbVertex
100
AcDb2dVertex
 10
437.4639232203881
 20
-314.9777654094823
 30
0.0
  0
VERTEX
  5
5D
330
56
100
AcDbEntity
  8
Layer 1
370
     0
100
AcDbVertex
100
AcDb2dVertex
 10
309.870475136293
 20
-347.5655956774726
 30
0.0
  0
VERTEX
  5
5E
330
56
100
AcDbEntity
  8
Layer 1
370
     0
100
AcDbVertex
100
AcDb2dVertex
 10
327.8631558265479
 20
-359.9913908544959
 30
0.0
  0
VERTEX
  5
5F
330
56
100
AcDbEntity
  8
Layer 1
370
     0
100
AcDbVertex
100
AcDb2dVertex
 10
313.5570717563241
 20
-383.7986076418611
 30
0.0
  0
VERTEX
  5
60
330
56
100
AcDbEntity
  8
Layer 1
370
     0
100
AcDbVertex
100
AcDb2dVertex
 10
342.4547527026298
 20
-399.4775968044851
 30
0.0
  0
VERTEX
  5
61
330
56
100
AcDbEntity
  8
Layer 1
370
     0
100
AcDbVertex
100
AcDb2dVertex
 10
326.45602324012
 20
-423.7201025968061
 30
0.0
  0
VERTEX
  5
62
330
56
100
AcDbEntity
  8
Layer 1
370
     0
100
AcDbVertex
100
AcDb2dVertex
 10
355.1313501720306
 20
-438.7108925743778
 30
0.0
  0
VERTEX
  5
63
330
56
100
AcDbEntity
  8
Layer 1
370
     0
100
AcDbVertex
100
AcDb2dVertex
 10
338.9102239599615
 20
-462.265050529888
 30
0.0
  0
VERTEX
  5
64
330
56
100
AcDbEntity
  8
Layer 1
370
     0
100
AcDbVertex
100
AcDb2dVertex
 10
357.0690707353097
 20
-475.5826503560093
 30
0.0
  0
VERTEX
  5
65
330
56
100
AcDbEntity
  8
Layer 1
370
     0
100
AcDbVertex
100
AcDb2dVertex
 10
480.0608359837661
 20
-443.9150998817549
 30
0.0
  0
VERTEX
  5
66
330
56
100
AcDbEntity
  8
Layer 1
370
     0
100
AcDbVertex
100
AcDb2dVertex
 10
462.8521734909646
 20
-430.5138083740567
 30
0.0
  0
VERTEX
  5
67
330
56
100
AcDbEntity
  8
Layer 1
370
     0
100
AcDbVertex
100
AcDb2dVertex
 10
479.8471811273248
 20
-407.3980824769969
 30
0.0
  0
SEQEND
  5
69
330
56
100
AcDbEntity
  8
Layer 1
370
     0
  0
HATCH
  5
68
330
4B
100
AcDbEntity
  8
Layer 1
 62
     2
420
 16773376
100
AcDbHatch
 10
0.0
 20
0.0
 30
0.0
210
0.0
220
0.0
230
1.0
  2
SOLID
 70
     1
 71
     0
 91
        1
 92
        1
 93
       16
 72
     1
 10
479.8471811273248
 20
-407.3980824769969
 11
451.6814610572637
 21
-391.6571316233567
 72
     1
 10
451.6814610572637
 20
-391.6571316233567
 11
468.4769810020953
 21
-367.8474993356631
 72
     1
 10
468.4769810020953
 20
-367.8474993356631
 11
440.111773240511
 21
-351.4126420913817
 72
     1
 10
440.111773240511
 20
-351.4126420913817
 11
455.2010325337869
 21
-327.9934098270005
 72
     1
 10
455.2010325337869
 20
-327.9934098270005
 11
437.4639232203881
 21
-314.9777654094823
 72
     1
 10
437.4639232203881
 20
-314.9777654094823
 11
309.870475136293
 21
-347.5655956774726
 72
     1
 10
309.870475136293
 20
-347.5655956774726
 11
327.8631558265479
 21
-359.9913908544959
 72
     1
 10
327.8631558265479
 20
-359.9913908544959
 11
313.5570717563241
 21
-383.7986076418611
 72
     1
 10
313.5570717563241
 20
-383.7986076418611
 11
342.4547527026298
 21
-399.4775968044851
 72
     1
 10
342.4547527026298
 20
-399.4775968044851
 11
326.45602324012
 21
-423.7201025968061
 72
     1
 10
326.45602324012
 20
-423.7201025968061
 11
355.1313501720306
 21
-438.7108925743778
 72
     1
 10
355.1313501720306
 20
-438.7108925743778
 11
338.9102239599615
 21
-462.265050529888
 72
     1
 10
338.9102239599615
 20
-462.265050529888
 11
357.0690707353097
 21
-475.5826503560093
 72
     1
 10
357.0690707353097
 20
-475.5826503560093
 11
480.0608359837661
 21
-443.9150998817549
 72
     1
 10
480.0608359837661
 20
-443.9150998817549
 11
462.8521734909646
 21
-430.5138083740567
 72
     1
 10
462.8521734909646
 20
-430.5138083740567
 11
479.8471811273248
 21
-407.3980824769969
 97
        0
 75
     2
 76
     1
 98
        0
  0
POLYLINE
  5
6A
330
4B
100
AcDbEntity
  8
Layer 1
370
     0
100
AcDb2dPolyline
 66
     1
 10
0.0
 20
0.0
 30
0.0
  0
VERTEX
  5
6B
330
6A
100
AcDbEntity
  8
Layer 1
370
     0
100
AcDbVertex
100
AcDb2dVertex
 10
437.4639232203881
 20
-314.9777654094823
 30
0.0
  0
VERTEX
  5
6C
330
6A
100
AcDbEntity
  8
Layer 1
370
     0
100
AcDbVertex
100
AcDb2dVertex
 10
455.2010325337869
 20
-327.9934098270005
 30
0.0
  0
VERTEX
  5
6D
330
6A
100
AcDbEntity
  8
Layer 1
370
     0
100
AcDbVertex
100
AcDb2dVertex
 10
440.111773240511
 20
-351.4126420913817
 30
0.0
  0
VERTEX
  5
6E
330
6A
100
AcDbEntity
  8
Layer 1
370
     0
100
AcDbVertex
100
AcDb2dVertex
 10
468.4769810020953
 20
-367.8474993356631
 30
0.0
  0
VERTEX
  5
6F
330
6A
100
AcDbEntity
  8
Layer 1
370
     0
100
AcDbVertex
100
AcDb2dVertex
 10
451.6814610572637
 20
-391.6571316233567
 30
0.0
  0
VERTEX
  5
70
330
6A
100
AcDbEntity
  8
Layer 1
370
     0
100
AcDbVertex
100
AcDb2dVertex
 10
479.8471811273248
 20
-407.3980824769969
 30
0.0
  0
VERTEX
  5
71
330
6A
100
AcDbEntity
  8
Layer 1
370
     0
100
AcDbVertex
100
AcDb2dVertex
 10
462.8521734909646
 20
-430.5138083740567
 30
0.0
  0
VERTEX
  5
72
330
6A
100
AcDbEntity
  8
Layer 1
370
     0
100
AcDbVertex
100
AcDb2dVertex
 10
480.0608359837661
 20
-443.9150998817549
 30
0.0
  0
VERTEX
  5
73
330
6A
100
AcDbEntity
  8
Layer 1
370
     0
100
AcDbVertex
100
AcDb2dVertex
 10
490.8780666182938
 20
-441.1298639722991
 30
0.0
  0
VERTEX
  5
74
330
6A
100
AcDbEntity
  8
Layer 1
370
     0
100
AcDbVertex
100
AcDb2dVertex
 10
537.766484093152
 20
-395.0641472591578
 30
0.0
  0
VERTEX
  5
75
330
6A
100
AcDbEntity
  8
Layer 1
370
     0
100
AcDbVertex
100
AcDb2dVertex
 10
519.7699421730831
 20
-332.4642176513471
 30
0.0
  0
VERTEX
  5
76
330
6A
100
AcDbEntity
  8
Layer 1
370
     0
100
AcDbVertex
100
AcDb2dVertex
 10
439.8854496575495
 20
-314.3592284870392
 30
0.0
  0
VERTEX
  5
77
330
6A
100
AcDbEntity
  8
Layer 1
370
     0
100
AcDbVertex
100
AcDb2dVertex
 10
437.4639232203881
 20
-314.9777654094823
 30
0.0
  0
SEQEND
  5
79
330
6A
100
AcDbEntity
  8
Layer 1
370
     0
  0
HATCH
  5
78
330
4B
100
AcDbEntity
  8
Layer 1
 62
    31
420
 14987902
100
AcDbHatch
 10
0.0
 20
0.0
 30
0.0
210
0.0
220
0.0
230
1.0
  2
SOLID
 70
     1
 71
     0
 91
        1
 92
        1
 93
       12
 72
     1
 10
437.4639232203881
 20
-314.9777654094823
 11
455.2010325337869
 21
-327.9934098270005
 72
     1
 10
455.2010325337869
 20
-327.9934098270005
 11
440.111773240511
 21
-351.4126420913817
 72
     1
 10
440.111773240511
 20
-351.4126420913817
 11
468.4769810020953
 21
-367.8474993356631
 72
     1
 10
468.4769810020953
 20
-367.8474993356631
 11
451.6814610572637
 21
-391.6571316233567
 72
     1
 10
451.6814610572637
 20
-391.6571316233567
 11
479.8471811273248
 21
-407.3980824769969
 72
     1
 10
479.8471811273248
 20
-407.3980824769969
 11
462.8521734909646
 21
-430.5138083740567
 72
     1
 10
462.8521734909646
 20
-430.5138083740567
 11
480.0608359837661
 21
-443.9150998817549
 72
     1
 10
480.0608359837661
 20
-443.9150998817549
 11
490.8780666182938
 21
-441.1298639722991
 72
     1
 10
490.8780666182938
 20
-441.1298639722991
 11
537.766484093152
 21
-395.0641472591578
 72
     1
 10
537.766484093152
 20
-395.0641472591578
 11
519.7699421730831
 21
-332.4642176513471
 72
     1
 10
519.7699421730831
 20
-332.4642176513471
 11
439.8854496575495
 21
-314.3592284870392
 72
     1
 10
439.8854496575495
 20
-314.3592284870392
 11
437.4639232203881
 21
-314.9777654094823
 97
        0
 75
     2
 76
     1
 98
        0
  0
ENDBLK
  5
4E
330
4B
100
AcDbEntity
  8
0
100
AcDbBlockEnd
  0
BLOCK
  5
7C
330
7A
100
AcDbEntity
  8
0
100
AcDbBlockBegin
  2
block 4
 70
     0
 10
0.0
 20
0.0
 30
0.0
  3
block 4
  1

  0
SPLINE
  5
7E
330
7A
100
AcDbEntity
  8
Layer 1
370
     0
100
AcDbSpline
210
0.0
220
0.0
230
1.0
 70
    11
 71
     3
 72
   116
 73
   112
 74
     0
 42
0.0000000001
 43
0.0000000001
 12
1.0
 22
0.0
 32
0.0
 13
1.0
 23
0.0
 33
0.0
 40
0.0
 40
0.0
 40
0.0
 40
0.0
 40
1.0
 40
1.0
 40
1.0
 40
2.0
 40
2.0
 40
2.0
 40
3.0
 40
3.0
 40
3.0
 40
4.0
 40
4.0
 40
4.0
 40
5.0
 40
5.0
 40
5.0
 40
6.0
 40
6.0
 40
6.0
 40
7.0
 40
7.0
 40
7.0
 40
8.0
 40
8.0
 40
8.0
 40
9.0
 40
9.0
 40
9.0
 40
10.0
 40
10.0
 40
10.0
 40
11.0
 40
11.0
 40
11.0
 40
12.0
 40
12.0
 40
12.0
 40
13.0
 40
13.0
 40
13.0
 40
14.0
 40
14.0
 40
14.0
 40
15.0
 40
15.0
 40
15.0
 40
16.0
 40
16.0
 40
16.0
 40
17.0
 40
17.0
 40
17.0
 40
18.0
 40
18.0
 40
18.0
 40
19.0
 40
19.0
 40
19.0
 40
20.0
 40
20.0
 40
20.0
 40
21.0
 40
21.0
 40
21.0
 40
22.0
 40
22.0
 40
22.0
 40
23.0
 40
23.0
 40
23.0
 40
24.0
 40
24.0
 40
24.0
 40
25.0
 40
25.0
 40
25.0
 40
26.0
 40
26.0
 40
26.0
 40
27.0
 40
27.0
 40
27.0
 40
28.0
 40
28.0
 40
28.0
 40
29.0
 40
29.0
 40
29.0
 40
30.0
 40
30.0
 40
30.0
 40
31.0
 40
31.0
 40
31.0
 40
32.0
 40
32.0
 40
32.0
 40
33.0
 40
33.0
 40
33.0
 40
34.0
 40
34.0
 40
34.0
 40
35.0
 40
35.0
 40
35.0
 40
36.0
 40
36.0
 40
36.0
 40
37.0
 40
37.0
 40
37.0
 40
37.0
 10
125.1357421874982
 20
-238.6459686180424
 30
0.0
 10
127.4340820312482
 20
-240.4877654930424
 30
0.0
 10
128.6166992187482
 20
-242.7655975242924
 30
0.0
 10
128.8134765624982
 20
-245.4306365867924
 30
0.0
 10
128.9448242187482
 20
-247.9023162742924
 30
0.0
 10
128.1567382812482
 20
-250.3251678367924
 30
0.0
 10
126.4492187499982
 20
-252.6029998680424
 30
0.0
 10
125.2016601562482
 20
-252.5546600242924
 30
0.0
 10
123.3627929687482
 20
-252.7485076805424
 30
0.0
 10
121.0639648437482
 20
-253.0878631492924
 30
0.0
 10
118.6342773437482
 20
-253.4755584617924
 30
0.0
 10
116.8608398437482
 20
-253.6694061180424
 30
0.0
 10
115.7446289062482
 20
-253.6694061180424
 30
0.0
 10
113.1831054687482
 20
-251.6337615867924
 30
0.0
 10
112.4604492187482
 20
-248.1933318992924
 30
0.0
 10
113.5112304687482
 20
-243.3954803367924
 30
0.0
 10
110.2934570312482
 20
-243.2983123680424
 30
0.0
 10
107.9291992187482
 20
-243.3954803367924
 30
0.0
 10
106.5502929687482
 20
-243.6860076805424
 30
0.0
 10
104.1201171874982
 20
-244.2192108055424
 30
0.0
 10
102.6752929687482
 20
-245.3822967430424
 30
0.0
 10
102.2153320312482
 20
-247.2236053367924
 30
0.0
 10
102.5439453124982
 20
-250.6645233055424
 30
0.0
 10
103.8574218749982
 20
-253.8632537742924
 30
0.0
 10
106.1557617187482
 20
-256.8193084617924
 30
0.0
 10
108.6518554687482
 20
-259.9692108055424
 30
0.0
 10
111.9350585937482
 20
-262.2953826805424
 30
0.0
 10
115.9414062499982
 20
-263.7494842430424
 30
0.0
 10
123.6254882812482
 20
-266.8510467430424
 30
0.0
 10
128.8134765624982
 20
-269.2255584617924
 30
0.0
 10
131.5063476562482
 20
-270.8730193992924
 30
0.0
 10
136.9570312499982
 20
-274.1200897117924
 30
0.0
 10
140.2407226562482
 20
-277.7548553367924
 30
0.0
 10
141.4887695312482
 20
-281.8739959617924
 30
0.0
 10
142.7363281249982
 20
-284.2489959617924
 30
0.0
 10
142.9990234374982
 20
-287.0595428367924
 30
0.0
 10
142.2768554687482
 20
-290.4032928367924
 30
0.0
 10
142.0795898437482
 20
-291.3725311180424
 30
0.0
 10
141.6196289062482
 20
-292.8266326805424
 30
0.0
 10
141.0288085937482
 20
-294.7167693992924
 30
0.0
 10
140.4379882812482
 20
-296.6064178367924
 30
0.0
 10
140.0434570312482
 20
-298.0116912742924
 30
0.0
 10
139.8466796874982
 20
-298.9814178367924
 30
0.0
 10
139.5180664062482
 20
-300.7743865867924
 30
0.0
 10
138.2705078124982
 20
-302.4706756492924
 30
0.0
 10
136.1030273437482
 20
-304.1181365867924
 30
0.0
 10
136.1030273437482
 20
-304.1181365867924
 30
0.0
 10
129.9301757812482
 20
-308.0434295555424
 30
0.0
 10
129.9301757812482
 20
-308.0434295555424
 30
0.0
 10
125.3984374999982
 20
-311.0483123680424
 30
0.0
 10
120.4731445312482
 20
-313.1806365867924
 30
0.0
 10
115.0219726562482
 20
-314.4892303367924
 30
0.0
 10
109.1113281249982
 20
-315.8945037742924
 30
0.0
 10
103.3979492187482
 20
-316.1366912742924
 30
0.0
 10
97.88134765624818
 20
-315.1191131492924
 30
0.0
 10
96.10791015624818
 20
-315.1674529930424
 30
0.0
 10
93.41552734374818
 20
-314.5375701805424
 30
0.0
 10
89.93457031249818
 20
-313.2289764305424
 30
0.0
 10
82.57910156249818
 20
-307.8984100242924
 30
0.0
 10
78.37597656249818
 20
-304.5541717430424
 30
0.0
 10
77.25927734374818
 20
-303.1972381492924
 30
0.0
 10
76.07763671874818
 20
-301.7436248680424
 30
0.0
 10
75.35498046874818
 20
-300.6772186180424
 30
0.0
 10
75.09228515624818
 20
-299.9501678367924
 30
0.0
 10
74.63232421874818
 20
-298.7387420555424
 30
0.0
 10
74.82958984374818
 20
-297.6239959617924
 30
0.0
 10
75.74902343749818
 20
-296.6064178367924
 30
0.0
 10
76.60302734374818
 20
-293.6503631492924
 30
0.0
 10
80.47753906249818
 20
-291.0331756492924
 30
0.0
 10
87.24169921874818
 20
-288.7558318992924
 30
0.0
 10
89.34326171874818
 20
-290.3549529930424
 30
0.0
 10
90.98535156249818
 20
-292.5839568992924
 30
0.0
 10
92.10205078124818
 20
-295.4433318992924
 30
0.0
 10
92.49560546874818
 20
-296.3642303367924
 30
0.0
 10
92.89013671874818
 20
-297.6239959617924
 30
0.0
 10
93.34960937499818
 20
-299.1747772117924
 30
0.0
 10
93.34960937499818
 20
-299.1747772117924
 30
0.0
 10
94.40039062499818
 20
-302.9067108055424
 30
0.0
 10
94.40039062499818
 20
-302.9067108055424
 30
0.0
 10
94.66308593749818
 20
-303.1488983055424
 30
0.0
 10
96.50195312499818
 20
-304.6996795555424
 30
0.0
 10
99.98291015624818
 20
-307.5590545555424
 30
0.0
 10
103.5947265624982
 20
-306.0566131492924
 30
0.0
 10
105.8930664062482
 20
-305.0390350242924
 30
0.0
 10
106.8784179687482
 20
-304.4574920555424
 30
0.0
 10
109.3081054687482
 20
-303.0517303367924
 30
0.0
 10
110.6874999999982
 20
-301.4526092430424
 30
0.0
 10
111.0815429687482
 20
-299.6113006492924
 30
0.0
 10
112.0668945312482
 20
-295.1528045555424
 30
0.0
 10
112.0009765624982
 20
-290.9364959617924
 30
0.0
 10
110.7534179687482
 20
-287.0112029930424
 30
0.0
 10
109.3740234374982
 20
-282.5527068992924
 30
0.0
 10
106.6157226562482
 20
-278.9179412742924
 30
0.0
 10
102.6098632812482
 20
-276.1557342430424
 30
0.0
 10
94.79443359374818
 20
-270.4853240867924
 30
0.0
 10
90.26318359374818
 20
-267.1415740867924
 30
0.0
 10
89.14648437499818
 20
-266.1239959617924
 30
0.0
 10
84.48388671874818
 20
-261.9560272117924
 30
0.0
 10
81.98779296874818
 20
-257.7402068992924
 30
0.0
 10
81.65966796874818
 20
-253.4267303367924
 30
0.0
 10
80.87158203124818
 20
-249.5014373680424
 30
0.0
 10
81.85693359374818
 20
-245.6728240867924
 30
0.0
 10
84.54931640624818
 20
-241.9902068992924
 30
0.0
 10
87.24169921874818
 20
-238.4037811180424
 30
0.0
 10
91.05126953124818
 20
-235.6899139305424
 30
0.0
 10
95.91064453124818
 20
-233.8969451805424
 30
0.0
 10
101.4931640624982
 20
-232.6855193992924
 30
0.0
 10
106.7470703124982
 20
-232.3461639305424
 30
0.0
 10
111.7382812499982
 20
-232.9277068992924
 30
0.0
 10
117.6489257812482
 20
-233.6542693992924
 30
0.0
 10
122.1147460937482
 20
-235.5444061180424
 30
0.0
 10
125.1357421874982
 20
-238.6459686180424
 30
0.0
  0
HATCH
  5
7F
330
7A
100
AcDbEntity
  8
Layer 1
 62
   250
420
  2301728
100
AcDbHatch
 10
0.0
 20
0.0
 30
0.0
210
0.0
220
0.0
230
1.0
  2
SOLID
 70
     1
 71
     0
 91
        1
 92
        1
 93
        1
 72
     4
 94
        3
 73
     0
 74
     1
 95
      116
 96
      112
 40
0.0
 40
0.0
 40
0.0
 40
0.0
 40
1.0
 40
1.0
 40
1.0
 40
2.0
 40
2.0
 40
2.0
 40
3.0
 40
3.0
 40
3.0
 40
4.0
 40
4.0
 40
4.0
 40
5.0
 40
5.0
 40
5.0
 40
6.0
 40
6.0
 40
6.0
 40
7.0
 40
7.0
 40
7.0
 40
8.0
 40
8.0
 40
8.0
 40
9.0
 40
9.0
 40
9.0
 40
10.0
 40
10.0
 40
10.0
 40
11.0
 40
11.0
 40
11.0
 40
12.0
 40
12.0
 40
12.0
 40
13.0
 40
13.0
 40
13.0
 40
14.0
 40
14.0
 40
14.0
 40
15.0
 40
15.0
 40
15.0
 40
16.0
 40
16.0
 40
16.0
 40
17.0
 40
17.0
 40
17.0
 40
18.0
 40
18.0
 40
18.0
 40
19.0
 40
19.0
 40
19.0
 40
20.0
 40
20.0
 40
20.0
 40
21.0
 40
21.0
 40
21.0
 40
22.0
 40
22.0
 40
22.0
 40
23.0
 40
23.0
 40
23.0
 40
24.0
 40
24.0
 40
24.0
 40
25.0
 40
25.0
 40
25.0
 40
26.0
 40
26.0
 40
26.0
 40
27.0
 40
27.0
 40
27.0
 40
28.0
 40
28.0
 40
28.0
 40
29.0
 40
29.0
 40
29.0
 40
30.0
 40
30.0
 40
30.0
 40
31.0
 40
31.0
 40
31.0
 40
32.0
 40
32.0
 40
32.0
 40
33.0
 40
33.0
 40
33.0
 40
34.0
 40
34.0
 40
34.0
 40
35.0
 40
35.0
 40
35.0
 40
36.0
 40
36.0
 40
36.0
 40
37.0
 40
37.0
 40
37.0
 40
37.0
 10
125.1357421874982
 20
-238.6459686180424
 10
127.4340820312482
 20
-240.4877654930424
 10
128.6166992187482
 20
-242.7655975242924
 10
128.8134765624982
 20
-245.4306365867924
 10
128.9448242187482
 20
-247.9023162742924
 10
128.1567382812482
 20
-250.3251678367924
 10
126.4492187499982
 20
-252.6029998680424
 10
125.2016601562482
 20
-252.5546600242924
 10
123.3627929687482
 20
-252.7485076805424
 10
121.0639648437482
 20
-253.0878631492924
 10
118.6342773437482
 20
-253.4755584617924
 10
116.8608398437482
 20
-253.6694061180424
 10
115.7446289062482
 20
-253.6694061180424
 10
113.1831054687482
 20
-251.6337615867924
 10
112.4604492187482
 20
-248.1933318992924
 10
113.5112304687482
 20
-243.3954803367924
 10
110.2934570312482
 20
-243.2983123680424
 10
107.9291992187482
 20
-243.3954803367924
 10
106.5502929687482
 20
-243.6860076805424
 10
104.1201171874982
 20
-244.2192108055424
 10
102.6752929687482
 20
-245.3822967430424
 10
102.2153320312482
 20
-247.2236053367924
 10
102.5439453124982
 20
-250.6645233055424
 10
103.8574218749982
 20
-253.8632537742924
 10
106.1557617187482
 20
-256.8193084617924
 10
108.6518554687482
 20
-259.9692108055424
 10
111.9350585937482
 20
-262.2953826805424
 10
115.9414062499982
 20
-263.7494842430424
 10
123.6254882812482
 20
-266.8510467430424
 10
128.8134765624982
 20
-269.2255584617924
 10
131.5063476562482
 20
-270.8730193992924
 10
136.9570312499982
 20
-274.1200897117924
 10
140.2407226562482
 20
-277.7548553367924
 10
141.4887695312482
 20
-281.8739959617924
 10
142.7363281249982
 20
-284.2489959617924
 10
142.9990234374982
 20
-287.0595428367924
 10
142.2768554687482
 20
-290.4032928367924
 10
142.0795898437482
 20
-291.3725311180424
 10
141.6196289062482
 20
-292.8266326805424
 10
141.0288085937482
 20
-294.7167693992924
 10
140.4379882812482
 20
-296.6064178367924
 10
140.0434570312482
 20
-298.0116912742924
 10
139.8466796874982
 20
-298.9814178367924
 10
139.5180664062482
 20
-300.7743865867924
 10
138.2705078124982
 20
-302.4706756492924
 10
136.1030273437482
 20
-304.1181365867924
 10
136.1030273437482
 20
-304.1181365867924
 10
129.9301757812482
 20
-308.0434295555424
 10
129.9301757812482
 20
-308.0434295555424
 10
125.3984374999982
 20
-311.0483123680424
 10
120.4731445312482
 20
-313.1806365867924
 10
115.0219726562482
 20
-314.4892303367924
 10
109.1113281249982
 20
-315.8945037742924
 10
103.3979492187482
 20
-316.1366912742924
 10
97.88134765624818
 20
-315.1191131492924
 10
96.10791015624818
 20
-315.1674529930424
 10
93.41552734374818
 20
-314.5375701805424
 10
89.93457031249818
 20
-313.2289764305424
 10
82.57910156249818
 20
-307.8984100242924
 10
78.37597656249818
 20
-304.5541717430424
 10
77.25927734374818
 20
-303.1972381492924
 10
76.07763671874818
 20
-301.7436248680424
 10
75.35498046874818
 20
-300.6772186180424
 10
75.09228515624818
 20
-299.9501678367924
 10
74.63232421874818
 20
-298.7387420555424
 10
74.82958984374818
 20
-297.6239959617924
 10
75.74902343749818
 20
-296.6064178367924
 10
76.60302734374818
 20
-293.6503631492924
 10
80.47753906249818
 20
-291.0331756492924
 10
87.24169921874818
 20
-288.7558318992924
 10
89.34326171874818
 20
-290.3549529930424
 10
90.98535156249818
 20
-292.5839568992924
 10
92.10205078124818
 20
-295.4433318992924
 10
92.49560546874818
 20
-296.3642303367924
 10
92.89013671874818
 20
-297.6239959617924
 10
93.34960937499818
 20
-299.1747772117924
 10
93.34960937499818
 20
-299.1747772117924
 10
94.40039062499818
 20
-302.9067108055424
 10
94.40039062499818
 20
-302.9067108055424
 10
94.66308593749818
 20
-303.1488983055424
 10
96.50195312499818
 20
-304.6996795555424
 10
99.98291015624818
 20
-307.5590545555424
 10
103.5947265624982
 20
-306.0566131492924
 10
105.8930664062482
 20
-305.0390350242924
 10
106.8784179687482
 20
-304.4574920555424
 10
109.3081054687482
 20
-303.0517303367924
 10
110.6874999999982
 20
-301.4526092430424
 10
111.0815429687482
 20
-299.6113006492924
 10
112.0668945312482
 20
-295.1528045555424
 10
112.0009765624982
 20
-290.9364959617924
 10
110.7534179687482
 20
-287.0112029930424
 10
109.3740234374982
 20
-282.5527068992924
 10
106.6157226562482
 20
-278.9179412742924
 10
102.6098632812482
 20
-276.1557342430424
 10
94.79443359374818
 20
-270.4853240867924
 10
90.26318359374818
 20
-267.1415740867924
 10
89.14648437499818
 20
-266.1239959617924
 10
84.48388671874818
 20
-261.9560272117924
 10
81.98779296874818
 20
-257.7402068992924
 10
81.65966796874818
 20
-253.4267303367924
 10
80.87158203124818
 20
-249.5014373680424
 10
81.85693359374818
 20
-245.6728240867924
 10
84.54931640624818
 20
-241.9902068992924
 10
87.24169921874818
 20
-238.4037811180424
 10
91.05126953124818
 20
-235.6899139305424
 10
95.91064453124818
 20
-233.8969451805424
 10
101.4931640624982
 20
-232.6855193992924
 10
106.7470703124982
 20
-232.3461639305424
 10
111.7382812499982
 20
-232.9277068992924
 10
117.6489257812482
 20
-233.6542693992924
 10
122.1147460937482
 20
-235.5444061180424
 10
125.1357421874982
 20
-238.6459686180424
 97
        0
 97
        0
 75
     2
 76
     1
 98
        0
  0
SPLINE
  5
80
330
7A
100
AcDbEntity
  8
Layer 1
370
     0
100
AcDbSpline
210
0.0
220
0.0
230
1.0
 70
    11
 71
     3
 72
   116
 73
   112
 74
     0
 42
0.0000000001
 43
0.0000000001
 12
1.0
 22
0.0
 32
0.0
 13
1.0
 23
0.0
 33
0.0
 40
0.0
 40
0.0
 40
0.0
 40
0.0
 40
1.0
 40
1.0
 40
1.0
 40
2.0
 40
2.0
 40
2.0
 40
3.0
 40
3.0
 40
3.0
 40
4.0
 40
4.0
 40
4.0
 40
5.0
 40
5.0
 40
5.0
 40
6.0
 40
6.0
 40
6.0
 40
7.0
 40
7.0
 40
7.0
 40
8.0
 40
8.0
 40
8.0
 40
9.0
 40
9.0
 40
9.0
 40
10.0
 40
10.0
 40
10.0
 40
11.0
 40
11.0
 40
11.0
 40
12.0
 40
12.0
 40
12.0
 40
13.0
 40
13.0
 40
13.0
 40
14.0
 40
14.0
 40
14.0
 40
15.0
 40
15.0
 40
15.0
 40
16.0
 40
16.0
 40
16.0
 40
17.0
 40
17.0
 40
17.0
 40
18.0
 40
18.0
 40
18.0
 40
19.0
 40
19.0
 40
19.0
 40
20.0
 40
20.0
 40
20.0
 40
21.0
 40
21.0
 40
21.0
 40
22.0
 40
22.0
 40
22.0
 40
23.0
 40
23.0
 40
23.0
 40
24.0
 40
24.0
 40
24.0
 40
25.0
 40
25.0
 40
25.0
 40
26.0
 40
26.0
 40
26.0
 40
27.0
 40
27.0
 40
27.0
 40
28.0
 40
28.0
 40
28.0
 40
29.0
 40
29.0
 40
29.0
 40
30.0
 40
30.0
 40
30.0
 40
31.0
 40
31.0
 40
31.0
 40
32.0
 40
32.0
 40
32.0
 40
33.0
 40
33.0
 40
33.0
 40
34.0
 40
34.0
 40
34.0
 40
35.0
 40
35.0
 40
35.0
 40
36.0
 40
36.0
 40
36.0
 40
37.0
 40
37.0
 40
37.0
 40
37.0
 10
171.0361328124982
 20
-235.4477264305424
 30
0.0
 10
170.7734374999982
 20
-235.3022186180424
 30
0.0
 10
173.3344726562482
 20
-237.7738983055424
 30
0.0
 10
178.6542968749982
 20
-242.9589568992924
 30
0.0
 10
182.5288085937482
 20
-246.7875701805424
 30
0.0
 10
186.4038085937482
 20
-252.4579803367924
 30
0.0
 10
190.2128906249982
 20
-259.9208709617924
 30
0.0
 10
194.7446289062482
 20
-268.7895233055424
 30
0.0
 10
198.0937499999982
 20
-274.6049529930424
 30
0.0
 10
200.1953124999982
 20
-277.4154998680424
 30
0.0
 10
200.5239257812482
 20
-269.3222381492924
 30
0.0
 10
201.3120117187482
 20
-257.5946990867924
 30
0.0
 10
202.6909179687482
 20
-242.2323943992924
 30
0.0
 10
203.1508789062482
 20
-241.4570037742924
 30
0.0
 10
203.0190429687482
 20
-240.6816131492924
 30
0.0
 10
202.2968749999982
 20
-239.9062225242924
 30
0.0
 10
202.1000976562482
 20
-239.7123748680424
 30
0.0
 10
201.7714843749982
 20
-239.3730193992924
 30
0.0
 10
201.2460937499982
 20
-238.9369842430424
 30
0.0
 10
200.7866210937482
 20
-238.5492889305424
 30
0.0
 10
200.4580078124982
 20
-238.2099334617924
 30
0.0
 10
200.2612304687482
 20
-237.9677459617924
 30
0.0
 10
208.6015624999982
 20
-233.4609100242924
 30
0.0
 10
216.1538085937482
 20
-231.9101287742924
 30
0.0
 10
222.8530273437482
 20
-233.2665740867924
 30
0.0
 10
224.2319335937482
 20
-235.5444061180424
 30
0.0
 10
224.5600585937482
 20
-238.5976287742924
 30
0.0
 10
223.7719726562482
 20
-242.4262420555424
 30
0.0
 10
222.7871093749982
 20
-247.4179412742924
 30
0.0
 10
222.3276367187482
 20
-250.5678436180424
 30
0.0
 10
222.4584960937482
 20
-251.7792693992924
 30
0.0
 10
222.1303710937482
 20
-253.6694061180424
 30
0.0
 10
222.3930664062482
 20
-256.3349334617924
 30
0.0
 10
223.1157226562482
 20
-259.6786834617924
 30
0.0
 10
223.9692382812482
 20
-263.4101287742924
 30
0.0
 10
224.4291992187482
 20
-266.0273162742924
 30
0.0
 10
224.3632812499982
 20
-267.5780975242924
 30
0.0
 10
224.5600585937482
 20
-271.1156951805424
 30
0.0
 10
224.6259765624982
 20
-276.4950897117924
 30
0.0
 10
224.4291992187482
 20
-283.6669647117924
 30
0.0
 10
224.2319335937482
 20
-290.7909881492924
 30
0.0
 10
224.2319335937482
 20
-296.1220428367924
 30
0.0
 10
224.4946289062482
 20
-299.7079803367924
 30
0.0
 10
224.4946289062482
 20
-301.1132537742924
 30
0.0
 10
224.2319335937482
 20
-303.2944061180424
 30
0.0
 10
223.7065429687482
 20
-306.2504608055424
 30
0.0
 10
223.2465820312482
 20
-306.6381561180424
 30
0.0
 10
222.5903320312482
 20
-307.3163787742924
 30
0.0
 10
221.7363281249982
 20
-308.3344451805424
 30
0.0
 10
220.9482421874982
 20
-309.3036834617924
 30
0.0
 10
220.2915039062482
 20
-310.0302459617924
 30
0.0
 10
219.7661132812482
 20
-310.4667693992924
 30
0.0
 10
218.1245117187482
 20
-311.9687225242924
 30
0.0
 10
216.1538085937482
 20
-312.6474334617924
 30
0.0
 10
213.9213867187482
 20
-312.5019256492924
 30
0.0
 10
209.0610351562482
 20
-312.4535858055424
 30
0.0
 10
204.7270507812482
 20
-311.5810272117924
 30
0.0
 10
200.9174804687482
 20
-309.9819061180424
 30
0.0
 10
196.6489257812482
 20
-308.1405975242924
 30
0.0
 10
193.8906249999982
 20
-305.6205779930424
 30
0.0
 10
192.6430664062482
 20
-302.4218475242924
 30
0.0
 10
191.3295898437482
 20
-298.5448943992924
 30
0.0
 10
188.0454101562482
 20
-292.5356170555424
 30
0.0
 10
182.8574218749982
 20
-284.3940154930424
 30
0.0
 10
178.0629882812482
 20
-276.8339568992924
 30
0.0
 10
175.0424804687482
 20
-270.7763397117924
 30
0.0
 10
173.7944335937482
 20
-266.2206756492924
 30
0.0
 10
174.1225585937482
 20
-270.3886443992924
 30
0.0
 10
174.4511718749982
 20
-276.8339568992924
 30
0.0
 10
174.7797851562482
 20
-285.5571014305424
 30
0.0
 10
175.1079101562482
 20
-294.0380584617924
 30
0.0
 10
175.4360351562482
 20
-300.4833709617924
 30
0.0
 10
175.7646484374982
 20
-304.8935272117924
 30
0.0
 10
175.8959960937482
 20
-306.2988006492924
 30
0.0
 10
175.2392578124982
 20
-309.4491912742924
 30
0.0
 10
173.7290039062482
 20
-314.2948943992924
 30
0.0
 10
165.9135742187482
 20
-315.7006561180424
 30
0.0
 10
160.5942382812482
 20
-315.8456756492924
 30
0.0
 10
157.8354492187482
 20
-314.8280975242924
 30
0.0
 10
155.5371093749982
 20
-313.8105193992924
 30
0.0
 10
153.8295898437482
 20
-312.1142303367924
 30
0.0
 10
152.5815429687482
 20
-309.7880584617924
 30
0.0
 10
152.3188476562482
 20
-309.2548553367924
 30
0.0
 10
151.5307617187482
 20
-307.1713592430424
 30
0.0
 10
150.2832031249982
 20
-303.5365936180424
 30
0.0
 10
150.3491210937482
 20
-302.7128631492924
 30
0.0
 10
150.7426757812482
 20
-301.1620818992924
 30
0.0
 10
151.4653320312482
 20
-298.8842498680424
 30
0.0
 10
152.0561523437482
 20
-296.9941131492924
 30
0.0
 10
152.3188476562482
 20
-295.4433318992924
 30
0.0
 10
152.1879882812482
 20
-294.2319061180424
 30
0.0
 10
152.0561523437482
 20
-290.3066131492924
 30
0.0
 10
152.0561523437482
 20
-282.5527068992924
 30
0.0
 10
152.2534179687482
 20
-270.9701873680424
 30
0.0
 10
152.3847656249982
 20
-261.2778045555424
 30
0.0
 10
152.1879882812482
 20
-253.5238983055424
 30
0.0
 10
151.6625976562482
 20
-247.7084686180424
 30
0.0
 10
151.4653320312482
 20
-246.2060272117924
 30
0.0
 10
151.4653320312482
 20
-244.6069061180424
 30
0.0
 10
151.6625976562482
 20
-242.8622772117924
 30
0.0
 10
151.8593749999982
 20
-241.1176483055424
 30
0.0
 10
152.3847656249982
 20
-239.5185272117924
 30
0.0
 10
153.3041992187482
 20
-238.0644256492924
 30
0.0
 10
154.2236328124982
 20
-236.6108123680424
 30
0.0
 10
154.4863281249982
 20
-234.9628631492924
 30
0.0
 10
154.0922851562482
 20
-233.0732147117924
 30
0.0
 10
154.2895507812482
 20
-233.1215545555424
 30
0.0
 10
157.1791992187482
 20
-233.2665740867924
 30
0.0
 10
162.8925781249982
 20
-233.5092498680424
 30
0.0
 10
166.4389648437482
 20
-233.6542693992924
 30
0.0
 10
169.1313476562482
 20
-234.3329803367924
 30
0.0
 10
171.0361328124982
 20
-235.4477264305424
 30
0.0
  0
HATCH
  5
81
330
7A
100
AcDbEntity
  8
Layer 1
 62
   250
420
  2301728
100
AcDbHatch
 10
0.0
 20
0.0
 30
0.0
210
0.0
220
0.0
230
1.0
  2
SOLID
 70
     1
 71
     0
 91
        1
 92
        1
 93
        1
 72
     4
 94
        3
 73
     0
 74
     1
 95
      116
 96
      112
 40
0.0
 40
0.0
 40
0.0
 40
0.0
 40
1.0
 40
1.0
 40
1.0
 40
2.0
 40
2.0
 40
2.0
 40
3.0
 40
3.0
 40
3.0
 40
4.0
 40
4.0
 40
4.0
 40
5.0
 40
5.0
 40
5.0
 40
6.0
 40
6.0
 40
6.0
 40
7.0
 40
7.0
 40
7.0
 40
8.0
 40
8.0
 40
8.0
 40
9.0
 40
9.0
 40
9.0
 40
10.0
 40
10.0
 40
10.0
 40
11.0
 40
11.0
 40
11.0
 40
12.0
 40
12.0
 40
12.0
 40
13.0
 40
13.0
 40
13.0
 40
14.0
 40
14.0
 40
14.0
 40
15.0
 40
15.0
 40
15.0
 40
16.0
 40
16.0
 40
16.0
 40
17.0
 40
17.0
 40
17.0
 40
18.0
 40
18.0
 40
18.0
 40
19.0
 40
19.0
 40
19.0
 40
20.0
 40
20.0
 40
20.0
 40
21.0
 40
21.0
 40
21.0
 40
22.0
 40
22.0
 40
22.0
 40
23.0
 40
23.0
 40
23.0
 40
24.0
 40
24.0
 40
24.0
 40
25.0
 40
25.0
 40
25.0
 40
26.0
 40
26.0
 40
26.0
 40
27.0
 40
27.0
 40
27.0
 40
28.0
 40
28.0
 40
28.0
 40
29.0
 40
29.0
 40
29.0
 40
30.0
 40
30.0
 40
30.0
 40
31.0
 40
31.0
 40
31.0
 40
32.0
 40
32.0
 40
32.0
 40
33.0
 40
33.0
 40
33.0
 40
34.0
 40
34.0
 40
34.0
 40
35.0
 40
35.0
 40
35.0
 40
36.0
 40
36.0
 40
36.0
 40
37.0
 40
37.0
 40
37.0
 40
37.0
 10
171.0361328124982
 20
-235.4477264305424
 10
170.7734374999982
 20
-235.3022186180424
 10
173.3344726562482
 20
-237.7738983055424
 10
178.6542968749982
 20
-242.9589568992924
 10
182.5288085937482
 20
-246.7875701805424
 10
186.4038085937482
 20
-252.4579803367924
 10
190.2128906249982
 20
-259.9208709617924
 10
194.7446289062482
 20
-268.7895233055424
 10
198.0937499999982
 20
-274.6049529930424
 10
200.1953124999982
 20
-277.4154998680424
 10
200.5239257812482
 20
-269.3222381492924
 10
201.3120117187482
 20
-257.5946990867924
 10
202.6909179687482
 20
-242.2323943992924
 10
203.1508789062482
 20
-241.4570037742924
 10
203.0190429687482
 20
-240.6816131492924
 10
202.2968749999982
 20
-239.9062225242924
 10
202.1000976562482
 20
-239.7123748680424
 10
201.7714843749982
 20
-239.3730193992924
 10
201.2460937499982
 20
-238.9369842430424
 10
200.7866210937482
 20
-238.5492889305424
 10
200.4580078124982
 20
-238.2099334617924
 10
200.2612304687482
 20
-237.9677459617924
 10
208.6015624999982
 20
-233.4609100242924
 10
216.1538085937482
 20
-231.9101287742924
 10
222.8530273437482
 20
-233.2665740867924
 10
224.2319335937482
 20
-235.5444061180424
 10
224.5600585937482
 20
-238.5976287742924
 10
223.7719726562482
 20
-242.4262420555424
 10
222.7871093749982
 20
-247.4179412742924
 10
222.3276367187482
 20
-250.5678436180424
 10
222.4584960937482
 20
-251.7792693992924
 10
222.1303710937482
 20
-253.6694061180424
 10
222.3930664062482
 20
-256.3349334617924
 10
223.1157226562482
 20
-259.6786834617924
 10
223.9692382812482
 20
-263.4101287742924
 10
224.4291992187482
 20
-266.0273162742924
 10
224.3632812499982
 20
-267.5780975242924
 10
224.5600585937482
 20
-271.1156951805424
 10
224.6259765624982
 20
-276.4950897117924
 10
224.4291992187482
 20
-283.6669647117924
 10
224.2319335937482
 20
-290.7909881492924
 10
224.2319335937482
 20
-296.1220428367924
 10
224.4946289062482
 20
-299.7079803367924
 10
224.4946289062482
 20
-301.1132537742924
 10
224.2319335937482
 20
-303.2944061180424
 10
223.7065429687482
 20
-306.2504608055424
 10
223.2465820312482
 20
-306.6381561180424
 10
222.5903320312482
 20
-307.3163787742924
 10
221.7363281249982
 20
-308.3344451805424
 10
220.9482421874982
 20
-309.3036834617924
 10
220.2915039062482
 20
-310.0302459617924
 10
219.7661132812482
 20
-310.4667693992924
 10
218.1245117187482
 20
-311.9687225242924
 10
216.1538085937482
 20
-312.6474334617924
 10
213.9213867187482
 20
-312.5019256492924
 10
209.0610351562482
 20
-312.4535858055424
 10
204.7270507812482
 20
-311.5810272117924
 10
200.9174804687482
 20
-309.9819061180424
 10
196.6489257812482
 20
-308.1405975242924
 10
193.8906249999982
 20
-305.6205779930424
 10
192.6430664062482
 20
-302.4218475242924
 10
191.3295898437482
 20
-298.5448943992924
 10
188.0454101562482
 20
-292.5356170555424
 10
182.8574218749982
 20
-284.3940154930424
 10
178.0629882812482
 20
-276.8339568992924
 10
175.0424804687482
 20
-270.7763397117924
 10
173.7944335937482
 20
-266.2206756492924
 10
174.1225585937482
 20
-270.3886443992924
 10
174.4511718749982
 20
-276.8339568992924
 10
174.7797851562482
 20
-285.5571014305424
 10
175.1079101562482
 20
-294.0380584617924
 10
175.4360351562482
 20
-300.4833709617924
 10
175.7646484374982
 20
-304.8935272117924
 10
175.8959960937482
 20
-306.2988006492924
 10
175.2392578124982
 20
-309.4491912742924
 10
173.7290039062482
 20
-314.2948943992924
 10
165.9135742187482
 20
-315.7006561180424
 10
160.5942382812482
 20
-315.8456756492924
 10
157.8354492187482
 20
-314.8280975242924
 10
155.5371093749982
 20
-313.8105193992924
 10
153.8295898437482
 20
-312.1142303367924
 10
152.5815429687482
 20
-309.7880584617924
 10
152.3188476562482
 20
-309.2548553367924
 10
151.5307617187482
 20
-307.1713592430424
 10
150.2832031249982
 20
-303.5365936180424
 10
150.3491210937482
 20
-302.7128631492924
 10
150.7426757812482
 20
-301.1620818992924
 10
151.4653320312482
 20
-298.8842498680424
 10
152.0561523437482
 20
-296.9941131492924
 10
152.3188476562482
 20
-295.4433318992924
 10
152.1879882812482
 20
-294.2319061180424
 10
152.0561523437482
 20
-290.3066131492924
 10
152.0561523437482
 20
-282.5527068992924
 10
152.2534179687482
 20
-270.9701873680424
 10
152.3847656249982
 20
-261.2778045555424
 10
152.1879882812482
 20
-253.5238983055424
 10
151.6625976562482
 20
-247.7084686180424
 10
151.4653320312482
 20
-246.2060272117924
 10
151.4653320312482
 20
-244.6069061180424
 10
151.6625976562482
 20
-242.8622772117924
 10
151.8593749999982
 20
-241.1176483055424
 10
152.3847656249982
 20
-239.5185272117924
 10
153.3041992187482
 20
-238.0644256492924
 10
154.2236328124982
 20
-236.6108123680424
 10
154.4863281249982
 20
-234.9628631492924
 10
154.0922851562482
 20
-233.0732147117924
 10
154.2895507812482
 20
-233.1215545555424
 10
157.1791992187482
 20
-233.2665740867924
 10
162.8925781249982
 20
-233.5092498680424
 10
166.4389648437482
 20
-233.6542693992924
 10
169.1313476562482
 20
-234.3329803367924
 10
171.0361328124982
 20
-235.4477264305424
 97
        0
 97
        0
 75
     2
 76
     1
 98
        0
  0
SPLINE
  5
82
330
7A
100
AcDbEntity
  8
Layer 1
370
     0
100
AcDbSpline
210
0.0
220
0.0
230
1.0
 70
    11
 71
     3
 72
    65
 73
    61
 74
     0
 42
0.0000000001
 43
0.0000000001
 12
1.0
 22
0.0
 32
0.0
 13
1.0
 23
0.0
 33
0.0
 40
0.0
 40
0.0
 40
0.0
 40
0.0
 40
1.0
 40
1.0
 40
1.0
 40
2.0
 40
2.0
 40
2.0
 40
3.0
 40
3.0
 40
3.0
 40
4.0
 40
4.0
 40
4.0
 40
5.0
 40
5.0
 40
5.0
 40
6.0
 40
6.0
 40
6.0
 40
7.0
 40
7.0
 40
7.0
 40
8.0
 40
8.0
 40
8.0
 40
9.0
 40
9.0
 40
9.0
 40
10.0
 40
10.0
 40
10.0
 40
11.0
 40
11.0
 40
11.0
 40
12.0
 40
12.0
 40
12.0
 40
13.0
 40
13.0
 40
13.0
 40
14.0
 40
14.0
 40
14.0
 40
15.0
 40
15.0
 40
15.0
 40
16.0
 40
16.0
 40
16.0
 40
17.0
 40
17.0
 40
17.0
 40
18.0
 40
18.0
 40
18.0
 40
19.0
 40
19.0
 40
19.0
 40
20.0
 40
20.0
 40
20.0
 40
20.0
 10
283.0688476562482
 20
-233.7514373680424
 30
0.0
 10
287.9946289062482
 20
-244.4613983055424
 30
0.0
 10
290.9497070312482
 20
-253.2817108055424
 30
0.0
 10
291.9350585937482
 20
-260.2602264305424
 30
0.0
 10
292.0004882812482
 20
-261.0356170555424
 30
0.0
 10
295.3500976562482
 20
-274.3139373680424
 30
0.0
 10
301.8520507812482
 20
-300.0956756492924
 30
0.0
 10
302.0483398437482
 20
-304.6513397117924
 30
0.0
 10
302.1137695312482
 20
-307.4135467430424
 30
0.0
 10
301.9829101562482
 20
-308.4311248680424
 30
0.0
 10
301.5229492187482
 20
-311.5810272117924
 30
0.0
 10
300.0122070312482
 20
-314.0527068992924
 30
0.0
 10
297.3198242187482
 20
-315.7489959617924
 30
0.0
 10
285.2358398437482
 20
-311.8237029930424
 30
0.0
 10
277.5522460937482
 20
-303.8271209617924
 30
0.0
 10
274.2026367187482
 20
-291.6635467430424
 30
0.0
 10
269.1459960937482
 20
-291.1303436180424
 30
0.0
 10
263.4980468749982
 20
-290.7426483055424
 30
0.0
 10
257.3901367187482
 20
-290.5004608055424
 30
0.0
 10
256.6679687499982
 20
-292.9716522117924
 30
0.0
 10
255.3544921874982
 20
-296.3642303367924
 30
0.0
 10
253.3842773437482
 20
-300.5805389305424
 30
0.0
 10
251.2172851562482
 20
-305.2812225242924
 30
0.0
 10
249.7719726562482
 20
-308.6249725242924
 30
0.0
 10
249.0498046874982
 20
-310.5634490867924
 30
0.0
 10
246.8823242187482
 20
-312.4535858055424
 30
0.0
 10
243.6645507812482
 20
-313.6650115867924
 30
0.0
 10
239.3959960937482
 20
-314.2948943992924
 30
0.0
 10
238.1479492187482
 20
-314.4892303367924
 30
0.0
 10
236.3090820312482
 20
-314.6825897117924
 30
0.0
 10
233.7475585937482
 20
-314.9252654930424
 30
0.0
 10
231.2524414062482
 20
-315.1674529930424
 30
0.0
 10
229.4135742187482
 20
-315.3613006492924
 30
0.0
 10
228.2309570312482
 20
-315.5551483055424
 30
0.0
 10
228.2309570312482
 20
-315.5551483055424
 30
0.0
 10
223.1088867187482
 20
-313.4711639305424
 30
0.0
 10
223.1088867187482
 20
-313.4711639305424
 30
0.0
 10
225.8666992187482
 20
-311.7753631492924
 30
0.0
 10
227.9682617187482
 20
-309.1098358055424
 30
0.0
 10
229.4790039062482
 20
-305.5722381492924
 30
0.0
 10
229.8071289062482
 20
-304.8451873680424
 30
0.0
 10
230.3325195312482
 20
-303.2944061180424
 30
0.0
 10
231.1865234374982
 20
-301.0165740867924
 30
0.0
 10
231.8432617187482
 20
-299.1264373680424
 30
0.0
 10
232.4340820312482
 20
-297.6239959617924
 30
0.0
 10
233.0253906249982
 20
-296.5097381492924
 30
0.0
 10
242.7451171874982
 20
-275.5741912742924
 30
0.0
 10
248.9184570312482
 20
-261.7626678367924
 30
0.0
 10
251.5454101562482
 20
-255.1230193992924
 30
0.0
 10
252.0708007812482
 20
-253.5238983055424
 30
0.0
 10
253.6469726562482
 20
-250.5678436180424
 30
0.0
 10
256.2084960937482
 20
-246.2548553367924
 30
0.0
 10
258.3754882812482
 20
-242.5712615867924
 30
0.0
 10
259.6235351562482
 20
-239.5185272117924
 30
0.0
 10
259.8862304687482
 20
-237.1435272117924
 30
0.0
 10
262.5786132812482
 20
-234.7206756492924
 30
0.0
 10
266.1249999999982
 20
-233.2182342430424
 30
0.0
 10
270.5908203124982
 20
-232.6366912742924
 30
0.0
 10
274.8598632812482
 20
-232.0551483055424
 30
0.0
 10
279.0629882812482
 20
-232.4428436180424
 30
0.0
 10
283.0688476562482
 20
-233.7514373680424
 30
0.0
  0
SPLINE
  5
83
330
7A
100
AcDbEntity
  8
Layer 1
370
     0
100
AcDbSpline
210
0.0
220
0.0
230
1.0
 70
    11
 71
     3
 72
    20
 73
    16
 74
     0
 42
0.0000000001
 43
0.0000000001
 12
1.0
 22
0.0
 32
0.0
 13
1.0
 23
0.0
 33
0.0
 40
0.0
 40
0.0
 40
0.0
 40
0.0
 40
1.0
 40
1.0
 40
1.0
 40
2.0
 40
2.0
 40
2.0
 40
3.0
 40
3.0
 40
3.0
 40
4.0
 40
4.0
 40
4.0
 40
5.0
 40
5.0
 40
5.0
 40
5.0
 10
269.1459960937482
 20
-273.5868865867924
 30
0.0
 10
268.1606445312482
 20
-269.3710662742924
 30
0.0
 10
267.3071289062482
 20
-266.3178436180424
 30
0.0
 10
266.7163085937482
 20
-264.3793670555424
 30
0.0
 10
266.3876953124982
 20
-266.4150115867924
 30
0.0
 10
265.2709960937482
 20
-269.4677459617924
 30
0.0
 10
263.4980468749982
 20
-273.5385467430424
 30
0.0
 10
261.7250976562482
 20
-277.4638397117924
 30
0.0
 10
260.7397460937482
 20
-280.5170623680424
 30
0.0
 10
260.4770507812482
 20
-282.6982147117924
 30
0.0
 10
260.4770507812482
 20
-282.6982147117924
 30
0.0
 10
271.6416015624982
 20
-282.7948943992924
 30
0.0
 10
271.6416015624982
 20
-282.7948943992924
 30
0.0
 10
270.9848632812482
 20
-280.7109100242924
 30
0.0
 10
270.1313476562482
 20
-277.6093475242924
 30
0.0
 10
269.1459960937482
 20
-273.5868865867924
 30
0.0
  0
HATCH
  5
84
330
7A
100
AcDbEntity
  8
Layer 1
 62
   250
420
  2301728
100
AcDbHatch
 10
0.0
 20
0.0
 30
0.0
210
0.0
220
0.0
230
1.0
  2
SOLID
 70
     1
 71
     0
 91
        2
 92
        1
 93
        1
 72
     4
 94
        3
 73
     0
 74
     1
 95
       65
 96
       61
 40
0.0
 40
0.0
 40
0.0
 40
0.0
 40
1.0
 40
1.0
 40
1.0
 40
2.0
 40
2.0
 40
2.0
 40
3.0
 40
3.0
 40
3.0
 40
4.0
 40
4.0
 40
4.0
 40
5.0
 40
5.0
 40
5.0
 40
6.0
 40
6.0
 40
6.0
 40
7.0
 40
7.0
 40
7.0
 40
8.0
 40
8.0
 40
8.0
 40
9.0
 40
9.0
 40
9.0
 40
10.0
 40
10.0
 40
10.0
 40
11.0
 40
11.0
 40
11.0
 40
12.0
 40
12.0
 40
12.0
 40
13.0
 40
13.0
 40
13.0
 40
14.0
 40
14.0
 40
14.0
 40
15.0
 40
15.0
 40
15.0
 40
16.0
 40
16.0
 40
16.0
 40
17.0
 40
17.0
 40
17.0
 40
18.0
 40
18.0
 40
18.0
 40
19.0
 40
19.0
 40
19.0
 40
20.0
 40
20.0
 40
20.0
 40
20.0
 10
283.0688476562482
 20
-233.7514373680424
 10
287.9946289062482
 20
-244.4613983055424
 10
290.9497070312482
 20
-253.2817108055424
 10
291.9350585937482
 20
-260.2602264305424
 10
292.0004882812482
 20
-261.0356170555424
 10
295.3500976562482
 20
-274.3139373680424
 10
301.8520507812482
 20
-300.0956756492924
 10
302.0483398437482
 20
-304.6513397117924
 10
302.1137695312482
 20
-307.4135467430424
 10
301.9829101562482
 20
-308.4311248680424
 10
301.5229492187482
 20
-311.5810272117924
 10
300.0122070312482
 20
-314.0527068992924
 10
297.3198242187482
 20
-315.7489959617924
 10
285.2358398437482
 20
-311.8237029930424
 10
277.5522460937482
 20
-303.8271209617924
 10
274.2026367187482
 20
-291.6635467430424
 10
269.1459960937482
 20
-291.1303436180424
 10
263.4980468749982
 20
-290.7426483055424
 10
257.3901367187482
 20
-290.5004608055424
 10
256.6679687499982
 20
-292.9716522117924
 10
255.3544921874982
 20
-296.3642303367924
 10
253.3842773437482
 20
-300.5805389305424
 10
251.2172851562482
 20
-305.2812225242924
 10
249.7719726562482
 20
-308.6249725242924
 10
249.0498046874982
 20
-310.5634490867924
 10
246.8823242187482
 20
-312.4535858055424
 10
243.6645507812482
 20
-313.6650115867924
 10
239.3959960937482
 20
-314.2948943992924
 10
238.1479492187482
 20
-314.4892303367924
 10
236.3090820312482
 20
-314.6825897117924
 10
233.7475585937482
 20
-314.9252654930424
 10
231.2524414062482
 20
-315.1674529930424
 10
229.4135742187482
 20
-315.3613006492924
 10
228.2309570312482
 20
-315.5551483055424
 10
228.2309570312482
 20
-315.5551483055424
 10
223.1088867187482
 20
-313.4711639305424
 10
223.1088867187482
 20
-313.4711639305424
 10
225.8666992187482
 20
-311.7753631492924
 10
227.9682617187482
 20
-309.1098358055424
 10
229.4790039062482
 20
-305.5722381492924
 10
229.8071289062482
 20
-304.8451873680424
 10
230.3325195312482
 20
-303.2944061180424
 10
231.1865234374982
 20
-301.0165740867924
 10
231.8432617187482
 20
-299.1264373680424
 10
232.4340820312482
 20
-297.6239959617924
 10
233.0253906249982
 20
-296.5097381492924
 10
242.7451171874982
 20
-275.5741912742924
 10
248.9184570312482
 20
-261.7626678367924
 10
251.5454101562482
 20
-255.1230193992924
 10
252.0708007812482
 20
-253.5238983055424
 10
253.6469726562482
 20
-250.5678436180424
 10
256.2084960937482
 20
-246.2548553367924
 10
258.3754882812482
 20
-242.5712615867924
 10
259.6235351562482
 20
-239.5185272117924
 10
259.8862304687482
 20
-237.1435272117924
 10
262.5786132812482
 20
-234.7206756492924
 10
266.1249999999982
 20
-233.2182342430424
 10
270.5908203124982
 20
-232.6366912742924
 10
274.8598632812482
 20
-232.0551483055424
 10
279.0629882812482
 20
-232.4428436180424
 10
283.0688476562482
 20
-233.7514373680424
 97
        0
 97
        0
 92
        1
 93
        1
 72
     4
 94
        3
 73
     0
 74
     1
 95
       20
 96
       16
 40
0.0
 40
0.0
 40
0.0
 40
0.0
 40
1.0
 40
1.0
 40
1.0
 40
2.0
 40
2.0
 40
2.0
 40
3.0
 40
3.0
 40
3.0
 40
4.0
 40
4.0
 40
4.0
 40
5.0
 40
5.0
 40
5.0
 40
5.0
 10
269.1459960937482
 20
-273.5868865867924
 10
268.1606445312482
 20
-269.3710662742924
 10
267.3071289062482
 20
-266.3178436180424
 10
266.7163085937482
 20
-264.3793670555424
 10
266.3876953124982
 20
-266.4150115867924
 10
265.2709960937482
 20
-269.4677459617924
 10
263.4980468749982
 20
-273.5385467430424
 10
261.7250976562482
 20
-277.4638397117924
 10
260.7397460937482
 20
-280.5170623680424
 10
260.4770507812482
 20
-282.6982147117924
 10
260.4770507812482
 20
-282.6982147117924
 10
271.6416015624982
 20
-282.7948943992924
 10
271.6416015624982
 20
-282.7948943992924
 10
270.9848632812482
 20
-280.7109100242924
 10
270.1313476562482
 20
-277.6093475242924
 10
269.1459960937482
 20
-273.5868865867924
 97
        0
 97
        0
 75
     2
 76
     1
 98
        0
  0
SPLINE
  5
85
330
7A
100
AcDbEntity
  8
Layer 1
370
     0
100
AcDbSpline
210
0.0
220
0.0
230
1.0
 70
    11
 71
     3
 72
    68
 73
    64
 74
     0
 42
0.0000000001
 43
0.0000000001
 12
1.0
 22
0.0
 32
0.0
 13
1.0
 23
0.0
 33
0.0
 40
0.0
 40
0.0
 40
0.0
 40
0.0
 40
1.0
 40
1.0
 40
1.0
 40
2.0
 40
2.0
 40
2.0
 40
3.0
 40
3.0
 40
3.0
 40
4.0
 40
4.0
 40
4.0
 40
5.0
 40
5.0
 40
5.0
 40
6.0
 40
6.0
 40
6.0
 40
7.0
 40
7.0
 40
7.0
 40
8.0
 40
8.0
 40
8.0
 40
9.0
 40
9.0
 40
9.0
 40
10.0
 40
10.0
 40
10.0
 40
11.0
 40
11.0
 40
11.0
 40
12.0
 40
12.0
 40
12.0
 40
13.0
 40
13.0
 40
13.0
 40
14.0
 40
14.0
 40
14.0
 40
15.0
 40
15.0
 40
15.0
 40
16.0
 40
16.0
 40
16.0
 40
17.0
 40
17.0
 40
17.0
 40
18.0
 40
18.0
 40
18.0
 40
19.0
 40
19.0
 40
19.0
 40
20.0
 40
20.0
 40
20.0
 40
21.0
 40
21.0
 40
21.0
 40
21.0
 10
373.6933593749982
 20
-256.9159881492924
 30
0.0
 10
373.4960937499982
 20
-257.7885467430424
 30
0.0
 10
373.2333984374982
 20
-259.0488006492924
 30
0.0
 10
373.0361328124982
 20
-260.6479217430424
 30
0.0
 10
373.0361328124982
 20
-260.6479217430424
 30
0.0
 10
372.4453124999982
 20
-264.4277068992924
 30
0.0
 10
372.4453124999982
 20
-264.4277068992924
 30
0.0
 10
371.8544921874982
 20
-267.3837615867924
 30
0.0
 10
370.7373046874982
 20
-269.7587615867924
 30
0.0
 10
369.0302734374982
 20
-271.4550506492924
 30
0.0
 10
368.7021484374982
 20
-271.7455779930424
 30
0.0
 10
367.9140624999982
 20
-272.6181365867924
 30
0.0
 10
366.6660156249982
 20
-274.1200897117924
 30
0.0
 10
365.6806640624982
 20
-275.2348358055424
 30
0.0
 10
364.8925781249982
 20
-276.1073943992924
 30
0.0
 10
364.1708984374982
 20
-276.7856170555424
 30
0.0
 10
362.1347656249982
 20
-278.7240936180424
 30
0.0
 10
359.9677734374982
 20
-280.0326873680424
 30
0.0
 10
357.6025390624982
 20
-280.7109100242924
 30
0.0
 10
355.1074218749982
 20
-281.8256561180424
 30
0.0
 10
351.7578124999982
 20
-282.6493865867924
 30
0.0
 10
347.4892578124982
 20
-283.0859100242924
 30
0.0
 10
340.5937499999982
 20
-283.8124725242924
 30
0.0
 10
337.1123046874982
 20
-284.2001678367924
 30
0.0
 10
336.9160156249982
 20
-284.2001678367924
 30
0.0
 10
337.9013671874982
 20
-293.5048553367924
 30
0.0
 10
337.1787109374982
 20
-303.0033904930424
 30
0.0
 10
334.8798828124982
 20
-312.7441131492924
 30
0.0
 10
325.8828124999982
 20
-315.7006561180424
 30
0.0
 10
318.1328124999982
 20
-316.4760467430424
 30
0.0
 10
311.7626953124982
 20
-315.0219451805424
 30
0.0
 10
311.8935546874982
 20
-313.4228240867924
 30
0.0
 10
311.0400390624982
 20
-311.3876678367924
 30
0.0
 10
309.2666015624982
 20
-308.9159881492924
 30
0.0
 10
309.2666015624982
 20
-308.9159881492924
 30
0.0
 10
309.1357421874982
 20
-289.5795623680424
 30
0.0
 10
309.1357421874982
 20
-289.5795623680424
 30
0.0
 10
309.5302734374982
 20
-274.2655975242924
 30
0.0
 10
310.3173828124982
 20
-258.2734100242924
 30
0.0
 10
311.5654296874982
 20
-241.6025115867924
 30
0.0
 10
311.6318359374982
 20
-240.1967498680424
 30
0.0
 10
312.5507812499982
 20
-238.8398162742924
 30
0.0
 10
314.1923828124982
 20
-237.4828826805424
 30
0.0
 10
314.1923828124982
 20
-237.4828826805424
 30
0.0
 10
316.5566406249982
 20
-235.7870818992924
 30
0.0
 10
316.5566406249982
 20
-235.7870818992924
 30
0.0
 10
316.5566406249982
 20
-235.7870818992924
 30
0.0
 10
318.9208984374982
 20
-234.1874725242924
 30
0.0
 10
318.9208984374982
 20
-234.1874725242924
 30
0.0
 10
318.9208984374982
 20
-234.1874725242924
 30
0.0
 10
328.2470703124982
 20
-235.5444061180424
 30
0.0
 10
328.2470703124982
 20
-235.5444061180424
 30
0.0
 10
332.9091796874982
 20
-233.6542693992924
 30
0.0
 10
338.0976562499982
 20
-232.9277068992924
 30
0.0
 10
343.8769531249982
 20
-233.3637420555424
 30
0.0
 10
349.0654296874982
 20
-233.7514373680424
 30
0.0
 10
354.1884765624982
 20
-235.0116912742924
 30
0.0
 10
359.1787109374982
 20
-237.0951873680424
 30
0.0
 10
365.2871093749982
 20
-238.5492889305424
 30
0.0
 10
369.4902343749982
 20
-241.6991912742924
 30
0.0
 10
371.6572265624982
 20
-246.5937225242924
 30
0.0
 10
372.9052734374982
 20
-253.6694061180424
 30
0.0
 10
373.6279296874982
 20
-257.1103240867924
 30
0.0
 10
373.6933593749982
 20
-256.9159881492924
 30
0.0
  0
SPLINE
  5
86
330
7A
100
AcDbEntity
  8
Layer 1
370
     0
100
AcDbSpline
210
0.0
220
0.0
230
1.0
 70
    11
 71
     3
 72
    23
 73
    19
 74
     0
 42
0.0000000001
 43
0.0000000001
 12
1.0
 22
0.0
 32
0.0
 13
1.0
 23
0.0
 33
0.0
 40
0.0
 40
0.0
 40
0.0
 40
0.0
 40
1.0
 40
1.0
 40
1.0
 40
2.0
 40
2.0
 40
2.0
 40
3.0
 40
3.0
 40
3.0
 40
4.0
 40
4.0
 40
4.0
 40
5.0
 40
5.0
 40
5.0
 40
6.0
 40
6.0
 40
6.0
 40
6.0
 10
352.9404296874982
 20
-244.2675506492924
 30
0.0
 10
347.6865234374982
 20
-240.7299529930424
 30
0.0
 10
342.1699218749982
 20
-239.5185272117924
 30
0.0
 10
336.4560546874982
 20
-240.6327850242924
 30
0.0
 10
335.4052734374982
 20
-244.6552459617924
 30
0.0
 10
335.0771484374982
 20
-250.1801483055424
 30
0.0
 10
335.5361328124982
 20
-257.1586639305424
 30
0.0
 10
336.0615234374982
 20
-265.2519256492924
 30
0.0
 10
336.1279296874982
 20
-270.7763397117924
 30
0.0
 10
335.7998046874982
 20
-273.7323943992924
 30
0.0
 10
337.0468749999982
 20
-272.4726287742924
 30
0.0
 10
339.7392578124982
 20
-270.6308318992924
 30
0.0
 10
343.9423828124982
 20
-268.2563201805424
 30
0.0
 10
347.6865234374982
 20
-266.1239959617924
 30
0.0
 10
350.1162109374982
 20
-264.1371795555424
 30
0.0
 10
351.3642578124982
 20
-262.2953826805424
 30
0.0
 10
356.4208984374982
 20
-254.8808318992924
 30
0.0
 10
356.9462890624982
 20
-248.8715545555424
 30
0.0
 10
352.9404296874982
 20
-244.2675506492924
 30
0.0
  0
HATCH
  5
87
330
7A
100
AcDbEntity
  8
Layer 1
 62
   250
420
  2301728
100
AcDbHatch
 10
0.0
 20
0.0
 30
0.0
210
0.0
220
0.0
230
1.0
  2
SOLID
 70
     1
 71
     0
 91
        2
 92
        1
 93
        1
 72
     4
 94
        3
 73
     0
 74
     1
 95
       68
 96
       64
 40
0.0
 40
0.0
 40
0.0
 40
0.0
 40
1.0
 40
1.0
 40
1.0
 40
2.0
 40
2.0
 40
2.0
 40
3.0
 40
3.0
 40
3.0
 40
4.0
 40
4.0
 40
4.0
 40
5.0
 40
5.0
 40
5.0
 40
6.0
 40
6.0
 40
6.0
 40
7.0
 40
7.0
 40
7.0
 40
8.0
 40
8.0
 40
8.0
 40
9.0
 40
9.0
 40
9.0
 40
10.0
 40
10.0
 40
10.0
 40
11.0
 40
11.0
 40
11.0
 40
12.0
 40
12.0
 40
12.0
 40
13.0
 40
13.0
 40
13.0
 40
14.0
 40
14.0
 40
14.0
 40
15.0
 40
15.0
 40
15.0
 40
16.0
 40
16.0
 40
16.0
 40
17.0
 40
17.0
 40
17.0
 40
18.0
 40
18.0
 40
18.0
 40
19.0
 40
19.0
 40
19.0
 40
20.0
 40
20.0
 40
20.0
 40
21.0
 40
21.0
 40
21.0
 40
21.0
 10
373.6933593749982
 20
-256.9159881492924
 10
373.4960937499982
 20
-257.7885467430424
 10
373.2333984374982
 20
-259.0488006492924
 10
373.0361328124982
 20
-260.6479217430424
 10
373.0361328124982
 20
-260.6479217430424
 10
372.4453124999982
 20
-264.4277068992924
 10
372.4453124999982
 20
-264.4277068992924
 10
371.8544921874982
 20
-267.3837615867924
 10
370.7373046874982
 20
-269.7587615867924
 10
369.0302734374982
 20
-271.4550506492924
 10
368.7021484374982
 20
-271.7455779930424
 10
367.9140624999982
 20
-272.6181365867924
 10
366.6660156249982
 20
-274.1200897117924
 10
365.6806640624982
 20
-275.2348358055424
 10
364.8925781249982
 20
-276.1073943992924
 10
364.1708984374982
 20
-276.7856170555424
 10
362.1347656249982
 20
-278.7240936180424
 10
359.9677734374982
 20
-280.0326873680424
 10
357.6025390624982
 20
-280.7109100242924
 10
355.1074218749982
 20
-281.8256561180424
 10
351.7578124999982
 20
-282.6493865867924
 10
347.4892578124982
 20
-283.0859100242924
 10
340.5937499999982
 20
-283.8124725242924
 10
337.1123046874982
 20
-284.2001678367924
 10
336.9160156249982
 20
-284.2001678367924
 10
337.9013671874982
 20
-293.5048553367924
 10
337.1787109374982
 20
-303.0033904930424
 10
334.8798828124982
 20
-312.7441131492924
 10
325.8828124999982
 20
-315.7006561180424
 10
318.1328124999982
 20
-316.4760467430424
 10
311.7626953124982
 20
-315.0219451805424
 10
311.8935546874982
 20
-313.4228240867924
 10
311.0400390624982
 20
-311.3876678367924
 10
309.2666015624982
 20
-308.9159881492924
 10
309.2666015624982
 20
-308.9159881492924
 10
309.1357421874982
 20
-289.5795623680424
 10
309.1357421874982
 20
-289.5795623680424
 10
309.5302734374982
 20
-274.2655975242924
 10
310.3173828124982
 20
-258.2734100242924
 10
311.5654296874982
 20
-241.6025115867924
 10
311.6318359374982
 20
-240.1967498680424
 10
312.5507812499982
 20
-238.8398162742924
 10
314.1923828124982
 20
-237.4828826805424
 10
314.1923828124982
 20
-237.4828826805424
 10
316.5566406249982
 20
-235.7870818992924
 10
316.5566406249982
 20
-235.7870818992924
 10
316.5566406249982
 20
-235.7870818992924
 10
318.9208984374982
 20
-234.1874725242924
 10
318.9208984374982
 20
-234.1874725242924
 10
318.9208984374982
 20
-234.1874725242924
 10
328.2470703124982
 20
-235.5444061180424
 10
328.2470703124982
 20
-235.5444061180424
 10
332.9091796874982
 20
-233.6542693992924
 10
338.0976562499982
 20
-232.9277068992924
 10
343.8769531249982
 20
-233.3637420555424
 10
349.0654296874982
 20
-233.7514373680424
 10
354.1884765624982
 20
-235.0116912742924
 10
359.1787109374982
 20
-237.0951873680424
 10
365.2871093749982
 20
-238.5492889305424
 10
369.4902343749982
 20
-241.6991912742924
 10
371.6572265624982
 20
-246.5937225242924
 10
372.9052734374982
 20
-253.6694061180424
 10
373.6279296874982
 20
-257.1103240867924
 10
373.6933593749982
 20
-256.9159881492924
 97
        0
 97
        0
 92
        1
 93
        1
 72
     4
 94
        3
 73
     0
 74
     1
 95
       23
 96
       19
 40
0.0
 40
0.0
 40
0.0
 40
0.0
 40
1.0
 40
1.0
 40
1.0
 40
2.0
 40
2.0
 40
2.0
 40
3.0
 40
3.0
 40
3.0
 40
4.0
 40
4.0
 40
4.0
 40
5.0
 40
5.0
 40
5.0
 40
6.0
 40
6.0
 40
6.0
 40
6.0
 10
352.9404296874982
 20
-244.2675506492924
 10
347.6865234374982
 20
-240.7299529930424
 10
342.1699218749982
 20
-239.5185272117924
 10
336.4560546874982
 20
-240.6327850242924
 10
335.4052734374982
 20
-244.6552459617924
 10
335.0771484374982
 20
-250.1801483055424
 10
335.5361328124982
 20
-257.1586639305424
 10
336.0615234374982
 20
-265.2519256492924
 10
336.1279296874982
 20
-270.7763397117924
 10
335.7998046874982
 20
-273.7323943992924
 10
337.0468749999982
 20
-272.4726287742924
 10
339.7392578124982
 20
-270.6308318992924
 10
343.9423828124982
 20
-268.2563201805424
 10
347.6865234374982
 20
-266.1239959617924
 10
350.1162109374982
 20
-264.1371795555424
 10
351.3642578124982
 20
-262.2953826805424
 10
356.4208984374982
 20
-254.8808318992924
 10
356.9462890624982
 20
-248.8715545555424
 10
352.9404296874982
 20
-244.2675506492924
 97
        0
 97
        0
 75
     2
 76
     1
 98
        0
  0
SPLINE
  5
88
330
7A
100
AcDbEntity
  8
Layer 1
370
     0
100
AcDbSpline
210
0.0
220
0.0
230
1.0
 70
    11
 71
     3
 72
    26
 73
    22
 74
     0
 42
0.0000000001
 43
0.0000000001
 12
1.0
 22
0.0
 32
0.0
 13
1.0
 23
0.0
 33
0.0
 40
0.0
 40
0.0
 40
0.0
 40
0.0
 40
1.0
 40
1.0
 40
1.0
 40
2.0
 40
2.0
 40
2.0
 40
3.0
 40
3.0
 40
3.0
 40
4.0
 40
4.0
 40
4.0
 40
5.0
 40
5.0
 40
5.0
 40
6.0
 40
6.0
 40
6.0
 40
7.0
 40
7.0
 40
7.0
 40
7.0
 10
416.6386718749982
 20
-305.2328826805424
 30
0.0
 10
417.0986328124982
 20
-308.8188201805424
 30
0.0
 10
416.3759765624982
 20
-311.5326873680424
 30
0.0
 10
414.5371093749982
 20
-313.4228240867924
 30
0.0
 10
413.2236328124982
 20
-314.9252654930424
 30
0.0
 10
411.3193359374982
 20
-315.8456756492924
 30
0.0
 10
408.8232421874982
 20
-316.1366912742924
 30
0.0
 10
406.3935546874982
 20
-316.4277068992924
 30
0.0
 10
404.2919921874982
 20
-316.0400115867924
 30
0.0
 10
402.5185546874982
 20
-314.9736053367924
 30
0.0
 10
400.4824218749982
 20
-313.6650115867924
 30
0.0
 10
399.4970703124982
 20
-311.6298553367924
 30
0.0
 10
399.4316406249982
 20
-308.7704803367924
 30
0.0
 10
399.3662109374982
 20
-306.4926483055424
 30
0.0
 10
400.2197265624982
 20
-304.7968475242924
 30
0.0
 10
401.8623046874982
 20
-303.6821014305424
 30
0.0
 10
403.5039062499982
 20
-302.5190154930424
 30
0.0
 10
406.0654296874982
 20
-302.0829803367924
 30
0.0
 10
409.4140624999982
 20
-302.3251678367924
 30
0.0
 10
412.7636718749982
 20
-302.5673553367924
 30
0.0
 10
415.1933593749982
 20
-303.5365936180424
 30
0.0
 10
416.6386718749982
 20
-305.2328826805424
 30
0.0
  0
SPLINE
  5
89
330
7A
100
AcDbEntity
  8
Layer 1
370
     0
100
AcDbSpline
210
0.0
220
0.0
230
1.0
 70
    11
 71
     3
 72
    62
 73
    58
 74
     0
 42
0.0000000001
 43
0.0000000001
 12
1.0
 22
0.0
 32
0.0
 13
1.0
 23
0.0
 33
0.0
 40
0.0
 40
0.0
 40
0.0
 40
0.0
 40
1.0
 40
1.0
 40
1.0
 40
2.0
 40
2.0
 40
2.0
 40
3.0
 40
3.0
 40
3.0
 40
4.0
 40
4.0
 40
4.0
 40
5.0
 40
5.0
 40
5.0
 40
6.0
 40
6.0
 40
6.0
 40
7.0
 40
7.0
 40
7.0
 40
8.0
 40
8.0
 40
8.0
 40
9.0
 40
9.0
 40
9.0
 40
10.0
 40
10.0
 40
10.0
 40
11.0
 40
11.0
 40
11.0
 40
12.0
 40
12.0
 40
12.0
 40
13.0
 40
13.0
 40
13.0
 40
14.0
 40
14.0
 40
14.0
 40
15.0
 40
15.0
 40
15.0
 40
16.0
 40
16.0
 40
16.0
 40
17.0
 40
17.0
 40
17.0
 40
18.0
 40
18.0
 40
18.0
 40
19.0
 40
19.0
 40
19.0
 40
19.0
 10
422.6806640624982
 20
-239.9545623680424
 30
0.0
 10
422.0234374999982
 20
-242.2323943992924
 30
0.0
 10
421.8271484374982
 20
-243.7343475242924
 30
0.0
 10
422.0234374999982
 20
-244.4130584617924
 30
0.0
 10
422.2207031249982
 20
-245.4306365867924
 30
0.0
 10
422.0888671874982
 20
-246.9330779930424
 30
0.0
 10
421.6953124999982
 20
-248.8232147117924
 30
0.0
 10
421.2353515624982
 20
-250.8583709617924
 30
0.0
 10
420.9726562499982
 20
-252.3124725242924
 30
0.0
 10
421.0380859374982
 20
-253.1845428367924
 30
0.0
 10
421.0380859374982
 20
-253.1845428367924
 30
0.0
 10
420.4472656249982
 20
-268.9833709617924
 30
0.0
 10
420.4472656249982
 20
-268.9833709617924
 30
0.0
 10
420.5791015624982
 20
-270.7763397117924
 30
0.0
 10
420.3818359374982
 20
-272.8603240867924
 30
0.0
 10
419.9218749999982
 20
-275.2831756492924
 30
0.0
 10
419.3964843749982
 20
-278.1425506492924
 30
0.0
 10
419.1337890624982
 20
-280.2265350242924
 30
0.0
 10
419.0683593749982
 20
-281.5351287742924
 30
0.0
 10
419.0683593749982
 20
-282.7948943992924
 30
0.0
 10
418.6748046874982
 20
-284.6850311180424
 30
0.0
 10
417.9521484374982
 20
-287.1562225242924
 30
0.0
 10
417.2294921874982
 20
-289.6279022117924
 30
0.0
 10
416.8349609374982
 20
-291.5180389305424
 30
0.0
 10
416.8349609374982
 20
-292.7782928367924
 30
0.0
 10
416.8349609374982
 20
-292.7782928367924
 30
0.0
 10
415.7841796874982
 20
-293.4565154930424
 30
0.0
 10
415.7841796874982
 20
-293.4565154930424
 30
0.0
 10
415.3251953124982
 20
-293.7958709617924
 30
0.0
 10
414.9970703124982
 20
-293.9897186180424
 30
0.0
 10
414.7998046874982
 20
-294.0863983055424
 30
0.0
 10
414.5371093749982
 20
-294.0380584617924
 30
0.0
 10
412.5664062499982
 20
-293.8925506492924
 30
0.0
 10
408.8232421874982
 20
-293.6987029930424
 30
0.0
 10
406.3271484374982
 20
-293.5536834617924
 30
0.0
 10
404.6201171874982
 20
-292.8749725242924
 30
0.0
 10
403.6347656249982
 20
-291.7602264305424
 30
0.0
 10
402.9785156249982
 20
-290.3549529930424
 30
0.0
 10
402.7158203124982
 20
-287.5927459617924
 30
0.0
 10
402.7812499999982
 20
-283.3764373680424
 30
0.0
 10
403.6347656249982
 20
-274.7499725242924
 30
0.0
 10
404.5546874999982
 20
-267.9657928367924
 30
0.0
 10
405.6708984374982
 20
-263.0707733055424
 30
0.0
 10
407.0498046874982
 20
-257.4491912742924
 30
0.0
 10
407.3124999999982
 20
-248.6293670555424
 30
0.0
 10
406.3271484374982
 20
-236.5624725242924
 30
0.0
 10
407.1162109374982
 20
-234.9145233055424
 30
0.0
 10
408.3632812499982
 20
-233.6542693992924
 30
0.0
 10
410.1367187499982
 20
-232.8305389305424
 30
0.0
 10
412.7636718749982
 20
-232.2978240867924
 30
0.0
 10
415.2587890624982
 20
-232.2006561180424
 30
0.0
 10
417.6240234374982
 20
-232.6366912742924
 30
0.0
 10
420.1845703124982
 20
-233.0732147117924
 30
0.0
 10
422.2207031249982
 20
-234.0907928367924
 30
0.0
 10
423.5996093749982
 20
-235.6899139305424
 30
0.0
 10
423.6650390624982
 20
-236.2231170555424
 30
0.0
 10
423.4033203124982
 20
-237.6767303367924
 30
0.0
 10
422.6806640624982
 20
-239.9545623680424
 30
0.0
  0
HATCH
  5
8A
330
7A
100
AcDbEntity
  8
Layer 1
 62
   250
420
  2301728
100
AcDbHatch
 10
0.0
 20
0.0
 30
0.0
210
0.0
220
0.0
230
1.0
  2
SOLID
 70
     1
 71
     0
 91
        2
 92
        1
 93
        1
 72
     4
 94
        3
 73
     0
 74
     1
 95
       26
 96
       22
 40
0.0
 40
0.0
 40
0.0
 40
0.0
 40
1.0
 40
1.0
 40
1.0
 40
2.0
 40
2.0
 40
2.0
 40
3.0
 40
3.0
 40
3.0
 40
4.0
 40
4.0
 40
4.0
 40
5.0
 40
5.0
 40
5.0
 40
6.0
 40
6.0
 40
6.0
 40
7.0
 40
7.0
 40
7.0
 40
7.0
 10
416.6386718749982
 20
-305.2328826805424
 10
417.0986328124982
 20
-308.8188201805424
 10
416.3759765624982
 20
-311.5326873680424
 10
414.5371093749982
 20
-313.4228240867924
 10
413.2236328124982
 20
-314.9252654930424
 10
411.3193359374982
 20
-315.8456756492924
 10
408.8232421874982
 20
-316.1366912742924
 10
406.3935546874982
 20
-316.4277068992924
 10
404.2919921874982
 20
-316.0400115867924
 10
402.5185546874982
 20
-314.9736053367924
 10
400.4824218749982
 20
-313.6650115867924
 10
399.4970703124982
 20
-311.6298553367924
 10
399.4316406249982
 20
-308.7704803367924
 10
399.3662109374982
 20
-306.4926483055424
 10
400.2197265624982
 20
-304.7968475242924
 10
401.8623046874982
 20
-303.6821014305424
 10
403.5039062499982
 20
-302.5190154930424
 10
406.0654296874982
 20
-302.0829803367924
 10
409.4140624999982
 20
-302.3251678367924
 10
412.7636718749982
 20
-302.5673553367924
 10
415.1933593749982
 20
-303.5365936180424
 10
416.6386718749982
 20
-305.2328826805424
 97
        0
 97
        0
 92
        1
 93
        1
 72
     4
 94
        3
 73
     0
 74
     1
 95
       62
 96
       58
 40
0.0
 40
0.0
 40
0.0
 40
0.0
 40
1.0
 40
1.0
 40
1.0
 40
2.0
 40
2.0
 40
2.0
 40
3.0
 40
3.0
 40
3.0
 40
4.0
 40
4.0
 40
4.0
 40
5.0
 40
5.0
 40
5.0
 40
6.0
 40
6.0
 40
6.0
 40
7.0
 40
7.0
 40
7.0
 40
8.0
 40
8.0
 40
8.0
 40
9.0
 40
9.0
 40
9.0
 40
10.0
 40
10.0
 40
10.0
 40
11.0
 40
11.0
 40
11.0
 40
12.0
 40
12.0
 40
12.0
 40
13.0
 40
13.0
 40
13.0
 40
14.0
 40
14.0
 40
14.0
 40
15.0
 40
15.0
 40
15.0
 40
16.0
 40
16.0
 40
16.0
 40
17.0
 40
17.0
 40
17.0
 40
18.0
 40
18.0
 40
18.0
 40
19.0
 40
19.0
 40
19.0
 40
19.0
 10
422.6806640624982
 20
-239.9545623680424
 10
422.0234374999982
 20
-242.2323943992924
 10
421.8271484374982
 20
-243.7343475242924
 10
422.0234374999982
 20
-244.4130584617924
 10
422.2207031249982
 20
-245.4306365867924
 10
422.0888671874982
 20
-246.9330779930424
 10
421.6953124999982
 20
-248.8232147117924
 10
421.2353515624982
 20
-250.8583709617924
 10
420.9726562499982
 20
-252.3124725242924
 10
421.0380859374982
 20
-253.1845428367924
 10
421.0380859374982
 20
-253.1845428367924
 10
420.4472656249982
 20
-268.9833709617924
 10
420.4472656249982
 20
-268.9833709617924
 10
420.5791015624982
 20
-270.7763397117924
 10
420.3818359374982
 20
-272.8603240867924
 10
419.9218749999982
 20
-275.2831756492924
 10
419.3964843749982
 20
-278.1425506492924
 10
419.1337890624982
 20
-280.2265350242924
 10
419.0683593749982
 20
-281.5351287742924
 10
419.0683593749982
 20
-282.7948943992924
 10
418.6748046874982
 20
-284.6850311180424
 10
417.9521484374982
 20
-287.1562225242924
 10
417.2294921874982
 20
-289.6279022117924
 10
416.8349609374982
 20
-291.5180389305424
 10
416.8349609374982
 20
-292.7782928367924
 10
416.8349609374982
 20
-292.7782928367924
 10
415.7841796874982
 20
-293.4565154930424
 10
415.7841796874982
 20
-293.4565154930424
 10
415.3251953124982
 20
-293.7958709617924
 10
414.9970703124982
 20
-293.9897186180424
 10
414.7998046874982
 20
-294.0863983055424
 10
414.5371093749982
 20
-294.0380584617924
 10
412.5664062499982
 20
-293.8925506492924
 10
408.8232421874982
 20
-293.6987029930424
 10
406.3271484374982
 20
-293.5536834617924
 10
404.6201171874982
 20
-292.8749725242924
 10
403.6347656249982
 20
-291.7602264305424
 10
402.9785156249982
 20
-290.3549529930424
 10
402.7158203124982
 20
-287.5927459617924
 10
402.7812499999982
 20
-283.3764373680424
 10
403.6347656249982
 20
-274.7499725242924
 10
404.5546874999982
 20
-267.9657928367924
 10
405.6708984374982
 20
-263.0707733055424
 10
407.0498046874982
 20
-257.4491912742924
 10
407.3124999999982
 20
-248.6293670555424
 10
406.3271484374982
 20
-236.5624725242924
 10
407.1162109374982
 20
-234.9145233055424
 10
408.3632812499982
 20
-233.6542693992924
 10
410.1367187499982
 20
-232.8305389305424
 10
412.7636718749982
 20
-232.2978240867924
 10
415.2587890624982
 20
-232.2006561180424
 10
417.6240234374982
 20
-232.6366912742924
 10
420.1845703124982
 20
-233.0732147117924
 10
422.2207031249982
 20
-234.0907928367924
 10
423.5996093749982
 20
-235.6899139305424
 10
423.6650390624982
 20
-236.2231170555424
 10
423.4033203124982
 20
-237.6767303367924
 10
422.6806640624982
 20
-239.9545623680424
 97
        0
 97
        0
 75
     2
 76
     1
 98
        0
  0
ENDBLK
  5
7D
330
7A
100
AcDbEntity
  8
0
100
AcDbBlockEnd
  0
BLOCK
  5
8D
330
8B
100
AcDbEntity
  8
0
100
AcDbBlockBegin
  2
block 5
 70
     0
 10
0.0
 20
0.0
 30
0.0
  3
block 5
  1

  0
SPLINE
  5
8F
330
8B
100
AcDbEntity
  8
Layer 1
370
     0
100
AcDbSpline
210
0.0
220
0.0
230
1.0
 70
    11
 71
     3
 72
    65
 73
    61
 74
     0
 42
0.0000000001
 43
0.0000000001
 12
1.0
 22
0.0
 32
0.0
 13
1.0
 23
0.0
 33
0.0
 40
0.0
 40
0.0
 40
0.0
 40
0.0
 40
1.0
 40
1.0
 40
1.0
 40
2.0
 40
2.0
 40
2.0
 40
3.0
 40
3.0
 40
3.0
 40
4.0
 40
4.0
 40
4.0
 40
5.0
 40
5.0
 40
5.0
 40
6.0
 40
6.0
 40
6.0
 40
7.0
 40
7.0
 40
7.0
 40
8.0
 40
8.0
 40
8.0
 40
9.0
 40
9.0
 40
9.0
 40
10.0
 40
10.0
 40
10.0
 40
11.0
 40
11.0
 40
11.0
 40
12.0
 40
12.0
 40
12.0
 40
13.0
 40
13.0
 40
13.0
 40
14.0
 40
14.0
 40
14.0
 40
15.0
 40
15.0
 40
15.0
 40
16.0
 40
16.0
 40
16.0
 40
17.0
 40
17.0
 40
17.0
 40
18.0
 40
18.0
 40
18.0
 40
19.0
 40
19.0
 40
19.0
 40
20.0
 40
20.0
 40
20.0
 40
20.0
 10
181.3017578124982
 20
-214.6440154930424
 30
0.0
 10
172.1406249999982
 20
-209.8798553367924
 30
0.0
 10
165.5971679687482
 20
-201.4467498680424
 30
0.0
 10
161.7578124999982
 20
-189.3437225242924
 30
0.0
 10
161.5834960937482
 20
-188.5068084617924
 30
0.0
 10
160.4492187499982
 20
-184.7729217430424
 30
0.0
 10
158.3554687499982
 20
-178.0136443992924
 30
0.0
 10
156.9594726562482
 20
-173.4428436180424
 30
0.0
 10
156.2612304687482
 20
-169.5800506492924
 30
0.0
 10
156.1738281249982
 20
-166.4902068992924
 30
0.0
 10
156.1738281249982
 20
-153.8720428367924
 30
0.0
 10
156.7846679687482
 20
-145.7607147117924
 30
0.0
 10
158.0063476562482
 20
-142.1557342430424
 30
0.0
 10
161.2343749999982
 20
-131.6620818992924
 30
0.0
 10
165.3354492187482
 20
-122.0058318992924
 30
0.0
 10
170.1337890624982
 20
-113.3149139305424
 30
0.0
 10
172.4023437499982
 20
-112.3490936180424
 30
0.0
 10
175.2817382812482
 20
-111.9628631492924
 30
0.0
 10
178.8588867187482
 20
-112.1562225242924
 30
0.0
 10
179.8188476562482
 20
-112.2201873680424
 30
0.0
 10
181.3891601562482
 20
-112.4135467430424
 30
0.0
 10
183.3959960937482
 20
-112.6708709617924
 30
0.0
 10
185.4028320312482
 20
-112.9286834617924
 30
0.0
 10
186.8857421874982
 20
-113.1215545555424
 30
0.0
 10
187.8457031249982
 20
-113.1860076805424
 30
0.0
 10
189.8525390624982
 20
-112.8642303367924
 30
0.0
 10
192.9062499999982
 20
-112.0273162742924
 30
0.0
 10
196.8325195312482
 20
-110.6108123680424
 30
0.0
 10
200.6713867187482
 20
-109.1947967430424
 30
0.0
 10
203.7250976562482
 20
-108.3578826805424
 30
0.0
 10
205.9936523437482
 20
-108.0361053367924
 30
0.0
 10
211.5776367187482
 20
-107.0702850242924
 30
0.0
 10
217.4233398437482
 20
-108.0361053367924
 30
0.0
 10
223.5307617187482
 20
-110.9330779930424
 30
0.0
 10
225.0141601562482
 20
-112.0273162742924
 30
0.0
 10
227.8930664062482
 20
-115.7612029930424
 30
0.0
 10
232.1684570312482
 20
-122.1987029930424
 30
0.0
 10
236.2690429687482
 20
-130.5678436180424
 30
0.0
 10
238.1015624999982
 20
-136.7480193992924
 30
0.0
 10
237.8398437499982
 20
-140.6747772117924
 30
0.0
 10
237.7524414062482
 20
-142.9281951805424
 30
0.0
 10
237.7524414062482
 20
-147.1772186180424
 30
0.0
 10
238.0141601562482
 20
-153.3573943992924
 30
0.0
 10
238.1889648437482
 20
-158.7006561180424
 30
0.0
 10
238.1015624999982
 20
-162.8847381492924
 30
0.0
 10
237.6655273437482
 20
-166.0395233055424
 30
0.0
 10
234.6113281249982
 20
-177.8202850242924
 30
0.0
 10
230.8598632812482
 20
-187.0263397117924
 30
0.0
 10
226.5844726562482
 20
-193.6571990867924
 30
0.0
 10
226.5844726562482
 20
-193.6571990867924
 30
0.0
 10
223.1816406249982
 20
-199.7084686180424
 30
0.0
 10
223.1816406249982
 20
-199.7084686180424
 30
0.0
 10
221.7856445312482
 20
-202.2192108055424
 30
0.0
 10
220.5644531249982
 20
-204.2148162742924
 30
0.0
 10
219.6044921874982
 20
-205.6313201805424
 30
0.0
 10
216.5507812499982
 20
-210.0087615867924
 30
0.0
 10
212.5375976562482
 20
-213.1630584617924
 30
0.0
 10
207.7387695312482
 20
-215.0946990867924
 30
0.0
 10
196.8325195312482
 20
-218.3779022117924
 30
0.0
 10
188.0200195312482
 20
-218.2489959617924
 30
0.0
 10
181.3017578124982
 20
-214.6440154930424
 30
0.0
  0
SPLINE
  5
90
330
8B
100
AcDbEntity
  8
Layer 1
370
     0
100
AcDbSpline
210
0.0
220
0.0
230
1.0
 70
    11
 71
     3
 72
    41
 73
    37
 74
     0
 42
0.0000000001
 43
0.0000000001
 12
1.0
 22
0.0
 32
0.0
 13
1.0
 23
0.0
 33
0.0
 40
0.0
 40
0.0
 40
0.0
 40
0.0
 40
1.0
 40
1.0
 40
1.0
 40
2.0
 40
2.0
 40
2.0
 40
3.0
 40
3.0
 40
3.0
 40
4.0
 40
4.0
 40
4.0
 40
5.0
 40
5.0
 40
5.0
 40
6.0
 40
6.0
 40
6.0
 40
7.0
 40
7.0
 40
7.0
 40
8.0
 40
8.0
 40
8.0
 40
9.0
 40
9.0
 40
9.0
 40
10.0
 40
10.0
 40
10.0
 40
11.0
 40
11.0
 40
11.0
 40
12.0
 40
12.0
 40
12.0
 40
12.0
 10
214.8930664062482
 20
-191.0820037742924
 30
0.0
 10
220.6513671874982
 20
-180.5888397117924
 30
0.0
 10
223.8798828124982
 20
-170.0307342430424
 30
0.0
 10
224.5776367187482
 20
-159.4086639305424
 30
0.0
 10
224.4907226562482
 20
-158.1855193992924
 30
0.0
 10
224.4907226562482
 20
-155.3529998680424
 30
0.0
 10
224.6650390624982
 20
-150.8466522117924
 30
0.0
 10
224.7524414062482
 20
-147.3700897117924
 30
0.0
 10
224.4907226562482
 20
-144.5375701805424
 30
0.0
 10
223.8798828124982
 20
-142.3486053367924
 30
0.0
 10
221.0004882812482
 20
-131.7265350242924
 30
0.0
 10
218.7319335937482
 20
-125.2245818992924
 30
0.0
 10
217.0742187499982
 20
-122.7138397117924
 30
0.0
 10
213.6713867187482
 20
-120.8471404930424
 30
0.0
 10
209.1347656249982
 20
-119.7524139305424
 30
0.0
 10
203.4633789062482
 20
-119.4306365867924
 30
0.0
 10
201.2822265624982
 20
-119.3017303367924
 30
0.0
 10
199.4497070312482
 20
-119.7524139305424
 30
0.0
 10
197.7919921874982
 20
-120.7182342430424
 30
0.0
 10
196.1342773437482
 20
-121.6835662742924
 30
0.0
 10
195.1748046874982
 20
-122.9711639305424
 30
0.0
 10
194.9130859374982
 20
-124.5805389305424
 30
0.0
 10
194.3022460937482
 20
-128.5722381492924
 30
0.0
 10
193.6040039062482
 20
-134.3661834617924
 30
0.0
 10
192.8188476562482
 20
-142.0268279930424
 30
0.0
 10
192.0336914062482
 20
-149.9452850242924
 30
0.0
 10
191.3354492187482
 20
-155.7392303367924
 30
0.0
 10
190.8120117187482
 20
-159.4731170555424
 30
0.0
 10
189.9394531249982
 20
-163.3354217430424
 30
0.0
 10
190.6376953124982
 20
-170.5458709617924
 30
0.0
 10
192.9936523437482
 20
-181.1679412742924
 30
0.0
 10
195.6108398437482
 20
-193.0776092430424
 30
0.0
 10
198.9262695312482
 20
-200.7387420555424
 30
0.0
 10
203.0273437499982
 20
-204.0859100242924
 30
0.0
 10
205.8193359374982
 20
-202.5409881492924
 30
0.0
 10
209.7456054687482
 20
-198.2279998680424
 30
0.0
 10
214.8930664062482
 20
-191.0820037742924
 30
0.0
  0
HATCH
  5
91
330
8B
100
AcDbEntity
  8
Layer 1
 62
   215
420
 11488412
100
AcDbHatch
 10
0.0
 20
0.0
 30
0.0
210
0.0
220
0.0
230
1.0
  2
SOLID
 70
     1
 71
     0
 91
        2
 92
        1
 93
        1
 72
     4
 94
        3
 73
     0
 74
     1
 95
       65
 96
       61
 40
0.0
 40
0.0
 40
0.0
 40
0.0
 40
1.0
 40
1.0
 40
1.0
 40
2.0
 40
2.0
 40
2.0
 40
3.0
 40
3.0
 40
3.0
 40
4.0
 40
4.0
 40
4.0
 40
5.0
 40
5.0
 40
5.0
 40
6.0
 40
6.0
 40
6.0
 40
7.0
 40
7.0
 40
7.0
 40
8.0
 40
8.0
 40
8.0
 40
9.0
 40
9.0
 40
9.0
 40
10.0
 40
10.0
 40
10.0
 40
11.0
 40
11.0
 40
11.0
 40
12.0
 40
12.0
 40
12.0
 40
13.0
 40
13.0
 40
13.0
 40
14.0
 40
14.0
 40
14.0
 40
15.0
 40
15.0
 40
15.0
 40
16.0
 40
16.0
 40
16.0
 40
17.0
 40
17.0
 40
17.0
 40
18.0
 40
18.0
 40
18.0
 40
19.0
 40
19.0
 40
19.0
 40
20.0
 40
20.0
 40
20.0
 40
20.0
 10
181.3017578124982
 20
-214.6440154930424
 10
172.1406249999982
 20
-209.8798553367924
 10
165.5971679687482
 20
-201.4467498680424
 10
161.7578124999982
 20
-189.3437225242924
 10
161.5834960937482
 20
-188.5068084617924
 10
160.4492187499982
 20
-184.7729217430424
 10
158.3554687499982
 20
-178.0136443992924
 10
156.9594726562482
 20
-173.4428436180424
 10
156.2612304687482
 20
-169.5800506492924
 10
156.1738281249982
 20
-166.4902068992924
 10
156.1738281249982
 20
-153.8720428367924
 10
156.7846679687482
 20
-145.7607147117924
 10
158.0063476562482
 20
-142.1557342430424
 10
161.2343749999982
 20
-131.6620818992924
 10
165.3354492187482
 20
-122.0058318992924
 10
170.1337890624982
 20
-113.3149139305424
 10
172.4023437499982
 20
-112.3490936180424
 10
175.2817382812482
 20
-111.9628631492924
 10
178.8588867187482
 20
-112.1562225242924
 10
179.8188476562482
 20
-112.2201873680424
 10
181.3891601562482
 20
-112.4135467430424
 10
183.3959960937482
 20
-112.6708709617924
 10
185.4028320312482
 20
-112.9286834617924
 10
186.8857421874982
 20
-113.1215545555424
 10
187.8457031249982
 20
-113.1860076805424
 10
189.8525390624982
 20
-112.8642303367924
 10
192.9062499999982
 20
-112.0273162742924
 10
196.8325195312482
 20
-110.6108123680424
 10
200.6713867187482
 20
-109.1947967430424
 10
203.7250976562482
 20
-108.3578826805424
 10
205.9936523437482
 20
-108.0361053367924
 10
211.5776367187482
 20
-107.0702850242924
 10
217.4233398437482
 20
-108.0361053367924
 10
223.5307617187482
 20
-110.9330779930424
 10
225.0141601562482
 20
-112.0273162742924
 10
227.8930664062482
 20
-115.7612029930424
 10
232.1684570312482
 20
-122.1987029930424
 10
236.2690429687482
 20
-130.5678436180424
 10
238.1015624999982
 20
-136.7480193992924
 10
237.8398437499982
 20
-140.6747772117924
 10
237.7524414062482
 20
-142.9281951805424
 10
237.7524414062482
 20
-147.1772186180424
 10
238.0141601562482
 20
-153.3573943992924
 10
238.1889648437482
 20
-158.7006561180424
 10
238.1015624999982
 20
-162.8847381492924
 10
237.6655273437482
 20
-166.0395233055424
 10
234.6113281249982
 20
-177.8202850242924
 10
230.8598632812482
 20
-187.0263397117924
 10
226.5844726562482
 20
-193.6571990867924
 10
226.5844726562482
 20
-193.6571990867924
 10
223.1816406249982
 20
-199.7084686180424
 10
223.1816406249982
 20
-199.7084686180424
 10
221.7856445312482
 20
-202.2192108055424
 10
220.5644531249982
 20
-204.2148162742924
 10
219.6044921874982
 20
-205.6313201805424
 10
216.5507812499982
 20
-210.0087615867924
 10
212.5375976562482
 20
-213.1630584617924
 10
207.7387695312482
 20
-215.0946990867924
 10
196.8325195312482
 20
-218.3779022117924
 10
188.0200195312482
 20
-218.2489959617924
 10
181.3017578124982
 20
-214.6440154930424
 97
        0
 97
        0
 92
        1
 93
        1
 72
     4
 94
        3
 73
     0
 74
     1
 95
       41
 96
       37
 40
0.0
 40
0.0
 40
0.0
 40
0.0
 40
1.0
 40
1.0
 40
1.0
 40
2.0
 40
2.0
 40
2.0
 40
3.0
 40
3.0
 40
3.0
 40
4.0
 40
4.0
 40
4.0
 40
5.0
 40
5.0
 40
5.0
 40
6.0
 40
6.0
 40
6.0
 40
7.0
 40
7.0
 40
7.0
 40
8.0
 40
8.0
 40
8.0
 40
9.0
 40
9.0
 40
9.0
 40
10.0
 40
10.0
 40
10.0
 40
11.0
 40
11.0
 40
11.0
 40
12.0
 40
12.0
 40
12.0
 40
12.0
 10
214.8930664062482
 20
-191.0820037742924
 10
220.6513671874982
 20
-180.5888397117924
 10
223.8798828124982
 20
-170.0307342430424
 10
224.5776367187482
 20
-159.4086639305424
 10
224.4907226562482
 20
-158.1855193992924
 10
224.4907226562482
 20
-155.3529998680424
 10
224.6650390624982
 20
-150.8466522117924
 10
224.7524414062482
 20
-147.3700897117924
 10
224.4907226562482
 20
-144.5375701805424
 10
223.8798828124982
 20
-142.3486053367924
 10
221.0004882812482
 20
-131.7265350242924
 10
218.7319335937482
 20
-125.2245818992924
 10
217.0742187499982
 20
-122.7138397117924
 10
213.6713867187482
 20
-120.8471404930424
 10
209.1347656249982
 20
-119.7524139305424
 10
203.4633789062482
 20
-119.4306365867924
 10
201.2822265624982
 20
-119.3017303367924
 10
199.4497070312482
 20
-119.7524139305424
 10
197.7919921874982
 20
-120.7182342430424
 10
196.1342773437482
 20
-121.6835662742924
 10
195.1748046874982
 20
-122.9711639305424
 10
194.9130859374982
 20
-124.5805389305424
 10
194.3022460937482
 20
-128.5722381492924
 10
193.6040039062482
 20
-134.3661834617924
 10
192.8188476562482
 20
-142.0268279930424
 10
192.0336914062482
 20
-149.9452850242924
 10
191.3354492187482
 20
-155.7392303367924
 10
190.8120117187482
 20
-159.4731170555424
 10
189.9394531249982
 20
-163.3354217430424
 10
190.6376953124982
 20
-170.5458709617924
 10
192.9936523437482
 20
-181.1679412742924
 10
195.6108398437482
 20
-193.0776092430424
 10
198.9262695312482
 20
-200.7387420555424
 10
203.0273437499982
 20
-204.0859100242924
 10
205.8193359374982
 20
-202.5409881492924
 10
209.7456054687482
 20
-198.2279998680424
 10
214.8930664062482
 20
-191.0820037742924
 97
        0
 97
        0
 75
     2
 76
     1
 98
        0
  0
SPLINE
  5
92
330
8B
100
AcDbEntity
  8
Layer 1
370
     0
100
AcDbSpline
210
0.0
220
0.0
230
1.0
 70
    11
 71
     3
 72
    95
 73
    91
 74
     0
 42
0.0000000001
 43
0.0000000001
 12
1.0
 22
0.0
 32
0.0
 13
1.0
 23
0.0
 33
0.0
 40
0.0
 40
0.0
 40
0.0
 40
0.0
 40
1.0
 40
1.0
 40
1.0
 40
2.0
 40
2.0
 40
2.0
 40
3.0
 40
3.0
 40
3.0
 40
4.0
 40
4.0
 40
4.0
 40
5.0
 40
5.0
 40
5.0
 40
6.0
 40
6.0
 40
6.0
 40
7.0
 40
7.0
 40
7.0
 40
8.0
 40
8.0
 40
8.0
 40
9.0
 40
9.0
 40
9.0
 40
10.0
 40
10.0
 40
10.0
 40
11.0
 40
11.0
 40
11.0
 40
12.0
 40
12.0
 40
12.0
 40
13.0
 40
13.0
 40
13.0
 40
14.0
 40
14.0
 40
14.0
 40
15.0
 40
15.0
 40
15.0
 40
16.0
 40
16.0
 40
16.0
 40
17.0
 40
17.0
 40
17.0
 40
18.0
 40
18.0
 40
18.0
 40
19.0
 40
19.0
 40
19.0
 40
20.0
 40
20.0
 40
20.0
 40
21.0
 40
21.0
 40
21.0
 40
22.0
 40
22.0
 40
22.0
 40
23.0
 40
23.0
 40
23.0
 40
24.0
 40
24.0
 40
24.0
 40
25.0
 40
25.0
 40
25.0
 40
26.0
 40
26.0
 40
26.0
 40
27.0
 40
27.0
 40
27.0
 40
28.0
 40
28.0
 40
28.0
 40
29.0
 40
29.0
 40
29.0
 40
30.0
 40
30.0
 40
30.0
 40
30.0
 10
249.3515624999982
 20
-214.5151092430424
 30
0.0
 10
246.8212890624982
 20
-211.8759490867924
 30
0.0
 10
245.6870117187482
 20
-209.1073943992924
 30
0.0
 10
245.8618164062482
 20
-206.2104217430424
 30
0.0
 10
244.7275390624982
 20
-172.6703826805424
 30
0.0
 10
245.0761718749982
 20
-148.2714568992924
 30
0.0
 10
247.0830078124982
 20
-133.0141326805424
 30
0.0
 10
249.0898437499982
 20
-117.6923553367924
 30
0.0
 10
251.3583984374982
 20
-109.2592498680424
 30
0.0
 10
253.9760742187482
 20
-107.6498748680424
 30
0.0
 10
256.6806640624982
 20
-106.0400115867924
 30
0.0
 10
258.6874999999982
 20
-105.2030975242924
 30
0.0
 10
260.0834960937482
 20
-105.0102264305424
 30
0.0
 10
262.7880859374982
 20
-104.6884490867924
 30
0.0
 10
264.7075195312482
 20
-105.2030975242924
 30
0.0
 10
265.9291992187482
 20
-106.4906951805424
 30
0.0
 10
267.2377929687482
 20
-107.5854217430424
 30
0.0
 10
268.1977539062482
 20
-109.3232147117924
 30
0.0
 10
268.7211914062482
 20
-111.7055389305424
 30
0.0
 10
269.4189453124982
 20
-117.1772186180424
 30
0.0
 10
269.5063476562482
 20
-124.3232147117924
 30
0.0
 10
269.0698242187482
 20
-133.0785858055424
 30
0.0
 10
268.2846679687482
 20
-144.3446990867924
 30
0.0
 10
267.9360351562482
 20
-152.9067108055424
 30
0.0
 10
268.1103515624982
 20
-158.8290740867924
 30
0.0
 10
269.5937499999982
 20
-158.1210662742924
 30
0.0
 10
271.6000976562482
 20
-156.8979217430424
 30
0.0
 10
274.1303710937482
 20
-155.1596404930424
 30
0.0
 10
276.8354492187482
 20
-153.2929412742924
 30
0.0
 10
279.0166015624982
 20
-151.9408904930424
 30
0.0
 10
280.4995117187482
 20
-151.1684295555424
 30
0.0
 10
285.9091796874982
 20
-148.4648162742924
 30
0.0
 10
291.9291992187482
 20
-147.4989959617924
 30
0.0
 10
298.4731445312482
 20
-148.2070037742924
 30
0.0
 10
305.1040039062482
 20
-148.9150115867924
 30
0.0
 10
309.6416015624982
 20
-152.3271209617924
 30
0.0
 10
312.0849609374982
 20
-158.4428436180424
 30
0.0
 10
314.5273437499982
 20
-164.4946014305424
 30
0.0
 10
314.3535156249982
 20
-173.3139373680424
 30
0.0
 10
311.4736328124982
 20
-184.8373748680424
 30
0.0
 10
308.6816406249982
 20
-196.3608123680424
 30
0.0
 10
308.3330078124982
 20
-203.6996795555424
 30
0.0
 10
310.5146484374982
 20
-206.8544647117924
 30
0.0
 10
312.6083984374982
 20
-208.3349334617924
 30
0.0
 10
314.5273437499982
 20
-208.7856170555424
 30
0.0
 10
316.3603515624982
 20
-208.2704803367924
 30
0.0
 10
320.8964843749982
 20
-207.3051483055424
 30
0.0
 10
325.3466796874982
 20
-204.3437225242924
 30
0.0
 10
329.6220703124982
 20
-199.3866912742924
 30
0.0
 10
333.7226562499982
 20
-194.8158904930424
 30
0.0
 10
337.7363281249982
 20
-188.6357147117924
 30
0.0
 10
341.7499999999982
 20
-180.7817108055424
 30
0.0
 10
346.5478515624982
 20
-169.8378631492924
 30
0.0
 10
350.0380859374982
 20
-164.6874725242924
 30
0.0
 10
352.2197265624982
 20
-165.2670623680424
 30
0.0
 10
354.4003906249982
 20
-165.8461639305424
 30
0.0
 10
354.4003906249982
 20
-168.8075897117924
 30
0.0
 10
352.1318359374982
 20
-174.0863983055424
 30
0.0
 10
343.4941406249982
 20
-196.9404022117924
 30
0.0
 10
333.6357421874982
 20
-210.3305389305424
 30
0.0
 10
322.7294921874982
 20
-214.1933318992924
 30
0.0
 10
311.8232421874982
 20
-218.0561248680424
 30
0.0
 10
303.1850585937482
 20
-218.1200897117924
 30
0.0
 10
296.7280273437482
 20
-214.3866912742924
 30
0.0
 10
290.2719726562482
 20
-210.6528045555424
 30
0.0
 10
287.1308593749982
 20
-205.0517303367924
 30
0.0
 10
287.3051757812482
 20
-197.5839568992924
 30
0.0
 10
287.4799804687482
 20
-190.1161834617924
 30
0.0
 10
288.7011718749982
 20
-178.6571990867924
 30
0.0
 10
290.8823242187482
 20
-163.2070037742924
 30
0.0
 10
291.1440429687482
 20
-162.1122772117924
 30
0.0
 10
291.3188476562482
 20
-160.9535858055424
 30
0.0
 10
291.4057617187482
 20
-159.6659881492924
 30
0.0
 10
291.4936523437482
 20
-158.1210662742924
 30
0.0
 10
290.6206054687482
 20
-156.9623748680424
 30
0.0
 10
288.7011718749982
 20
-156.1899139305424
 30
0.0
 10
286.7817382812482
 20
-155.4814178367924
 30
0.0
 10
284.9497070312482
 20
-155.5458709617924
 30
0.0
 10
283.2045898437482
 20
-156.4472381492924
 30
0.0
 10
280.3251953124982
 20
-157.7992889305424
 30
0.0
 10
277.3588867187482
 20
-160.5673553367924
 30
0.0
 10
274.1303710937482
 20
-164.7519256492924
 30
0.0
 10
268.8081054687482
 20
-171.1894256492924
 30
0.0
 10
266.4526367187482
 20
-180.5243865867924
 30
0.0
 10
267.1503906249982
 20
-192.8202850242924
 30
0.0
 10
267.6738281249982
 20
-208.3349334617924
 30
0.0
 10
267.5869140624982
 20
-216.5751678367924
 30
0.0
 10
266.8886718749982
 20
-217.4765350242924
 30
0.0
 10
258.7744140624982
 20
-217.0258514305424
 30
0.0
 10
252.9287109374982
 20
-215.9960662742924
 30
0.0
 10
249.3515624999982
 20
-214.5151092430424
 30
0.0
  0
HATCH
  5
93
330
8B
100
AcDbEntity
  8
Layer 1
 62
   215
420
 11488412
100
AcDbHatch
 10
0.0
 20
0.0
 30
0.0
210
0.0
220
0.0
230
1.0
  2
SOLID
 70
     1
 71
     0
 91
        1
 92
        1
 93
        1
 72
     4
 94
        3
 73
     0
 74
     1
 95
       95
 96
       91
 40
0.0
 40
0.0
 40
0.0
 40
0.0
 40
1.0
 40
1.0
 40
1.0
 40
2.0
 40
2.0
 40
2.0
 40
3.0
 40
3.0
 40
3.0
 40
4.0
 40
4.0
 40
4.0
 40
5.0
 40
5.0
 40
5.0
 40
6.0
 40
6.0
 40
6.0
 40
7.0
 40
7.0
 40
7.0
 40
8.0
 40
8.0
 40
8.0
 40
9.0
 40
9.0
 40
9.0
 40
10.0
 40
10.0
 40
10.0
 40
11.0
 40
11.0
 40
11.0
 40
12.0
 40
12.0
 40
12.0
 40
13.0
 40
13.0
 40
13.0
 40
14.0
 40
14.0
 40
14.0
 40
15.0
 40
15.0
 40
15.0
 40
16.0
 40
16.0
 40
16.0
 40
17.0
 40
17.0
 40
17.0
 40
18.0
 40
18.0
 40
18.0
 40
19.0
 40
19.0
 40
19.0
 40
20.0
 40
20.0
 40
20.0
 40
21.0
 40
21.0
 40
21.0
 40
22.0
 40
22.0
 40
22.0
 40
23.0
 40
23.0
 40
23.0
 40
24.0
 40
24.0
 40
24.0
 40
25.0
 40
25.0
 40
25.0
 40
26.0
 40
26.0
 40
26.0
 40
27.0
 40
27.0
 40
27.0
 40
28.0
 40
28.0
 40
28.0
 40
29.0
 40
29.0
 40
29.0
 40
30.0
 40
30.0
 40
30.0
 40
30.0
 10
249.3515624999982
 20
-214.5151092430424
 10
246.8212890624982
 20
-211.8759490867924
 10
245.6870117187482
 20
-209.1073943992924
 10
245.8618164062482
 20
-206.2104217430424
 10
244.7275390624982
 20
-172.6703826805424
 10
245.0761718749982
 20
-148.2714568992924
 10
247.0830078124982
 20
-133.0141326805424
 10
249.0898437499982
 20
-117.6923553367924
 10
251.3583984374982
 20
-109.2592498680424
 10
253.9760742187482
 20
-107.6498748680424
 10
256.6806640624982
 20
-106.0400115867924
 10
258.6874999999982
 20
-105.2030975242924
 10
260.0834960937482
 20
-105.0102264305424
 10
262.7880859374982
 20
-104.6884490867924
 10
264.7075195312482
 20
-105.2030975242924
 10
265.9291992187482
 20
-106.4906951805424
 10
267.2377929687482
 20
-107.5854217430424
 10
268.1977539062482
 20
-109.3232147117924
 10
268.7211914062482
 20
-111.7055389305424
 10
269.4189453124982
 20
-117.1772186180424
 10
269.5063476562482
 20
-124.3232147117924
 10
269.0698242187482
 20
-133.0785858055424
 10
268.2846679687482
 20
-144.3446990867924
 10
267.9360351562482
 20
-152.9067108055424
 10
268.1103515624982
 20
-158.8290740867924
 10
269.5937499999982
 20
-158.1210662742924
 10
271.6000976562482
 20
-156.8979217430424
 10
274.1303710937482
 20
-155.1596404930424
 10
276.8354492187482
 20
-153.2929412742924
 10
279.0166015624982
 20
-151.9408904930424
 10
280.4995117187482
 20
-151.1684295555424
 10
285.9091796874982
 20
-148.4648162742924
 10
291.9291992187482
 20
-147.4989959617924
 10
298.4731445312482
 20
-148.2070037742924
 10
305.1040039062482
 20
-148.9150115867924
 10
309.6416015624982
 20
-152.3271209617924
 10
312.0849609374982
 20
-158.4428436180424
 10
314.5273437499982
 20
-164.4946014305424
 10
314.3535156249982
 20
-173.3139373680424
 10
311.4736328124982
 20
-184.8373748680424
 10
308.6816406249982
 20
-196.3608123680424
 10
308.3330078124982
 20
-203.6996795555424
 10
310.5146484374982
 20
-206.8544647117924
 10
312.6083984374982
 20
-208.3349334617924
 10
314.5273437499982
 20
-208.7856170555424
 10
316.3603515624982
 20
-208.2704803367924
 10
320.8964843749982
 20
-207.3051483055424
 10
325.3466796874982
 20
-204.3437225242924
 10
329.6220703124982
 20
-199.3866912742924
 10
333.7226562499982
 20
-194.8158904930424
 10
337.7363281249982
 20
-188.6357147117924
 10
341.7499999999982
 20
-180.7817108055424
 10
346.5478515624982
 20
-169.8378631492924
 10
350.0380859374982
 20
-164.6874725242924
 10
352.2197265624982
 20
-165.2670623680424
 10
354.4003906249982
 20
-165.8461639305424
 10
354.4003906249982
 20
-168.8075897117924
 10
352.1318359374982
 20
-174.0863983055424
 10
343.4941406249982
 20
-196.9404022117924
 10
333.6357421874982
 20
-210.3305389305424
 10
322.7294921874982
 20
-214.1933318992924
 10
311.8232421874982
 20
-218.0561248680424
 10
303.1850585937482
 20
-218.1200897117924
 10
296.7280273437482
 20
-214.3866912742924
 10
290.2719726562482
 20
-210.6528045555424
 10
287.1308593749982
 20
-205.0517303367924
 10
287.3051757812482
 20
-197.5839568992924
 10
287.4799804687482
 20
-190.1161834617924
 10
288.7011718749982
 20
-178.6571990867924
 10
290.8823242187482
 20
-163.2070037742924
 10
291.1440429687482
 20
-162.1122772117924
 10
291.3188476562482
 20
-160.9535858055424
 10
291.4057617187482
 20
-159.6659881492924
 10
291.4936523437482
 20
-158.1210662742924
 10
290.6206054687482
 20
-156.9623748680424
 10
288.7011718749982
 20
-156.1899139305424
 10
286.7817382812482
 20
-155.4814178367924
 10
284.9497070312482
 20
-155.5458709617924
 10
283.2045898437482
 20
-156.4472381492924
 10
280.3251953124982
 20
-157.7992889305424
 10
277.3588867187482
 20
-160.5673553367924
 10
274.1303710937482
 20
-164.7519256492924
 10
268.8081054687482
 20
-171.1894256492924
 10
266.4526367187482
 20
-180.5243865867924
 10
267.1503906249982
 20
-192.8202850242924
 10
267.6738281249982
 20
-208.3349334617924
 10
267.5869140624982
 20
-216.5751678367924
 10
266.8886718749982
 20
-217.4765350242924
 10
258.7744140624982
 20
-217.0258514305424
 10
252.9287109374982
 20
-215.9960662742924
 10
249.3515624999982
 20
-214.5151092430424
 97
        0
 97
        0
 75
     2
 76
     1
 98
        0
  0
ENDBLK
  5
8E
330
8B
100
AcDbEntity
  8
0
100
AcDbBlockEnd
  0
BLOCK
  5
96
330
94
100
AcDbEntity
  8
0
100
AcDbBlockBegin
  2
block 6
 70
     0
 10
0.0
 20
0.0
 30
0.0
  3
block 6
  1

  0
INSERT
  5
99
330
94
100
AcDbEntity
  8
Layer 1
100
AcDbBlockReference
  2
block 7
 10
0.0
 20
0.0
 30
0.0
  0
ENDBLK
  5
97
330
94
100
AcDbEntity
  8
0
100
AcDbBlockEnd
  0
BLOCK
  5
9A
330
98
100
AcDbEntity
  8
0
100
AcDbBlockBegin
  2
block 7
 70
     0
 10
0.0
 20
0.0
 30
0.0
  3
block 7
  1

  0
SPLINE
  5
9C
330
98
100
AcDbEntity
  8
Layer 1
370
     0
100
AcDbSpline
210
0.0
220
0.0
230
1.0
 70
    11
 71
     3
 72
    38
 73
    34
 74
     0
 42
0.0000000001
 43
0.0000000001
 12
1.0
 22
0.0
 32
0.0
 13
1.0
 23
0.0
 33
0.0
 40
0.0
 40
0.0
 40
0.0
 40
0.0
 40
1.0
 40
1.0
 40
1.0
 40
2.0
 40
2.0
 40
2.0
 40
3.0
 40
3.0
 40
3.0
 40
4.0
 40
4.0
 40
4.0
 40
5.0
 40
5.0
 40
5.0
 40
6.0
 40
6.0
 40
6.0
 40
7.0
 40
7.0
 40
7.0
 40
8.0
 40
8.0
 40
8.0
 40
9.0
 40
9.0
 40
9.0
 40
10.0
 40
10.0
 40
10.0
 40
11.0
 40
11.0
 40
11.0
 40
11.0
 10
139.311717821136
 20
-131.4673362772664
 30
0.0
 10
140.262574886493
 20
-132.7551604955488
 30
0.0
 10
141.3549611252547
 20
-133.927607057024
 30
0.0
 10
142.3655889131687
 20
-135.1512297167073
 30
0.0
 10
143.630376890721
 20
-136.6826145322048
 30
0.0
 10
144.9728847567612
 20
-138.1480814107163
 30
0.0
 10
146.1594143708371
 20
-139.6952589089187
 30
0.0
 10
151.1018069566344
 20
-144.581858210302
 30
0.0
 10
147.5922962873574
 20
-147.6974652736671
 30
0.0
 10
146.9813964247887
 20
-148.1885046146563
 30
0.0
 10
145.2514558120556
 20
-149.5788461619586
 30
0.0
 10
142.0352345141491
 20
-154.5037912578528
 30
0.0
 10
131.0310496090924
 20
-147.2315861381994
 30
0.0
 10
127.7433008849348
 20
-144.3306114405214
 30
0.0
 10
124.0216310743253
 20
-141.8755398360781
 30
0.0
 10
120.6677396737041
 20
-138.9255157481093
 30
0.0
 10
118.261923217713
 20
-136.8095514719753
 30
0.0
 10
115.9272752046654
 20
-134.5743864688284
 30
0.0
 10
113.7444771354203
 20
-132.1506700449218
 30
0.0
 10
112.0093312645658
 20
-130.2240678405624
 30
0.0
 10
110.8636360029896
 20
-127.7227741163315
 30
0.0
 10
110.3555848612259
 20
-124.907983630972
 30
0.0
 10
109.832725657564
 20
-122.0114249797016
 30
0.0
 10
109.9002145214736
 20
-120.214887226748
 30
0.0
 10
111.3120061680256
 20
-117.4250017419381
 30
0.0
 10
111.8040825521102
 20
-116.4524081772379
 30
0.0
 10
113.4958811872248
 20
-114.2995017338035
 30
0.0
 10
114.3858905800735
 20
-113.8170918228952
 30
0.0
 10
117.9134401611063
 20
-111.904871167987
 30
0.0
 10
121.1721112364467
 20
-111.8768761859455
 30
0.0
 10
123.8675374847771
 20
-114.3965872006338
 30
0.0
 10
124.166032114259
 20
-114.6755837555338
 30
0.0
 10
134.9960203639375
 20
-125.6213114860993
 30
0.0
 10
139.311717821136
 20
-131.4673362772664
 30
0.0
  0
SPLINE
  5
9D
330
98
100
AcDbEntity
  8
Layer 1
370
     0
100
AcDbSpline
210
0.0
220
0.0
230
1.0
 70
    11
 71
     3
 72
    20
 73
    16
 74
     0
 42
0.0000000001
 43
0.0000000001
 12
1.0
 22
0.0
 32
0.0
 13
1.0
 23
0.0
 33
0.0
 40
0.0
 40
0.0
 40
0.0
 40
0.0
 40
1.0
 40
1.0
 40
1.0
 40
2.0
 40
2.0
 40
2.0
 40
3.0
 40
3.0
 40
3.0
 40
4.0
 40
4.0
 40
4.0
 40
5.0
 40
5.0
 40
5.0
 40
5.0
 10
116.6342928508084
 20
-124.6133520199537
 30
0.0
 10
117.3550416088974
 20
-126.0329971001638
 30
0.0
 10
118.1402278726819
 20
-127.4595477260345
 30
0.0
 10
119.1749075429616
 20
-128.5649704624202
 30
0.0
 10
124.23073885745
 20
-133.9662931248113
 30
0.0
 10
129.6867468264472
 20
-138.8333317175029
 30
0.0
 10
135.4203386466179
 20
-143.1880138499837
 30
0.0
 10
136.2659238537772
 20
-143.8303296771855
 30
0.0
 10
139.2645115147316
 20
-146.3115022426446
 30
0.0
 10
140.2896781270574
 20
-146.6683087847405
 30
0.0
 10
146.6208874269987
 20
-140.8012971395756
 30
0.0
 10
125.4272302586223
 20
-124.9453336257875
 30
0.0
 10
119.5589299481162
 20
-119.8712412535615
 30
0.0
 10
118.8288476237503
 20
-119.4233740830368
 30
0.0
 10
113.6375001064553
 20
-117.6805394576668
 30
0.0
 10
116.6342928508084
 20
-124.6133520199537
 30
0.0
  0
HATCH
  5
9E
330
98
100
AcDbEntity
  8
Layer 1
 62
   134
420
    43440
100
AcDbHatch
 10
0.0
 20
0.0
 30
0.0
210
0.0
220
0.0
230
1.0
  2
SOLID
 70
     1
 71
     0
 91
        2
 92
        1
 93
        1
 72
     4
 94
        3
 73
     0
 74
     1
 95
       38
 96
       34
 40
0.0
 40
0.0
 40
0.0
 40
0.0
 40
1.0
 40
1.0
 40
1.0
 40
2.0
 40
2.0
 40
2.0
 40
3.0
 40
3.0
 40
3.0
 40
4.0
 40
4.0
 40
4.0
 40
5.0
 40
5.0
 40
5.0
 40
6.0
 40
6.0
 40
6.0
 40
7.0
 40
7.0
 40
7.0
 40
8.0
 40
8.0
 40
8.0
 40
9.0
 40
9.0
 40
9.0
 40
10.0
 40
10.0
 40
10.0
 40
11.0
 40
11.0
 40
11.0
 40
11.0
 10
139.311717821136
 20
-131.4673362772664
 10
140.262574886493
 20
-132.7551604955488
 10
141.3549611252547
 20
-133.927607057024
 10
142.3655889131687
 20
-135.1512297167073
 10
143.630376890721
 20
-136.6826145322048
 10
144.9728847567612
 20
-138.1480814107163
 10
146.1594143708371
 20
-139.6952589089187
 10
151.1018069566344
 20
-144.581858210302
 10
147.5922962873574
 20
-147.6974652736671
 10
146.9813964247887
 20
-148.1885046146563
 10
145.2514558120556
 20
-149.5788461619586
 10
142.0352345141491
 20
-154.5037912578528
 10
131.0310496090924
 20
-147.2315861381994
 10
127.7433008849348
 20
-144.3306114405214
 10
124.0216310743253
 20
-141.8755398360781
 10
120.6677396737041
 20
-138.9255157481093
 10
118.261923217713
 20
-136.8095514719753
 10
115.9272752046654
 20
-134.5743864688284
 10
113.7444771354203
 20
-132.1506700449218
 10
112.0093312645658
 20
-130.2240678405624
 10
110.8636360029896
 20
-127.7227741163315
 10
110.3555848612259
 20
-124.907983630972
 10
109.832725657564
 20
-122.0114249797016
 10
109.9002145214736
 20
-120.214887226748
 10
111.3120061680256
 20
-117.4250017419381
 10
111.8040825521102
 20
-116.4524081772379
 10
113.4958811872248
 20
-114.2995017338035
 10
114.3858905800735
 20
-113.8170918228952
 10
117.9134401611063
 20
-111.904871167987
 10
121.1721112364467
 20
-111.8768761859455
 10
123.8675374847771
 20
-114.3965872006338
 10
124.166032114259
 20
-114.6755837555338
 10
134.9960203639375
 20
-125.6213114860993
 10
139.311717821136
 20
-131.4673362772664
 97
        0
 97
        0
 92
        1
 93
        1
 72
     4
 94
        3
 73
     0
 74
     1
 95
       20
 96
       16
 40
0.0
 40
0.0
 40
0.0
 40
0.0
 40
1.0
 40
1.0
 40
1.0
 40
2.0
 40
2.0
 40
2.0
 40
3.0
 40
3.0
 40
3.0
 40
4.0
 40
4.0
 40
4.0
 40
5.0
 40
5.0
 40
5.0
 40
5.0
 10
116.6342928508084
 20
-124.6133520199537
 10
117.3550416088974
 20
-126.0329971001638
 10
118.1402278726819
 20
-127.4595477260345
 10
119.1749075429616
 20
-128.5649704624202
 10
124.23073885745
 20
-133.9662931248113
 10
129.6867468264472
 20
-138.8333317175029
 10
135.4203386466179
 20
-143.1880138499837
 10
136.2659238537772
 20
-143.8303296771855
 10
139.2645115147316
 20
-146.3115022426446
 10
140.2896781270574
 20
-146.6683087847405
 10
146.6208874269987
 20
-140.8012971395756
 10
125.4272302586223
 20
-124.9453336257875
 10
119.5589299481162
 20
-119.8712412535615
 10
118.8288476237503
 20
-119.4233740830368
 10
113.6375001064553
 20
-117.6805394576668
 10
116.6342928508084
 20
-124.6133520199537
 97
        0
 97
        0
 75
     2
 76
     1
 98
        0
  0
SPLINE
  5
9F
330
98
100
AcDbEntity
  8
Layer 1
370
     0
100
AcDbSpline
210
0.0
220
0.0
230
1.0
 70
    11
 71
     3
 72
    29
 73
    25
 74
     0
 42
0.0000000001
 43
0.0000000001
 12
1.0
 22
0.0
 32
0.0
 13
1.0
 23
0.0
 33
0.0
 40
0.0
 40
0.0
 40
0.0
 40
0.0
 40
1.0
 40
1.0
 40
1.0
 40
2.0
 40
2.0
 40
2.0
 40
3.0
 40
3.0
 40
3.0
 40
4.0
 40
4.0
 40
4.0
 40
5.0
 40
5.0
 40
5.0
 40
6.0
 40
6.0
 40
6.0
 40
7.0
 40
7.0
 40
7.0
 40
8.0
 40
8.0
 40
8.0
 40
8.0
 10
107.9692432502816
 20
-210.0298377882937
 30
0.0
 10
101.8206667137129
 20
-209.7052471179286
 30
0.0
 10
98.08876587852592
 20
-202.5555453775596
 30
0.0
 10
100.7414731119279
 20
-196.4797961006152
 30
0.0
 10
102.2798961241397
 20
-192.9565066380583
 30
0.0
 10
106.3112787929522
 20
-188.0711533373114
 30
0.0
 10
112.8136333900757
 20
-185.0596849049725
 30
0.0
 10
116.6736015242031
 20
-183.0824670525035
 30
0.0
 10
123.2038670743632
 20
-181.5286792457391
 30
0.0
 10
127.4613194881122
 20
-181.2063103596356
 30
0.0
 10
129.3484050485968
 20
-181.0634256125941
 30
0.0
 10
131.3486601002951
 20
-181.454419609754
 30
0.0
 10
133.2506434684992
 20
-181.8624973263941
 30
0.0
 10
136.7536924380347
 20
-182.6138607268967
 30
0.0
 10
139.0068512377447
 20
-186.4229897397863
 30
0.0
 10
138.355027276848
 20
-189.841304900202
 30
0.0
 10
137.8002185578271
 20
-192.7511917549937
 30
0.0
 10
136.0453286044512
 20
-194.695643293685
 30
0.0
 10
133.9290321949838
 20
-196.4461791036747
 30
0.0
 10
131.5405366841314
 20
-198.4219457907448
 30
0.0
 10
129.1013347795024
 20
-200.3556086653462
 30
0.0
 10
126.3633690079159
 20
-201.8364979291746
 30
0.0
 10
123.0390039852618
 20
-203.6345719158389
 30
0.0
 10
111.0533586869178
 20
-210.1926985775763
 30
0.0
 10
107.9692432502816
 20
-210.0298377882937
 30
0.0
  0
SPLINE
  5
A0
330
98
100
AcDbEntity
  8
Layer 1
370
     0
100
AcDbSpline
210
0.0
220
0.0
230
1.0
 70
    11
 71
     3
 72
    20
 73
    16
 74
     0
 42
0.0000000001
 43
0.0000000001
 12
1.0
 22
0.0
 32
0.0
 13
1.0
 23
0.0
 33
0.0
 40
0.0
 40
0.0
 40
0.0
 40
0.0
 40
1.0
 40
1.0
 40
1.0
 40
2.0
 40
2.0
 40
2.0
 40
3.0
 40
3.0
 40
3.0
 40
4.0
 40
4.0
 40
4.0
 40
5.0
 40
5.0
 40
5.0
 40
5.0
 10
105.742290232829
 20
-200.929589614585
 30
0.0
 10
107.2374557551484
 20
-205.2718868010306
 30
0.0
 10
112.2516450046742
 20
-202.9685170243947
 30
0.0
 10
115.5220727836995
 20
-201.3180916104793
 30
0.0
 10
116.7335517384299
 20
-200.7066205538949
 30
0.0
 10
127.2575067089201
 20
-193.8907869343775
 30
0.0
 10
131.0332932548336
 20
-190.7827109189966
 30
0.0
 10
131.8727757455663
 20
-190.0916559506359
 30
0.0
 10
132.3101969193785
 20
-189.1913129084551
 30
0.0
 10
132.1317822099927
 20
-187.8390569466974
 30
0.0
 10
131.702976635831
 20
-184.5888267709925
 30
0.0
 10
125.9482945456912
 20
-186.3359598483348
 30
0.0
 10
125.135466566363
 20
-186.4661343881426
 30
0.0
 10
107.6680562459051
 20
-191.3515677531932
 30
0.0
 10
105.3931789554199
 20
-199.9155953019972
 30
0.0
 10
105.742290232829
 20
-200.929589614585
 30
0.0
  0
HATCH
  5
A1
330
98
100
AcDbEntity
  8
Layer 1
 62
   134
420
    43440
100
AcDbHatch
 10
0.0
 20
0.0
 30
0.0
210
0.0
220
0.0
230
1.0
  2
SOLID
 70
     1
 71
     0
 91
        2
 92
        1
 93
        1
 72
     4
 94
        3
 73
     0
 74
     1
 95
       29
 96
       25
 40
0.0
 40
0.0
 40
0.0
 40
0.0
 40
1.0
 40
1.0
 40
1.0
 40
2.0
 40
2.0
 40
2.0
 40
3.0
 40
3.0
 40
3.0
 40
4.0
 40
4.0
 40
4.0
 40
5.0
 40
5.0
 40
5.0
 40
6.0
 40
6.0
 40
6.0
 40
7.0
 40
7.0
 40
7.0
 40
8.0
 40
8.0
 40
8.0
 40
8.0
 10
107.9692432502816
 20
-210.0298377882937
 10
101.8206667137129
 20
-209.7052471179286
 10
98.08876587852592
 20
-202.5555453775596
 10
100.7414731119279
 20
-196.4797961006152
 10
102.2798961241397
 20
-192.9565066380583
 10
106.3112787929522
 20
-188.0711533373114
 10
112.8136333900757
 20
-185.0596849049725
 10
116.6736015242031
 20
-183.0824670525035
 10
123.2038670743632
 20
-181.5286792457391
 10
127.4613194881122
 20
-181.2063103596356
 10
129.3484050485968
 20
-181.0634256125941
 10
131.3486601002951
 20
-181.454419609754
 10
133.2506434684992
 20
-181.8624973263941
 10
136.7536924380347
 20
-182.6138607268967
 10
139.0068512377447
 20
-186.4229897397863
 10
138.355027276848
 20
-189.841304900202
 10
137.8002185578271
 20
-192.7511917549937
 10
136.0453286044512
 20
-194.695643293685
 10
133.9290321949838
 20
-196.4461791036747
 10
131.5405366841314
 20
-198.4219457907448
 10
129.1013347795024
 20
-200.3556086653462
 10
126.3633690079159
 20
-201.8364979291746
 10
123.0390039852618
 20
-203.6345719158389
 10
111.0533586869178
 20
-210.1926985775763
 10
107.9692432502816
 20
-210.0298377882937
 97
        0
 97
        0
 92
        1
 93
        1
 72
     4
 94
        3
 73
     0
 74
     1
 95
       20
 96
       16
 40
0.0
 40
0.0
 40
0.0
 40
0.0
 40
1.0
 40
1.0
 40
1.0
 40
2.0
 40
2.0
 40
2.0
 40
3.0
 40
3.0
 40
3.0
 40
4.0
 40
4.0
 40
4.0
 40
5.0
 40
5.0
 40
5.0
 40
5.0
 10
105.742290232829
 20
-200.929589614585
 10
107.2374557551484
 20
-205.2718868010306
 10
112.2516450046742
 20
-202.9685170243947
 10
115.5220727836995
 20
-201.3180916104793
 10
116.7335517384299
 20
-200.7066205538949
 10
127.2575067089201
 20
-193.8907869343775
 10
131.0332932548336
 20
-190.7827109189966
 10
131.8727757455663
 20
-190.0916559506359
 10
132.3101969193785
 20
-189.1913129084551
 10
132.1317822099927
 20
-187.8390569466974
 10
131.702976635831
 20
-184.5888267709925
 10
125.9482945456912
 20
-186.3359598483348
 10
125.135466566363
 20
-186.4661343881426
 10
107.6680562459051
 20
-191.3515677531932
 10
105.3931789554199
 20
-199.9155953019972
 10
105.742290232829
 20
-200.929589614585
 97
        0
 97
        0
 75
     2
 76
     1
 98
        0
  0
SPLINE
  5
A2
330
98
100
AcDbEntity
  8
Layer 1
370
     0
100
AcDbSpline
210
0.0
220
0.0
230
1.0
 70
    11
 71
     3
 72
    29
 73
    25
 74
     0
 42
0.0000000001
 43
0.0000000001
 12
1.0
 22
0.0
 32
0.0
 13
1.0
 23
0.0
 33
0.0
 40
0.0
 40
0.0
 40
0.0
 40
0.0
 40
1.0
 40
1.0
 40
1.0
 40
2.0
 40
2.0
 40
2.0
 40
3.0
 40
3.0
 40
3.0
 40
4.0
 40
4.0
 40
4.0
 40
5.0
 40
5.0
 40
5.0
 40
6.0
 40
6.0
 40
6.0
 40
7.0
 40
7.0
 40
7.0
 40
8.0
 40
8.0
 40
8.0
 40
8.0
 10
134.4214675623889
 20
-168.9422113792562
 30
0.0
 10
131.8943147446926
 20
-171.5576817958381
 30
0.0
 10
128.8738291012978
 20
-172.4846262008832
 30
0.0
 10
125.4036271054201
 20
-172.2591251067915
 30
0.0
 10
121.4144249765613
 20
-171.9998969273511
 30
0.0
 10
117.405568511007
 20
-171.9421605607713
 30
0.0
 10
113.4387130937248
 20
-171.3206714589687
 30
0.0
 10
109.0564242309092
 20
-170.6341000912817
 30
0.0
 10
104.6959436047073
 20
-169.5278616998557
 30
0.0
 10
100.3905669179139
 20
-168.190457665306
 30
0.0
 10
97.64272910506406
 20
-167.3369021970075
 30
0.0
 10
95.37772385583594
 20
-165.2901685181832
 30
0.0
 10
93.70881040727909
 20
-162.2084286526779
 30
0.0
 10
92.10244980200332
 20
-159.2422465886539
 30
0.0
 10
92.88126411188478
 20
-155.142699348412
 30
0.0
 10
95.04207445286193
 20
-153.2288673995126
 30
0.0
 10
97.54813700058912
 20
-151.0092398741126
 30
0.0
 10
100.4117469337216
 20
-149.9792577221187
 30
0.0
 10
103.3108064695725
 20
-150.3837875895742
 30
0.0
 10
109.2990072085213
 20
-151.21929356279
 30
0.0
 10
115.2849643017134
 20
-152.2135069898522
 30
0.0
 10
120.9085277347103
 20
-154.7859428464926
 30
0.0
 10
123.2924462082492
 20
-155.876463615492
 30
0.0
 10
139.8720907816041
 20
-161.2984578787109
 30
0.0
 10
134.4214675623889
 20
-168.9422113792562
 30
0.0
  0
SPLINE
  5
A3
330
98
100
AcDbEntity
  8
Layer 1
370
     0
100
AcDbSpline
210
0.0
220
0.0
230
1.0
 70
    11
 71
     3
 72
    32
 73
    28
 74
     0
 42
0.0000000001
 43
0.0000000001
 12
1.0
 22
0.0
 32
0.0
 13
1.0
 23
0.0
 33
0.0
 40
0.0
 40
0.0
 40
0.0
 40
0.0
 40
1.0
 40
1.0
 40
1.0
 40
2.0
 40
2.0
 40
2.0
 40
3.0
 40
3.0
 40
3.0
 40
4.0
 40
4.0
 40
4.0
 40
5.0
 40
5.0
 40
5.0
 40
6.0
 40
6.0
 40
6.0
 40
7.0
 40
7.0
 40
7.0
 40
8.0
 40
8.0
 40
8.0
 40
9.0
 40
9.0
 40
9.0
 40
9.0
 10
129.673464443661
 20
-165.9360271905634
 30
0.0
 10
129.9556253321434
 20
-164.6543729272053
 30
0.0
 10
127.8965867620109
 20
-163.4121953665672
 30
0.0
 10
127.2672890043568
 20
-163.0572703354565
 30
0.0
 10
123.507656707794
 20
-160.9368674948355
 30
0.0
 10
120.6105715801968
 20
-159.6301681183932
 30
0.0
 10
116.3023230268618
 20
-158.8922455118527
 30
0.0
 10
114.1405254817519
 20
-158.5220131878605
 30
0.0
 10
111.4599072953251
 20
-157.3815373012012
 30
0.0
 10
109.299096954338
 20
-157.0348088525561
 30
0.0
 10
106.8687798868559
 20
-156.6447806309961
 30
0.0
 10
104.0135163158875
 20
-156.1333449102049
 30
0.0
 10
101.556724228657
 20
-156.1023149908806
 30
0.0
 10
100.5011337800679
 20
-156.0890493375737
 30
0.0
 10
98.60938143644125
 20
-157.4892738216104
 30
0.0
 10
98.91631217391387
 20
-159.2626729925705
 30
0.0
 10
99.04725133940701
 20
-160.0192906126022
 30
0.0
 10
99.82705285340944
 20
-161.2041621522612
 30
0.0
 10
100.3792589433706
 20
-161.6505756553815
 30
0.0
 10
102.6106992523055
 20
-163.4540289620463
 30
0.0
 10
105.5536444988657
 20
-164.3056728952406
 30
0.0
 10
108.1386833767019
 20
-164.8228031891858
 30
0.0
 10
113.5684855634308
 20
-165.9089554499469
 30
0.0
 10
118.5781875214798
 20
-166.1180833951876
 30
0.0
 10
124.0339262529842
 20
-166.896028142467
 30
0.0
 10
125.5088092177857
 20
-167.1063770682431
 30
0.0
 10
129.1509642233132
 20
-168.3099836535348
 30
0.0
 10
129.673464443661
 20
-165.9360271905634
 30
0.0
  0
HATCH
  5
A4
330
98
100
AcDbEntity
  8
Layer 1
 62
   134
420
    43440
100
AcDbHatch
 10
0.0
 20
0.0
 30
0.0
210
0.0
220
0.0
230
1.0
  2
SOLID
 70
     1
 71
     0
 91
        2
 92
        1
 93
        1
 72
     4
 94
        3
 73
     0
 74
     1
 95
       29
 96
       25
 40
0.0
 40
0.0
 40
0.0
 40
0.0
 40
1.0
 40
1.0
 40
1.0
 40
2.0
 40
2.0
 40
2.0
 40
3.0
 40
3.0
 40
3.0
 40
4.0
 40
4.0
 40
4.0
 40
5.0
 40
5.0
 40
5.0
 40
6.0
 40
6.0
 40
6.0
 40
7.0
 40
7.0
 40
7.0
 40
8.0
 40
8.0
 40
8.0
 40
8.0
 10
134.4214675623889
 20
-168.9422113792562
 10
131.8943147446926
 20
-171.5576817958381
 10
128.8738291012978
 20
-172.4846262008832
 10
125.4036271054201
 20
-172.2591251067915
 10
121.4144249765613
 20
-171.9998969273511
 10
117.405568511007
 20
-171.9421605607713
 10
113.4387130937248
 20
-171.3206714589687
 10
109.0564242309092
 20
-170.6341000912817
 10
104.6959436047073
 20
-169.5278616998557
 10
100.3905669179139
 20
-168.190457665306
 10
97.64272910506406
 20
-167.3369021970075
 10
95.37772385583594
 20
-165.2901685181832
 10
93.70881040727909
 20
-162.2084286526779
 10
92.10244980200332
 20
-159.2422465886539
 10
92.88126411188478
 20
-155.142699348412
 10
95.04207445286193
 20
-153.2288673995126
 10
97.54813700058912
 20
-151.0092398741126
 10
100.4117469337216
 20
-149.9792577221187
 10
103.3108064695725
 20
-150.3837875895742
 10
109.2990072085213
 20
-151.21929356279
 10
115.2849643017134
 20
-152.2135069898522
 10
120.9085277347103
 20
-154.7859428464926
 10
123.2924462082492
 20
-155.876463615492
 10
139.8720907816041
 20
-161.2984578787109
 10
134.4214675623889
 20
-168.9422113792562
 97
        0
 97
        0
 92
        1
 93
        1
 72
     4
 94
        3
 73
     0
 74
     1
 95
       32
 96
       28
 40
0.0
 40
0.0
 40
0.0
 40
0.0
 40
1.0
 40
1.0
 40
1.0
 40
2.0
 40
2.0
 40
2.0
 40
3.0
 40
3.0
 40
3.0
 40
4.0
 40
4.0
 40
4.0
 40
5.0
 40
5.0
 40
5.0
 40
6.0
 40
6.0
 40
6.0
 40
7.0
 40
7.0
 40
7.0
 40
8.0
 40
8.0
 40
8.0
 40
9.0
 40
9.0
 40
9.0
 40
9.0
 10
129.673464443661
 20
-165.9360271905634
 10
129.9556253321434
 20
-164.6543729272053
 10
127.8965867620109
 20
-163.4121953665672
 10
127.2672890043568
 20
-163.0572703354565
 10
123.507656707794
 20
-160.9368674948355
 10
120.6105715801968
 20
-159.6301681183932
 10
116.3023230268618
 20
-158.8922455118527
 10
114.1405254817519
 20
-158.5220131878605
 10
111.4599072953251
 20
-157.3815373012012
 10
109.299096954338
 20
-157.0348088525561
 10
106.8687798868559
 20
-156.6447806309961
 10
104.0135163158875
 20
-156.1333449102049
 10
101.556724228657
 20
-156.1023149908806
 10
100.5011337800679
 20
-156.0890493375737
 10
98.60938143644125
 20
-157.4892738216104
 10
98.91631217391387
 20
-159.2626729925705
 10
99.04725133940701
 20
-160.0192906126022
 10
99.82705285340944
 20
-161.2041621522612
 10
100.3792589433706
 20
-161.6505756553815
 10
102.6106992523055
 20
-163.4540289620463
 10
105.5536444988657
 20
-164.3056728952406
 10
108.1386833767019
 20
-164.8228031891858
 10
113.5684855634308
 20
-165.9089554499469
 10
118.5781875214798
 20
-166.1180833951876
 10
124.0339262529842
 20
-166.896028142467
 10
125.5088092177857
 20
-167.1063770682431
 10
129.1509642233132
 20
-168.3099836535348
 10
129.673464443661
 20
-165.9360271905634
 97
        0
 97
        0
 75
     2
 76
     1
 98
        0
  0
ENDBLK
  5
9B
330
98
100
AcDbEntity
  8
0
100
AcDbBlockEnd
  0
BLOCK
  5
A7
330
A5
100
AcDbEntity
  8
0
100
AcDbBlockBegin
  2
block 8
 70
     0
 10
0.0
 20
0.0
 30
0.0
  3
block 8
  1

  0
INSERT
  5
AA
330
A5
100
AcDbEntity
  8
Layer 1
100
AcDbBlockReference
  2
block 9
 10
0.0
 20
0.0
 30
0.0
  0
ENDBLK
  5
A8
330
A5
100
AcDbEntity
  8
0
100
AcDbBlockEnd
  0
BLOCK
  5
AB
330
A9
100
AcDbEntity
  8
0
100
AcDbBlockBegin
  2
block 9
 70
     0
 10
0.0
 20
0.0
 30
0.0
  3
block 9
  1

  0
SPLINE
  5
AD
330
A9
100
AcDbEntity
  8
Layer 1
370
     0
100
AcDbSpline
210
0.0
220
0.0
230
1.0
 70
    11
 71
     3
 72
    38
 73
    34
 74
     0
 42
0.0000000001
 43
0.0000000001
 12
1.0
 22
0.0
 32
0.0
 13
1.0
 23
0.0
 33
0.0
 40
0.0
 40
0.0
 40
0.0
 40
0.0
 40
1.0
 40
1.0
 40
1.0
 40
2.0
 40
2.0
 40
2.0
 40
3.0
 40
3.0
 40
3.0
 40
4.0
 40
4.0
 40
4.0
 40
5.0
 40
5.0
 40
5.0
 40
6.0
 40
6.0
 40
6.0
 40
7.0
 40
7.0
 40
7.0
 40
8.0
 40
8.0
 40
8.0
 40
9.0
 40
9.0
 40
9.0
 40
10.0
 40
10.0
 40
10.0
 40
11.0
 40
11.0
 40
11.0
 40
11.0
 10
369.4243717677837
 20
-114.3965872002245
 30
0.0
 10
372.1197980162506
 20
-111.8768761856491
 30
0.0
 10
375.3784690915745
 20
-111.9048711678315
 30
0.0
 10
378.9060186725219
 20
-113.817091822868
 30
0.0
 10
379.7960280653406
 20
-114.2995017338153
 30
0.0
 10
381.4878267003533
 20
-116.4524081773061
 30
0.0
 10
381.9799030843915
 20
-117.4250017420427
 30
0.0
 10
383.3916947307953
 20
-120.214887226899
 30
0.0
 10
383.4591835946103
 20
-122.0114249798671
 30
0.0
 10
382.9363243908119
 20
-124.9079836311057
 30
0.0
 10
382.42827324891
 20
-127.7227741164434
 30
0.0
 10
381.2825779872037
 20
-130.2240678406379
 30
0.0
 10
379.5474321162528
 20
-132.1506700449218
 30
0.0
 10
377.3646340468822
 20
-134.574386468742
 30
0.0
 10
375.0299860337145
 20
-136.8095514717979
 30
0.0
 10
372.6241695776334
 20
-138.9255157478301
 30
0.0
 10
369.2702781768621
 20
-141.8755398356716
 30
0.0
 10
365.5486083661235
 20
-144.3306114399666
 30
0.0
 10
362.2608596418231
 20
-147.2315861375
 30
0.0
 10
351.256674736389
 20
-154.5037912567232
 30
0.0
 10
348.0404534387399
 20
-149.578846160689
 30
0.0
 10
346.3105128260759
 20
-148.1885046133202
 30
0.0
 10
345.6996129635299
 20
-147.6974652723175
 30
0.0
 10
342.1901022944185
 20
-144.5818582088041
 30
0.0
 10
347.132494880454
 20
-139.6952589076154
 30
0.0
 10
348.3190244946036
 20
-138.1480814094666
 30
0.0
 10
349.6615323607239
 20
-136.6826145310142
 30
0.0
 10
350.9263203383507
 20
-135.1512297155623
 30
0.0
 10
351.9369481263329
 20
-133.9276070559245
 30
0.0
 10
353.0293343651447
 20
-132.7551604944956
 30
0.0
 10
353.9801914305608
 20
-131.4673362762323
 30
0.0
 10
358.2958888880657
 20
-125.6213114852508
 30
0.0
 10
369.1258771382909
 20
-114.6755837551191
 30
0.0
 10
369.4243717677837
 20
-114.3965872002245
 30
0.0
  0
SPLINE
  5
AE
330
A9
100
AcDbEntity
  8
Layer 1
370
     0
100
AcDbSpline
210
0.0
220
0.0
230
1.0
 70
    11
 71
     3
 72
    20
 73
    16
 74
     0
 42
0.0000000001
 43
0.0000000001
 12
1.0
 22
0.0
 32
0.0
 13
1.0
 23
0.0
 33
0.0
 40
0.0
 40
0.0
 40
0.0
 40
0.0
 40
1.0
 40
1.0
 40
1.0
 40
2.0
 40
2.0
 40
2.0
 40
3.0
 40
3.0
 40
3.0
 40
4.0
 40
4.0
 40
4.0
 40
5.0
 40
5.0
 40
5.0
 40
5.0
 10
373.7329793041717
 20
-119.8712412533341
 30
0.0
 10
367.864678993421
 20
-124.9453336253155
 30
0.0
 10
346.6710218242297
 20
-140.8012971382559
 30
0.0
 10
353.0022311238808
 20
-146.66830878367
 30
0.0
 10
354.0273977362303
 20
-146.3115022416168
 30
0.0
 10
357.0259853973039
 20
-143.8303296762888
 30
0.0
 10
357.8715706044968
 20
-143.1880138491115
 30
0.0
 10
363.6051624248848
 20
-138.8333317168644
 30
0.0
 10
369.0611703941322
 20
-133.966293124392
 30
0.0
 10
374.1170017088934
 20
-128.5649704621947
 30
0.0
 10
375.1516813792241
 20
-127.4595477258563
 30
0.0
 10
375.936867643084
 20
-126.0329971000156
 30
0.0
 10
376.6576164012386
 20
-124.6133520198364
 30
0.0
 10
379.6544091459527
 20
-117.6805394576668
 30
0.0
 10
374.4630616285594
 20
-119.4233740828231
 30
0.0
 10
373.7329793041717
 20
-119.8712412533341
 30
0.0
  0
HATCH
  5
AF
330
A9
100
AcDbEntity
  8
Layer 1
 62
   134
420
    43440
100
AcDbHatch
 10
0.0
 20
0.0
 30
0.0
210
0.0
220
0.0
230
1.0
  2
SOLID
 70
     1
 71
     0
 91
        2
 92
        1
 93
        1
 72
     4
 94
        3
 73
     0
 74
     1
 95
       38
 96
       34
 40
0.0
 40
0.0
 40
0.0
 40
0.0
 40
1.0
 40
1.0
 40
1.0
 40
2.0
 40
2.0
 40
2.0
 40
3.0
 40
3.0
 40
3.0
 40
4.0
 40
4.0
 40
4.0
 40
5.0
 40
5.0
 40
5.0
 40
6.0
 40
6.0
 40
6.0
 40
7.0
 40
7.0
 40
7.0
 40
8.0
 40
8.0
 40
8.0
 40
9.0
 40
9.0
 40
9.0
 40
10.0
 40
10.0
 40
10.0
 40
11.0
 40
11.0
 40
11.0
 40
11.0
 10
369.4243717677837
 20
-114.3965872002245
 10
372.1197980162506
 20
-111.8768761856491
 10
375.3784690915745
 20
-111.9048711678315
 10
378.9060186725219
 20
-113.817091822868
 10
379.7960280653406
 20
-114.2995017338153
 10
381.4878267003533
 20
-116.4524081773061
 10
381.9799030843915
 20
-117.4250017420427
 10
383.3916947307953
 20
-120.214887226899
 10
383.4591835946103
 20
-122.0114249798671
 10
382.9363243908119
 20
-124.9079836311057
 10
382.42827324891
 20
-127.7227741164434
 10
381.2825779872037
 20
-130.2240678406379
 10
379.5474321162528
 20
-132.1506700449218
 10
377.3646340468822
 20
-134.574386468742
 10
375.0299860337145
 20
-136.8095514717979
 10
372.6241695776334
 20
-138.9255157478301
 10
369.2702781768621
 20
-141.8755398356716
 10
365.5486083661235
 20
-144.3306114399666
 10
362.2608596418231
 20
-147.2315861375
 10
351.256674736389
 20
-154.5037912567232
 10
348.0404534387399
 20
-149.578846160689
 10
346.3105128260759
 20
-148.1885046133202
 10
345.6996129635299
 20
-147.6974652723175
 10
342.1901022944185
 20
-144.5818582088041
 10
347.132494880454
 20
-139.6952589076154
 10
348.3190244946036
 20
-138.1480814094666
 10
349.6615323607239
 20
-136.6826145310142
 10
350.9263203383507
 20
-135.1512297155623
 10
351.9369481263329
 20
-133.9276070559245
 10
353.0293343651447
 20
-132.7551604944956
 10
353.9801914305608
 20
-131.4673362762323
 10
358.2958888880657
 20
-125.6213114852508
 10
369.1258771382909
 20
-114.6755837551191
 10
369.4243717677837
 20
-114.3965872002245
 97
        0
 97
        0
 92
        1
 93
        1
 72
     4
 94
        3
 73
     0
 74
     1
 95
       20
 96
       16
 40
0.0
 40
0.0
 40
0.0
 40
0.0
 40
1.0
 40
1.0
 40
1.0
 40
2.0
 40
2.0
 40
2.0
 40
3.0
 40
3.0
 40
3.0
 40
4.0
 40
4.0
 40
4.0
 40
5.0
 40
5.0
 40
5.0
 40
5.0
 10
373.7329793041717
 20
-119.8712412533341
 10
367.864678993421
 20
-124.9453336253155
 10
346.6710218242297
 20
-140.8012971382559
 10
353.0022311238808
 20
-146.66830878367
 10
354.0273977362303
 20
-146.3115022416168
 10
357.0259853973039
 20
-143.8303296762888
 10
357.8715706044968
 20
-143.1880138491115
 10
363.6051624248848
 20
-138.8333317168644
 10
369.0611703941322
 20
-133.966293124392
 10
374.1170017088934
 20
-128.5649704621947
 10
375.1516813792241
 20
-127.4595477258563
 10
375.936867643084
 20
-126.0329971000156
 10
376.6576164012386
 20
-124.6133520198364
 10
379.6544091459527
 20
-117.6805394576668
 10
374.4630616285594
 20
-119.4233740828231
 10
373.7329793041717
 20
-119.8712412533341
 97
        0
 97
        0
 75
     2
 76
     1
 98
        0
  0
SPLINE
  5
B0
330
A9
100
AcDbEntity
  8
Layer 1
370
     0
100
AcDbSpline
210
0.0
220
0.0
230
1.0
 70
    11
 71
     3
 72
    29
 73
    25
 74
     0
 42
0.0000000001
 43
0.0000000001
 12
1.0
 22
0.0
 32
0.0
 13
1.0
 23
0.0
 33
0.0
 40
0.0
 40
0.0
 40
0.0
 40
0.0
 40
1.0
 40
1.0
 40
1.0
 40
2.0
 40
2.0
 40
2.0
 40
3.0
 40
3.0
 40
3.0
 40
4.0
 40
4.0
 40
4.0
 40
5.0
 40
5.0
 40
5.0
 40
6.0
 40
6.0
 40
6.0
 40
7.0
 40
7.0
 40
7.0
 40
8.0
 40
8.0
 40
8.0
 40
8.0
 10
366.9285402402493
 20
-201.8364979286644
 30
0.0
 10
364.1905744687319
 20
-200.3556086647204
 30
0.0
 10
361.7513725642093
 20
-198.4219457900281
 30
0.0
 10
359.3628770534615
 20
-196.4461791028662
 30
0.0
 10
357.2465806440796
 20
-194.6956432927818
 30
0.0
 10
355.4916906907984
 20
-192.7511917540232
 30
0.0
 10
354.9368819719202
 20
-189.8413048992106
 30
0.0
 10
354.2850580111935
 20
-186.4229897387759
 30
0.0
 10
356.5382168110991
 20
-182.6138607259691
 30
0.0
 10
360.0412657806701
 20
-181.8624973256137
 30
0.0
 10
361.9432491488951
 20
-181.4544196090428
 30
0.0
 10
363.9435042006153
 20
-181.0634256119656
 30
0.0
 10
365.8305897610935
 20
-181.2063103590808
 30
0.0
 10
370.0880421748261
 20
-181.5286792453662
 30
0.0
 10
376.6183077249007
 20
-183.082467052388
 30
0.0
 10
380.4782758589372
 20
-185.0596849050044
 30
0.0
 10
386.9806304559024
 20
-188.0711533376061
 30
0.0
 10
391.0120131244694
 20
-192.9565066385203
 30
0.0
 10
392.5504361365056
 20
-196.4797961011272
 30
0.0
 10
395.2031433696047
 20
-202.5555453781835
 30
0.0
 10
391.4712425340531
 20
-209.7052471184006
 30
0.0
 10
385.3226659974753
 20
-210.0298377885129
 30
0.0
 10
382.2385505608254
 20
-210.1926985776763
 30
0.0
 10
370.2529052628161
 20
-203.6345719154606
 30
0.0
 10
366.9285402402493
 20
-201.8364979286644
 30
0.0
  0
SPLINE
  5
B1
330
A9
100
AcDbEntity
  8
Layer 1
370
     0
100
AcDbSpline
210
0.0
220
0.0
230
1.0
 70
    11
 71
     3
 72
    20
 73
    16
 74
     0
 42
0.0000000001
 43
0.0000000001
 12
1.0
 22
0.0
 32
0.0
 13
1.0
 23
0.0
 33
0.0
 40
0.0
 40
0.0
 40
0.0
 40
0.0
 40
1.0
 40
1.0
 40
1.0
 40
2.0
 40
2.0
 40
2.0
 40
3.0
 40
3.0
 40
3.0
 40
4.0
 40
4.0
 40
4.0
 40
5.0
 40
5.0
 40
5.0
 40
5.0
 10
368.1564426825771
 20
-186.4661343876842
 30
0.0
 10
367.3436147032535
 20
-186.3359598478428
 30
0.0
 10
361.5889326132001
 20
-184.5888267702758
 30
0.0
 10
361.1601270388783
 20
-187.8390569459643
 30
0.0
 10
360.9817123294179
 20
-189.1913129077147
 30
0.0
 10
361.4191335031865
 20
-190.0916559499174
 30
0.0
 10
362.258615993891
 20
-190.7827109183072
 30
0.0
 10
366.0344025396389
 20
-193.8907869338391
 30
0.0
 10
376.5583575097917
 20
-200.7066205537749
 30
0.0
 10
377.7698364644875
 20
-201.3180916103993
 30
0.0
 10
381.0402642434292
 20
-202.9685170244602
 30
0.0
 10
386.0544534928395
 20
-205.2718868012944
 30
0.0
 10
387.5496190153754
 20
-200.9295896148942
 30
0.0
 10
387.8987302928417
 20
-199.9155953023301
 30
0.0
 10
385.623853002784
 20
-191.3515677534351
 30
0.0
 10
368.1564426825771
 20
-186.4661343876842
 30
0.0
  0
HATCH
  5
B2
330
A9
100
AcDbEntity
  8
Layer 1
 62
   134
420
    43440
100
AcDbHatch
 10
0.0
 20
0.0
 30
0.0
210
0.0
220
0.0
230
1.0
  2
SOLID
 70
     1
 71
     0
 91
        2
 92
        1
 93
        1
 72
     4
 94
        3
 73
     0
 74
     1
 95
       29
 96
       25
 40
0.0
 40
0.0
 40
0.0
 40
0.0
 40
1.0
 40
1.0
 40
1.0
 40
2.0
 40
2.0
 40
2.0
 40
3.0
 40
3.0
 40
3.0
 40
4.0
 40
4.0
 40
4.0
 40
5.0
 40
5.0
 40
5.0
 40
6.0
 40
6.0
 40
6.0
 40
7.0
 40
7.0
 40
7.0
 40
8.0
 40
8.0
 40
8.0
 40
8.0
 10
366.9285402402493
 20
-201.8364979286644
 10
364.1905744687319
 20
-200.3556086647204
 10
361.7513725642093
 20
-198.4219457900281
 10
359.3628770534615
 20
-196.4461791028662
 10
357.2465806440796
 20
-194.6956432927818
 10
355.4916906907984
 20
-192.7511917540232
 10
354.9368819719202
 20
-189.8413048992106
 10
354.2850580111935
 20
-186.4229897387759
 10
356.5382168110991
 20
-182.6138607259691
 10
360.0412657806701
 20
-181.8624973256137
 10
361.9432491488951
 20
-181.4544196090428
 10
363.9435042006153
 20
-181.0634256119656
 10
365.8305897610935
 20
-181.2063103590808
 10
370.0880421748261
 20
-181.5286792453662
 10
376.6183077249007
 20
-183.082467052388
 10
380.4782758589372
 20
-185.0596849050044
 10
386.9806304559024
 20
-188.0711533376061
 10
391.0120131244694
 20
-192.9565066385203
 10
392.5504361365056
 20
-196.4797961011272
 10
395.2031433696047
 20
-202.5555453781835
 10
391.4712425340531
 20
-209.7052471184006
 10
385.3226659974753
 20
-210.0298377885129
 10
382.2385505608254
 20
-210.1926985776763
 10
370.2529052628161
 20
-203.6345719154606
 10
366.9285402402493
 20
-201.8364979286644
 97
        0
 97
        0
 92
        1
 93
        1
 72
     4
 94
        3
 73
     0
 74
     1
 95
       20
 96
       16
 40
0.0
 40
0.0
 40
0.0
 40
0.0
 40
1.0
 40
1.0
 40
1.0
 40
2.0
 40
2.0
 40
2.0
 40
3.0
 40
3.0
 40
3.0
 40
4.0
 40
4.0
 40
4.0
 40
5.0
 40
5.0
 40
5.0
 40
5.0
 10
368.1564426825771
 20
-186.4661343876842
 10
367.3436147032535
 20
-186.3359598478428
 10
361.5889326132001
 20
-184.5888267702758
 10
361.1601270388783
 20
-187.8390569459643
 10
360.9817123294179
 20
-189.1913129077147
 10
361.4191335031865
 20
-190.0916559499174
 10
362.258615993891
 20
-190.7827109183072
 10
366.0344025396389
 20
-193.8907869338391
 10
376.5583575097917
 20
-200.7066205537749
 10
377.7698364644875
 20
-201.3180916103993
 10
381.0402642434292
 20
-202.9685170244602
 10
386.0544534928395
 20
-205.2718868012944
 10
387.5496190153754
 20
-200.9295896148942
 10
387.8987302928417
 20
-199.9155953023301
 10
385.623853002784
 20
-191.3515677534351
 10
368.1564426825771
 20
-186.4661343876842
 97
        0
 97
        0
 75
     2
 76
     1
 98
        0
  0
SPLINE
  5
B3
330
A9
100
AcDbEntity
  8
Layer 1
370
     0
100
AcDbSpline
210
0.0
220
0.0
230
1.0
 70
    11
 71
     3
 72
    29
 73
    25
 74
     0
 42
0.0000000001
 43
0.0000000001
 12
1.0
 22
0.0
 32
0.0
 13
1.0
 23
0.0
 33
0.0
 40
0.0
 40
0.0
 40
0.0
 40
0.0
 40
1.0
 40
1.0
 40
1.0
 40
2.0
 40
2.0
 40
2.0
 40
3.0
 40
3.0
 40
3.0
 40
4.0
 40
4.0
 40
4.0
 40
5.0
 40
5.0
 40
5.0
 40
6.0
 40
6.0
 40
6.0
 40
7.0
 40
7.0
 40
7.0
 40
8.0
 40
8.0
 40
8.0
 40
8.0
 10
372.3833815158287
 20
-154.7859428462052
 30
0.0
 10
378.0069449489456
 20
-152.2135069897959
 30
0.0
 10
383.9929020421951
 20
-151.2192935629728
 30
0.0
 10
389.9811027811884
 20
-150.3837875899899
 30
0.0
 10
392.8801623170584
 20
-149.9792577226481
 30
0.0
 10
395.7437722501309
 20
-151.0092398747574
 30
0.0
 10
398.2498347977453
 20
-153.2288674002666
 30
0.0
 10
400.4106451386269
 20
-155.1426993492423
 30
0.0
 10
401.1894594483038
 20
-159.2422465895188
 30
0.0
 10
399.5830988428788
 20
-162.208428653481
 30
0.0
 10
397.9141853941692
 20
-165.2901685189145
 30
0.0
 10
395.6491801448374
 20
-167.3369021976478
 30
0.0
 10
392.9013423319411
 20
-168.1904576658389
 30
0.0
 10
388.5959656450868
 20
-169.5278617002323
 30
0.0
 10
384.2354850188221
 20
-170.6341000914617
 30
0.0
 10
379.8531961559729
 20
-171.3206714589833
 30
0.0
 10
375.8863407386671
 20
-171.9421605606367
 30
0.0
 10
371.8774842731018
 20
-171.9998969270418
 30
0.0
 10
367.8882821442312
 20
-172.2591251063222
 30
0.0
 10
364.418080148349
 20
-172.4846262002766
 30
0.0
 10
361.3975945049988
 20
-171.5576817951041
 30
0.0
 10
358.8704416874334
 20
-168.9422113784303
 30
0.0
 10
353.4198184686047
 20
-161.2984578776604
 30
0.0
 10
369.9994630422298
 20
-155.8764636151045
 30
0.0
 10
372.3833815158287
 20
-154.7859428462052
 30
0.0
  0
SPLINE
  5
B4
330
A9
100
AcDbEntity
  8
Layer 1
370
     0
100
AcDbSpline
210
0.0
220
0.0
230
1.0
 70
    11
 71
     3
 72
    32
 73
    28
 74
     0
 42
0.0000000001
 43
0.0000000001
 12
1.0
 22
0.0
 32
0.0
 13
1.0
 23
0.0
 33
0.0
 40
0.0
 40
0.0
 40
0.0
 40
0.0
 40
1.0
 40
1.0
 40
1.0
 40
2.0
 40
2.0
 40
2.0
 40
3.0
 40
3.0
 40
3.0
 40
4.0
 40
4.0
 40
4.0
 40
5.0
 40
5.0
 40
5.0
 40
6.0
 40
6.0
 40
6.0
 40
7.0
 40
7.0
 40
7.0
 40
8.0
 40
8.0
 40
8.0
 40
9.0
 40
9.0
 40
9.0
 40
9.0
 10
369.25798299694
 20
-166.8960281420605
 30
0.0
 10
374.7137217284853
 20
-166.1180833949902
 30
0.0
 10
379.7234236865388
 20
-165.9089554499524
 30
0.0
 10
385.1532258733296
 20
-164.8228031894078
 30
0.0
 10
387.738264751184
 20
-164.3056728955626
 30
0.0
 10
390.6812099977851
 20
-163.4540289624847
 30
0.0
 10
392.9126503068092
 20
-161.6505756559109
 30
0.0
 10
393.464856396793
 20
-161.2041621528097
 30
0.0
 10
394.2446579108655
 20
-160.0192906131806
 30
0.0
 10
394.3755970763923
 20
-159.2626729931635
 30
0.0
 10
394.6825278139549
 20
-157.4892738222215
 30
0.0
 10
392.7907754703992
 20
-156.0890493381094
 30
0.0
 10
391.735185021802
 20
-156.1023149913663
 30
0.0
 10
389.2783929345733
 20
-156.1333449105914
 30
0.0
 10
386.4231293635748
 20
-156.6447806312663
 30
0.0
 10
383.9928122960828
 20
-157.0348088527408
 30
0.0
 10
381.8320019550774
 20
-157.3815373012885
 30
0.0
 10
379.1513837685889
 20
-158.5220131878414
 30
0.0
 10
376.9895862234662
 20
-158.8922455117454
 30
0.0
 10
372.6813376700866
 20
-159.6301681181139
 30
0.0
 10
369.7842525424276
 20
-160.9368674944399
 30
0.0
 10
366.024620245762
 20
-163.057270334918
 30
0.0
 10
365.3953224880843
 20
-163.4121953659951
 30
0.0
 10
363.3362839178935
 20
-164.6543729265541
 30
0.0
 10
363.6184448063086
 20
-165.9360271899222
 30
0.0
 10
364.1409450265328
 20
-168.3099836529118
 30
0.0
 10
367.7831000321221
 20
-167.1063770677729
 30
0.0
 10
369.25798299694
 20
-166.8960281420605
 30
0.0
  0
HATCH
  5
B5
330
A9
100
AcDbEntity
  8
Layer 1
 62
   134
420
    43440
100
AcDbHatch
 10
0.0
 20
0.0
 30
0.0
210
0.0
220
0.0
230
1.0
  2
SOLID
 70
     1
 71
     0
 91
        2
 92
        1
 93
        1
 72
     4
 94
        3
 73
     0
 74
     1
 95
       29
 96
       25
 40
0.0
 40
0.0
 40
0.0
 40
0.0
 40
1.0
 40
1.0
 40
1.0
 40
2.0
 40
2.0
 40
2.0
 40
3.0
 40
3.0
 40
3.0
 40
4.0
 40
4.0
 40
4.0
 40
5.0
 40
5.0
 40
5.0
 40
6.0
 40
6.0
 40
6.0
 40
7.0
 40
7.0
 40
7.0
 40
8.0
 40
8.0
 40
8.0
 40
8.0
 10
372.3833815158287
 20
-154.7859428462052
 10
378.0069449489456
 20
-152.2135069897959
 10
383.9929020421951
 20
-151.2192935629728
 10
389.9811027811884
 20
-150.3837875899899
 10
392.8801623170584
 20
-149.9792577226481
 10
395.7437722501309
 20
-151.0092398747574
 10
398.2498347977453
 20
-153.2288674002666
 10
400.4106451386269
 20
-155.1426993492423
 10
401.1894594483038
 20
-159.2422465895188
 10
399.5830988428788
 20
-162.208428653481
 10
397.9141853941692
 20
-165.2901685189145
 10
395.6491801448374
 20
-167.3369021976478
 10
392.9013423319411
 20
-168.1904576658389
 10
388.5959656450868
 20
-169.5278617002323
 10
384.2354850188221
 20
-170.6341000914617
 10
379.8531961559729
 20
-171.3206714589833
 10
375.8863407386671
 20
-171.9421605606367
 10
371.8774842731018
 20
-171.9998969270418
 10
367.8882821442312
 20
-172.2591251063222
 10
364.418080148349
 20
-172.4846262002766
 10
361.3975945049988
 20
-171.5576817951041
 10
358.8704416874334
 20
-168.9422113784303
 10
353.4198184686047
 20
-161.2984578776604
 10
369.9994630422298
 20
-155.8764636151045
 10
372.3833815158287
 20
-154.7859428462052
 97
        0
 97
        0
 92
        1
 93
        1
 72
     4
 94
        3
 73
     0
 74
     1
 95
       32
 96
       28
 40
0.0
 40
0.0
 40
0.0
 40
0.0
 40
1.0
 40
1.0
 40
1.0
 40
2.0
 40
2.0
 40
2.0
 40
3.0
 40
3.0
 40
3.0
 40
4.0
 40
4.0
 40
4.0
 40
5.0
 40
5.0
 40
5.0
 40
6.0
 40
6.0
 40
6.0
 40
7.0
 40
7.0
 40
7.0
 40
8.0
 40
8.0
 40
8.0
 40
9.0
 40
9.0
 40
9.0
 40
9.0
 10
369.25798299694
 20
-166.8960281420605
 10
374.7137217284853
 20
-166.1180833949902
 10
379.7234236865388
 20
-165.9089554499524
 10
385.1532258733296
 20
-164.8228031894078
 10
387.738264751184
 20
-164.3056728955626
 10
390.6812099977851
 20
-163.4540289624847
 10
392.9126503068092
 20
-161.6505756559109
 10
393.464856396793
 20
-161.2041621528097
 10
394.2446579108655
 20
-160.0192906131806
 10
394.3755970763923
 20
-159.2626729931635
 10
394.6825278139549
 20
-157.4892738222215
 10
392.7907754703992
 20
-156.0890493381094
 10
391.735185021802
 20
-156.1023149913663
 10
389.2783929345733
 20
-156.1333449105914
 10
386.4231293635748
 20
-156.6447806312663
 10
383.9928122960828
 20
-157.0348088527408
 10
381.8320019550774
 20
-157.3815373012885
 10
379.1513837685889
 20
-158.5220131878414
 10
376.9895862234662
 20
-158.8922455117454
 10
372.6813376700866
 20
-159.6301681181139
 10
369.7842525424276
 20
-160.9368674944399
 10
366.024620245762
 20
-163.057270334918
 10
365.3953224880843
 20
-163.4121953659951
 10
363.3362839178935
 20
-164.6543729265541
 10
363.6184448063086
 20
-165.9360271899222
 10
364.1409450265328
 20
-168.3099836529118
 10
367.7831000321221
 20
-167.1063770677729
 10
369.25798299694
 20
-166.8960281420605
 97
        0
 97
        0
 75
     2
 76
     1
 98
        0
  0
ENDBLK
  5
AC
330
A9
100
AcDbEntity
  8
0
100
AcDbBlockEnd
  0
ENDSEC
  0
SECTION
  2
ENTITIES
  0
INSERT
  5
42
330
1F
100
AcDbEntity
  8
Layer 1
100
AcDbBlockReference
  2
block 2
 10
0.0
 20
0.0
 30
0.0
  0
INSERT
  5
4C
330
1F
100
AcDbEntity
  8
Layer 1
100
AcDbBlockReference
  2
block 3
 10
0.0
 20
0.0
 30
0.0
  0
INSERT
  5
7B
330
1F
100
AcDbEntity
  8
Layer 1
100
AcDbBlockReference
  2
block 4
 10
0.0
 20
0.0
 30
0.0
  0
INSERT
  5
8C
330
1F
100
AcDbEntity
  8
Layer 1
100
AcDbBlockReference
  2
block 5
 10
0.0
 20
0.0
 30
0.0
  0
INSERT
  5
95
330
1F
100
AcDbEntity
  8
Layer 1
100
AcDbBlockReference
  2
block 6
 10
0.0
 20
0.0
 30
0.0
  0
INSERT
  5
A6
330
1F
100
AcDbEntity
  8
Layer 1
100
AcDbBlockReference
  2
block 8
 10
0.0
 20
0.0
 30
0.0
  0
SPLINE
  5
B6
330
1F
100
AcDbEntity
  8
Layer 1
370
     0
100
AcDbSpline
210
0.0
220
0.0
230
1.0
 70
    11
 71
     3
 72
    80
 73
    76
 74
     0
 42
0.0000000001
 43
0.0000000001
 12
1.0
 22
0.0
 32
0.0
 13
1.0
 23
0.0
 33
0.0
 40
0.0
 40
0.0
 40
0.0
 40
0.0
 40
1.0
 40
1.0
 40
1.0
 40
2.0
 40
2.0
 40
2.0
 40
3.0
 40
3.0
 40
3.0
 40
4.0
 40
4.0
 40
4.0
 40
5.0
 40
5.0
 40
5.0
 40
6.0
 40
6.0
 40
6.0
 40
7.0
 40
7.0
 40
7.0
 40
8.0
 40
8.0
 40
8.0
 40
9.0
 40
9.0
 40
9.0
 40
10.0
 40
10.0
 40
10.0
 40
11.0
 40
11.0
 40
11.0
 40
12.0
 40
12.0
 40
12.0
 40
13.0
 40
13.0
 40
13.0
 40
14.0
 40
14.0
 40
14.0
 40
15.0
 40
15.0
 40
15.0
 40
16.0
 40
16.0
 40
16.0
 40
17.0
 40
17.0
 40
17.0
 40
18.0
 40
18.0
 40
18.0
 40
19.0
 40
19.0
 40
19.0
 40
20.0
 40
20.0
 40
20.0
 40
21.0
 40
21.0
 40
21.0
 40
22.0
 40
22.0
 40
22.0
 40
23.0
 40
23.0
 40
23.0
 40
24.0
 40
24.0
 40
24.0
 40
25.0
 40
25.0
 40
25.0
 40
25.0
 10
56.56394644157535
 20
-208.4515958436796
 30
0.0
 10
56.69127646623474
 20
-207.9496553963845
 30
0.0
 10
57.01180947563807
 20
-207.4636244477497
 30
0.0
 10
57.52328985917211
 20
-206.9956139795877
 30
0.0
 10
58.60502477816044
 20
-206.0268042892767
 30
0.0
 10
59.79992919866891
 20
-205.6741903048714
 30
0.0
 10
61.10787925879777
 20
-205.9382602952983
 30
0.0
 10
61.62276869030302
 20
-206.042214453325
 30
0.0
 10
63.78196147973085
 20
-206.8292278994804
 30
0.0
 10
67.58441674578535
 20
-208.3011435884855
 30
0.0
 10
68.79706121683103
 20
-207.0061433099127
 30
0.0
 10
70.00640516921976
 20
-205.8213443175346
 30
0.0
 10
71.21336562235774
 20
-204.7453919255277
 30
0.0
 10
72.51359524157851
 20
-203.6882702125795
 30
0.0
 10
73.7942933622453
 20
-203.2867650168582
 30
0.0
 10
75.05642698991323
 20
-203.5415848491511
 30
0.0
 10
75.89803121959812
 20
-203.7115014443216
 30
0.0
 10
76.61798944252678
 20
-204.164310600223
 30
0.0
 10
77.21756637420185
 20
-204.9018074863961
 30
0.0
 10
78.27073252312493
 20
-206.1702466403303
 30
0.0
 10
78.6725082474868
 20
-207.5925541590959
 30
0.0
 10
78.419918654924
 20
-209.169155975861
 30
0.0
 10
78.03768085715274
 20
-210.6759538555943
 30
0.0
 10
77.7439918444934
 20
-212.0235491168787
 30
0.0
 10
77.54108333795284
 20
-213.2144454400513
 30
0.0
 10
77.54108333795284
 20
-213.2144454400513
 30
0.0
 10
82.90838624272055
 20
-215.881539775236
 30
0.0
 10
82.90838624272055
 20
-215.881539775236
 30
0.0
 10
84.9087608287773
 20
-216.901338941032
 30
0.0
 10
85.74942763441686
 20
-218.2367164061689
 30
0.0
 10
85.4298412259086
 20
-219.8875620497192
 30
0.0
 10
85.10086404156937
 20
-221.184404294876
 30
0.0
 10
83.90815393971116
 20
-222.1092509325335
 30
0.0
 10
81.8517109203367
 20
-222.6621019626809
 30
0.0
 10
81.8517109203367
 20
-222.6621019626809
 30
0.0
 10
75.51308306091505
 20
-223.8240124793565
 30
0.0
 10
75.51308306091505
 20
-223.8240124793565
 30
0.0
 10
75.11430124074741
 20
-226.5577931126772
 30
0.0
 10
74.79792277395518
 20
-228.3858534220117
 30
0.0
 10
74.5643192462203
 20
-229.306728600618
 30
0.0
 10
74.10813589911777
 20
-231.1050230241544
 30
0.0
 10
73.00336890200379
 20
-232.0696959043198
 30
0.0
 10
71.25068755050779
 20
-232.2003690931133
 30
0.0
 10
70.75087291273121
 20
-232.2313704468952
 30
0.0
 10
70.29145711448837
 20
-232.2048288210781
 30
0.0
 10
69.87092771651078
 20
-232.1199255839583
 30
0.0
 10
68.51443405531427
 20
-231.8460548307576
 30
0.0
 10
67.48046766125026
 20
-230.8884311685943
 30
0.0
 10
66.76610362809606
 20
-229.2495437272601
 30
0.0
 10
66.76610362809606
 20
-229.2495437272601
 30
0.0
 10
65.10156176300734
 20
-225.3508295055763
 30
0.0
 10
65.10156176300734
 20
-225.3508295055763
 30
0.0
 10
65.10156176300734
 20
-225.3508295055763
 30
0.0
 10
59.60164323405479
 20
-225.8238744290857
 30
0.0
 10
59.60164323405479
 20
-225.8238744290857
 30
0.0
 10
58.65055755957383
 20
-225.8956778994352
 30
0.0
 10
57.84748177357778
 20
-225.865452016068
 30
0.0
 10
57.19241587607848
 20
-225.7331967789987
 30
0.0
 10
56.11736601430312
 20
-225.5161484257351
 30
0.0
 10
55.3573279571674
 20
-224.9772293339111
 30
0.0
 10
54.91193011898031
 20
-224.1179043102711
 30
0.0
 10
54.46665614269568
 20
-223.2580910177176
 30
0.0
 10
54.32871569538838
 20
-222.4931768334927
 30
0.0
 10
54.49840648701047
 20
-221.8242484163766
 30
0.0
 10
54.71082963126082
 20
-220.9868672226767
 30
0.0
 10
55.44277651572611
 20
-219.9910651718274
 30
0.0
 10
56.69370170667207
 20
-218.8367321429059
 30
0.0
 10
57.94499848330543
 20
-217.68093430722
 30
0.0
 10
59.05189242796405
 20
-216.5632212811688
 30
0.0
 10
60.01366425888045
 20
-215.4819080161278
 30
0.0
 10
60.01366425888045
 20
-215.4819080161278
 30
0.0
 10
57.73759795882142
 20
-212.2512012282605
 30
0.0
 10
57.73759795882142
 20
-212.2512012282605
 30
0.0
 10
56.69066126153757
 20
-210.7638243086813
 30
0.0
 10
56.298758131461
 20
-209.4969795962716
 30
0.0
 10
56.56394644157535
 20
-208.4515958436796
 30
0.0
  0
HATCH
  5
B7
330
1F
100
AcDbEntity
  8
Layer 1
 62
   230
420
 15466635
100
AcDbHatch
 10
0.0
 20
0.0
 30
0.0
210
0.0
220
0.0
230
1.0
  2
SOLID
 70
     1
 71
     0
 91
        1
 92
        1
 93
        1
 72
     4
 94
        3
 73
     0
 74
     1
 95
       80
 96
       76
 40
0.0
 40
0.0
 40
0.0
 40
0.0
 40
1.0
 40
1.0
 40
1.0
 40
2.0
 40
2.0
 40
2.0
 40
3.0
 40
3.0
 40
3.0
 40
4.0
 40
4.0
 40
4.0
 40
5.0
 40
5.0
 40
5.0
 40
6.0
 40
6.0
 40
6.0
 40
7.0
 40
7.0
 40
7.0
 40
8.0
 40
8.0
 40
8.0
 40
9.0
 40
9.0
 40
9.0
 40
10.0
 40
10.0
 40
10.0
 40
11.0
 40
11.0
 40
11.0
 40
12.0
 40
12.0
 40
12.0
 40
13.0
 40
13.0
 40
13.0
 40
14.0
 40
14.0
 40
14.0
 40
15.0
 40
15.0
 40
15.0
 40
16.0
 40
16.0
 40
16.0
 40
17.0
 40
17.0
 40
17.0
 40
18.0
 40
18.0
 40
18.0
 40
19.0
 40
19.0
 40
19.0
 40
20.0
 40
20.0
 40
20.0
 40
21.0
 40
21.0
 40
21.0
 40
22.0
 40
22.0
 40
22.0
 40
23.0
 40
23.0
 40
23.0
 40
24.0
 40
24.0
 40
24.0
 40
25.0
 40
25.0
 40
25.0
 40
25.0
 10
56.56394644157535
 20
-208.4515958436796
 10
56.69127646623474
 20
-207.9496553963845
 10
57.01180947563807
 20
-207.4636244477497
 10
57.52328985917211
 20
-206.9956139795877
 10
58.60502477816044
 20
-206.0268042892767
 10
59.79992919866891
 20
-205.6741903048714
 10
61.10787925879777
 20
-205.9382602952983
 10
61.62276869030302
 20
-206.042214453325
 10
63.78196147973085
 20
-206.8292278994804
 10
67.58441674578535
 20
-208.3011435884855
 10
68.79706121683103
 20
-207.0061433099127
 10
70.00640516921976
 20
-205.8213443175346
 10
71.21336562235774
 20
-204.7453919255277
 10
72.51359524157851
 20
-203.6882702125795
 10
73.7942933622453
 20
-203.2867650168582
 10
75.05642698991323
 20
-203.5415848491511
 10
75.89803121959812
 20
-203.7115014443216
 10
76.61798944252678
 20
-204.164310600223
 10
77.21756637420185
 20
-204.9018074863961
 10
78.27073252312493
 20
-206.1702466403303
 10
78.6725082474868
 20
-207.5925541590959
 10
78.419918654924
 20
-209.169155975861
 10
78.03768085715274
 20
-210.6759538555943
 10
77.7439918444934
 20
-212.0235491168787
 10
77.54108333795284
 20
-213.2144454400513
 10
77.54108333795284
 20
-213.2144454400513
 10
82.90838624272055
 20
-215.881539775236
 10
82.90838624272055
 20
-215.881539775236
 10
84.9087608287773
 20
-216.901338941032
 10
85.74942763441686
 20
-218.2367164061689
 10
85.4298412259086
 20
-219.8875620497192
 10
85.10086404156937
 20
-221.184404294876
 10
83.90815393971116
 20
-222.1092509325335
 10
81.8517109203367
 20
-222.6621019626809
 10
81.8517109203367
 20
-222.6621019626809
 10
75.51308306091505
 20
-223.8240124793565
 10
75.51308306091505
 20
-223.8240124793565
 10
75.11430124074741
 20
-226.5577931126772
 10
74.79792277395518
 20
-228.3858534220117
 10
74.5643192462203
 20
-229.306728600618
 10
74.10813589911777
 20
-231.1050230241544
 10
73.00336890200379
 20
-232.0696959043198
 10
71.25068755050779
 20
-232.2003690931133
 10
70.75087291273121
 20
-232.2313704468952
 10
70.29145711448837
 20
-232.2048288210781
 10
69.87092771651078
 20
-232.1199255839583
 10
68.51443405531427
 20
-231.8460548307576
 10
67.48046766125026
 20
-230.8884311685943
 10
66.76610362809606
 20
-229.2495437272601
 10
66.76610362809606
 20
-229.2495437272601
 10
65.10156176300734
 20
-225.3508295055763
 10
65.10156176300734
 20
-225.3508295055763
 10
65.10156176300734
 20
-225.3508295055763
 10
59.60164323405479
 20
-225.8238744290857
 10
59.60164323405479
 20
-225.8238744290857
 10
58.65055755957383
 20
-225.8956778994352
 10
57.84748177357778
 20
-225.865452016068
 10
57.19241587607848
 20
-225.7331967789987
 10
56.11736601430312
 20
-225.5161484257351
 10
55.3573279571674
 20
-224.9772293339111
 10
54.91193011898031
 20
-224.1179043102711
 10
54.46665614269568
 20
-223.2580910177176
 10
54.32871569538838
 20
-222.4931768334927
 10
54.49840648701047
 20
-221.8242484163766
 10
54.71082963126082
 20
-220.9868672226767
 10
55.44277651572611
 20
-219.9910651718274
 10
56.69370170667207
 20
-218.8367321429059
 10
57.94499848330543
 20
-217.68093430722
 10
59.05189242796405
 20
-216.5632212811688
 10
60.01366425888045
 20
-215.4819080161278
 10
60.01366425888045
 20
-215.4819080161278
 10
57.73759795882142
 20
-212.2512012282605
 10
57.73759795882142
 20
-212.2512012282605
 10
56.69066126153757
 20
-210.7638243086813
 10
56.298758131461
 20
-209.4969795962716
 10
56.56394644157535
 20
-208.4515958436796
 97
        0
 97
        0
 75
     2
 76
     1
 98
        0
  0
SPLINE
  5
B8
330
1F
100
AcDbEntity
  8
Layer 1
370
     0
100
AcDbSpline
210
0.0
220
0.0
230
1.0
 70
    11
 71
     3
 72
    80
 73
    76
 74
     0
 42
0.0000000001
 43
0.0000000001
 12
1.0
 22
0.0
 32
0.0
 13
1.0
 23
0.0
 33
0.0
 40
0.0
 40
0.0
 40
0.0
 40
0.0
 40
1.0
 40
1.0
 40
1.0
 40
2.0
 40
2.0
 40
2.0
 40
3.0
 40
3.0
 40
3.0
 40
4.0
 40
4.0
 40
4.0
 40
5.0
 40
5.0
 40
5.0
 40
6.0
 40
6.0
 40
6.0
 40
7.0
 40
7.0
 40
7.0
 40
8.0
 40
8.0
 40
8.0
 40
9.0
 40
9.0
 40
9.0
 40
10.0
 40
10.0
 40
10.0
 40
11.0
 40
11.0
 40
11.0
 40
12.0
 40
12.0
 40
12.0
 40
13.0
 40
13.0
 40
13.0
 40
14.0
 40
14.0
 40
14.0
 40
15.0
 40
15.0
 40
15.0
 40
16.0
 40
16.0
 40
16.0
 40
17.0
 40
17.0
 40
17.0
 40
18.0
 40
18.0
 40
18.0
 40
19.0
 40
19.0
 40
19.0
 40
20.0
 40
20.0
 40
20.0
 40
21.0
 40
21.0
 40
21.0
 40
22.0
 40
22.0
 40
22.0
 40
23.0
 40
23.0
 40
23.0
 40
24.0
 40
24.0
 40
24.0
 40
25.0
 40
25.0
 40
25.0
 40
25.0
 10
434.1469942667427
 20
-281.4464855016058
 30
0.0
 10
434.2743242914021
 20
-280.9445450543062
 30
0.0
 10
434.59485730081
 20
-280.4585141056732
 30
0.0
 10
435.1063376843395
 20
-279.9905036375121
 30
0.0
 10
436.1880726033214
 20
-279.0216939472011
 30
0.0
 10
437.3829770238353
 20
-278.6690799627986
 30
0.0
 10
438.6909270839642
 20
-278.9331499532227
 30
0.0
 10
439.2058165154758
 20
-279.0371041112512
 30
0.0
 10
441.3650093048982
 20
-279.8241175574058
 30
0.0
 10
445.1674645709518
 20
-281.2960332464127
 30
0.0
 10
446.3801090420038
 20
-280.0010329678344
 30
0.0
 10
447.5894529943889
 20
-278.8162339754626
 30
0.0
 10
448.7964134475242
 20
-277.7402815834566
 30
0.0
 10
450.0966430667449
 20
-276.6831598705112
 30
0.0
 10
451.377341187419
 20
-276.2816546747872
 30
0.0
 10
452.6394748150869
 20
-276.5364745070801
 30
0.0
 10
453.4810790447664
 20
-276.7063911022506
 30
0.0
 10
454.2010372676941
 20
-277.1592002581492
 30
0.0
 10
454.8006141993737
 20
-277.8966971443215
 30
0.0
 10
455.8537803482905
 20
-279.1651362982593
 30
0.0
 10
456.2555560726541
 20
-280.5874438170231
 30
0.0
 10
456.0029664800968
 20
-282.16404563379
 30
0.0
 10
455.6207286823192
 20
-283.6708435135224
 30
0.0
 10
455.3270396696607
 20
-285.0184387748059
 30
0.0
 10
455.1241311631256
 20
-286.2093350979785
 30
0.0
 10
455.1241311631256
 20
-286.2093350979785
 30
0.0
 10
460.4914340678879
 20
-288.8764294331613
 30
0.0
 10
460.4914340678879
 20
-288.8764294331613
 30
0.0
 10
462.491808653951
 20
-289.896228598961
 30
0.0
 10
463.3324754595851
 20
-291.2316060640942
 30
0.0
 10
463.0128890510714
 20
-292.8824517076446
 30
0.0
 10
462.6839118667376
 20
-294.179293952805
 30
0.0
 10
461.4912017648767
 20
-295.1041405904625
 30
0.0
 10
459.4347587455068
 20
-295.6569916206108
 30
0.0
 10
459.4347587455068
 20
-295.6569916206108
 30
0.0
 10
453.0961308860824
 20
-296.8189021372846
 30
0.0
 10
453.0961308860824
 20
-296.8189021372846
 30
0.0
 10
452.6973490659148
 20
-299.5526827706026
 30
0.0
 10
452.3809705991225
 20
-301.3807430799388
 30
0.0
 10
452.1473670713876
 20
-302.3016182585425
 30
0.0
 10
451.6911837242897
 20
-304.0999126820852
 30
0.0
 10
450.5864167271793
 20
-305.0645855622488
 30
0.0
 10
448.8337353756742
 20
-305.1952587510405
 30
0.0
 10
448.3339207379049
 20
-305.2262601048196
 30
0.0
 10
447.8745049396548
 20
-305.1997184790062
 30
0.0
 10
447.453975541679
 20
-305.1148152418873
 30
0.0
 10
446.0974818804898
 20
-304.8409444886793
 30
0.0
 10
445.0635154864212
 20
-303.8833208265232
 30
0.0
 10
444.3491514532652
 20
-302.244433385189
 30
0.0
 10
444.3491514532652
 20
-302.244433385189
 30
0.0
 10
442.684609588181
 20
-298.3457191635016
 30
0.0
 10
442.684609588181
 20
-298.3457191635016
 30
0.0
 10
442.684609588181
 20
-298.3457191635016
 30
0.0
 10
437.1846910592212
 20
-298.8187640870128
 30
0.0
 10
437.1846910592212
 20
-298.8187640870128
 30
0.0
 10
436.2336053847466
 20
-298.8905675573569
 30
0.0
 10
435.4305295987451
 20
-298.8603416739943
 30
0.0
 10
434.7754637012458
 20
-298.7280864369204
 30
0.0
 10
433.7004138394768
 20
-298.5110380836622
 30
0.0
 10
432.9403757823347
 20
-297.9721189918373
 30
0.0
 10
432.4949779441558
 20
-297.1127939681955
 30
0.0
 10
432.0497039678685
 20
-296.2529806756429
 30
0.0
 10
431.9117635205639
 20
-295.4880664914199
 30
0.0
 10
432.0814543121796
 20
-294.8191380742992
 30
0.0
 10
432.2938774564282
 20
-293.9817568805993
 30
0.0
 10
433.0258243408935
 20
-292.9859548297536
 30
0.0
 10
434.276749531844
 20
-291.8316218008313
 30
0.0
 10
435.5280463084746
 20
-290.675823965149
 30
0.0
 10
436.6349402531323
 20
-289.5581109390923
 30
0.0
 10
437.596712084056
 20
-288.4767976740504
 30
0.0
 10
437.596712084056
 20
-288.4767976740504
 30
0.0
 10
435.3206457839897
 20
-285.2460908861876
 30
0.0
 10
435.3206457839897
 20
-285.2460908861876
 30
0.0
 10
434.2737090867067
 20
-283.7587139666093
 30
0.0
 10
433.8818059566274
 20
-282.4918692542024
 30
0.0
 10
434.1469942667427
 20
-281.4464855016058
 30
0.0
  0
HATCH
  5
B9
330
1F
100
AcDbEntity
  8
Layer 1
 62
   230
420
 15466635
100
AcDbHatch
 10
0.0
 20
0.0
 30
0.0
210
0.0
220
0.0
230
1.0
  2
SOLID
 70
     1
 71
     0
 91
        1
 92
        1
 93
        1
 72
     4
 94
        3
 73
     0
 74
     1
 95
       80
 96
       76
 40
0.0
 40
0.0
 40
0.0
 40
0.0
 40
1.0
 40
1.0
 40
1.0
 40
2.0
 40
2.0
 40
2.0
 40
3.0
 40
3.0
 40
3.0
 40
4.0
 40
4.0
 40
4.0
 40
5.0
 40
5.0
 40
5.0
 40
6.0
 40
6.0
 40
6.0
 40
7.0
 40
7.0
 40
7.0
 40
8.0
 40
8.0
 40
8.0
 40
9.0
 40
9.0
 40
9.0
 40
10.0
 40
10.0
 40
10.0
 40
11.0
 40
11.0
 40
11.0
 40
12.0
 40
12.0
 40
12.0
 40
13.0
 40
13.0
 40
13.0
 40
14.0
 40
14.0
 40
14.0
 40
15.0
 40
15.0
 40
15.0
 40
16.0
 40
16.0
 40
16.0
 40
17.0
 40
17.0
 40
17.0
 40
18.0
 40
18.0
 40
18.0
 40
19.0
 40
19.0
 40
19.0
 40
20.0
 40
20.0
 40
20.0
 40
21.0
 40
21.0
 40
21.0
 40
22.0
 40
22.0
 40
22.0
 40
23.0
 40
23.0
 40
23.0
 40
24.0
 40
24.0
 40
24.0
 40
25.0
 40
25.0
 40
25.0
 40
25.0
 10
434.1469942667427
 20
-281.4464855016058
 10
434.2743242914021
 20
-280.9445450543062
 10
434.59485730081
 20
-280.4585141056732
 10
435.1063376843395
 20
-279.9905036375121
 10
436.1880726033214
 20
-279.0216939472011
 10
437.3829770238353
 20
-278.6690799627986
 10
438.6909270839642
 20
-278.9331499532227
 10
439.2058165154758
 20
-279.0371041112512
 10
441.3650093048982
 20
-279.8241175574058
 10
445.1674645709518
 20
-281.2960332464127
 10
446.3801090420038
 20
-280.0010329678344
 10
447.5894529943889
 20
-278.8162339754626
 10
448.7964134475242
 20
-277.7402815834566
 10
450.0966430667449
 20
-276.6831598705112
 10
451.377341187419
 20
-276.2816546747872
 10
452.6394748150869
 20
-276.5364745070801
 10
453.4810790447664
 20
-276.7063911022506
 10
454.2010372676941
 20
-277.1592002581492
 10
454.8006141993737
 20
-277.8966971443215
 10
455.8537803482905
 20
-279.1651362982593
 10
456.2555560726541
 20
-280.5874438170231
 10
456.0029664800968
 20
-282.16404563379
 10
455.6207286823192
 20
-283.6708435135224
 10
455.3270396696607
 20
-285.0184387748059
 10
455.1241311631256
 20
-286.2093350979785
 10
455.1241311631256
 20
-286.2093350979785
 10
460.4914340678879
 20
-288.8764294331613
 10
460.4914340678879
 20
-288.8764294331613
 10
462.491808653951
 20
-289.896228598961
 10
463.3324754595851
 20
-291.2316060640942
 10
463.0128890510714
 20
-292.8824517076446
 10
462.6839118667376
 20
-294.179293952805
 10
461.4912017648767
 20
-295.1041405904625
 10
459.4347587455068
 20
-295.6569916206108
 10
459.4347587455068
 20
-295.6569916206108
 10
453.0961308860824
 20
-296.8189021372846
 10
453.0961308860824
 20
-296.8189021372846
 10
452.6973490659148
 20
-299.5526827706026
 10
452.3809705991225
 20
-301.3807430799388
 10
452.1473670713876
 20
-302.3016182585425
 10
451.6911837242897
 20
-304.0999126820852
 10
450.5864167271793
 20
-305.0645855622488
 10
448.8337353756742
 20
-305.1952587510405
 10
448.3339207379049
 20
-305.2262601048196
 10
447.8745049396548
 20
-305.1997184790062
 10
447.453975541679
 20
-305.1148152418873
 10
446.0974818804898
 20
-304.8409444886793
 10
445.0635154864212
 20
-303.8833208265232
 10
444.3491514532652
 20
-302.244433385189
 10
444.3491514532652
 20
-302.244433385189
 10
442.684609588181
 20
-298.3457191635016
 10
442.684609588181
 20
-298.3457191635016
 10
442.684609588181
 20
-298.3457191635016
 10
437.1846910592212
 20
-298.8187640870128
 10
437.1846910592212
 20
-298.8187640870128
 10
436.2336053847466
 20
-298.8905675573569
 10
435.4305295987451
 20
-298.8603416739943
 10
434.7754637012458
 20
-298.7280864369204
 10
433.7004138394768
 20
-298.5110380836622
 10
432.9403757823347
 20
-297.9721189918373
 10
432.4949779441558
 20
-297.1127939681955
 10
432.0497039678685
 20
-296.2529806756429
 10
431.9117635205639
 20
-295.4880664914199
 10
432.0814543121796
 20
-294.8191380742992
 10
432.2938774564282
 20
-293.9817568805993
 10
433.0258243408935
 20
-292.9859548297536
 10
434.276749531844
 20
-291.8316218008313
 10
435.5280463084746
 20
-290.675823965149
 10
436.6349402531323
 20
-289.5581109390923
 10
437.596712084056
 20
-288.4767976740504
 10
437.596712084056
 20
-288.4767976740504
 10
435.3206457839897
 20
-285.2460908861876
 10
435.3206457839897
 20
-285.2460908861876
 10
434.2737090867067
 20
-283.7587139666093
 10
433.8818059566274
 20
-282.4918692542024
 10
434.1469942667427
 20
-281.4464855016058
 97
        0
 97
        0
 75
     2
 76
     1
 98
        0
  0
ENDSEC
  0
SECTION
  2
OBJECTS
  0
DICTIONARY
  5
C
330
0
100
AcDbDictionary
281
     1
  3
ACAD_GROUP
350
D
  3
ACAD_LAYOUT
350
1A
  3
ACAD_MATERIAL
350
3B
  3
ACAD_MLEADERSTYLE
350
BB
  3
ACAD_MLINESTYLE
350
17
  3
ACAD_PLOTSETTINGS
350
19
  3
ACAD_PLOTSTYLENAME
350
E
  3
ACAD_TABLESTYLE
350
BA
  3
ACAD_VISUALSTYLE
350
2A
  0
SUN
  5
3F
330
29
100
AcDbSun
 90
        1
290
     0
 63
     7
421
 16777215
 40
1.0
291
     1
 91
  2455826
 92
 54000000
292
     0
 70
     2
 71
   256
280
     1
  0
DICTIONARY
  5
D
102
{ACAD_REACTORS
330
C
102
}
330
C
100
AcDbDictionary
281
     1
  0
DICTIONARY
  5
1A
102
{ACAD_REACTORS
330
C
102
}
330
C
100
AcDbDictionary
281
     1
  3
Layout1
350
1E
  3
Layout2
350
26
  3
Model
350
22
  0
DICTIONARY
  5
3B
102
{ACAD_REACTORS
330
C
102
}
330
C
100
AcDbDictionary
281
     1
  3
ByBlock
350
3D
  3
ByLayer
350
3C
  3
Global
350
3E
  0
DICTIONARY
  5
BB
102
{ACAD_REACTORS
330
C
102
}
330
C
100
AcDbDictionary
281
     1
  0
DICTIONARY
  5
17
102
{ACAD_REACTORS
330
C
102
}
330
C
100
AcDbDictionary
281
     1
  3
Standard
350
18
  0
DICTIONARY
  5
19
102
{ACAD_REACTORS
330
C
102
}
330
C
100
AcDbDictionary
281
     1
  0
ACDBDICTIONARYWDFLT
  5
E
102
{ACAD_REACTORS
330
C
102
}
330
C
100
AcDbDictionary
281
     1
  3
Normal
350
F
100
AcDbDictionaryWithDefault
340
F
  0
DICTIONARY
  5
BA
102
{ACAD_REACTORS
330
C
102
}
330
C
100
AcDbDictionary
281
     1
  0
DICTIONARY
  5
2A
102
{ACAD_REACTORS
330
C
102
}
330
C
100
AcDbDictionary
281
     1
  3
2dWireframe
350
2F
  3
3D Hidden
350
31
  3
3dWireframe
350
30
  3
Basic
350
32
  3
Brighten
350
36
  3
ColorChange
350
3A
  3
Conceptual
350
34
  3
Dim
350
35
  3
Facepattern
350
39
  3
Flat
350
2B
  3
FlatWithEdges
350
2C
  3
Gouraud
350
2D
  3
GouraudWithEdges
350
2E
  3
Linepattern
350
38
  3
Realistic
350
33
  3
Thicken
350
37
  0
LAYOUT
  5
1E
102
{ACAD_REACTORS
330
1A
102
}
330
1A
100
AcDbPlotSettings
  1

  2
none_device
  4

  6

 40
0.0
 41
0.0
 42
0.0
 43
0.0
 44
0.0
 45
0.0
 46
0.0
 47
0.0
 48
0.0
 49
0.0
140
0.0
141
0.0
142
1.0
143
1.0
 70
   688
 72
     0
 73
     0
 74
     5
  7

 75
    16
 76
     0
 77
     2
 78
   300
147
1.0
148
0.0
149
0.0
100
AcDbLayout
  1
Layout1
 70
     1
 71
     1
 10
0.0
 20
0.0
 11
12.0
 21
9.0
 12
0.0
 22
0.0
 32
0.0
 14
1.000000000000000E+20
 24
1.000000000000000E+20
 34
1.000000000000000E+20
 15
-1.000000000000000E+20
 25
-1.000000000000000E+20
 35
-1.000000000000000E+20
146
0.0
 13
0.0
 23
0.0
 33
0.0
 16
1.0
 26
0.0
 36
0.0
 17
0.0
 27
1.0
 37
0.0
 76
     0
330
1B
  0
LAYOUT
  5
26
102
{ACAD_REACTORS
330
1A
102
}
330
1A
100
AcDbPlotSettings
  1

  2
none_device
  4

  6

 40
0.0
 41
0.0
 42
0.0
 43
0.0
 44
0.0
 45
0.0
 46
0.0
 47
0.0
 48
0.0
 49
0.0
140
0.0
141
0.0
142
1.0
143
1.0
 70
   688
 72
     0
 73
     0
 74
     5
  7

 75
    16
 76
     0
 77
     2
 78
   300
147
1.0
148
0.0
149
0.0
100
AcDbLayout
  1
Layout2
 70
     1
 71
     2
 10
0.0
 20
0.0
 11
0.0
 21
0.0
 12
0.0
 22
0.0
 32
0.0
 14
0.0
 24
0.0
 34
0.0
 15
0.0
 25
0.0
 35
0.0
146
0.0
 13
0.0
 23
0.0
 33
0.0
 16
1.0
 26
0.0
 36
0.0
 17
0.0
 27
1.0
 37
0.0
 76
     0
330
23
  0
LAYOUT
  5
22
102
{ACAD_REACTORS
330
1A
102
}
330
1A
100
AcDbPlotSettings
  1

  2
none_device
  4

  6

 40
0.0
 41
0.0
 42
0.0
 43
0.0
 44
0.0
 45
0.0
 46
0.0
 47
0.0
 48
0.0
 49
0.0
140
0.0
141
0.0
142
1.0
143
1.0
 70
  1712
 72
     0
 73
     0
 74
     0
  7

 75
     0
 76
     0
 77
     2
 78
   300
147
1.0
148
0.0
149
0.0
100
AcDbLayout
  1
Model
 70
     1
 71
     0
 10
0.0
 20
0.0
 11
12.0
 21
9.0
 12
0.0
 22
0.0
 32
0.0
 14
1.000000000000000E+20
 24
1.000000000000000E+20
 34
1.000000000000000E+20
 15
-1.000000000000000E+20
 25
-1.000000000000000E+20
 35
-1.000000000000000E+20
146
0.0
 13
0.0
 23
0.0
 33
0.0
 16
1.0
 26
0.0
 36
0.0
 17
0.0
 27
1.0
 37
0.0
 76
     0
330
1F
331
29
  0
MATERIAL
  5
3D
102
{ACAD_REACTORS
330
3B
102
}
330
3B
100
AcDbMaterial
  1
ByBlock
 72
     1
 94
      127
  0
MATERIAL
  5
3C
102
{ACAD_REACTORS
330
3B
102
}
330
3B
100
AcDbMaterial
  1
ByLayer
 72
     1
 94
      127
  0
MATERIAL
  5
3E
102
{ACAD_REACTORS
330
3B
102
}
330
3B
100
AcDbMaterial
  1
Global
 72
     1
 94
      127
  0
MLINESTYLE
  5
18
102
{ACAD_REACTORS
330
17
102
}
330
17
100
AcDbMlineStyle
  2
Standard
 70
     0
  3

 62
   256
 51
90.0
 52
90.0
 71
     2
 49
0.5
 62
   256
  6
BYLAYER
 49
-0.5
 62
   256
  6
BYLAYER
  0
ACDBPLACEHOLDER
  5
F
102
{ACAD_REACTORS
330
E
102
}
330
E
  0
VISUALSTYLE
  5
2F
102
{ACAD_REACTORS
330
2A
102
}
330
2A
100
AcDbVisualStyle
  2
2dWireframe
 70
     4
177
     2
291
     0
 71
     0
176
     1
 72
     2
176
     1
 73
     0
176
     1
 90
        0
176
     1
 40
-0.6
176
     1
 41
-30.0
176
     1
 62
     5
 63
     7
421
 16777215
176
     1
 74
     1
176
     1
 91
        4
176
     1
 64
     7
176
     1
 65
   257
176
     1
 75
     1
176
     1
175
     1
176
     1
 42
1.0
176
     1
 92
        0
176
     1
 66
   257
176
     1
 43
1.0
176
     1
 76
     1
176
     1
 77
     6
176
     1
 78
     2
176
     1
 67
     7
176
     1
 79
     5
176
     1
170
     0
176
     1
171
     0
176
     1
290
     0
176
     1
 93
        1
176
     1
 44
0.0
176
     1
173
     0
176
     1
  0
VISUALSTYLE
  5
31
102
{ACAD_REACTORS
330
2A
102
}
330
2A
100
AcDbVisualStyle
  2
3D Hidden
 70
     6
177
     2
291
     0
 71
     1
176
     1
 72
     2
176
     1
 73
     2
176
     1
 90
        0
176
     1
 40
-0.6
176
     1
 41
-30.0
176
     1
 62
     5
 63
     7
421
 16777215
176
     1
 74
     2
176
     1
 91
        2
176
     1
 64
     7
176
     1
 65
   257
176
     1
 75
     2
176
     1
175
     1
176
     1
 42
40.0
176
     1
 92
        0
176
     1
 66
   257
176
     1
 43
1.0
176
     1
 76
     1
176
     1
 77
     6
176
     1
 78
     2
176
     1
 67
     7
176
     1
 79
     3
176
     1
170
     0
176
     1
171
     0
176
     1
290
     0
176
     1
 93
        1
176
     1
 44
0.0
176
     1
173
     0
176
     1
  0
VISUALSTYLE
  5
30
102
{ACAD_REACTORS
330
2A
102
}
330
2A
100
AcDbVisualStyle
  2
3dWireframe
 70
     5
177
     2
291
     0
 71
     0
176
     1
 72
     2
176
     1
 73
     0
176
     1
 90
        0
176
     1
 40
-0.6
176
     1
 41
-30.0
176
     1
 62
     5
 63
     7
421
 16777215
176
     1
 74
     1
176
     1
 91
        4
176
     1
 64
     7
176
     1
 65
   257
176
     1
 75
     1
176
     1
175
     1
176
     1
 42
1.0
176
     1
 92
        0
176
     1
 66
   257
176
     1
 43
1.0
176
     1
 76
     1
176
     1
 77
     6
176
     1
 78
     2
176
     1
 67
     7
176
     1
 79
     5
176
     1
170
     0
176
     1
171
     0
176
     1
290
     0
176
     1
 93
        1
176
     1
 44
0.0
176
     1
173
     0
176
     1
  0
VISUALSTYLE
  5
32
102
{ACAD_REACTORS
330
2A
102
}
330
2A
100
AcDbVisualStyle
  2
Basic
 70
     7
177
     2
291
     1
 71
     1
176
     1
 72
     0
176
     1
 73
     1
176
     1
 90
        0
176
     1
 40
-0.6
176
     1
 41
-30.0
176
     1
 62
     5
 63
     7
421
 16777215
176
     1
 74
     0
176
     1
 91
        4
176
     1
 64
     7
176
     1
 65
   257
176
     1
 75
     1
176
     1
175
     1
176
     1
 42
1.0
176
     1
 92
        8
176
     1
 66
     7
176
     1
 43
1.0
176
     1
 76
     1
176
     1
 77
     6
176
     1
 78
     2
176
     1
 67
     7
176
     1
 79
     5
176
     1
170
     0
176
     1
171
     0
176
     1
290
     0
176
     1
 93
        1
176
     1
 44
0.0
176
     1
173
     0
176
     1
  0
VISUALSTYLE
  5
36
102
{ACAD_REACTORS
330
2A
102
}
330
2A
100
AcDbVisualStyle
  2
Brighten
 70
    12
177
     2
291
     1
 71
     2
176
     1
 72
     2
176
     1
 73
     0
176
     1
 90
        0
176
     1
 40
-0.6
176
     1
 41
-30.0
176
     1
 62
     5
 63
     7
421
 16777215
176
     1
 74
     1
176
     1
 91
        4
176
     1
 64
     7
176
     1
 65
   257
176
     1
 75
     1
176
     1
175
     1
176
     1
 42
1.0
176
     1
 92
        8
176
     1
 66
     7
176
     1
 43
1.0
176
     1
 76
     1
176
     1
 77
     6
176
     1
 78
     2
176
     1
 67
     7
176
     1
 79
     5
176
     1
170
     0
176
     1
171
     0
176
     1
290
     0
176
     1
 93
        1
176
     1
 44
50.0
176
     1
173
     0
176
     1
  0
VISUALSTYLE
  5
3A
102
{ACAD_REACTORS
330
2A
102
}
330
2A
100
AcDbVisualStyle
  2
ColorChange
 70
    16
177
     2
291
     1
 71
     2
176
     1
 72
     2
176
     1
 73
     3
176
     1
 90
        0
176
     1
 40
-0.6
176
     1
 41
-30.0
176
     1
 62
     5
 63
     8
421
  8421504
176
     1
 74
     1
176
     1
 91
        4
176
     1
 64
     7
176
     1
 65
   257
176
     1
 75
     1
176
     1
175
     1
176
     1
 42
1.0
176
     1
 92
        8
176
     1
 66
     8
424
  8421504
176
     1
 43
1.0
176
     1
 76
     1
176
     1
 77
     6
176
     1
 78
     2
176
     1
 67
     7
176
     1
 79
     5
176
     1
170
     0
176
     1
171
     0
176
     1
290
     0
176
     1
 93
        1
176
     1
 44
0.0
176
     1
173
     0
176
     1
  0
VISUALSTYLE
  5
34
102
{ACAD_REACTORS
330
2A
102
}
330
2A
100
AcDbVisualStyle
  2
Conceptual
 70
     9
177
     2
291
     0
 71
     3
176
     1
 72
     2
176
     1
 73
     0
176
     1
 90
        0
176
     1
 40
-0.6
176
     1
 41
-30.0
176
     1
 62
     5
 63
     7
421
 16777215
176
     1
 74
     2
176
     1
 91
        2
176
     1
 64
     7
176
     1
 65
   257
176
     1
 75
     1
176
     1
175
     1
176
     1
 42
40.0
176
     1
 92
        8
176
     1
 66
     7
176
     1
 43
1.0
176
     1
 76
     1
176
     1
 77
     6
176
     1
 78
     2
176
     1
 67
     7
176
     1
 79
     3
176
     1
170
     0
176
     1
171
     0
176
     1
290
     0
176
     1
 93
        1
176
     1
 44
0.0
176
     1
173
     0
176
     1
  0
VISUALSTYLE
  5
35
102
{ACAD_REACTORS
330
2A
102
}
330
2A
100
AcDbVisualStyle
  2
Dim
 70
    11
177
     2
291
     1
 71
     2
176
     1
 72
     2
176
     1
 73
     0
176
     1
 90
        0
176
     1
 40
-0.6
176
     1
 41
-30.0
176
     1
 62
     5
 63
     7
421
 16777215
176
     1
 74
     1
176
     1
 91
        4
176
     1
 64
     7
176
     1
 65
   257
176
     1
 75
     1
176
     1
175
     1
176
     1
 42
1.0
176
     1
 92
        8
176
     1
 66
     7
176
     1
 43
1.0
176
     1
 76
     1
176
     1
 77
     6
176
     1
 78
     2
176
     1
 67
     7
176
     1
 79
     5
176
     1
170
     0
176
     1
171
     0
176
     1
290
     0
176
     1
 93
        1
176
     1
 44
-50.0
176
     1
173
     0
176
     1
  0
VISUALSTYLE
  5
39
102
{ACAD_REACTORS
330
2A
102
}
330
2A
100
AcDbVisualStyle
  2
Facepattern
 70
    15
177
     2
291
     1
 71
     2
176
     1
 72
     2
176
     1
 73
     0
176
     1
 90
        0
176
     1
 40
-0.6
176
     1
 41
-30.0
176
     1
 62
     5
 63
     7
421
 16777215
176
     1
 74
     1
176
     1
 91
        4
176
     1
 64
     7
176
     1
 65
   257
176
     1
 75
     1
176
     1
175
     1
176
     1
 42
1.0
176
     1
 92
        8
176
     1
 66
     7
176
     1
 43
1.0
176
     1
 76
     1
176
     1
 77
     6
176
     1
 78
     2
176
     1
 67
     7
176
     1
 79
     5
176
     1
170
     0
176
     1
171
     0
176
     1
290
     0
176
     1
 93
        1
176
     1
 44
0.0
176
     1
173
     0
176
     1
  0
VISUALSTYLE
  5
2B
102
{ACAD_REACTORS
330
2A
102
}
330
2A
100
AcDbVisualStyle
  2
Flat
 70
     0
177
     2
291
     1
 71
     2
176
     1
 72
     1
176
     1
 73
     1
176
     1
 90
        2
176
     1
 40
-0.6
176
     1
 41
30.0
176
     1
 62
     5
 63
     7
421
 16777215
176
     1
 74
     0
176
     1
 91
        4
176
     1
 64
     7
176
     1
 65
   257
176
     1
 75
     1
176
     1
175
     1
176
     1
 42
1.0
176
     1
 92
        8
176
     1
 66
     7
176
     1
 43
1.0
176
     1
 76
     1
176
     1
 77
     6
176
     1
 78
     2
176
     1
 67
     7
176
     1
 79
     5
176
     1
170
     0
176
     1
171
     0
176
     1
290
     0
176
     1
 93
       13
176
     1
 44
0.0
176
     1
173
     0
176
     1
  0
VISUALSTYLE
  5
2C
102
{ACAD_REACTORS
330
2A
102
}
330
2A
100
AcDbVisualStyle
  2
FlatWithEdges
 70
     1
177
     2
291
     1
 71
     2
176
     1
 72
     1
176
     1
 73
     1
176
     1
 90
        2
176
     1
 40
-0.6
176
     1
 41
30.0
176
     1
 62
     5
 63
     7
421
 16777215
176
     1
 74
     1
176
     1
 91
        4
176
     1
 64
     7
176
     1
 65
   257
176
     1
 75
     1
176
     1
175
     1
176
     1
 42
1.0
176
     1
 92
        0
176
     1
 66
   257
176
     1
 43
1.0
176
     1
 76
     1
176
     1
 77
     6
176
     1
 78
     2
176
     1
 67
     7
176
     1
 79
     5
176
     1
170
     0
176
     1
171
     0
176
     1
290
     0
176
     1
 93
       13
176
     1
 44
0.0
176
     1
173
     0
176
     1
  0
VISUALSTYLE
  5
2D
102
{ACAD_REACTORS
330
2A
102
}
330
2A
100
AcDbVisualStyle
  2
Gouraud
 70
     2
177
     2
291
     1
 71
     2
176
     1
 72
     2
176
     1
 73
     1
176
     1
 90
        2
176
     1
 40
-0.6
176
     1
 41
30.0
176
     1
 62
     5
 63
     7
421
 16777215
176
     1
 74
     0
176
     1
 91
        4
176
     1
 64
     7
176
     1
 65
   257
176
     1
 75
     1
176
     1
175
     1
176
     1
 42
1.0
176
     1
 92
        0
176
     1
 66
     7
176
     1
 43
1.0
176
     1
 76
     1
176
     1
 77
     6
176
     1
 78
     2
176
     1
 67
     7
176
     1
 79
     5
176
     1
170
     0
176
     1
171
     0
176
     1
290
     0
176
     1
 93
       13
176
     1
 44
0.0
176
     1
173
     0
176
     1
  0
VISUALSTYLE
  5
2E
102
{ACAD_REACTORS
330
2A
102
}
330
2A
100
AcDbVisualStyle
  2
GouraudWithEdges
 70
     3
177
     2
291
     1
 71
     2
176
     1
 72
     2
176
     1
 73
     1
176
     1
 90
        2
176
     1
 40
-0.6
176
     1
 41
30.0
176
     1
 62
     5
 63
     7
421
 16777215
176
     1
 74
     1
176
     1
 91
        4
176
     1
 64
     7
176
     1
 65
   257
176
     1
 75
     1
176
     1
175
     1
176
     1
 42
1.0
176
     1
 92
        0
176
     1
 66
   257
176
     1
 43
1.0
176
     1
 76
     1
176
     1
 77
     6
176
     1
 78
     2
176
     1
 67
     7
176
     1
 79
     5
176
     1
170
     0
176
     1
171
     0
176
     1
290
     0
176
     1
 93
       13
176
     1
 44
0.0
176
     1
173
     0
176
     1
  0
VISUALSTYLE
  5
38
102
{ACAD_REACTORS
330
2A
102
}
330
2A
100
AcDbVisualStyle
  2
Linepattern
 70
    14
177
     2
291
     1
 71
     2
176
     1
 72
     2
176
     1
 73
     0
176
     1
 90
        0
176
     1
 40
-0.6
176
     1
 41
-30.0
176
     1
 62
     5
 63
     7
421
 16777215
176
     1
 74
     1
176
     1
 91
        4
176
     1
 64
     7
176
     1
 65
   257
176
     1
 75
     7
176
     1
175
     7
176
     1
 42
1.0
176
     1
 92
        8
176
     1
 66
     7
176
     1
 43
1.0
176
     1
 76
     1
176
     1
 77
     6
176
     1
 78
     2
176
     1
 67
     7
176
     1
 79
     5
176
     1
170
     0
176
     1
171
     0
176
     1
290
     0
176
     1
 93
        1
176
     1
 44
0.0
176
     1
173
     0
176
     1
  0
VISUALSTYLE
  5
33
102
{ACAD_REACTORS
330
2A
102
}
330
2A
100
AcDbVisualStyle
  2
Realistic
 70
     8
177
     2
291
     0
 71
     2
176
     1
 72
     2
176
     1
 73
     0
176
     1
 90
        0
176
     1
 40
-0.6
176
     1
 41
-30.0
176
     1
 62
     5
 63
     7
421
 16777215
176
     1
 74
     1
176
     1
 91
        0
176
     1
 64
     7
176
     1
 65
   257
176
     1
 75
     1
176
     1
175
     1
176
     1
 42
1.0
176
     1
 92
        8
176
     1
 66
     8
424
  7895160
176
     1
 43
1.0
176
     1
 76
     1
176
     1
 77
     6
176
     1
 78
     2
176
     1
 67
     7
176
     1
 79
     5
176
     1
170
     0
176
     1
171
     0
176
     1
290
     0
176
     1
 93
       13
176
     1
 44
0.0
176
     1
173
     0
176
     1
  0
VISUALSTYLE
  5
37
102
{ACAD_REACTORS
330
2A
102
}
330
2A
100
AcDbVisualStyle
  2
Thicken
 70
    13
177
     2
291
     1
 71
     2
176
     1
 72
     2
176
     1
 73
     0
176
     1
 90
        0
176
     1
 40
-0.6
176
     1
 41
-30.0
176
     1
 62
     5
 63
     7
421
 16777215
176
     1
 74
     1
176
     1
 91
        4
176
     1
 64
     7
176
     1
 65
   257
176
     1
 75
     1
176
     1
175
     1
176
     1
 42
1.0
176
     1
 92
       12
176
     1
 66
     7
176
     1
 43
1.0
176
     1
 76
     1
176
     1
 77
     6
176
     1
 78
     2
176
     1
 67
     7
176
     1
 79
     5
176
     1
170
     0
176
     1
171
     0
176
     1
290
     0
176
     1
 93
        1
176
     1
 44
0.0
176
     1
173
     0
176
     1
  0
ENDSEC
  0
EOF
