<?xml version="1.0" encoding="iso-8859-1"?>
<!-- Generator: Adobe Illustrator 21.0.0, SVG Export Plug-In . SVG Version: 6.00 Build 0)  -->
<svg version="1.1" id="Layer_1" xmlns="http://www.w3.org/2000/svg" xmlns:xlink="http://www.w3.org/1999/xlink" x="0px" y="0px"
	 width="612px" height="792px" viewBox="0 0 612 792" enable-background="new 0 0 612 792" xml:space="preserve">
<path fill="#00A79D" d="M81.385,311.464c0.121-0.483,0.424-0.951,0.909-1.402c1.025-0.933,2.156-1.273,3.395-1.018
	c0.488,0.1,2.533,0.858,6.135,2.275c1.149-1.247,2.294-2.388,3.437-3.424c1.232-1.018,2.445-1.405,3.64-1.159
	c0.797,0.164,1.479,0.6,2.047,1.31c0.998,1.221,1.378,2.591,1.139,4.109c-0.362,1.451-0.64,2.749-0.832,3.896l5.084,2.568
	c1.895,0.982,2.691,2.268,2.388,3.858c-0.312,1.249-1.441,2.139-3.389,2.672l-6.004,1.119c-0.378,2.633-0.677,4.393-0.899,5.28
	c-0.432,1.732-1.479,2.661-3.139,2.787c-0.473,0.03-0.909,0.004-1.307-0.077c-1.285-0.264-2.264-1.186-2.941-2.764l-1.577-3.754
	l-5.21,0.456c-0.901,0.069-1.662,0.04-2.282-0.087c-1.018-0.209-1.738-0.728-2.16-1.556c-0.422-0.828-0.552-1.565-0.392-2.209
	c0.201-0.806,0.895-1.765,2.079-2.877c1.185-1.113,2.234-2.189,3.145-3.231l-2.156-3.111
	C81.505,313.691,81.134,312.471,81.385,311.464z"/>
<path fill="#EC008C" d="M48.366,292.361c0.121-0.483,0.424-0.951,0.909-1.402c1.025-0.933,2.156-1.273,3.395-1.018
	c0.488,0.1,2.533,0.858,6.135,2.275c1.149-1.247,2.294-2.388,3.437-3.424c1.232-1.018,2.445-1.405,3.64-1.159
	c0.797,0.164,1.479,0.6,2.047,1.31c0.998,1.221,1.378,2.591,1.139,4.109c-0.362,1.451-0.64,2.749-0.832,3.896l5.084,2.568
	c1.895,0.982,2.691,2.268,2.388,3.858c-0.312,1.249-1.441,2.139-3.389,2.672l-6.004,1.119c-0.378,2.633-0.677,4.393-0.899,5.28
	c-0.432,1.732-1.479,2.661-3.139,2.787c-0.473,0.03-0.909,0.004-1.307-0.077c-1.285-0.264-2.264-1.186-2.941-2.764l-1.577-3.754
	l-5.21,0.456c-0.901,0.069-1.662,0.04-2.282-0.087c-1.018-0.209-1.738-0.728-2.16-1.556c-0.422-0.828-0.552-1.565-0.392-2.209
	c0.201-0.806,0.895-1.765,2.079-2.877c1.185-1.113,2.234-2.189,3.145-3.231l-2.156-3.111
	C48.486,294.588,48.115,293.368,48.366,292.361z"/>
<path fill="#00A79D" d="M538.806,311.022c0.121-0.483,0.424-0.951,0.909-1.402c1.025-0.933,2.156-1.273,3.395-1.018
	c0.488,0.1,2.533,0.858,6.135,2.275c1.149-1.247,2.294-2.388,3.437-3.424c1.232-1.018,2.445-1.405,3.64-1.159
	c0.797,0.164,1.479,0.6,2.047,1.31c0.998,1.221,1.378,2.591,1.139,4.109c-0.362,1.451-0.64,2.749-0.832,3.896l5.084,2.568
	c1.895,0.982,2.691,2.268,2.388,3.858c-0.312,1.249-1.441,2.139-3.389,2.672l-6.004,1.119c-0.378,2.633-0.677,4.393-0.899,5.28
	c-0.432,1.732-1.479,2.661-3.139,2.787c-0.473,0.03-0.909,0.004-1.307-0.077c-1.285-0.264-2.264-1.186-2.941-2.764l-1.577-3.754
	l-5.21,0.456c-0.901,0.069-1.662,0.04-2.282-0.087c-1.018-0.209-1.738-0.728-2.16-1.556c-0.422-0.828-0.552-1.565-0.392-2.209
	c0.201-0.806,0.895-1.765,2.079-2.877c1.185-1.113,2.234-2.189,3.145-3.231l-2.156-3.111
	C538.926,313.248,538.555,312.028,538.806,311.022z"/>
<g>
	<path fill="#00A79D" d="M294.611,322.801c-0.69-1.498,8.152-2.421,7.268-0.23c0.49,12.455,1.669,24.909,4.913,37.19l3.244,0.289
		c2.454,0.23,1.175,1.845,0,1.614c-0.59-0.116-1.574-0.116-2.754-0.116c0.69,2.48,1.474,5.016,2.459,7.496l1.964,3.402
		c1.275,0.749-2.754,1.326-3.539,0.403c-2.849-3.402-4.713-7.208-6.188-11.128c-5.798,0.288-13.46,0.923-19.553,1.21
		c-1.474,3.287-2.654,6.4-3.239,9.111c-0.295,1.037-4.818,1.556-5.408,0.288c-0.095-0.231,1.28-3.921,3.439-9.226
		c-3.044,0.058-5.108-0.173-5.108-0.75c0-0.634,0.2-1.845,1.08-1.441l5.113-0.519C284,346.327,293.232,324.647,294.611,322.801z
		 M301.194,359.474c-2.854-9.571-2.754-19.777-3.439-27.043c-4.129,8.476-9.827,18.567-14.05,27.504
		C289.498,359.531,295.396,359.3,301.194,359.474z"/>
	<path fill="#00A79D" d="M317.698,373.716c0-11.648-2.454-38.979,4.913-49.357c1.375-1.845,4.129-0.923,6.388-0.231
		c0.785,4.152,10.217,22.43,16.11,35.865c1.669-13.954,1.28-28.542,4.718-36.96c-1.08-1.326,2.554-0.693,3.634,0.116
		c3.634,2.768-5.303,37.248-4.224,47.8l0.295,1.038h-0.1c0,0.114,0,0.288,0.1,0.461c-2.064,0.172-5.698,0.691-6.583-0.866
		c-1.375-2.594-11.101-25.658-16.799-38.862c-2.459,14.242,3.439,35.287-4.324,40.419
		C321.332,373.484,317.698,375.445,317.698,373.716z"/>
	<path fill="#00A79D" d="M361.619,322.686c6.778-1.037,16.699-1.153,23.972,0.75c29.865,7.784,20.633,58.756-27.311,49.011
		c-2.559-0.519-1.38-3.345,1.47-2.019c1.674,0.346,3.344,0.519,4.913,0.635v-0.173c-0.59-3.978,0.195-32.116,0.785-45.379
		c-1.669,0.289-3.044,0.635-3.534,0.865C361.129,326.723,358.18,323.205,361.619,322.686z M372.82,324.82
		c1.864,8.361-2.949,41.689-3.344,46.358C401.605,369.967,399.151,326.03,372.82,324.82z"/>
</g>
<g>
	<path fill="#EC008C" d="M257.609,407.262c1.859,0.821,3.979,1.01,5.823,0.573c3.429-0.869,6.318-2.574,8.937-5.113
		c2.352-2.325,3.914-4.643,4.151-6.952c0.24-2.306-0.837-3.763-3.229-4.787c-2.654-0.814-7.408-0.141-14.258,2.228
		c-3.414,1.919-5.508,3.823-6.015,5.714c-0.772,1.893-0.49,3.564,0.322,5.023C254.148,405.409,255.75,406.651,257.609,407.262z"/>
	<path fill="#EC008C" d="M469.433,428.736c-1.852,0.018-3.169,0.45-3.951,1.294c-2.342,3.585-6.005,6.76-10.466,9.945
		s-9.189,5.954-13.655,8.509l-2.642-22.811c-0.875-7.115-1.477-13.604-1.812-19.676c-0.025-2.096-0.835-3.765-2.699-4.794
		c-1.864-1.029-3.721-1.431-5.836-1.411c-2.382,0.023-4.491,0.461-6.333,1.316c-2.104,1.066-3.411,2.337-3.656,4.224l0.003,0.21
		c-0.492,3.148-1.507,6.928-3.049,10.924c-1.075-1.458-2.677-2.7-4.803-3.727c-2.124-0.818-4.511-1.215-6.893-1.402
		c-2.647-0.185-5.291,0.05-7.662,0.491c-2.374,0.651-4.479,1.509-6.053,2.78c-2.884,2.123-5.236,4.869-7.048,8.236
		c-1.725,3.209-2.963,6.415-3.269,9.791l-5.521,7.264l-6.778,8.652c-2.347,2.955-4.961,5.703-7.572,8.451
		c-2.617,2.748-5.498,5.079-8.647,7.205c0.415-10.061,1.619-20.129,3.356-30.201c1.739-9.863,2.417-19.926,2.304-29.981
		c-0.027-2.305-0.322-4.816-0.88-7.533c-0.56-2.719-1.647-5.223-2.996-7.724c-1.352-2.292-3.221-4.37-5.623-6.024
		c-2.399-1.651-5.583-2.461-9.022-2.429c-4.231,0.04-8.182,1.544-11.849,4.72c-3.931,3.18-7.328,6.773-10.194,10.782
		c-3.124,4.22-5.721,8.433-8.05,12.854l-5.171,10.316c-0.81-1.459-1.619-2.708-2.957-3.953c-1.335-1.244-3.194-1.855-5.046-1.838
		c-0.527,0.006-1.587,0.015-2.907,0.237s-2.107,0.648-2.102,1.277c0.023,1.886,0.57,3.555,1.644,5.013
		c1.077,1.666,1.629,3.545,1.649,5.43c0.018,1.467,0.033,2.724-0.217,3.984l-0.396,3.253c-0.152,0.17-0.276,0.346-0.349,0.524
		c-3.119,4.85-6.25,8.649-9.129,11.399c-2.877,2.751-5.498,4.87-7.865,6.15c-2.364,1.28-4.476,1.718-5.801,1.521
		c-1.589-0.194-2.392-0.815-2.674-2.279c-1.957-9.409-1.529-18.212,1.547-26.831c1.282-3.572,1.515-6.299,1.23-8.182
		s-1.097-3.342-2.427-3.959c-1.33-0.615-3.184-1.017-5.033-0.79c-1.852,0.227-3.691,0.873-5.271,1.516
		c-1.844,0.645-3.156,1.496-4.204,2.553c-1.312,1.06-1.829,1.902-1.559,2.529c-0.505,1.89-1.007,4.41-1.505,7.137
		c-0.762,2.731-1.257,5.668-1.49,8.603c-0.1,1.28-0.197,2.557-0.275,3.819c-2.756,4.762-5.025,8.964-6.937,12.591
		c-2.329,4.421-4.663,8.424-7.008,11.798c-2.339,3.374-5.218,6.334-8.097,8.875c-2.882,2.541-6.82,4.883-11.556,7.231
		c-5.301-0.997-9.292-3.264-11.714-6.802c-2.687-3.537-4.581-7.291-5.426-11.891c-1.107-4.388-1.687-8.784-1.472-13.186
		c-0.052-4.397-0.097-8.378,0.132-11.523c0.245-1.47,0.227-3.146,0.47-5.033c-0.02-1.676,0.225-3.564,0.467-5.451
		c4.446-4.441,8.88-9.931,13.825-16.891c4.683-6.748,9.097-13.912,13.243-21.494c3.879-7.578,7.497-15.155,10.581-22.935
		c3.089-7.571,5.391-14.297,6.648-20.175c0.747-3.988,1.24-7.344,0.945-10.065c-0.295-2.512-1.907-4.592-4.304-6.246
		c-0.003-0.209-0.003-0.209,0.257-0.42l-0.525,0.214c-2.134-1.445-5.321-2.464-9.562-3.471c-1.327-0.407-2.914-0.392-4.231,0.04
		c-1.582,0.644-2.896,1.284-4.214,1.926c-4.723,2.977-8.915,6.578-12.303,10.8c-3.389,4.433-6.51,9.07-8.837,13.91
		c-2.589,4.844-4.648,9.892-6.44,14.937c-1.794,5.045-3.594,9.671-4.868,13.874c-2.047,6.095-3.821,12.605-5.598,19.327
		c-1.772,6.93-3.014,13.854-3.996,20.778c-0.977,6.923-1.424,14.05-1.345,20.964c0.001,0.078,0.005,0.154,0.006,0.232
		c-3.122,2.906-6.487,5.236-9.963,6.983c-5.523,2.776-11.314,5.136-17.117,6.656c2.334-4.003,4.404-8.212,5.94-12.626
		c1.537-4.414,2.019-8.19,1.722-11.33c-0.307-3.768-1.929-6.686-4.331-8.548c-2.402-1.863-5.326-3.093-8.767-3.481
		c-3.444-0.385-6.878-0.145-10.571,0.938c-3.954,1.085-7.372,2.794-10.259,4.915c-4.978,3.816-9.159,8.255-12.273,13.523
		c-3.114,5.267-5.701,10.318-8.022,15.579c-0.845-4.393-1.707-10.46-2.587-17.994c5.483-6.127,10.699-12.878,15.902-20.261
		c4.941-7.38,9.614-14.965,14.023-22.759c4.406-7.792,8.022-15.579,11.371-23.362s5.913-14.931,7.685-21.86
		c1.012-3.991,1.5-7.766,1.724-11.119c-0.037-3.352-1.135-6.904-3.029-10.446c-1.592-0.614-3.454-1.435-5.841-2.041
		c-6.093-0.781-11.639,0.109-16.639,2.461c-4.996,2.352-9.189,5.743-13.106,10.18c-3.916,4.437-7.033,9.494-9.877,15.177
		c-2.847,5.683-5.423,11.574-7.737,17.252c-2.317,5.679-4.106,11.143-5.636,16.395c-1.527,5.251-2.799,9.453-4.084,12.817
		c-1.027,2.734-1.787,5.675-2.014,8.82c-0.23,3.143-0.725,6.081-1.487,8.812c-0.745,4.407-1.479,9.442-1.679,15.1
		c-0.197,5.867-0.13,11.734,0.73,17.592c0.862,6.067,1.984,11.714,3.901,17.352c1.914,5.43,4.346,10.016,7.562,13.757
		c6.128,3.714,12.208,3.448,18.241-0.799c2.327-4.842,4.126-9.468,5.131-14.085c1.005-4.618,2.274-9.24,3.549-13.653
		c1.27-4.411,3.601-8.623,6.463-12.84c2.862-4.008,7.313-8.03,13.358-11.649c1.904,4.801,1.962,9.829,0.435,15.081
		c-1.789,5.253-4.381,10.097-7.77,14.53l-2.602,3.796c-1.844,0.645-3.684,1.501-5.528,2.147c-1.842,0.856-3.681,1.921-5.521,2.985
		l-0.77,1.892c0.812,1.878,2.149,2.913,4.004,3.525c1.859,0.61,3.714,0.802,5.828,0.572c2.112-0.228,4.221-0.877,6.328-1.524
		c1.844-0.647,3.424-1.499,4.738-2.141l4.451-3.811c3.431-0.87,7.123-1.953,11.601-3.462c4.478-1.508,8.692-3.223,13.158-5.57
		c3.39-1.619,6.625-3.48,9.819-5.67c0.425,4.097,1.137,8.116,2.147,12.054c1.1,3.762,2.197,7.102,3.551,9.813
		c1.352,2.711,2.966,5.002,4.841,7.078c1.874,2.077,4.543,3.938,7.47,5.587c2.927,1.438,6.383,2.872,10.629,4.298
		c4.513,1.425,8.74,1.176,13.218-0.542c4.214-1.717,7.89-3.844,10.774-6.177c3.669-2.967,6.548-5.718,8.9-8.046
		c2.357-2.327,4.441-5.07,6.523-8.023c1.891-2.871,3.991-6.271,6.108-10.183c2.422,4.597,5.36,7.531,8.947,8.996
		c4.518,1.843,9.014,1.801,14.018-0.131c5.006-1.933,9.729-5.119,14.703-9.776c1.207-1.193,2.378-2.43,3.51-3.709
		c-0.171,3.193-0.313,6.303-0.276,9.545c0.023,1.885,1.095,3.341,2.962,4.58c1.864,1.031,3.986,1.639,6.103,1.618
		c1.322-0.011,2.904-0.447,4.481-1.299c1.307-1.059,2.089-2.113,2.077-3.369l-0.1-8.59c-0.302-3.35-0.068-6.076,0.17-8.383
		l0.755-3.357l1.022-2.943c0.765-2.73,2.049-6.095,3.854-10.094c1.807-3.996,3.609-8.203,5.943-12.415
		c2.072-4.001,4.406-8.003,6.743-11.586c2.342-3.584,4.953-6.542,7.575-8.453c0.805,0.832,1.35,2.083,1.627,3.547l0.85,4.81
		c0.285,1.673,0.305,3.349,0.585,4.813l0.045,3.98c0.08,6.912-0.372,13.62-1.619,20.336c-1.245,6.716-1.962,13.427-1.884,20.34
		c0.038,3.143,0.078,6.704,0.387,10.681c0.045,3.98,0.877,7.325,2.497,10.243c0.805,0.83,1.872,1.658,2.939,2.487
		c0.8,0.62,2.127,1.027,3.716,1.222c1.325,0.197,3.176,0.18,5.286-0.469l5.531-1.937c2.109-0.648,4.991-2.98,8.917-6.579
		c3.929-3.598,7.582-7.822,11.499-12.26c2.513-3.051,4.887-6.097,7.065-9.078c0.895,2.692,2.405,5.013,4.536,6.665
		c2.404,2.073,5.328,3.303,9.032,3.477c3.706,0.175,8.187-0.916,13.451-3.479c1.579-0.643,3.411-2.126,5.503-4.452
		c2.092-2.114,4.179-4.648,6.528-7.392l2.069,19.254c-4.471,2.138-8.944,4.274-12.886,6.407c-3.944,2.132-7.885,4.472-11.291,7.02
		c-3.409,2.546-6.813,5.512-9.687,8.679c-2.874,3.17-5.743,6.758-8.072,11.181c-2.337,3.793-3.609,8.414-3.549,13.651
		c0.06,5.237,0.912,10.257,2.824,15.476c1.909,5.22,4.346,10.017,7.835,14.382c3.224,4.369,6.96,7.477,11.219,9.741
		c5.048,2.258,9.817,2.841,14.565,1.75c4.486-1.091,8.692-3.226,12.626-6.406c3.929-3.178,7.325-6.982,10.184-11.407
		c2.859-4.427,4.661-8.845,5.933-13.255c2.027-7.771,2.979-16.999,2.857-27.682c-0.387-10.681-1.04-21.779-2.229-33.081
		c6.04-3.618,11.554-7.442,16.797-11.262c5.248-3.821,9.699-7.842,13.091-12.065C472.09,429.759,471.287,428.928,469.433,428.736z
		 M204.459,384.716c1.779-6.092,3.564-11.975,5.878-17.864c2.047-5.675,4.369-11.143,6.953-16.407
		c2.584-5.262,5.441-9.897,8.302-14.114c0.555,2.3,0.845,4.392,1.132,6.484c0.292,2.301,0.047,4.189-0.197,5.867
		c-0.5,2.729-1.517,6.091-3.059,10.086c-1.804,4.207-3.866,8.836-6.193,13.675c-2.324,4.841-5.176,9.897-8.022,15.16
		c-2.852,5.264-5.971,10.113-9.087,14.962C201.42,396.686,202.675,390.808,204.459,384.716z M98.785,417.973l3.181-22.657
		c1.225-8.601,2.974-17.416,5.518-26.241c2.547-8.612,5.891-16.815,10.304-24.188c4.144-7.372,9.642-12.662,16.215-16.076
		c0.272,0.835,0.815,1.878,1.095,3.133l0.84,4.182c0.28,1.464,0.297,2.93,0.312,4.188c0.018,1.465,0.028,2.514-0.227,3.354
		c-0.992,5.666-2.774,11.758-5.346,18.068c-2.574,6.308-5.676,12.623-9.039,19.149c-3.364,6.527-7.258,12.848-11.154,19.17
		L98.785,417.973z M404.725,436.887c-2.857,4.635-5.993,8.017-8.872,10.349c-2.137-1.865-3.224-4.37-3.001-7.932
		c-0.037-3.353,0.72-6.711,2.264-10.079c1.287-3.364,3.369-6.107,5.723-8.433c2.354-2.327,4.728-2.976,7.378-2.373
		c1.327,0.407,2.392,1.026,2.932,1.859c0.275,0.833,0.812,1.667,1.614,2.287C410.438,427.405,407.581,432.25,404.725,436.887z
		 M422.459,507.533c-0.725,5.874-2.252,11.125-4.049,15.96c-2.064,4.63-4.931,8.218-8.34,10.764c-0.003-0.21-0.003-0.21-0.267-0.206
		c-2.399-1.445-4.269-3.102-5.613-4.975c-1.347-2.082-2.692-4.165-3.506-6.044c-1.352-2.711-2.442-5.422-3.531-8.345
		c-1.092-2.924-1.919-5.849-2.219-8.99c-0.302-3.139-0.335-6.073,0.162-9.009c0.23-2.935,1.257-5.669,2.812-8.407
		c2.339-3.584,5.471-7.174,9.929-10.778c4.189-3.601,8.912-6.996,14.428-10.401c0.61,7.119,0.957,14.236,1.297,21.147
		C423.641,495.161,423.186,501.449,422.459,507.533z"/>
</g>
<path d="M516.742,235.783c-10.981,9.076-20.313,14.521-31.294,21.521c-5.766-8.556-11.531-17.113-15.647-25.67l-0.55-0.777
	c9.609-5.446,26.079-21.781,15.372-29.819c-11.804-8.816-27.176-0.779-31.294,16.076c-1.482,6.065-0.825,11.962,0.975,17.655
	c-11.793,27.192-27.911,62.998-37.485,66.874c-21.963-31.115-24.707-58.601-38.707-75.454c10.432-8.297,24.707-19.447,32.942-21.004
	c1.647-0.258-1.922-5.445-6.588-4.148c-9.334,2.593-26.354,12.965-34.863,18.15l1.922-15.557
	c21.41-29.559,59.02-98.013,46.667-108.385c-23.06-19.188-45.02,34.226-49.139,43.302c-11.183,24.199-21.91,87.227-20.253,130.619
	c-0.898,0.187-1.779,0.754-2.41,1.813c-7.96,7.778-16.469,9.075-23.882,6.741c6.588-10.631,10.706-22.818,9.882-32.93
	c-1.372-17.114-17.294-27.226-35.686-18.151c-5.766,2.853-8.785,7.001-10.159,11.668c-1.372,0.26-2.744,1.038-4.666,2.593
	c-9.746,8.497-15.059,21.014-16.408,32.654c-7.079,5.464-14.425,6.212-20.927,4.165c6.588-10.631,10.706-22.818,9.882-32.93
	c-1.372-17.114-17.294-27.226-35.686-18.151c-5.766,2.853-8.785,7.001-10.159,11.668c-1.372,0.26-2.744,1.038-4.666,2.593
	c-2.089,1.822-3.968,3.834-5.655,5.977c-0.47,0.344-0.868,0.763-1.139,1.275c-4.391,7.778-17.569,15.039-29.098,19.706
	c1.097-3.111,1.919-5.964,2.469-9.075c0.275-2.074,0.55-5.186,0.55-8.557c0-4.927-0.55-10.371-2.472-13.484
	c-3.569-6.222-8.51-8.556-13.725-8.556c-12.353,0-26.079,13.482-29.098,24.373c-1.1,3.63-1.375,7.001-1.375,9.853
	c0,11.149,6.041,18.409,19.216,19.188c-3.566,9.075-8.785,16.853-13.725,18.669c-1.097,0-2.194,0.26-3.294,0.26
	c-3.294,0-4.666-3.112-5.766-6.483c-1.919-7.001-6.038-18.669-8.785-59.378c17.022-23.855,62.592-63.786,62.592-97.494
	c0-8.815-3.019-17.113-10.706-24.633c-1.922-1.037-3.844-1.815-6.04-2.593c-1.647-0.258-3.019-0.258-4.666-0.258
	c-34.863,0-48.041,67.934-55.451,91.529c-2.197,6.742-2.472,15.04-3.844,21.781c-1.372,7.001-1.922,15.817-1.922,25.152
	c0,19.446,3.294,41.487,12.078,53.932c4.941,4.409,13.725,6.483,21.138,6.483c1.372,0,2.744-0.26,4.119-0.26
	c14.823,0,27.176-14.002,34.588-29.559c8.275-2.691,17.218-6.903,24.813-11.945c-2.953,12.064-1.666,24.19,3.394,31.141
	c2.744,3.63,7.138,5.186,11.529,5.704c12.903,1.556,26.354-7.26,36.238-19.706c8.162,2.892,17.084,2.769,25.299-2.276
	c0.309,6.483,1.967,12.251,4.899,16.278c2.744,3.63,7.138,5.186,11.529,5.704c12.903,1.556,26.354-7.26,36.238-19.706
	c10.236,3.626,21.666,2.515,31.399-7.107c0.927,11.805,2.949,21.673,6.362,28.176c1.647,3.111,16.744,5.964,15.647,0
	c-2.747-16.076-4.119-40.19-3.021-66.897c9.059,25.41,21.413,80.121,51.06,74.157c2.153-0.452,4.231-1.431,6.238-2.844
	c-18.448,31.288-4.388,62.198,13.802,69.741c35.688,14.78,77.414-14.002,71.649-64.563c-0.275-18.151-10.157-34.746-20.863-50.303
	c12.353-8.038,24.157-15.816,32.942-24.892C524.43,234.746,519.214,234.228,516.742,235.783z M403.915,111.322
	c-3.019,17.373-16.469,47.192-28.276,68.972C381.13,154.365,390.19,129.733,403.915,111.322z M152.921,120.841
	c4.119,6.223,5.766,12.447,5.766,18.928c0,24.892-25.804,51.34-43.923,73.121C119.705,180.479,129.587,134.585,152.921,120.841z
	 M149.078,258.785c0,4.148-1.097,9.594-2.744,15.039c-7.138-0.26-10.432-5.185-10.432-10.89c0-8.556,6.588-19.188,16.469-22.299
	C152.372,244.265,149.078,251.525,149.078,258.785z M207.757,294.057c-10.706-6.222-12.628-26.707,0.55-45.635
	c1.647,9.853,8.785,20.743,18.391,28.263C221.757,285.501,215.444,292.76,207.757,294.057z M236.307,248.422
	c-0.825,5.185-2.747,12.445-5.491,19.446c-8.237-9.852-11.256-24.113-1.922-33.189C235.483,234.679,237.13,244.015,236.307,248.422z
	 M285.721,294.057c-10.706-6.222-12.628-26.707,0.55-45.635c1.647,9.853,8.785,20.743,18.391,28.263
	C299.721,285.501,293.408,292.76,285.721,294.057z M314.271,248.422c-0.825,5.185-2.747,12.445-5.491,19.446
	c-8.237-9.852-11.256-24.113-1.922-33.189C313.447,234.679,315.094,244.015,314.271,248.422z M478.585,205.446
	c3.019,4.408-4.941,13.484-11.256,18.669C465.957,215.559,468.701,205.965,478.585,205.446z M469.251,263.008l1.922,3.63
	c-7.687,5.186-16.197,11.927-26.629,20.744c-1.87,1.59-3.623,3.195-5.279,4.809c7.775-13.945,14.267-32.354,19.896-46.273
	C462.371,251.912,466.182,257.626,469.251,263.008z M478.585,353.242c-9.334,9.594-25.257,17.633-31.844,14.521
	c-33.216-16.335-14.275-56.266,5.491-75.973c6.313-6.223,14-12.187,22.51-17.632C486.82,301.903,491.761,339.5,478.585,353.242z"/>
<g>
	<path fill="#BCBEC0" d="M551.497,389.225l5.72-13.649c-20.549-16.678-39.868-16.788-48.905-15.599l-5.956,14.305
		C510.866,372.992,530.486,372.517,551.497,389.225z"/>
	<path fill="#EC008C" d="M557.216,375.576l7.631-18.21c0,0-16.948-22.434-49.117-15.208l-7.419,17.819
		C517.348,358.788,536.667,358.898,557.216,375.576z"/>
	<polygon points="479.369,494.903 497.613,481.524 474.677,472.948 	"/>
	<g>
		<path fill="#FFF200" d="M536.018,426.159l15.478-36.934c-21.01-16.708-40.631-16.233-49.141-14.943l-15.375,36.926l-15.488,37.199
			l7.649-1.487l3.621,9.048l10.616-3.725l3.875,9.143l10.87-3.629l4.105,8.637l7.639-1.699L536.018,426.159z"/>
		<polygon fill="#E5B27F" points="512.23,466.393 508.125,457.757 497.255,461.386 493.379,452.243 482.763,455.968 479.142,446.92 
			471.493,448.407 470.13,451.679 474.677,472.948 497.613,481.524 519.563,465.426 519.869,464.695 		"/>
	</g>
</g>
<g>
	<path fill="#00A79D" d="M274.622,141.935c-1.351-4.837-5.947-8.173-10.923-7.645c-4.208,0.446-7.449,3.524-8.404,7.48
		l-70.665-12.459l-4.343,65.524l72.428,18.009c5.405,1.344,11.078,1.545,16.582,0.588l77.789-13.526l-0.799-69.182L274.622,141.935z
		"/>
	<path fill="#00A79D" d="M188.498,123.71c21.787,4.938,43.574,9.876,65.361,14.813c1.32,0.299,1.938-1.652,0.666-2.078
		c-21.034-7.046-42.067-14.092-63.101-21.138c-1.449-0.485-2.419,1.512-0.965,1.999c21.034,7.046,42.067,14.092,63.101,21.138
		c0.222-0.693,0.444-1.386,0.666-2.078c-21.787-4.938-43.574-9.876-65.361-14.813C187.361,121.211,187.008,123.372,188.498,123.71
		L188.498,123.71z"/>
	<path fill="#00A79D" d="M339.95,116.83c-21.254,6.578-42.507,13.155-63.761,19.733c-1.261,0.39-0.744,2.366,0.592,2.095
		c21.882-4.436,43.765-8.872,65.647-13.308c1.496-0.303,1.233-2.474-0.279-2.167c-21.882,4.436-43.765,8.872-65.647,13.308
		c0.197,0.698,0.395,1.397,0.592,2.095c21.254-6.578,42.507-13.155,63.761-19.733C342.32,118.399,341.415,116.377,339.95,116.83
		L339.95,116.83z"/>
</g>
<path fill="#EC008C" d="M61.516,387.606c-0.711,0-1.37-0.377-1.729-0.994l-7.078-12.164l-15.137-1.615
	c-0.778-0.083-1.437-0.613-1.685-1.355c-0.248-0.743-0.04-1.562,0.532-2.096l10.494-9.795l-2.937-13.345
	c-0.163-0.737,0.104-1.503,0.689-1.98c0.584-0.477,1.387-0.583,2.078-0.276l13.717,6.115l13.327-6.78
	c0.671-0.34,1.475-0.277,2.083,0.165c0.608,0.442,0.917,1.188,0.799,1.931l-2.134,13.474l11.075,9.273
	c0.601,0.504,0.853,1.313,0.643,2.068c-0.21,0.756-0.842,1.319-1.617,1.441l-15.006,2.357L63.3,386.511
	c-0.332,0.653-0.994,1.073-1.726,1.094C61.554,387.605,61.535,387.606,61.516,387.606z M42.35,369.32l11.792,1.258
	c0.633,0.067,1.196,0.433,1.516,0.983l5.738,9.862l5.132-10.115c0.291-0.573,0.839-0.971,1.473-1.071l11.668-1.833L71.1,361.23
	c-0.539-0.452-0.801-1.152-0.691-1.847l1.698-10.719l-10.681,5.434c-0.537,0.273-1.169,0.289-1.721,0.044l-10.969-4.89l2.33,10.588
	c0.152,0.69-0.072,1.409-0.588,1.892L42.35,369.32z"/>
<path fill="#EC008C" d="M538.092,301.402c-0.711,0-1.37-0.377-1.729-0.994l-7.078-12.163l-15.137-1.616
	c-0.778-0.083-1.438-0.613-1.686-1.355c-0.247-0.742-0.039-1.561,0.533-2.095l10.494-9.796l-2.938-13.344
	c-0.162-0.737,0.104-1.503,0.689-1.98c0.585-0.478,1.392-0.583,2.078-0.277l13.717,6.115l13.327-6.78
	c0.673-0.34,1.477-0.277,2.083,0.165c0.608,0.442,0.917,1.188,0.8,1.931l-2.135,13.474l11.075,9.273
	c0.602,0.503,0.853,1.312,0.643,2.068c-0.209,0.756-0.842,1.319-1.616,1.441l-15.007,2.357l-6.332,12.481
	c-0.331,0.653-0.993,1.073-1.726,1.094C538.13,301.402,538.11,301.402,538.092,301.402z M518.925,283.116l11.791,1.259
	c0.634,0.068,1.196,0.433,1.517,0.983l5.739,9.861l5.132-10.115c0.29-0.573,0.838-0.971,1.473-1.071l11.668-1.833l-8.568-7.174
	c-0.539-0.451-0.801-1.152-0.691-1.846l1.698-10.719l-10.682,5.434c-0.539,0.273-1.171,0.289-1.722,0.044l-10.968-4.89l2.33,10.587
	c0.152,0.69-0.071,1.41-0.589,1.892L518.925,283.116z"/>
<g>
	<path fill="#EC008C" d="M120.332,120.378c-7.163,0.017-11.867-4.929-11.525-11.89c0.296-6.019,6.56-11.276,11.709-8.895
		c1.485,0.687,3.152,0.925,4.643,1.601c5.736,2.6,7.741,11.398,3.586,16.241c-1.014,1.182-2.723,1.838-4.228,2.356
		C123.147,120.262,121.621,120.217,120.332,120.378z"/>
	<path fill="#EC008C" d="M101.854,149.239c-7.163,0.017-11.867-4.929-11.525-11.89c0.296-6.019,6.56-11.276,11.709-8.895
		c1.485,0.687,3.152,0.925,4.643,1.601c5.736,2.6,7.741,11.398,3.586,16.241c-1.014,1.182-2.723,1.838-4.228,2.356
		C104.67,149.123,103.143,149.078,101.854,149.239z"/>
	<path fill="#EC008C" d="M88.214,184.335c-7.163,0.017-11.867-4.929-11.525-11.89c0.296-6.019,6.56-11.276,11.709-8.895
		c1.485,0.687,3.152,0.925,4.643,1.601c5.736,2.6,7.741,11.398,3.586,16.241c-1.014,1.182-2.723,1.838-4.228,2.356
		C91.03,184.219,89.504,184.173,88.214,184.335z"/>
	<path fill="#EC008C" d="M79.693,224.711c-7.163,0.017-11.867-4.929-11.525-11.89c0.296-6.019,6.56-11.276,11.709-8.895
		c1.485,0.687,3.152,0.925,4.643,1.601c5.736,2.6,7.741,11.398,3.586,16.241c-1.014,1.182-2.723,1.838-4.228,2.356
		C82.509,224.595,80.982,224.55,79.693,224.711z"/>
</g>
<g>
</g>
<g>
</g>
<g>
</g>
<g>
</g>
<g>
</g>
<g>
</g>
</svg>
