<?xml version="1.0" encoding="iso-8859-1"?>
<!-- Generator: Adobe Illustrator 21.0.0, SVG Export Plug-In . SVG Version: 6.00 Build 0)  -->
<svg version="1.1" id="Layer_1" xmlns="http://www.w3.org/2000/svg" xmlns:xlink="http://www.w3.org/1999/xlink" x="0px" y="0px"
	 width="612px" height="792px" viewBox="0 0 612 792" enable-background="new 0 0 612 792" xml:space="preserve">
<g>
	<g>
		<path fill="#FDD10C" d="M61.898,262.902c8.709-0.578,14.851,5.688,15.03,15.048c0.155,8.093-7.013,15.627-13.478,12.833
			c-1.864-0.805-3.912-0.996-5.782-1.787c-7.197-3.042-10.387-14.681-5.749-21.496c1.132-1.663,3.154-2.676,4.94-3.486
			C58.484,263.276,60.344,263.218,61.898,262.902z"/>
		<path fill="#FDD10C" d="M62.785,225.441c8.709-0.578,14.851,5.688,15.03,15.048c0.155,8.093-7.013,15.627-13.478,12.833
			c-1.864-0.805-3.912-0.996-5.782-1.787c-7.197-3.042-10.387-14.681-5.749-21.496c1.132-1.663,3.154-2.676,4.94-3.486
			C59.371,225.815,61.231,225.757,62.785,225.441z"/>
		<path fill="#FDD10C" d="M59.782,190.838c8.709-0.578,14.851,5.688,15.03,15.048c0.155,8.093-7.013,15.627-13.478,12.833
			c-1.864-0.805-3.912-0.996-5.782-1.787c-7.197-3.042-10.387-14.681-5.749-21.496c1.132-1.663,3.154-2.676,4.94-3.486
			C56.368,191.212,58.228,191.154,59.782,190.838z"/>
	</g>
</g>
<g>
	<path d="M92.704,290.757c-5.899,0-9.65-4.134-11.246-12.401c-4.304-27.164-6.453-52.228-6.453-75.193
		c0-9.71,0.185-20.601,0.553-32.676l-4.793,1.378c-7.867,2.362-13.274,3.543-16.225,3.543c-4.425,0-7.375-2.362-8.85-7.086
		c-0.493-1.311-0.737-2.559-0.737-3.74c0-2.885,1.227-5.444,3.688-7.677c1.964-1.704,4.116-2.953,6.453-3.74
		c14.502-4.854,29.251-8.003,44.248-9.449c8.85-1.049,15.547-1.639,20.096-1.771c7.496,0,11.307,3.414,11.431,10.236
		c0,6.431-3.503,10.303-10.509,11.614c-4.672,0.658-9.282,1.181-13.828,1.575l-8.665,1.181c-1.354,11.81-2.028,23.95-2.028,36.416
		c0,23.359,2.149,47.571,6.453,72.634c0.245,1.446,0.369,2.823,0.369,4.134c0,4.595-1.844,7.941-5.531,10.039
		C95.654,290.431,94.179,290.757,92.704,290.757z"/>
	<path d="M154.284,295.087c-8.112,0-13.952-4.657-17.515-13.976c-5.779-18.109-8.665-40.482-8.665-67.123
		c0-15.615,1.291-31.101,3.872-46.455c0.982-5.247,2.457-10.3,4.425-15.157c4.425-10.365,11.799-15.55,22.124-15.55
		c9.587,0.132,19.174,0.59,28.761,1.378c5.283,0.394,8.726,0.855,10.325,1.378c5.776,2.233,8.665,5.84,8.665,10.826
		c0,4.069-1.538,7.021-4.609,8.858c-2.212,1.445-4.917,2.165-8.112,2.165c-13.398-1.836-23.17-2.756-29.314-2.756
		c-3.935,0-6.637,0.788-8.112,2.362c-1.475,1.575-2.521,5.579-3.134,12.007c14.012-0.523,24.337-1.049,30.974-1.575h2.028
		c7.375,0,11.123,3.346,11.247,10.039c0,3.149-1.014,5.905-3.042,8.267c-2.028,2.362-4.886,3.675-8.573,3.937
		c-10.817,0.919-22.741,1.575-35.768,1.968c-0.616,6.957-0.921,13.847-0.921,20.668c0,18.768,2.333,37.271,7.006,55.509
		c10.077-3.543,18.558-7.938,25.442-13.188c2.702-2.098,5.468-3.149,8.297-3.149c5.531,0,8.357,3.74,8.481,11.22
		c0,4.595-2.028,8.268-6.084,11.023c-9.466,7.351-19.791,12.795-30.974,16.338C158.646,294.758,156.373,295.087,154.284,295.087z"/>
	<path d="M276.151,300.796c-3.442-0.132-6.084-1.347-7.928-3.642c-1.844-2.297-2.829-5.216-2.95-8.759l-0.185-16.732
		c-5.286,1.839-10.572,3.543-15.855,5.118c-3.198,0.919-6.637,1.378-10.325,1.378c-3.074,0-6.208-0.394-9.403-1.181
		c-12.416-3.279-18.621-11.088-18.621-23.424c0-4.592,1.291-9.251,3.872-13.976c7.989-12.727,21.447-19.813,40.376-21.259
		l12.722-0.59c0.369-4.46,0.553-8.858,0.553-13.188c-0.738-28.739-4.733-43.108-11.984-43.108c-2.705,0-5.839,1.707-9.403,5.118
		c-10.817,9.974-18.685,22.243-23.599,36.809c-2.091,7.612-5.839,11.417-11.247,11.417c-0.737,0-1.414-0.065-2.028-0.197
		c-5.162-1.704-7.744-5.511-7.744-11.417c0-2.098,0.306-4.134,0.922-6.102c5.9-18.765,15.856-34.512,29.868-47.242
		c8.357-7.215,16.409-10.891,24.152-11.023c7.988,0,14.871,3.872,20.649,11.614c7.62,11.681,11.431,29.265,11.431,52.753
		c0,4.724-0.737,25.46-2.212,62.202c-0.248,10.106-0.616,18.306-1.106,24.605C285.122,296.923,281.803,300.531,276.151,300.796z
		 M237.803,255.719l2.212-0.197c9.463-1.181,18.068-3.476,25.811-6.89l0.185-7.283c-3.198-0.523-5.655-0.787-7.375-0.787
		c-6.761,0-13.214,1.575-19.359,4.724c-4.056,2.362-6.084,4.792-6.084,7.283C233.193,254.67,234.729,255.719,237.803,255.719z"/>
	<path d="M344.366,284.655c-2.46,0-4.978-0.326-7.559-0.984c-11.679-2.755-20.713-9.577-27.103-20.471
		c-6.761-12.333-10.14-26.245-10.14-41.73c1.105-35.431,12.657-59.511,34.66-72.241c4.057-2.491,8.233-3.74,12.537-3.74
		c3.809,0,7.681,1.052,11.615,3.149c12.537,6.692,18.866,18.109,18.99,34.25c0,7.351-2.092,14.305-6.269,20.865
		c-3.197,4.463-6.761,6.693-10.693,6.693c-2.581,0-4.825-1.147-6.729-3.445c-1.907-2.294-2.857-4.69-2.857-7.185
		c0-1.969,1.29-5.379,3.871-10.236c1.106-2.885,1.659-5.576,1.659-8.07c0-4.199-1.538-7.806-4.608-10.827
		c-1.599-1.704-3.259-2.559-4.979-2.559c-1.475,0-2.949,0.658-4.425,1.968c-3.935,3.282-7.313,7.086-10.14,11.417
		c-7.499,12.73-11.247,26.247-11.247,40.549c0,4.725,0.369,9.449,1.106,14.173c3.439,14.437,9.587,22.966,18.437,25.589
		c1.106,0.394,2.149,0.59,3.135,0.59c4.056,0,7.251-4.724,9.587-14.172c1.965-7.48,5.468-11.22,10.509-11.22l1.476,0.197
		c5.899,1.445,8.85,5.447,8.85,12.007c-0.738,10.236-4.305,19.094-10.693,26.574C357.825,281.702,351.493,284.655,344.366,284.655z"
		/>
	<path d="M455.172,278.159c-6.393-0.523-9.771-4.592-10.141-12.204l0.185-15.354c0-11.81-1.783-17.715-5.347-17.715
		c-5.041,0.132-9.402,3.119-13.09,8.956c-3.688,5.841-6.023,17.292-7.006,34.349c-0.985,9.842-4.733,14.96-11.247,15.354
		c-4.548,0-7.867-2.294-9.955-6.89c-0.617-1.181-1.046-2.427-1.291-3.74c-6.885-23.356-10.324-47.11-10.324-71.257
		c0-15.615,0.858-34.97,2.581-58.068c0.368-4.592,0.798-7.609,1.29-9.055c1.844-5.379,5.039-8.071,9.588-8.071l1.843,0.197
		c5.776,1.313,8.666,5.315,8.666,12.007c-0.248,3.676-0.617,7.283-1.106,10.827c-1.23,14.698-1.844,30.707-1.844,48.029
		c0,10.63,0.553,20.078,1.659,28.345c7.127-15.747,16.53-23.621,28.208-23.621c8.481,0.264,15.239,3.543,20.281,9.842
		c4.177,5.905,6.637,13.518,7.374,22.833c0.245,4.724,0.369,12.666,0.369,23.818C465.128,274.354,461.562,278.159,455.172,278.159z"
		/>
</g>
<g>
	<path fill="#00A651" d="M92.538,507.286c8.689-1.145,16.079-0.429,22.1,2.22c0.547,0.357,1.505,0.787,2.874,1.432
		c1.369,0.644,2.327,1.145,2.942,1.503c2.121,1.359,2.668,3.221,1.71,5.512c-2.805,0.931-6.911,1.574-12.179,2.004
		c-0.206,17.394-0.685,28.632-1.369,33.714c-0.411,4.438-0.068,11.095,1.026,19.898c1.163,8.876,1.505,15.533,1.163,19.971
		c-0.068,1.074-0.137,4.796-0.205,11.166c0,4.51-0.274,8.16-0.89,11.023c0.479,0.43,1.3,1.002,2.326,1.718l2.327,1.718
		c1.779,1.432,2.942,3.007,3.489,4.653c-5.269,3.507-11.905,5.297-19.91,5.368l-20.869-1.575c-1.505-1.073-3.694-2.72-6.637-4.938
		c5.405,0.716,10.126-0.144,14.026-2.505c-1.847-20.544-2.326-35.933-1.368-46.169c-0.342-7.229,0-16.606,1.026-28.131
		c1.3-14.816,2.053-24.193,2.189-28.13c-4.31,0.215-9.647-1.933-16.079-6.514c2.395-0.286,6.089-0.931,11.084-1.933
		C86.243,508.289,90.006,507.645,92.538,507.286z"/>
	<path fill="#00A651" d="M151.176,510.579c-0.274-0.215,2.395,3.436,7.937,11.095c4.037,5.655,8.073,14.029,12.042,25.053
		c4.721,13.099,8.21,21.688,10.399,25.84c0.342-11.953,1.164-29.275,2.6-51.966c0.479-1.146,0.342-2.291-0.411-3.437
		c-0.205-0.286-0.547-0.787-1.095-1.432c-0.479-0.572-0.821-1.073-1.026-1.431c8.689-6.657,16.558-8.948,23.537-6.943
		c1.437,3.364,1.779,7.873,0.958,13.528c-1.026,7.372-1.505,12.025-1.368,13.814c-0.342,2.792-0.068,6.729,0.684,11.668
		c0.89,5.511,1.369,9.376,1.3,11.667c0.206,5.226,0.274,13.171,0.069,23.764c-0.206,10.522-0.206,18.396,0.068,23.693
		c0,2.075-0.274,5.297-0.821,9.663c-0.479,0.572-1.163,1.574-2.052,3.078c-0.821,1.432-1.505,2.505-2.053,3.149
		c-1.71,2.219-3.763,3.221-6.089,3.006c-5.063-0.071-9.579-1.36-13.547-3.722c-4.447-2.721-7.321-6.442-8.621-11.167
		c-1.368-5.726-4.79-14.602-10.194-26.627c-4.995-11.166-8.142-20.114-9.442-26.842c0.342,6.155,0.685,15.676,1.026,28.56
		c0.342,12.526,0.684,22.046,1.026,28.561c0.137,2.075-0.547,6.728-2.121,13.886c-8.142,2.076-13.684,2.291-16.558,0.787
		c-2.395-1.503-4.174-4.008-5.474-7.444c-0.274-0.787-1.095-3.865-2.395-9.233c0.068-1.217,0.479-3.507,1.231-6.871
		c0.616-2.792,0.889-5.082,0.752-6.872c-0.137-5.798-0.137-17.25,0.068-34.357c0.137-14.316-0.068-25.769-0.616-34.358
		c-0.205-2.219-0.205-4.581,0-7.157c0.205-2.577,0.753-4.939,1.71-7.087c0.958-2.147,1.232-4.581,0.821-7.372
		c0.205,0.071,3.216,0.286,9.168,0.644C146.387,507.931,149.192,508.933,151.176,510.579z"/>
	<path fill="#00A651" d="M266.674,515.304c2.395,2.72,3.626,6.084,3.832,10.021c0.137,3.65-0.684,7.229-2.463,10.594
		c-1.3-0.071-3.216,0.215-5.61,0.716c-2.532,0.573-4.379,0.859-5.542,0.859c-2.668-3.007-3.421-8.089-2.326-15.175
		c-3.353-0.144-5.816,0-7.253,0.43c-2.531,0.787-4.037,2.505-4.516,5.225c0.342,5.082,1.71,9.807,4.105,14.173
		c2.6,4.652,6.021,8.089,10.194,10.235c8.005,4.581,13.411,8.089,16.216,10.522c5.679,4.796,9.1,10.164,10.4,16.248
		c1.3,3.508,1.574,7.659,0.821,12.599c-0.205,1.432-0.684,3.579-1.3,6.37c-0.616,2.792-1.026,4.867-1.231,6.299
		c-0.342,2.648-1.642,5.154-3.9,7.588l-6.432,5.798c-4.721,4.438-9.853,7.587-15.532,9.52c-6.158,2.076-12.11,2.434-17.857,0.931
		c-1.848,0.071-4.653-0.858-8.279-2.791c-7.663-7.874-12.042-12.813-13.205-14.817c-1.232-2.147-1.984-3.722-2.258-4.796
		c-0.479-1.789-0.273-3.436,0.685-4.938c0.889-4.366,4.926-8.231,11.974-11.596c2.189,2.361,3.9,5.654,5.063,9.878
		c0.411,1.359,0.821,3.221,1.3,5.511l1.095,5.512c0.274,0.358,2.189,2.648,5.816,6.872c3.763-2.219,6.158-3.723,7.184-4.581
		c2.532-2.076,3.968-4.438,4.379-7.158c1.026-6.585,0.958-12.813-0.342-18.61c-1.437-6.585-4.311-11.954-8.484-16.034
		c-8.142-8.374-12.863-13.313-14.026-14.816c-4.858-6.156-7.458-12.383-7.8-18.754c-0.821-5.798,0.205-11.452,3.01-16.893
		c2.806-5.297,6.774-9.305,11.837-11.953c5.816-1.79,11.29-2.291,16.489-1.432C258.874,507.931,263.526,510.723,266.674,515.304z"/>
	<path fill="#00A651" d="M359.044,542.289c-0.205,1.288-0.479,3.149-0.684,5.511l-0.616,5.584
		c-0.616,4.366-1.779,7.873-3.558,10.379c-0.343,0.429-1.163,1.718-2.463,3.937c-1.026,1.646-1.848,2.935-2.601,3.937
		c-2.121,2.863-4.379,4.796-6.842,5.798c-2.601,1.646-6.09,2.863-10.537,3.508c-7.184,1.073-10.811,1.646-11.016,1.646
		c1.026,13.743,0.273,27.772-2.121,42.16c-9.373,4.366-17.447,5.511-24.084,3.364c0.137-2.362-0.752-5.369-2.6-9.02l-0.137-28.56
		c0.41-22.619,1.231-46.24,2.531-70.863c0.068-2.076,1.026-4.08,2.737-6.084l2.463-2.506l2.463-2.362l9.716,2.005
		c4.857-2.792,10.263-3.865,16.284-3.222c5.405,0.573,10.742,2.434,15.941,5.512c6.363,2.147,10.742,6.8,13,14.029
		C358.223,537.493,358.976,542.575,359.044,542.289z M337.423,523.606c-5.474-5.226-11.221-7.015-17.173-5.368
		c-1.095,5.94-1.438,14.101-0.958,24.408c0.547,11.954,0.615,20.113,0.273,24.48c1.3-1.861,4.105-4.581,8.484-8.089
		c3.899-3.149,6.432-6.084,7.731-8.804C341.05,539.282,341.597,530.406,337.423,523.606z"/>
	<path fill="#00A651" d="M387.305,507.286c8.689-1.145,16.079-0.429,22.101,2.22c0.547,0.357,1.505,0.787,2.873,1.432
		c1.368,0.644,2.326,1.145,2.942,1.503c2.121,1.359,2.668,3.221,1.71,5.512c-2.805,0.931-6.91,1.574-12.179,2.004
		c-0.205,17.394-0.684,28.632-1.368,33.714c-0.41,4.438-0.068,11.095,1.026,19.898c1.163,8.876,1.505,15.533,1.163,19.971
		c-0.068,1.074-0.137,4.796-0.205,11.166c0,4.51-0.273,8.16-0.89,11.023c0.479,0.43,1.3,1.002,2.326,1.718l2.326,1.718
		c1.779,1.432,2.942,3.007,3.489,4.653c-5.268,3.507-11.904,5.297-19.91,5.368l-20.868-1.575c-1.505-1.073-3.694-2.72-6.637-4.938
		c5.405,0.716,10.126-0.144,14.026-2.505c-1.848-20.544-2.326-35.933-1.368-46.169c-0.343-7.229,0-16.606,1.026-28.131
		c1.3-14.816,2.053-24.193,2.189-28.13c-4.311,0.215-9.647-1.933-16.079-6.514c2.395-0.286,6.09-0.931,11.084-1.933
		C381.011,508.289,384.773,507.645,387.305,507.286z"/>
	<path fill="#00A651" d="M497.874,535.632c-0.615,10.522-1.778,18.253-3.353,23.191c-1.3,2.434-5.542,6.8-12.794,13.171
		c1.437,4.366,4.036,10.021,7.8,17.035c4.174,7.803,6.979,13.386,8.278,16.679c-0.068,0.93-0.273,3.507-0.479,7.873
		c-0.137,3.222-0.479,5.798-0.958,7.73c-2.395,2.076-5.2,2.792-8.553,2.076c-2.805-0.572-5.542-2.004-8.073-4.295
		c-2.806-2.075-5.337-5.226-7.595-9.52c-0.548-1.003-1.437-2.863-2.737-5.583c-1.095-2.362-1.983-4.224-2.736-5.584
		c-1.643-2.935-3.9-7.444-6.842-13.528c-2.806-6.084-5.063-10.665-6.773-13.6h-2.259c-0.752,2.004-0.889,4.51-0.479,7.444
		c0.068,0.787,0.273,2.004,0.616,3.793c0.273,1.646,0.479,2.863,0.547,3.794c0.342,3.508,0.342,8.519-0.068,15.032
		c-0.479,6.942-0.547,11.953-0.342,15.031c-0.821,5.654-2.189,9.949-4.105,12.813c-1.711-0.215-4.311-0.572-7.937-0.931
		c-3.489-0.357-6.09-0.645-7.938-0.931c-1.71-4.438-3.353-16.534-5.063-36.362c-1.711-19.827-2.737-37.292-3.079-52.467
		s-0.273-23.907,0.205-26.27c2.531-2.291,6.432-3.149,11.563-2.648c5.952,0.572,10.058,0.43,12.179-0.43
		c10.194-4.08,21.895-3.579,35.168,1.432C490.896,514.015,496.164,522.39,497.874,535.632z M470.096,537.922
		c0.685-4.509-0.273-8.947-2.942-13.17l-8.278-0.859c-1.231,0.501-2.942,1.074-5.2,1.79c-2.531,0.787-4.242,1.359-5.269,1.718
		c-0.205,2.935-0.137,11.811,0.274,26.627C459.628,551.522,466.743,546.154,470.096,537.922z"/>
	<path fill="#00A651" d="M523.81,508.646c2.806-0.215,4.857-0.43,6.158-0.645c9.373-1.145,14.642-1.718,15.668-1.646
		c6.021,0.143,10.674,2.146,13.89,5.94c-0.685,3.794-1.369,7.087-2.053,10.021c-3.216,1.359-7.048,1.933-11.563,1.718
		c0.068,0-3.899-0.43-11.768-1.217c0.273,2.935,0.41,8.876,0.479,17.966c0,7.444,0.41,13.386,1.3,17.896
		c1.368,0.071,3.353,0.143,5.884,0.143c2.806,0,4.858,0,6.021,0.071c4.789,0.287,8.553,1.575,11.289,3.794
		c-0.82,5.727-2.736,9.233-5.747,10.522c-5.063,1.359-11.426,1.217-19.089-0.43c0.889,5.082,1.163,11.811,0.752,20.186
		c-0.547,10.809-0.752,17.608-0.684,20.399c2.395,0.501,8.278,0.931,17.516,1.432c7.184,0.358,12.862,1.504,17.036,3.293
		c-0.479,0.645-1.163,1.646-1.984,2.935c-0.889,1.503-1.573,2.506-1.915,3.007c-1.643,2.29-3.421,3.65-5.405,4.08
		c-4.653,1.288-11.427,1.217-20.39-0.287c-9.168-1.503-15.941-1.789-20.252-0.787c-6.911-3.937-10.537-6.013-10.879-6.37
		c-2.258-4.08-3.216-9.449-2.874-16.105c0.616-11.095,0.89-16.606,0.89-16.678c0.137-45.596,0.342-70.005,0.684-73.082
		c2.396-2.936,5.953-4.725,10.811-5.512C518.884,509.076,521.005,508.861,523.81,508.646z"/>
</g>
<g>
	<path fill="#FDD10C" d="M138.436,460.787c10.429,0,20.628-0.242,31.289-0.242c4.869-0.242,6.258,0.971,6.49,6.062
		c0.464,7.272,0.464,14.546,0.232,22.063c-0.232,4.121-1.621,5.334-5.794,5.334c-9.964,0-19.932,0-29.9-0.242l-41.025-0.729
		c-5.794,0-15.377,0.394-18.068,0.255c-1.74-0.09-3.113-1.489-3.178-3.23c-0.15-4.044-0.835-8.197-0.835-12.441
		c-0.464-19.154-1.604-108.136-1.604-134.566c0-11.151-0.188-24.343,0.276-35.738c0.464-5.092,1.16-5.575,6.258-5.334
		c5.33,0,21.89-0.242,27.221-0.242c4.637,0,5.102,0.242,5.562,5.092c0.232,3.637,0.464,7.03,0.464,10.667l1.392,45.826
		c1.157,31.276,2.317,63.035,3.477,94.798c0,0.729,0,1.696,0.232,2.667C130.658,460.787,128.932,461.271,138.436,460.787z"/>
	<path fill="#ED1C24" d="M382.705,397.023c3.245-24.488,8.111-48.734,13.677-72.735c1.389-6.304,2.549-12.125,3.706-18.429
		c0.928-4.363,1.16-4.847,5.102-4.847c7.183-0.245,13.906-0.245,20.396-0.245c2.781,0,3.706,1.212,3.706,4.121
		c0.232,1.699,0,3.396-0.461,5.337c-5.566,30.063-11.36,60.127-16.69,89.948c-5.794,29.822-11.589,59.643-16.919,89.465
		c-0.928,4.366-1.16,4.608-5.098,4.366h-17.615c-3.709,0-3.709-0.242-4.637-3.879c-2.549-7.759-5.562-15.033-7.647-22.55
		c-2.781-9.455-5.33-18.909-7.651-28.122c-3.706-15.517-7.879-30.792-11.357-45.826c-5.33-20.609-9.736-40.731-14.602-61.339
		c-1.389-6.062-2.781-11.883-4.634-18.184c-0.232-1.458-0.696-3.154-0.928-4.85c-0.464-5.82-0.464-7.033,5.33-6.788
		c5.33,0,10.432-0.487,15.994-0.245c5.794,0.245,6.719,1.212,8.111,6.791l21.556,82.919c1.853,8,4.17,16.001,6.026,24.246
		c0.464,0,0.693,0,1.389,0.242C380.387,409.873,381.776,403.327,382.705,397.023z"/>
	<path fill="#ED1C24" d="M512.952,411.327c8.808-0.242,17.383-0.242,25.959-0.487c3.245,0,3.941,0.729,5.098,4.366
		c0.464,3.15,0.928,6.304,1.16,9.455c0.232,5.821,0.232,11.638,0,17.458c-0.232,5.817-1.16,6.546-6.955,6.788
		c-12.978,0.484-25.959,0.726-38.708,0.971c-1.157,0.242-2.549,0-4.634,0c0.232,3.634,0.464,6.304,0.928,9.938h4.866
		c12.517-1.938,25.495-0.726,38.011-0.484c4.87,0.242,9.504,0,14.37,0.242c3.709,0.242,4.173,0.729,4.405,4.608l0.696,23.276
		c0,4.121-0.464,4.847-4.173,4.847c-10.2,0.487-20.396,0.971-30.364,1.212c-17.151,0.245-34.302,0.487-51.453,0.487
		c-1.392,0.242-3.013,0-4.405-0.242c-3.709-0.729-5.794-3.154-5.794-7.033c-1.16-16.971-2.317-33.701-2.781-50.672
		c-0.696-18.667-0.928-37.58-1.16-56.251v-66.673c0-2.425,0-4.608,0-6.788c0.232-2.912,0.696-3.879,3.245-4.124
		c3.245-0.242,6.723-0.242,9.968-0.242c18.775-0.726,37.779-1.696,56.787-2.18c6.719-0.245,13.674,0.242,20.86,0.484
		c3.477,0.242,4.634,1.454,4.866,4.605c0.464,8.004,1.16,15.762,0,23.276c0,1.458-0.232,2.67-0.464,3.883
		c-0.464,2.18-1.389,3.392-3.709,3.876c-3.242,0.245-6.487,0.729-9.5,0.729c-12.285,0.484-24.57,0.729-36.622,1.212
		c-4.173,0-8.344,0.729-12.981,1.212c0.696,12.121,1.392,24.488,1.624,36.609c0.464,12.125,0.232,24.246,0.464,36.855
		C499.739,412.053,506.462,411.569,512.952,411.327z"/>
</g>
<path fill="#ED1C24" d="M278.684,327.684c-15.951-5.883-31.807-3.635-45.834,6.495c-2.237,1.615-4.401,3.411-6.472,5.369
	c-0.876-2.09-2.017-4.304-3.476-6.494c2.151-0.683,4.742-1.64,7.458-2.984c5.603-2.773,11.611-7.12,14.733-13.721
	c3.703-7.827,2.602-17.019-3.273-27.32c-0.8-1.402-2.488-2.041-4.034-1.526c-0.302,0.104-26.965,9.332-25.567,35.325
	c-3.031-1.815-6.389-3.193-10.062-4.094c-1.268-0.313-2.613,0.127-3.453,1.131l-9.907,11.791c-0.869,1.034-1.038,2.476-0.445,3.677
	c0.594,1.202,1.855,1.937,3.204,1.875c0.553-0.025,12.421-0.42,23.972,10.559c-17.125,0.542-31.565,11.07-33.853,12.821
	c-15.698,9.932-24.514,25.417-24.828,43.619c-0.271,15.716,6.186,31.982,16.851,42.453c25.633,25.165,48.037,29.834,62.316,29.318
	c13.286-0.479,22.16-5.34,25.129-7.229c5.078-1.613,9.888-3.543,14.362-5.757c1.416-0.701,2.801-1.431,4.147-2.188
	c20.335-11.44,29.502-27.499,33.61-38.957c6.174-17.218,4.248-32.052,4.141-32.828C309.557,339.231,282.195,328.822,278.684,327.684
	z"/>
<path fill="#F59396" d="M231.109,373.887c0.541-1.507,0.86-2.151,1.004-2.831c2.129-10.076,9.067-16.037,17.823-20.064
	c5.463-2.513,11.555-2.125,16.539,0.928c4.46,2.732,7.539,7.392,8.313,12.836c0.567,3.987,0.709,8.091,0.51,12.117
	c-0.377,7.642-1.806,15.149-3.893,22.516c-2.407,8.498-4.888,16.974-7.289,25.473c-0.842,2.98-1.533,6.003-2.31,9.002
	c-1.365,5.274-3.383,6.605-8.666,6.122c-3.83-0.35-7.232-1.573-10.723-3.262c-7.936-3.839-16.104-7.224-24.294-10.503
	c-5.402-2.163-10.251-5.221-14.674-8.813c-5.038-4.091-8.63-9.456-11.125-15.512c-3.421-8.304,0.271-21.051,9.011-26.232
	c8.516-5.048,16.872-5.956,25.995-3.022C228.426,372.994,229.516,373.361,231.109,373.887z"/>
<g>
	<path fill="#BCBEC0" d="M551.851,186.415l4.916-12.934c-17.662-15.804-34.266-15.909-42.033-14.782l-5.119,13.556
		C516.93,171.032,533.794,170.582,551.851,186.415z"/>
	<path fill="#EC008C" d="M556.768,173.481l6.559-17.257c0,0-14.567-21.259-42.215-14.411l-6.377,16.886
		C522.501,157.573,539.106,157.677,556.768,173.481z"/>
	<polygon points="489.859,286.559 505.539,273.88 485.826,265.753 	"/>
	<g>
		<path fill="#FFF200" d="M538.548,221.415l13.303-35c-18.058-15.833-34.922-15.383-42.236-14.16l-13.214,34.992l-13.312,35.251
			l6.575-1.409l3.112,8.574l9.124-3.529l3.331,8.664l9.343-3.439l3.529,8.184l6.566-1.61L538.548,221.415z"/>
		<polygon fill="#E5B27F" points="518.102,259.542 514.574,251.357 505.231,254.797 501.9,246.133 492.776,249.663 489.664,241.089 
			483.089,242.498 481.918,245.598 485.826,265.753 505.539,273.88 524.405,258.625 524.668,257.932 		"/>
	</g>
</g>
<path fill="#00A79D" d="M476.353,127.799c0.104-0.458,0.365-0.902,0.781-1.329c0.881-0.884,1.853-1.206,2.918-0.965
	c0.419,0.095,2.177,0.813,5.273,2.156c0.987-1.182,1.972-2.263,2.954-3.245c1.059-0.965,2.101-1.331,3.129-1.099
	c0.685,0.155,1.271,0.568,1.759,1.241c0.857,1.158,1.185,2.455,0.979,3.894c-0.311,1.375-0.55,2.605-0.715,3.692l4.37,2.434
	c1.629,0.931,2.313,2.149,2.053,3.656c-0.268,1.183-1.239,2.027-2.913,2.532l-5.16,1.06c-0.325,2.495-0.582,4.163-0.772,5.003
	c-0.371,1.641-1.271,2.521-2.698,2.641c-0.407,0.028-0.781,0.004-1.123-0.073c-1.104-0.25-1.946-1.124-2.528-2.619l-1.355-3.558
	l-4.478,0.432c-0.774,0.066-1.428,0.038-1.961-0.083c-0.875-0.198-1.494-0.69-1.857-1.474c-0.363-0.785-0.475-1.483-0.337-2.093
	c0.173-0.764,0.769-1.673,1.787-2.726c1.019-1.055,1.92-2.075,2.703-3.061l-1.853-2.948
	C476.456,129.909,476.137,128.753,476.353,127.799z"/>
<path fill="#EC008C" d="M438.429,120.427c0.104-0.458,0.365-0.902,0.781-1.329c0.881-0.884,1.853-1.206,2.918-0.965
	c0.419,0.095,2.177,0.813,5.273,2.156c0.987-1.182,1.972-2.263,2.954-3.245c1.059-0.965,2.101-1.331,3.129-1.099
	c0.685,0.155,1.271,0.568,1.759,1.241c0.857,1.158,1.184,2.455,0.979,3.894c-0.311,1.375-0.55,2.605-0.715,3.692l4.37,2.434
	c1.629,0.931,2.313,2.149,2.053,3.656c-0.268,1.183-1.239,2.027-2.913,2.532l-5.16,1.06c-0.325,2.495-0.582,4.163-0.772,5.003
	c-0.371,1.641-1.271,2.521-2.698,2.641c-0.407,0.028-0.781,0.004-1.123-0.073c-1.104-0.25-1.946-1.124-2.528-2.619l-1.355-3.558
	l-4.478,0.432c-0.774,0.066-1.428,0.038-1.961-0.083c-0.875-0.198-1.494-0.69-1.857-1.474c-0.363-0.785-0.475-1.483-0.337-2.093
	c0.173-0.764,0.769-1.673,1.787-2.726c1.019-1.055,1.92-2.075,2.703-3.061l-1.853-2.948
	C438.532,122.537,438.213,121.381,438.429,120.427z"/>
<path fill="#EC008C" d="M459.277,200.057c-0.74,0-1.422-0.409-1.769-1.066l-6.031-11.426l-12.83-1.509
	c-0.757-0.089-1.396-0.6-1.651-1.317s-0.08-1.517,0.45-2.063l9.003-9.266l-2.528-12.669c-0.149-0.747,0.139-1.513,0.742-1.977
	c0.604-0.465,1.419-0.545,2.101-0.209l11.595,5.699l11.268-6.32c0.663-0.372,1.482-0.336,2.109,0.095
	c0.628,0.431,0.957,1.18,0.849,1.934l-1.837,12.788l9.493,8.763c0.56,0.517,0.777,1.306,0.562,2.036
	c-0.215,0.73-0.826,1.275-1.577,1.405l-12.73,2.205l-5.399,11.736c-0.318,0.692-1.002,1.143-1.763,1.163
	C459.313,200.057,459.294,200.057,459.277,200.057z M443.139,182.556l9.85,1.159c0.654,0.077,1.229,0.471,1.535,1.053l4.63,8.772
	l4.146-9.01c0.275-0.598,0.827-1.022,1.477-1.135l9.773-1.692l-7.288-6.728c-0.483-0.447-0.717-1.103-0.623-1.754l1.41-9.818
	l-8.65,4.852c-0.575,0.323-1.271,0.34-1.86,0.051l-8.901-4.375l1.94,9.727c0.129,0.646-0.067,1.313-0.526,1.785L443.139,182.556z"/>
<g>
	<g>
		<rect x="84.634" y="463.424" transform="matrix(-0.0093 -1 1 -0.0093 -383.5049 565.2399)" width="7.231" height="18.344"/>
		<rect x="83.051" y="446.482" transform="matrix(-0.0093 -1 1 -0.0093 -367.0566 543.6179)" width="5.423" height="14.309"/>
		<rect x="81.58" y="458.003" transform="matrix(-0.0093 -1 1 -0.0093 -378.5032 551.5938)" width="4.821" height="10.585"/>
		<rect x="84.267" y="424.097" transform="matrix(-0.0093 -1 1 -0.0093 -344.5492 525.1809)" width="7.231" height="18.344"/>
		<rect x="81.396" y="438.269" transform="matrix(-0.0093 -1 1 -0.0093 -358.9558 531.4927)" width="4.821" height="10.585"/>
		<rect x="83.912" y="385.895" transform="matrix(-0.0093 -1 1 -0.0093 -306.7079 486.268)" width="7.231" height="18.344"/>
		<rect x="82.172" y="367.75" transform="matrix(-0.0093 -1 1 -0.0093 -289.2149 463.2735)" width="5.423" height="14.309"/>
		<rect x="80.712" y="380.475" transform="matrix(-0.0093 -1 1 -0.0093 -301.8553 472.4769)" width="4.821" height="10.585"/>
		<rect x="83.546" y="346.568" transform="matrix(-0.0093 -1 1 -0.0093 -267.7522 446.209)" width="7.231" height="18.344"/>
		<rect x="83.184" y="307.673" transform="matrix(-0.0093 -1 1 -0.0093 -229.2244 406.5899)" width="7.231" height="18.344"/>
		<rect x="80.528" y="360.742" transform="matrix(-0.0093 -1 1 -0.0093 -282.3079 452.3759)" width="4.821" height="10.585"/>
		<rect x="81.952" y="328.436" transform="matrix(-0.0093 -1 1 -0.0093 -250.1249 423.3746)" width="5.423" height="14.309"/>
		<rect x="80.492" y="341.162" transform="matrix(-0.0093 -1 1 -0.0093 -262.7653 432.578)" width="4.821" height="10.585"/>
		<rect x="80.308" y="321.428" transform="matrix(-0.0093 -1 1 -0.0093 -243.2179 412.477)" width="4.821" height="10.585"/>
		<rect x="82.685" y="407.155" transform="matrix(-0.0093 -1 1 -0.0093 -328.1009 503.5589)" width="5.423" height="14.309"/>
		<rect x="81.214" y="418.676" transform="matrix(-0.0093 -1 1 -0.0093 -339.5475 511.5347)" width="4.821" height="10.585"/>
		<rect x="81.03" y="398.942" transform="matrix(-0.0093 -1 1 -0.0093 -320.0001 491.4337)" width="4.821" height="10.585"/>
	</g>
	<g>
		<path d="M102.158,473.124c-0.096,0.001-0.181-0.036-0.255-0.113c-0.073-0.076-0.11-0.164-0.111-0.267
			c-0.001-0.102,0.035-0.192,0.106-0.269c0.072-0.077,0.156-0.117,0.252-0.118c1.316-0.012,3.293-0.001,5.931,0.032
			c2.638,0.033,4.615,0.043,5.931,0.031c0.097-0.001,0.182,0.036,0.255,0.113c0.073,0.076,0.11,0.165,0.11,0.267
			c0.001,0.102-0.034,0.193-0.105,0.269c-0.072,0.078-0.156,0.117-0.253,0.118c-1.315,0.012-3.293,0.002-5.931-0.031
			C105.451,473.123,103.474,473.112,102.158,473.124z"/>
		<path d="M114.052,437.823c0.001,0.103-0.034,0.193-0.106,0.269c-0.071,0.078-0.156,0.117-0.252,0.118l-0.018,0
			c-0.072,0.001-0.139-0.011-0.199-0.036c-0.097-0.063-0.51-0.308-1.238-0.736c-0.728-0.428-1.42-0.825-2.075-1.189
			c-0.655-0.365-1.292-0.704-1.911-1.018c-1.165-0.565-2.158-0.971-2.981-1.219c-0.957-0.298-1.676-0.375-2.158-0.23
			c-0.445,0.132-0.733,0.346-0.863,0.642c-0.118,0.257-0.121,0.57-0.009,0.939c0.124,0.37,0.338,0.723,0.643,1.059
			c0.306,0.336,0.621,0.573,0.948,0.711c0.121,0.05,0.251,0.084,0.39,0.102c0.14,0.018,0.263,0.026,0.372,0.025
			c0.109-0.001,0.263-0.005,0.462-0.013c0.199-0.008,0.36-0.013,0.48-0.014c0.096-0.001,0.182,0.036,0.255,0.113
			c0.073,0.076,0.11,0.165,0.111,0.267c0.001,0.102-0.034,0.192-0.106,0.269c-0.071,0.077-0.156,0.117-0.252,0.118
			c-0.06,0.001-0.199,0.005-0.416,0.013c-0.217,0.009-0.392,0.013-0.525,0.015c-0.132,0.001-0.299-0.009-0.498-0.034
			c-0.199-0.023-0.372-0.066-0.517-0.13c-0.448-0.187-0.858-0.49-1.231-0.909c-0.372-0.418-0.639-0.869-0.801-1.354
			c-0.174-0.56-0.161-1.059,0.04-1.496c0.225-0.501,0.668-0.851,1.33-1.048c0.602-0.185,1.448-0.116,2.537,0.206
			c0.859,0.26,1.889,0.686,3.09,1.275c1.007,0.502,2.597,1.39,4.769,2.661l-0.039-4.182c-0.001-0.102,0.034-0.192,0.106-0.269
			c0.072-0.077,0.156-0.116,0.252-0.117c0.096-0.001,0.182,0.036,0.255,0.112c0.073,0.076,0.11,0.165,0.111,0.267L114.052,437.823z"
			/>
		<path d="M105.052,397.7c0.097-0.001,0.182,0.036,0.255,0.112c0.073,0.076,0.11,0.165,0.111,0.267
			c0.001,0.103-0.034,0.193-0.106,0.27c-0.071,0.077-0.155,0.116-0.252,0.117c-0.024,0-0.123,0.001-0.299,0.003
			c-0.175,0.002-0.289,0.003-0.344,0.003c-0.054,0-0.157-0.001-0.308-0.006c-0.151-0.005-0.272-0.017-0.363-0.036
			c-0.091-0.018-0.199-0.043-0.327-0.073c-0.127-0.03-0.245-0.065-0.354-0.102c-0.424-0.175-0.813-0.424-1.166-0.747
			c-0.353-0.323-0.597-0.676-0.734-1.058c-0.16-0.459-0.122-0.881,0.115-1.267c0.238-0.386,0.664-0.678,1.278-0.875
			c0.373-0.119,0.744-0.208,1.111-0.269c0.368-0.061,0.781-0.068,1.24-0.021c0.46,0.047,0.847,0.171,1.163,0.373
			c0.291,0.202,0.56,0.468,0.804,0.798c0.189-0.539,0.607-0.933,1.257-1.181c0.469-0.184,1.072-0.291,1.808-0.324
			c0.905-0.034,1.569,0.043,1.994,0.231c0.327,0.137,0.64,0.361,0.939,0.672c0.299,0.311,0.516,0.651,0.653,1.02
			c0.161,0.434,0.182,0.836,0.066,1.208c-0.129,0.424-0.422,0.759-0.878,1.006c-0.168,0.091-0.351,0.163-0.551,0.216
			c-0.199,0.053-0.433,0.094-0.705,0.122c-0.272,0.028-0.47,0.046-0.597,0.053c-0.127,0.008-0.353,0.01-0.679,0.006
			s-0.495-0.005-0.507-0.005c-0.096,0.001-0.182-0.036-0.255-0.113c-0.073-0.076-0.11-0.164-0.111-0.267
			c-0.001-0.102,0.034-0.192,0.106-0.269c0.071-0.077,0.156-0.117,0.252-0.118c0.072-0.001,0.226-0.002,0.462-0.004
			c0.235-0.002,0.407-0.004,0.516-0.005c0.109-0.001,0.263-0.005,0.462-0.013c0.199-0.008,0.359-0.023,0.479-0.043
			c0.121-0.02,0.257-0.053,0.407-0.099c0.15-0.046,0.279-0.095,0.388-0.147c0.288-0.144,0.468-0.33,0.538-0.561
			c0.059-0.193,0.039-0.422-0.06-0.69c-0.111-0.267-0.28-0.518-0.506-0.753c-0.225-0.234-0.459-0.408-0.702-0.521
			c-0.327-0.137-0.883-0.19-1.668-0.157c-0.664,0.032-1.2,0.12-1.609,0.265c-0.505,0.209-0.791,0.525-0.86,0.947l0.001,0.096
			c0,0.051,0.001,0.153,0.003,0.307c0.001,0.153,0.002,0.262,0.003,0.326c0,0.038,0.001,0.077,0.001,0.115
			c0,0.026,0,0.045,0.001,0.058c0,0.026-0.006,0.045-0.018,0.058c-0.011,0.076-0.046,0.141-0.106,0.192
			c-0.096,0.091-0.199,0.13-0.307,0.118c-0.121-0.024-0.218-0.094-0.292-0.208c-0.036-0.051-0.067-0.133-0.093-0.248
			c0-0.013-0.003-0.036-0.01-0.067c-0.006-0.032-0.01-0.061-0.01-0.087c0-0.012,0-0.025,0-0.038
			c-0.259-0.56-0.594-0.973-1.007-1.237c-0.219-0.151-0.507-0.244-0.863-0.28c-0.356-0.035-0.7-0.025-1.032,0.029
			c-0.331,0.054-0.666,0.134-1.002,0.24c-0.457,0.145-0.758,0.333-0.901,0.564c-0.107,0.168-0.117,0.366-0.03,0.596
			c0.086,0.242,0.267,0.49,0.541,0.743c0.273,0.253,0.581,0.449,0.92,0.586c0.072,0.037,0.145,0.066,0.218,0.084
			c0.072,0.019,0.154,0.034,0.245,0.046c0.09,0.011,0.166,0.024,0.227,0.036c0.061,0.012,0.145,0.018,0.254,0.017
			c0.109-0.001,0.19-0.002,0.244-0.002c0.054-0.001,0.148-0.001,0.28-0.003C104.914,397.702,105.004,397.701,105.052,397.7z"/>
		<path d="M101.023,359.076c-0.096,0.001-0.181-0.036-0.255-0.113c-0.073-0.076-0.11-0.164-0.111-0.267
			c-0.001-0.102,0.035-0.192,0.106-0.269c0.072-0.077,0.156-0.117,0.252-0.118l3.948-0.037l-0.025-2.685
			c-1.497-0.011-2.789-0.012-3.875-0.002c-0.096,0.001-0.181-0.036-0.255-0.113c-0.073-0.076-0.11-0.164-0.111-0.267
			c-0.001-0.102,0.034-0.192,0.106-0.269c0.072-0.078,0.156-0.117,0.252-0.118c1.086-0.01,2.378-0.009,3.875,0.002l-0.01-1.112
			c-0.001-0.102,0.034-0.193,0.106-0.269c0.071-0.078,0.156-0.117,0.252-0.118c0.096-0.001,0.181,0.036,0.255,0.113
			c0.073,0.076,0.11,0.165,0.111,0.267l0.011,1.131c3.694,0.043,6.115,0.058,7.262,0.048c0.097-0.001,0.182,0.036,0.255,0.113
			c0.073,0.076,0.11,0.165,0.111,0.267c0.001,0.102-0.034,0.192-0.106,0.269c-0.071,0.078-0.155,0.117-0.252,0.118
			c-1.147,0.011-3.568-0.005-7.262-0.048l0.027,2.954c0.001,0.102-0.028,0.189-0.088,0.26c-0.06,0.071-0.138,0.113-0.235,0.127
			c-0.06,0.065-0.138,0.097-0.234,0.098L101.023,359.076z"/>
		<path d="M100.356,314.021c-0.013-0.102,0.01-0.195,0.069-0.279c0.06-0.084,0.141-0.133,0.244-0.147
			c0.102-0.013,0.193,0.011,0.272,0.075c0.079,0.063,0.125,0.152,0.139,0.267s0.028,0.409,0.044,0.882
			c0.018,0.64,0.035,1.08,0.048,1.323c0.029,0.524,0.063,0.926,0.102,1.208c0.025,0.14,0.044,0.255,0.058,0.344
			c0.097,0.012,0.212,0.024,0.344,0.036c0.205-0.002,0.465-0.011,0.779-0.027c0.132-0.001,0.38-0.017,0.742-0.045
			c0.362-0.029,0.604-0.045,0.724-0.046c0.326-0.003,0.519-0.005,0.58-0.005c-0.161-0.471-0.183-0.957-0.068-1.457
			c0.197-0.909,0.982-1.563,2.354-1.959c0.903-0.265,1.88-0.382,2.93-0.354c0.483,0.008,0.979,0.148,1.489,0.418
			c0.509,0.27,0.923,0.602,1.241,0.995c0.367,0.47,0.522,0.935,0.466,1.396c-0.068,0.551-0.407,1.001-1.02,1.352
			c-0.264,0.156-0.592,0.271-0.984,0.345c-0.391,0.074-0.687,0.115-0.886,0.123c-0.199,0.008-0.522,0.015-0.968,0.019
			c-0.096,0.001-0.182-0.037-0.255-0.113c-0.073-0.076-0.11-0.165-0.111-0.267c-0.001-0.102,0.034-0.193,0.106-0.27
			c0.071-0.077,0.156-0.116,0.252-0.117c0.423-0.004,0.733-0.01,0.932-0.018c0.199-0.008,0.458-0.043,0.778-0.103
			c0.32-0.061,0.587-0.156,0.803-0.286c0.396-0.221,0.611-0.473,0.645-0.755c0.021-0.256-0.084-0.53-0.315-0.822
			c-0.245-0.304-0.576-0.566-0.994-0.786c-0.419-0.22-0.821-0.335-1.208-0.344c-0.966-0.016-1.871,0.094-2.713,0.333
			c-1.096,0.305-1.713,0.77-1.852,1.399c-0.104,0.461-0.059,0.864,0.138,1.206c0-0.012,0.043,0.019,0.128,0.095
			c0.073,0.063,0.134,0.126,0.182,0.19c0.086,0.152,0.094,0.307,0.023,0.46c-0.082,0.205-0.226,0.297-0.432,0.272
			c-0.072-0.012-0.157-0.043-0.254-0.093c-0.012-0.013-0.03-0.026-0.055-0.038c-0.024-0.012-0.042-0.025-0.055-0.038l-0.018,0
			c-0.073-0.012-0.356-0.016-0.852-0.012c-0.12,0.001-0.356,0.016-0.706,0.046c-0.35,0.028-0.597,0.044-0.742,0.045
			c-0.325,0.016-0.597,0.025-0.814,0.027c-0.302-0.01-0.531-0.046-0.689-0.109c-0.146-0.063-0.249-0.209-0.312-0.438
			c-0.038-0.128-0.075-0.287-0.113-0.478c-0.04-0.307-0.073-0.735-0.103-1.285c-0.014-0.255-0.03-0.703-0.048-1.342
			C100.384,314.398,100.369,314.124,100.356,314.021z"/>
	</g>
</g>
<g>
</g>
<g>
</g>
<g>
</g>
<g>
</g>
<g>
</g>
<g>
</g>
</svg>
