<?xml version="1.0" encoding="iso-8859-1"?>
<!-- Generator: Adobe Illustrator 21.0.0, SVG Export Plug-In . SVG Version: 6.00 Build 0)  -->
<svg version="1.1" id="Layer_1" xmlns="http://www.w3.org/2000/svg" xmlns:xlink="http://www.w3.org/1999/xlink" x="0px" y="0px"
	 width="612px" height="792px" viewBox="0 0 612 792" enable-background="new 0 0 612 792" xml:space="preserve">
<g>
	<g>
		<path fill="#ED1C24" d="M164.432,571.949c-3.917-0.26-7.141-1.503-9.666-3.731c-2.532-2.225-3.795-4.913-3.795-8.055l0.49-16.503
			c0.651-10.083,0.978-20.104,0.978-30.06c0-23.048-2.285-41.713-6.852-55.99c-0.978-3.011-2.368-4.52-4.16-4.52
			c-1.144,0-2.612,0.786-4.407,2.358c-11.746,10.743-20.397,22.788-25.941,36.15c-7.833,15.979-12.567,32.612-14.195,49.901
			l-1.224,7.072c-1.798,6.159-6.362,9.43-13.705,9.823c-3.266,0-6.16-0.786-8.689-2.358c-2.532-1.572-4.202-3.798-5.019-6.679
			c-1.141-4.584-3.426-18.924-6.852-43.025c-4.243-25.8-7.096-46.69-8.564-62.669c0-1.702,0.16-3.078,0.487-4.127
			c2.119-5.237,6.445-7.922,12.974-8.055c6.032,0,10.195,2.162,12.48,6.482c1.628,4.324,3.917,18.468,6.852,42.435l4.894-8.251
			c6.202-11.396,14.522-21.739,24.964-31.04c8.811-8.514,18.028-12.771,27.656-12.771c23.823,0,35.979,22.528,36.466,67.582
			l0.247,26.523c0,21.219-0.49,34.514-1.468,39.884C176.749,568.741,172.098,571.949,164.432,571.949z"/>
		<path fill="#ED1C24" d="M231.73,578.631c-10.769,0-18.518-4.647-23.249-13.951c-7.673-18.075-11.503-40.404-11.503-66.993
			c0-15.583,1.711-31.04,5.138-46.363c1.304-5.237,3.263-10.283,5.875-15.13c5.875-10.344,15.663-15.52,29.371-15.52
			c12.727,0.133,25.451,0.59,38.178,1.376c7.013,0.393,11.583,0.853,13.708,1.376c7.666,2.228,11.503,5.829,11.503,10.806
			c0,4.061-2.045,7.006-6.122,8.841c-2.936,1.442-6.525,2.159-10.766,2.159c-17.788-1.832-30.758-2.748-38.915-2.748
			c-5.224,0-8.811,0.786-10.769,2.355c-1.958,1.572-3.346,5.569-4.16,11.985c18.599-0.523,32.306-1.046,41.117-1.572h2.692
			c9.788,0,14.762,3.341,14.929,10.02c0,3.145-1.346,5.893-4.038,8.251s-6.487,3.668-11.381,3.931
			c-14.358,0.916-30.188,1.569-47.479,1.962c-0.82,6.945-1.224,13.821-1.224,20.63c0,18.731,3.096,37.199,9.301,55.4
			c13.374-3.534,24.634-7.922,33.774-13.161c3.586-2.092,7.256-3.144,11.012-3.144c7.343,0,11.092,3.734,11.259,11.199
			c0,4.587-2.692,8.251-8.077,11.003c-12.567,7.335-26.271,12.768-41.117,16.306C237.522,578.302,234.503,578.631,231.73,578.631z"
			/>
		<path fill="#ED1C24" d="M364.594,578.828c-1.631,0-3.266-0.266-4.894-0.786c-5.715-1.835-9.141-5.959-10.278-12.378
			c-7.506-27.239-11.913-53.762-13.217-79.565c-0.654-5.24-0.978-10.413-0.978-15.523c0-5.107,0.324-14.471,0.978-28.092
			c-10.439,1.962-16.804,2.945-19.089,2.945c-6.198-0.26-10.359-2.748-12.483-7.465c-0.487-1.179-0.734-2.358-0.734-3.535
			c0-4.977,3.673-8.514,11.016-10.61c15.663-4.191,31.406-6.286,47.235-6.286c32.303,0,56.45,6.549,72.443,19.644
			c11.259,9.563,16.887,20.237,16.887,32.025c-0.163,11.786-6.118,22.265-17.868,31.433c-2.285,1.702-11.012,7.402-26.185,17.092
			c0.324,7.598,3.259,14.997,8.811,22.199c1.304,1.705,3.016,2.555,5.138,2.555c0.817,0,2.038-0.197,3.673-0.59
			c3.75-1.046,6.689-1.572,8.811-1.572c6.035,0,10.195,2.295,12.48,6.876c0.651,1.312,0.981,2.621,0.981,3.931
			c0,3.801-1.878,6.679-5.631,8.644c-6.692,3.801-13.378,5.696-20.066,5.696c-6.852,0-13.791-2.092-20.804-6.286
			c-6.529-4.717-11.259-10.347-14.195-16.896c-1.958-3.404-3.917-7.662-5.875-12.771l-10.522,4.717l6.852,29.074
			c0.651,1.572,0.978,2.884,0.978,3.931c0,2.488-0.817,4.714-2.445,6.679C372.83,577.186,369.161,578.828,364.594,578.828z"/>
		<path fill="#ED1C24" d="M491.37,570.38c-10.935,0-17.868-4.584-20.804-13.754c-4.247-15.06-6.448-31.889-6.609-50.49
			c0-16.633,1.224-33.332,3.67-50.097c0.651-2.618,0.981-5.566,0.981-8.841l-3.917,0.197c-10.929,0-16.477-3.601-16.644-10.806
			c0-4.844,3.022-8.315,9.057-10.41c3.096-1.049,9.134-1.572,18.111-1.572c26.102,0,49.274,7.072,69.507,21.216
			c18.272,12.838,27.409,28.095,27.409,45.776c0,5.107-0.734,10.413-2.202,15.913c-6.692,22.528-21.948,40.407-45.767,53.635
			C514.376,566.646,503.44,569.724,491.37,570.38z M496.998,546.999c26.105-7.592,41.687-23.442,46.745-47.542
			c0.49-2.618,0.734-5.107,0.734-7.465c0-11.133-5.548-20.693-16.64-28.684c-8.323-5.893-18.685-10.147-31.082-12.768
			c-3.266,15.849-4.897,31.762-4.897,47.739C491.858,514.52,493.572,530.762,496.998,546.999z"/>
	</g>
	<g>
		<path d="M96.387,414.508c-5.377,0-10.698-0.811-15.965-2.437c-13.827-3.932-21.069-11.805-21.728-23.611
			c0-7.013,4.225-12.489,12.675-16.424c3.949-1.711,7.954-2.565,12.016-2.565c7.571,0,15.029,2.996,22.384,8.981
			c2.081,1.797,3.126,3.594,3.126,5.39c0,1.455-0.659,2.95-1.974,4.49c-1.974,1.797-4.278,2.697-6.912,2.697
			c-1.868,0-3.899-0.516-6.093-1.54l-6.09-3.978c-1.755-0.94-3.236-1.412-4.442-1.412c-0.989,0-1.978,0.214-2.963,0.641
			c-1.974,1.202-2.963,2.654-2.963,4.365c0,0.769,0.107,1.455,0.33,2.053c1.425,3.163,3.949,5.412,7.571,6.736
			c3.619,1.327,7.185,1.989,10.698,1.989c3.183,0,6.309-0.47,9.382-1.412c5.813-1.879,8.723-5.344,8.723-10.393
			c0-0.427-0.11-2.202-0.33-5.326c-0.22-3.121-3.293-6.906-9.216-11.354c-4.062-2.996-8.23-5.903-12.509-8.727
			c-8.56-5.558-14.813-10.137-18.765-13.73c-4.278-4.445-6.419-9.109-6.419-13.987c0-6.586,3.346-12.272,10.042-17.065
			c5.813-4.191,13.934-6.458,24.358-6.803c8.121,0,15.635,2.654,22.55,7.956c3.949,3.423,5.923,7.401,5.923,11.934
			c0,4.109-1.808,7.443-5.43,10.009c-1.974,1.284-4.005,1.925-6.09,1.925c-1.758,0-3.456-0.384-5.104-1.153
			c-2.743-1.367-4.112-3.292-4.112-5.775c0-0.683,0.133-1.476,0.41-2.373c0.273-0.9,0.413-1.775,0.413-2.633
			c0-3.249-3.24-4.875-9.712-4.875c-1.868,0-3.786,0.214-5.76,0.641c-5.707,1.199-8.56,3.938-8.56,8.212
			c0,1.714,1.042,3.551,3.126,5.518c2.084,1.971,7.132,5.604,15.142,10.909c19.641,11.464,29.462,23.867,29.462,37.21
			c-0.986,12.492-9.216,20.704-24.688,24.639C104.834,414.081,100.666,414.508,96.387,414.508z"/>
		<path d="M177.696,410.789c-2.197,0-4.445-0.214-6.749-0.644c-10.425-1.797-18.492-6.241-24.195-13.343
			c-6.036-8.041-9.053-17.11-9.053-27.204c0.989-23.098,11.3-38.793,30.944-47.094c3.622-1.623,7.351-2.437,11.194-2.437
			c3.399,0,6.855,0.686,10.368,2.053c11.194,4.362,16.844,11.805,16.954,22.327c0,4.792-1.868,9.325-5.597,13.602
			c-2.853,2.91-6.036,4.362-9.546,4.362c-2.304,0-4.308-0.747-6.01-2.245c-1.701-1.495-2.55-3.057-2.55-4.683
			c0-1.284,1.152-3.508,3.456-6.674c0.989-1.879,1.482-3.633,1.482-5.259c0-2.736-1.372-5.088-4.115-7.059
			c-1.425-1.11-2.907-1.669-4.441-1.669c-1.318,0-2.634,0.43-3.952,1.284c-3.513,2.138-6.529,4.618-9.053,7.443
			c-6.692,8.297-10.038,17.11-10.038,26.433c0,3.081,0.33,6.159,0.986,9.24c3.073,9.411,8.56,14.969,16.461,16.68
			c0.986,0.256,1.918,0.384,2.797,0.384c3.622,0,6.472-3.078,8.56-9.237c1.755-4.878,4.881-7.315,9.382-7.315l1.315,0.128
			c5.267,0.943,7.901,3.551,7.901,7.828c-0.659,6.671-3.842,12.446-9.546,17.324C189.712,408.864,184.059,410.789,177.696,410.789z"
			/>
		<path d="M233.658,414.895c-6.036,0-9.822-3.764-11.357-11.293c-2.857-14.2-4.338-29.001-4.445-44.397
			c0-10.695,1.372-16.982,4.115-18.864c1.755-1.11,3.786-1.669,6.09-1.669c5.926,0.088,8.943,2.782,9.053,8.084
			c0.216,4.194,0.33,8.471,0.33,12.833v3.078c0,15.484,1.588,29.77,4.771,42.86c0.22,0.943,0.33,1.797,0.33,2.565
			c0,3.252-2.031,5.433-6.09,6.543C235.466,414.81,234.533,414.895,233.658,414.895z M230.365,332.513
			c-3.842-0.082-6.859-1.58-9.053-4.49c-0.879-1.367-1.315-2.736-1.315-4.106c0-3.508,1.808-6.244,5.43-8.212
			c1.645-0.854,3.346-1.284,5.101-1.284c1.425,0,2.853,0.302,4.282,0.9c3.619,1.455,5.43,4.149,5.43,8.084
			c-0.11,2.395-0.716,4.191-1.811,5.387C236.235,331.275,233.545,332.513,230.365,332.513z"/>
		<path d="M273.984,417.589c-7.242,0-12.456-3.035-15.635-9.112c-5.161-11.805-7.738-26.387-7.738-43.756
			c0-10.176,1.152-20.274,3.456-30.282c0.879-3.42,2.194-6.714,3.952-9.881c3.949-6.757,10.531-10.137,19.75-10.137
			c8.557,0.085,17.117,0.384,25.677,0.9c4.715,0.256,7.788,0.555,9.216,0.897c5.157,1.455,7.738,3.807,7.738,7.059
			c0,2.651-1.375,4.576-4.115,5.772c-1.978,0.943-4.392,1.412-7.242,1.412c-11.963-1.196-20.686-1.797-26.173-1.797
			c-3.513,0-5.923,0.516-7.242,1.54c-1.315,1.028-2.251,3.636-2.797,7.828c12.509-0.342,21.725-0.683,27.651-1.028h1.811
			c6.582,0,9.928,2.184,10.038,6.546c0,2.053-0.906,3.85-2.714,5.387c-1.811,1.541-4.362,2.398-7.654,2.569
			c-9.659,0.598-20.303,1.025-31.933,1.281c-0.549,4.536-0.822,9.026-0.822,13.474c0,12.236,2.084,24.297,6.256,36.185
			c8.996-2.309,16.567-5.174,22.714-8.596c2.411-1.367,4.881-2.053,7.405-2.053c4.938,0,7.461,2.437,7.571,7.315
			c0,2.996-1.808,5.387-5.43,7.184c-8.45,4.792-17.666,8.34-27.651,10.652C277.876,417.375,275.849,417.589,273.984,417.589z"/>
		<path d="M398.579,413.227c-2.634-0.171-4.801-0.982-6.502-2.437c-1.701-1.455-2.55-3.209-2.55-5.262l0.33-10.78
			c0.436-6.586,0.656-13.129,0.656-19.63c0-15.057-1.535-27.247-4.608-36.573c-0.656-1.968-1.591-2.95-2.797-2.95
			c-0.769,0-1.758,0.512-2.963,1.54c-7.901,7.013-13.717,14.883-17.446,23.608c-5.267,10.439-8.45,21.302-9.546,32.595l-0.822,4.618
			c-1.212,4.024-4.282,6.159-9.219,6.415c-2.197,0-4.142-0.512-5.843-1.537c-1.701-1.028-2.827-2.48-3.373-4.365
			c-0.769-2.993-2.304-12.361-4.608-28.101c-2.857-16.851-4.774-30.496-5.763-40.932c0-1.11,0.11-2.01,0.33-2.697
			c1.425-3.42,4.335-5.174,8.723-5.259c4.059,0,6.859,1.409,8.394,4.234c1.099,2.822,2.634,12.062,4.611,27.717l3.29-5.39
			c4.168-7.443,9.765-14.2,16.79-20.274c5.923-5.561,12.123-8.34,18.598-8.34c16.018,0,24.195,14.713,24.525,44.141l0.163,17.324
			c0,13.855-0.33,22.54-0.986,26.048C406.863,411.131,403.737,413.227,398.579,413.227z"/>
		<path d="M457.501,410.789c-2.197,0-4.445-0.214-6.749-0.644c-10.425-1.797-18.492-6.241-24.195-13.343
			c-6.036-8.041-9.053-17.11-9.053-27.204c0.989-23.098,11.3-38.793,30.944-47.094c3.622-1.623,7.351-2.437,11.194-2.437
			c3.399,0,6.855,0.686,10.368,2.053c11.194,4.362,16.844,11.805,16.954,22.327c0,4.792-1.868,9.325-5.597,13.602
			c-2.853,2.91-6.036,4.362-9.546,4.362c-2.304,0-4.308-0.747-6.01-2.245c-1.701-1.495-2.55-3.057-2.55-4.683
			c0-1.284,1.152-3.508,3.456-6.674c0.989-1.879,1.482-3.633,1.482-5.259c0-2.736-1.372-5.088-4.115-7.059
			c-1.425-1.11-2.907-1.669-4.441-1.669c-1.318,0-2.634,0.43-3.952,1.284c-3.513,2.138-6.529,4.618-9.053,7.443
			c-6.692,8.297-10.038,17.11-10.038,26.433c0,3.081,0.33,6.159,0.986,9.24c3.073,9.411,8.56,14.969,16.461,16.68
			c0.986,0.256,1.918,0.384,2.797,0.384c3.622,0,6.472-3.078,8.56-9.237c1.755-4.878,4.881-7.315,9.382-7.315l1.315,0.128
			c5.267,0.943,7.901,3.551,7.901,7.828c-0.659,6.671-3.842,12.446-9.546,17.324C469.517,408.864,463.864,410.789,457.501,410.789z"
			/>
		<path d="M517.415,417.589c-7.242,0-12.456-3.035-15.635-9.112c-5.161-11.805-7.738-26.387-7.738-43.756
			c0-10.176,1.152-20.274,3.456-30.282c0.879-3.42,2.194-6.714,3.952-9.881c3.949-6.757,10.531-10.137,19.75-10.137
			c8.557,0.085,17.117,0.384,25.677,0.9c4.715,0.256,7.788,0.555,9.216,0.897c5.157,1.455,7.738,3.807,7.738,7.059
			c0,2.651-1.375,4.576-4.115,5.772c-1.978,0.943-4.392,1.412-7.242,1.412c-11.963-1.196-20.686-1.797-26.173-1.797
			c-3.513,0-5.923,0.516-7.242,1.54c-1.315,1.028-2.251,3.636-2.797,7.828c12.509-0.342,21.725-0.683,27.651-1.028h1.811
			c6.582,0,9.928,2.184,10.038,6.546c0,2.053-0.906,3.85-2.714,5.387c-1.811,1.541-4.362,2.398-7.654,2.569
			c-9.659,0.598-20.303,1.025-31.933,1.281c-0.549,4.536-0.822,9.026-0.822,13.474c0,12.236,2.084,24.297,6.256,36.185
			c8.996-2.309,16.567-5.174,22.714-8.596c2.411-1.367,4.881-2.053,7.405-2.053c4.938,0,7.461,2.437,7.571,7.315
			c0,2.996-1.808,5.387-5.43,7.184c-8.45,4.792-17.666,8.34-27.651,10.652C521.307,417.375,519.279,417.589,517.415,417.589z"/>
	</g>
	<path d="M55.975,135.802c24.227-4.57,47.941-11.207,72.295-15.256c17.032-2.832,34.161-3.311,51.406-1.817
		c29.159,2.526,57.712,7.895,85.975,14.821c22.483,5.51,45.261,6.363,68.294,3.366c19.705-2.564,38.972-7.013,58.352-10.984
		c19.768-4.051,39.59-7.667,59.927-8.262c11.686-0.342,23.107,1.472,34.624,2.83c19.485,2.298,37.936,8.169,56.689,13.039
		c2.759,0.716,5.639,1.028,8.414,1.702c5.109,1.24,7.751,4.093,7.452,8.85c-0.431,6.843-0.23,13.657,0.012,20.49
		c0.126,3.559-1.296,6.407-4.709,8.593c-6.513,4.171-9.365,10.626-11.535,17.316c-3.868,11.924-6.428,24.144-9.404,36.269
		c-2.883,11.75-6.08,23.426-12.186,34.179c-12.128,21.36-31.211,34.754-56.501,40.219c-31.194,6.741-60.338,1.819-86.576-15.312
		c-13.243-8.646-22.15-20.809-29.407-34.018c-8.106-14.753-13.369-30.427-17.728-46.397c-1.559-5.712-3.833-11.159-7.441-16.067
		c-2.267-3.084-5.05-5.055-9.505-4.929c-3.37,0.096-6.782-0.436-10.195-0.415c-4.151,0.026-7.071,1.648-8.955,5.148
		c-4.068,7.558-5.976,15.711-8.034,23.828c-6.429,25.36-18.909,47.905-37.743,67.283c-13.612,14.006-30.975,21.408-51.313,23.285
		c-14.884,1.374-29.659,1.418-44.288-1.583c-16.127-3.308-31.086-8.941-43.214-19.748c-5.484-4.887-9.415-10.713-12.176-17.234
		c-9.635-22.757-17.137-46.1-22.509-70.016c-1.18-5.256-3.882-9.75-7.314-13.956c-2.413-2.957-4.872-5.883-7.294-8.833
		c-2.799-3.409-4.494-7.222-4.89-11.5c-0.031-0.337-0.125-0.622-0.524-0.727C55.975,151.911,55.975,143.856,55.975,135.802z
		 M188.395,133.1c-12.85,0.086-25.616,1.262-38.341,2.869c-9.932,1.254-19.787,2.788-29.25,6.042
		c-17.378,5.976-25.718,16.829-26.075,33.784c-0.32,15.206,1.612,30.166,5.203,44.974c2.77,11.425,5.42,22.911,10.642,33.649
		c7.46,15.341,19.302,26.478,37.29,31.097c13.466,3.459,27.19,4.892,41.193,3.582c23.644-2.211,42.733-11.947,57.38-29.16
		c7.772-9.134,12.978-19.519,17.494-30.25c6.177-14.681,12.232-29.4,13.136-45.364c0.648-11.444-2.574-21.634-11.898-29.724
		c-4.296-3.728-9.167-6.703-14.474-9.006C230.979,137.04,210.205,132.846,188.395,133.1z M430.779,133.236
		c-2.358,0-4.719-0.054-7.075,0.009c-19.625,0.523-38.279,4.803-55.904,12.699c-10.299,4.614-18.849,11.069-23.106,21.301
		c-3.486,8.381-3.358,17.078-1.618,25.693c3.977,19.697,11.477,38.338,21.79,55.902c10.577,18.014,26.339,30.835,47.826,37.043
		c17.535,5.066,35.223,4.47,53.017,0.957c13.832-2.73,25.394-8.676,34.178-18.993c6.726-7.9,10.827-16.94,13.767-26.524
		c6.739-21.974,11.6-44.189,10.715-67.194c-0.461-11.986-5.517-21.593-16.854-27.993c-4.252-2.4-8.787-4.278-13.58-5.517
		C473.286,135.279,452.072,133.86,430.779,133.236z"/>
	<g>
		<path fill="#FFFFFF" d="M423.256,473.447c0-4.539-5.604-8.371-15.828-10.854c0.655-1.111,1.254-2.193,1.79-3.224
			c4.172-8.032,4.928-13.566,2.246-16.444c-1.052-1.13-2.596-1.728-4.464-1.728c-5.524,0-14.309,5.034-24.192,13.844
			c-9.885-8.81-18.67-13.844-24.192-13.844c-1.867,0-3.413,0.598-4.466,1.728c-2.682,2.878-1.926,8.412,2.245,16.444
			c0.544,1.045,1.143,2.127,1.79,3.224c-10.223,2.483-15.828,6.315-15.828,10.854s5.604,8.371,15.828,10.854
			c-0.647,1.097-1.246,2.179-1.79,3.224c-4.172,8.034-4.928,13.566-2.245,16.444c1.052,1.13,2.596,1.728,4.464,1.728
			c5.527,0,14.311-5.034,24.194-13.844c9.881,8.81,18.666,13.844,24.192,13.844c1.867,0,3.411-0.598,4.464-1.728
			c3.779-4.053,0.057-12.702-4.058-19.662C417.643,481.825,423.256,477.991,423.256,473.447z M356.733,445.243
			c0.382-0.408,1.015-0.615,1.882-0.615c4.455,0,12.685,4.875,21.617,12.774c-0.907,0.854-1.817,1.732-2.727,2.638
			c-5.531,0.24-10.94,0.85-15.727,1.773c-0.842-1.388-1.603-2.733-2.264-4.006C355.691,450.444,355.572,446.49,356.733,445.243z
			 M373.996,463.659c-0.088,0.093-0.176,0.188-0.263,0.283c-2.044,2.191-4.014,4.444-5.875,6.708
			c-1.475-1.93-2.855-3.857-4.117-5.754C366.942,464.329,370.376,463.915,373.996,463.659z M367.858,476.244
			c1.867,2.276,3.84,4.527,5.873,6.708c0.088,0.095,0.176,0.19,0.265,0.283c-3.619-0.255-7.054-0.67-10.255-1.237
			C365.003,480.101,366.383,478.173,367.858,476.244z M370.063,473.447c1.972-2.435,4.075-4.852,6.258-7.192
			c0.905-0.974,1.817-1.92,2.731-2.845c2.456-0.074,5.058-0.074,7.509,0c0.914,0.925,1.825,1.872,2.733,2.847
			c2.208,2.369,4.312,4.783,6.262,7.182c-1.981,2.446-4.086,4.864-6.262,7.198l-0.002,0.002c-0.905,0.972-1.817,1.922-2.731,2.845
			c-2.451,0.074-5.054,0.074-7.509,0c-0.914-0.923-1.825-1.874-2.733-2.847C374.138,478.299,372.036,475.882,370.063,473.447z
			 M391.882,463.942c-0.088-0.095-0.176-0.19-0.265-0.283c3.619,0.255,7.054,0.67,10.255,1.237c-1.258,1.891-2.64,3.823-4.125,5.766
			C395.873,468.368,393.902,466.111,391.882,463.942z M391.617,483.234c0.088-0.093,0.176-0.188,0.263-0.281
			c2.029-2.177,4.004-4.43,5.879-6.718c1.496,1.955,2.878,3.883,4.128,5.76C398.679,482.565,395.241,482.979,391.617,483.234z
			 M403.834,461.813c-4.789-0.923-10.198-1.533-15.727-1.773c-0.91-0.906-1.819-1.784-2.724-2.638
			c8.929-7.901,17.159-12.774,21.617-12.774c0.865,0,1.498,0.207,1.88,0.615c1.162,1.246,1.042,5.201-2.781,12.563
			C405.437,459.08,404.676,460.423,403.834,461.813z M382.805,459.924c-0.063,0-0.124,0-0.187,0
			c0.063-0.058,0.126-0.118,0.189-0.176c0.063,0.058,0.124,0.118,0.187,0.176C382.931,459.924,382.868,459.924,382.805,459.924z
			 M360.063,465.639c1.641,2.543,3.508,5.164,5.56,7.808c-2.059,2.652-3.924,5.272-5.56,7.808
			c-9.805-2.243-14.206-5.514-14.206-7.808S350.257,467.882,360.063,465.639z M361.779,485.081
			c4.798,0.925,10.209,1.535,15.729,1.773c0.907,0.906,1.817,1.784,2.722,2.638c-8.927,7.901-17.157,12.774-21.617,12.774
			c-0.868,0-1.5-0.207-1.878-0.612c-1.164-1.248-1.044-5.204,2.779-12.567C360.176,487.814,360.936,486.471,361.779,485.081z
			 M382.996,486.97c-0.063,0.058-0.126,0.118-0.189,0.176c-0.063-0.058-0.126-0.118-0.189-0.176
			C382.74,486.97,382.87,486.97,382.996,486.97z M388.107,486.854c5.533-0.24,10.948-0.852,15.742-1.775
			c5.571,9.186,6.558,14.932,5.029,16.575c-0.38,0.406-1.01,0.612-1.878,0.612c-4.459,0-12.689-4.874-21.617-12.774
			C386.288,488.638,387.198,487.76,388.107,486.854z M405.521,481.262c-1.641-2.535-3.502-5.152-5.545-7.796
			c2.059-2.654,3.93-5.28,5.575-7.827c9.805,2.243,14.206,5.514,14.206,7.808C419.756,475.744,415.347,479.019,405.521,481.262z"/>
		<path fill="#FFFFFF" d="M382.805,478.33c2.594,0,4.705-2.191,4.705-4.883s-2.111-4.883-4.705-4.883
			c-2.594,0-4.703,2.191-4.703,4.883S380.211,478.33,382.805,478.33z M382.805,474.9c-0.651,0-1.202-0.666-1.202-1.454
			c0-0.788,0.55-1.454,1.202-1.454c0.653,0,1.204,0.666,1.204,1.454C384.009,474.235,383.459,474.9,382.805,474.9z"/>
	</g>
	<g>
		<path fill="#ED1C24" d="M90.915,301.104c-2.289,0-4.23-1.369-4.821-3.407l-0.974-3.333c-0.136-0.452-0.522-0.808-1.015-0.933
			l-3.614-0.897c-2.212-0.545-3.698-2.33-3.701-4.439c0-2.112,1.485-3.9,3.701-4.448l3.617-0.898
			c0.49-0.125,0.877-0.481,1.012-0.936l0.974-3.33c0.591-2.038,2.532-3.407,4.821-3.407c2.288,0,4.23,1.369,4.825,3.407l0.974,3.333
			c0.136,0.452,0.522,0.808,1.016,0.933l3.614,0.898c2.212,0.548,3.698,2.336,3.698,4.448c0,2.109-1.489,3.894-3.698,4.439
			l-3.617,0.897c-0.49,0.125-0.877,0.481-1.012,0.936l-0.974,3.33C95.145,299.736,93.203,301.104,90.915,301.104z M90.915,278.358
			c-0.258,0-1.12,0.071-1.384,0.978l-0.974,3.333c-0.463,1.577-1.812,2.82-3.52,3.247l-3.621,0.897
			c-0.988,0.247-1.064,1.042-1.064,1.279c0,0.237,0.076,1.029,1.064,1.272l3.617,0.901c1.711,0.426,3.061,1.67,3.524,3.243
			l0.974,3.336c0.264,0.907,1.127,0.978,1.384,0.978c0.257,0,1.12-0.071,1.388-0.978l0.974-3.333c0.462-1.577,1.812-2.82,3.52-3.246
			l3.621-0.898c0.985-0.244,1.061-1.038,1.061-1.275c0-0.237-0.077-1.032-1.061-1.279l-3.617-0.897
			c-1.711-0.426-3.061-1.67-3.523-3.244l-0.974-3.336C92.035,278.429,91.172,278.358,90.915,278.358z"/>
	</g>
	<g>
		<path fill="#ED1C24" d="M65.227,260.688c-2.289,0-4.23-1.369-4.821-3.407l-0.974-3.333c-0.136-0.452-0.522-0.808-1.015-0.933
			l-3.614-0.897c-2.212-0.545-3.698-2.33-3.701-4.439c0-2.112,1.485-3.9,3.701-4.448l3.617-0.898
			c0.49-0.125,0.877-0.481,1.012-0.936l0.974-3.33c0.591-2.038,2.532-3.407,4.821-3.407c2.288,0,4.23,1.369,4.825,3.407l0.974,3.333
			c0.136,0.452,0.522,0.808,1.016,0.933l3.614,0.898c2.212,0.548,3.698,2.336,3.698,4.448c0,2.109-1.489,3.894-3.698,4.439
			l-3.617,0.897c-0.49,0.125-0.877,0.481-1.012,0.936l-0.974,3.33C69.456,259.32,67.515,260.688,65.227,260.688z M65.227,237.942
			c-0.258,0-1.12,0.071-1.384,0.978l-0.974,3.333c-0.463,1.577-1.812,2.82-3.52,3.247l-3.621,0.897
			c-0.988,0.247-1.064,1.042-1.064,1.279c0,0.237,0.076,1.029,1.064,1.272l3.617,0.901c1.711,0.426,3.061,1.67,3.524,3.243
			l0.974,3.336c0.264,0.907,1.127,0.978,1.384,0.978c0.257,0,1.12-0.071,1.388-0.978l0.974-3.333c0.462-1.577,1.812-2.82,3.52-3.246
			l3.621-0.898c0.985-0.244,1.061-1.038,1.061-1.275c0-0.237-0.077-1.032-1.061-1.279l-3.617-0.897
			c-1.711-0.426-3.061-1.67-3.523-3.244l-0.974-3.336C66.347,238.013,65.484,237.942,65.227,237.942z"/>
	</g>
	<g>
		<path fill="#ED1C24" d="M50.23,314.107c-2.289,0-4.23-1.369-4.821-3.407l-0.974-3.333c-0.136-0.452-0.522-0.808-1.015-0.933
			l-3.614-0.897c-2.212-0.545-3.698-2.33-3.701-4.439c0-2.112,1.485-3.9,3.701-4.448l3.617-0.898
			c0.49-0.125,0.877-0.481,1.012-0.936l0.974-3.33c0.591-2.038,2.532-3.407,4.821-3.407c2.288,0,4.23,1.369,4.825,3.407l0.974,3.333
			c0.136,0.452,0.522,0.808,1.016,0.933l3.614,0.898c2.212,0.548,3.698,2.336,3.698,4.448c0,2.109-1.489,3.894-3.698,4.439
			l-3.617,0.897c-0.49,0.125-0.877,0.481-1.012,0.936l-0.974,3.33C54.459,312.738,52.518,314.107,50.23,314.107z M50.23,291.361
			c-0.258,0-1.12,0.071-1.384,0.978l-0.974,3.333c-0.463,1.577-1.812,2.82-3.52,3.247l-3.621,0.897
			c-0.988,0.247-1.064,1.042-1.064,1.279c0,0.237,0.076,1.029,1.064,1.272l3.617,0.901c1.711,0.426,3.061,1.67,3.524,3.243
			l0.974,3.336c0.264,0.907,1.127,0.978,1.384,0.978c0.257,0,1.12-0.071,1.388-0.978l0.974-3.333c0.462-1.577,1.812-2.82,3.52-3.246
			l3.621-0.898c0.985-0.243,1.061-1.038,1.061-1.275c0-0.237-0.077-1.032-1.061-1.279l-3.617-0.897
			c-1.711-0.426-3.061-1.67-3.523-3.243l-0.974-3.336C51.349,291.431,50.487,291.361,50.23,291.361z"/>
	</g>
	<g>
		<path fill="#ED1C24" d="M522.566,277.036c1.944-1.113,4.377-0.894,6.046,0.55l2.736,2.358c0.374,0.318,0.906,0.432,1.397,0.299
			l3.584-0.995c2.191-0.613,4.475,0.182,5.686,1.972c1.209,1.794,0.972,4.035-0.596,5.578l-2.559,2.521
			c-0.345,0.345-0.469,0.835-0.324,1.287l1.08,3.302c0.665,2.019-0.2,4.125-2.144,5.238c-1.944,1.113-4.377,0.894-6.049-0.548
			l-2.736-2.358c-0.374-0.318-0.906-0.432-1.397-0.298l-3.584,0.995c-2.193,0.61-4.479-0.187-5.688-1.981
			c-1.208-1.791-0.965-4.032,0.599-5.569l2.559-2.521c0.345-0.345,0.469-0.835,0.324-1.287l-1.08-3.302
			C519.757,280.255,520.622,278.148,522.566,277.036z M535.592,296.357c0.219-0.125,0.911-0.605,0.616-1.504l-1.082-3.305
			c-0.51-1.565-0.076-3.277,1.131-4.47l2.562-2.523c0.698-0.69,0.307-1.402,0.172-1.604c-0.136-0.201-0.654-0.837-1.633-0.563
			l-3.589,0.993c-1.698,0.47-3.557,0.07-4.851-1.042l-2.738-2.361c-0.744-0.642-1.517-0.283-1.736-0.157
			c-0.218,0.125-0.911,0.604-0.619,1.505l1.081,3.305c0.51,1.564,0.076,3.277-1.131,4.469l-2.562,2.523
			c-0.697,0.686-0.307,1.398-0.171,1.599c0.136,0.202,0.656,0.84,1.634,0.571l3.587-0.997c1.698-0.47,3.557-0.07,4.85,1.042
			l2.738,2.361C534.601,296.842,535.374,296.482,535.592,296.357z"/>
	</g>
	<g>
		<path fill="#ED1C24" d="M561.861,285.491c1.944-1.113,4.377-0.894,6.046,0.55l2.736,2.358c0.374,0.318,0.906,0.432,1.397,0.299
			l3.584-0.995c2.191-0.613,4.475,0.182,5.686,1.972c1.209,1.794,0.972,4.035-0.596,5.578l-2.559,2.521
			c-0.345,0.345-0.469,0.835-0.324,1.287l1.08,3.302c0.665,2.019-0.2,4.125-2.144,5.238c-1.944,1.113-4.377,0.894-6.049-0.548
			l-2.736-2.358c-0.374-0.318-0.906-0.432-1.397-0.298L563,305.39c-2.193,0.61-4.479-0.187-5.688-1.981
			c-1.208-1.791-0.965-4.032,0.599-5.569l2.559-2.521c0.345-0.345,0.469-0.835,0.324-1.287l-1.08-3.302
			C559.051,288.71,559.917,286.604,561.861,285.491z M574.887,304.813c0.219-0.125,0.911-0.605,0.616-1.504l-1.082-3.305
			c-0.51-1.565-0.076-3.277,1.131-4.47l2.562-2.523c0.698-0.69,0.308-1.402,0.172-1.604c-0.136-0.201-0.654-0.837-1.633-0.563
			l-3.589,0.993c-1.698,0.47-3.557,0.07-4.851-1.042l-2.738-2.361c-0.744-0.642-1.517-0.283-1.736-0.157
			c-0.218,0.125-0.911,0.604-0.619,1.505l1.081,3.305c0.51,1.564,0.076,3.277-1.131,4.469l-2.562,2.523
			c-0.697,0.686-0.307,1.398-0.171,1.599c0.136,0.202,0.656,0.84,1.634,0.571l3.587-0.997c1.698-0.47,3.557-0.07,4.85,1.042
			l2.738,2.36C573.895,305.297,574.668,304.938,574.887,304.813z"/>
	</g>
	<g>
		<path fill="#ED1C24" d="M539.21,235.673c1.944-1.113,4.377-0.894,6.046,0.55l2.736,2.358c0.374,0.318,0.906,0.432,1.397,0.299
			l3.584-0.995c2.191-0.613,4.475,0.182,5.686,1.972c1.209,1.794,0.972,4.035-0.596,5.578l-2.559,2.521
			c-0.345,0.345-0.469,0.835-0.324,1.287l1.08,3.302c0.665,2.019-0.2,4.125-2.144,5.238c-1.944,1.113-4.377,0.894-6.049-0.548
			l-2.736-2.358c-0.374-0.318-0.906-0.432-1.397-0.298l-3.584,0.995c-2.193,0.61-4.479-0.187-5.688-1.981
			c-1.208-1.791-0.965-4.032,0.599-5.569l2.559-2.521c0.345-0.345,0.469-0.835,0.324-1.287l-1.08-3.302
			C536.401,238.892,537.266,236.785,539.21,235.673z M552.236,254.994c0.219-0.125,0.911-0.605,0.616-1.504l-1.082-3.305
			c-0.51-1.565-0.076-3.277,1.131-4.469l2.562-2.523c0.698-0.69,0.307-1.402,0.172-1.604c-0.136-0.201-0.654-0.837-1.633-0.563
			l-3.589,0.993c-1.698,0.47-3.556,0.07-4.851-1.042l-2.738-2.361c-0.744-0.642-1.517-0.283-1.736-0.157
			c-0.218,0.125-0.911,0.604-0.619,1.505l1.081,3.305c0.51,1.564,0.076,3.277-1.131,4.469l-2.562,2.523
			c-0.697,0.686-0.307,1.398-0.171,1.599c0.136,0.202,0.656,0.84,1.634,0.571l3.587-0.997c1.698-0.47,3.557-0.07,4.85,1.042
			l2.738,2.36C551.244,255.479,552.018,255.119,552.236,254.994z"/>
	</g>
</g>
<g>
</g>
<g>
</g>
<g>
</g>
<g>
</g>
<g>
</g>
<g>
</g>
</svg>
