<?xml version="1.0" encoding="iso-8859-1"?>
<!-- Generator: Adobe Illustrator 21.0.0, SVG Export Plug-In . SVG Version: 6.00 Build 0)  -->
<svg version="1.1" id="Layer_1" xmlns="http://www.w3.org/2000/svg" xmlns:xlink="http://www.w3.org/1999/xlink" x="0px" y="0px"
	 width="612px" height="792px" viewBox="0 0 612 792" enable-background="new 0 0 612 792" xml:space="preserve">
<g>
	<polygon fill="#00A651" points="120.743,439.229 176.493,412.508 174.91,408.918 119.16,435.639 	"/>
	<polygon fill="#00A651" points="128.077,455.857 183.828,429.135 178.827,417.799 123.077,444.52 	"/>
	<polygon fill="#00A651" points="116.826,430.349 172.576,403.627 110.731,263.424 54.981,290.145 	"/>
	<polygon fill="#00A651" points="52.647,284.854 108.397,258.133 106.814,254.543 51.063,281.264 	"/>
	<polygon fill="#00A651" points="48.729,275.974 104.48,249.252 97.312,233.002 88.279,237.331 52.724,192.569 41.141,198.121 
		50.594,255.394 41.561,259.723 	"/>
</g>
<g>
	<polygon fill="#F15A29" points="28.351,394.967 81.279,422.803 83.299,419.318 30.371,391.482 	"/>
	<polygon fill="#F15A29" points="19,411.109 71.928,438.945 78.304,427.94 25.376,400.103 	"/>
	<polygon fill="#F15A29" points="33.346,386.346 86.274,414.182 165.124,278.074 112.196,250.237 	"/>
	<polygon fill="#F15A29" points="115.172,245.101 168.1,272.938 170.119,269.452 117.191,241.616 	"/>
	<polygon fill="#F15A29" points="120.166,236.48 173.094,264.316 182.233,248.54 173.659,244.031 189.96,187.987 178.963,182.203 
		137.881,225.214 129.305,220.704 	"/>
</g>
<g>
	<path fill="#2E3192" d="M211.826,207.072c-3.016,0-5.43-1.174-7.239-3.524c-0.806-1.259-1.357-2.685-1.659-4.28
		c-3.219-13.51-4.826-26.559-4.826-39.146c0-5.621,0.453-12.418,1.357-20.392c0.502-3.859,0.853-7.72,1.056-11.581
		c-1.308,0-2.515-0.126-3.62-0.377c-4.624-1.174-6.938-3.44-6.938-6.797c0-1.51,0.655-3.062,1.961-4.657
		c1.81-1.678,3.921-2.895,6.334-3.65c6.636-2.014,13.171-3.021,19.606-3.021c8.748,0,17.293,1.847,25.64,5.539
		c7.942,3.776,12.919,8.099,14.932,12.965c2.01,4.868,3.016,9.106,3.016,12.713c0,2.014-0.252,4.028-0.754,6.042
		c-2.616,11.75-9.301,21.105-20.059,28.07c3.82,4.783,6.686,8.141,8.597,10.07c1.909,1.932,2.866,3.861,2.866,5.791
		c-0.102,2.014-0.931,3.693-2.489,5.035c-1.56,1.343-3.344,2.014-5.354,2.014c-3.219,0-6.485-1.719-9.804-5.161l-9.954-11.58
		l-7.39,1.762c2.01,10.07,3.017,16.029,3.017,17.874C219.518,204.555,216.751,206.654,211.826,207.072z M236.259,157.604
		c5.528-5.454,8.295-11.411,8.295-17.874c0-4.447-2.314-8.097-6.938-10.951c-5.331-3.021-11.462-4.573-18.4-4.657
		c-2.413,11.832-3.62,23.79-3.62,35.874l0.151,7.552C225.099,165.871,231.935,162.556,236.259,157.604z"/>
	<path fill="#2E3192" d="M288.746,209.842c-6.636,0-11.413-2.978-14.328-8.937c-4.728-11.581-7.089-25.887-7.089-42.923
		c0-9.985,1.056-19.888,3.167-29.706c0.804-3.355,2.01-6.587,3.62-9.692c3.62-6.628,9.653-9.944,18.099-9.944
		c7.843,0.084,15.686,0.377,23.528,0.881c4.322,0.252,7.138,0.547,8.446,0.881c4.725,1.428,7.088,3.735,7.088,6.923
		c0,2.602-1.258,4.49-3.771,5.665c-1.81,0.924-4.022,1.384-6.636,1.384c-10.961-1.174-18.954-1.762-23.981-1.762
		c-3.219,0-5.429,0.504-6.636,1.511c-1.207,1.007-2.062,3.568-2.564,7.678c11.462-0.334,19.908-0.671,25.338-1.007h1.659
		c6.032,0,9.099,2.14,9.2,6.419c0,2.014-0.83,3.776-2.489,5.287c-1.659,1.511-3.996,2.351-7.013,2.518
		c-8.849,0.588-18.603,1.007-29.259,1.259c-0.504,4.449-0.754,8.854-0.754,13.217c0,12.001,1.909,23.833,5.731,35.497
		c8.243-2.266,15.181-5.077,20.813-8.434c2.21-1.341,4.473-2.014,6.787-2.014c4.524,0,6.836,2.392,6.938,7.175
		c0,2.938-1.659,5.287-4.978,7.049c-7.743,4.701-16.189,8.182-25.338,10.448C292.314,209.631,290.455,209.842,288.746,209.842z"/>
	<path fill="#2E3192" d="M388.438,213.492c-2.816-0.084-4.977-0.861-6.485-2.329c-1.508-1.469-2.313-3.336-2.413-5.602l-0.15-10.699
		c-4.324,1.176-8.649,2.266-12.971,3.272c-2.616,0.588-5.43,0.881-8.446,0.881c-2.515,0-5.078-0.252-7.691-0.755
		c-10.157-2.097-15.233-7.09-15.233-14.979c0-2.937,1.056-5.916,3.167-8.937c6.535-8.139,17.545-12.67,33.03-13.594l10.406-0.378
		c0.302-2.852,0.453-5.664,0.453-8.434c-0.604-18.377-3.872-27.566-9.804-27.566c-2.213,0-4.776,1.092-7.692,3.273
		c-8.849,6.378-15.284,14.224-19.305,23.539c-1.711,4.868-4.776,7.3-9.2,7.3c-0.604,0-1.157-0.041-1.659-0.125
		c-4.223-1.09-6.334-3.524-6.334-7.301c0-1.341,0.25-2.644,0.754-3.902c4.826-11.999,12.971-22.069,24.433-30.209
		c6.837-4.614,13.424-6.964,19.758-7.049c6.535,0,12.165,2.476,16.893,7.426c6.232,7.47,9.351,18.714,9.351,33.734
		c0,3.021-0.604,16.281-1.81,39.776c-0.203,6.462-0.505,11.706-0.905,15.734C395.777,211.016,393.063,213.323,388.438,213.492z
		 M357.067,184.667l1.811-0.126c7.741-0.755,14.78-2.223,21.114-4.406l0.151-4.657c-2.616-0.334-4.626-0.503-6.033-0.503
		c-5.53,0-10.81,1.007-15.836,3.021c-3.318,1.51-4.978,3.064-4.978,4.657C353.297,183.996,354.554,184.667,357.067,184.667z"/>
	<path fill="#2E3192" d="M428.104,204.555c-6.737,0-11.01-2.937-12.819-8.812c-2.616-9.649-3.974-20.433-4.072-32.35
		c0-10.656,0.754-21.355,2.262-32.098c0.401-1.678,0.604-3.566,0.604-5.665l-2.413,0.126c-6.735,0-10.154-2.307-10.256-6.923
		c0-3.104,1.862-5.328,5.581-6.671c1.908-0.671,5.63-1.007,11.16-1.007c16.086,0,30.364,4.532,42.833,13.595
		c11.26,8.225,16.893,18,16.893,29.329c0,3.272-0.453,6.671-1.357,10.196c-4.124,14.434-13.524,25.889-28.204,34.364
		C442.282,202.164,435.545,204.136,428.104,204.555z M431.573,189.576c16.087-4.866,25.689-15.021,28.808-30.462
		c0.302-1.677,0.452-3.272,0.452-4.783c0-7.131-3.419-13.258-10.256-18.377c-5.128-3.776-11.515-6.502-19.154-8.182
		c-2.013,10.154-3.017,20.35-3.017,30.587C428.406,168.766,429.462,179.172,431.573,189.576z"/>
	<path fill="#2E3192" d="M521.311,205.185c-7.442-0.083-13.272-1.07-17.495-2.958c-4.223-1.888-6.335-4.091-6.335-6.608
		c0-1.342,0.552-2.685,1.659-4.028c1.105-1.341,2.313-2.181,3.62-2.518c1.306-0.334,2.312-0.503,3.017-0.503
		c1.206,0,2.413,0.21,3.619,0.629c3.115,1.259,6.385,1.888,9.804,1.888c3.719,0,6.686-1.259,8.898-3.776
		c5.528-7.049,8.295-15.565,8.295-25.552v-2.14c-2.213,2.938-4.576,5.833-7.088,8.685c-4.224,5.035-9.705,8.644-16.44,10.825
		c-2.514,0.755-4.927,1.133-7.239,1.133c-5.028,0-9.603-1.803-13.725-5.413c-3.921-4.028-6.235-8.601-6.938-13.72
		c-0.403-3.272-0.604-6.502-0.604-9.692c0-7.804,2.161-19.719,6.485-35.748c1.407-4.111,4.223-6.168,8.446-6.168
		c2.715,0,4.876,0.924,6.485,2.77c1.206,1.428,1.81,3.021,1.81,4.783c-0.102,1.847-0.655,4.531-1.659,8.056
		c-3.219,13.594-4.826,23.371-4.826,29.329c0,7.134,1.758,10.699,5.278,10.699c5.932,0,14.479-10.825,25.64-32.475
		c1.709-3.692,3.017-6.294,3.922-7.804c1.909-2.852,4.774-4.28,8.597-4.28c4.624,0.084,7.541,1.931,8.748,5.538
		c1.508,4.953,2.262,11.162,2.262,18.629c0,12.001-1.659,23.875-4.977,35.623c-1.711,6.042-4.878,11.498-9.502,16.364
		C535.94,202.122,529.354,204.933,521.311,205.185z"/>
</g>
<g>
	<path fill="#F15A29" d="M145.563,104.563c9.961-0.177,18.319,2.673,25.069,8.549c5.556,4.836,9.342,11.299,11.358,19.387
		c1.696,6.834,0.899,14.057-2.393,21.666c-0.936,1.946-2.035,3.709-3.299,5.288c-1.227,1.531-2.638,2.901-4.231,4.112
		c-5.318,3.816-11.054,5.601-17.21,5.357c-6.157-0.245-11.777-2.498-16.857-6.759c-4.502-3.918-7.008-8.598-7.521-14.036
		c-0.513-5.441,0.917-10.265,4.289-14.475c1.188-1.482,2.622-2.833,4.299-4.052c4.68-3.313,9.646-3.821,14.899-1.523
		c0.886,0.448,1.676,0.972,2.365,1.572c1.883,1.638,2.964,3.718,3.246,6.236c0.281,2.519-0.382,4.782-1.991,6.792
		c-1.955,2.439-4.284,3.254-6.985,2.444c-0.706-0.288-1.31-0.653-1.815-1.092c-1.424-1.24-1.985-3.068-1.684-5.486l0.127-1.473
		c-2.152,0.644-3.803,1.683-4.953,3.118c-0.537,0.67-0.959,1.439-1.265,2.309c-1.735,4.5-0.834,8.287,2.702,11.366
		c4.852,4.062,10.222,5.53,16.114,4.405c3.667-0.784,6.594-2.541,8.778-5.267c0.69-0.861,1.287-1.802,1.794-2.823
		c2.531-5.591,3.046-11.05,1.545-16.375c-1.502-5.326-3.952-9.468-7.349-12.426c-6.422-5.022-13.53-7.19-21.326-6.507
		c-13.87,1.161-25.193,7.219-33.968,18.172c-3.334,4.162-6.236,8.902-8.705,14.223c-3.742,7.785-4.525,15.912-2.349,24.384
		c3.606,12.72,10.207,23.256,19.805,31.612c0.688,0.6,1.333,1.203,1.938,1.81c1.745,2.005,1.786,4.193,0.123,6.561
		c-0.537,0.67-1.247,1.167-2.132,1.494c-0.885,0.325-1.841,0.327-2.866,0.002c-1.026-0.325-1.998-0.887-2.916-1.686l-2.216-2.051
		c-9.82-8.954-16.688-19.886-20.607-32.798c-2.92-9.686-2.755-19.328,0.491-28.924c2.615-7.547,6.319-14.309,11.11-20.289
		C113.012,112.358,127.875,104.753,145.563,104.563z"/>
</g>
<g>
	<path fill="#00A651" d="M234.897,257.94c0.12,7.987,0,16.182,0.12,24.169c0.121,6.431,0.482,12.759,0.844,19.293v2.905
		c0,1.971-0.603,2.489-3.014,2.697c-0.965,0.104-2.17,0.208-3.376,0.208c-2.532,0-5.064-0.104-7.717-0.208
		c-2.894-0.208-3.617-0.83-3.617-3.319c-0.241-9.024-0.362-18.152-0.603-27.177l-0.724-17.945c-0.121-2.178-0.362-4.46-0.603-6.639
		c-0.241-3.319-0.603-6.639-0.964-10.166c-0.724,0-1.567-0.104-2.291,0c-3.858,0.104-7.596,0.311-11.334,0.519
		c-0.362,0-0.724,0.104-1.206,0.104c-2.532,0-3.135-0.415-3.376-2.593c-0.241-3.423-0.603-6.95-0.723-10.477
		c-0.121-2.282,0.603-3.008,3.376-3.112c4.341-0.311,8.922-0.519,13.263-0.519c9.164-0.208,18.448-0.208,27.612-0.208
		c2.652,0,5.185,0.104,7.958,0.208c2.17,0.104,2.411,0.519,2.532,2.386s0.121,3.838,0.121,5.602
		c-0.121,2.075-0.121,4.149-0.362,6.12c-0.121,1.763-0.362,1.867-2.291,1.971c-3.858,0.104-7.837,0.104-11.575,0.208h-2.653
		C234.415,247.567,234.777,252.753,234.897,257.94z"/>
	<path fill="#00A651" d="M307.124,281.279c-0.361,3.008-1.447,6.12-2.773,9.128c-1.326,2.801-3.014,5.705-4.823,8.506
		c-2.05,3.216-4.823,5.913-8.802,7.469c-2.05,0.83-4.341,1.556-6.391,1.659c-10.731,0.727-19.413-2.074-25.562-10.891
		c-3.256-4.564-4.341-9.439-5.185-14.626c-1.447-8.817-1.567-17.738-0.723-26.659c0.362-3.941,0.964-7.676,1.929-11.514
		c1.929-7.365,6.511-13.174,13.986-17.012c4.823-2.386,10.008-3.112,15.313-2.282c11.093,1.66,17.724,7.78,21.101,16.597
		c1.085,2.801,1.567,5.706,2.05,8.61c0.964,4.771,0.724,9.75,0.724,14.625v2.179h0.12
		C307.848,271.736,307.848,276.508,307.124,281.279z M294.584,252.027c-0.724-3.215-2.05-6.431-3.979-9.335
		c-0.844-1.452-2.05-2.593-3.858-3.319c-2.652-1.038-5.546-1.556-8.681-1.452c-3.135,0.208-5.667,1.245-7.355,3.63
		c-0.723,1.141-1.447,2.49-2.049,3.734c-1.93,4.253-2.532,8.713-2.653,13.173c-0.121,4.772,0.121,9.543,0.362,14.315
		c0.361,5.29,2.05,10.269,4.34,15.248c1.447,3.319,4.1,4.875,8.079,5.083c0.965,0.104,1.929,0.207,3.015,0.207
		c2.05,0,3.858-0.519,5.426-1.556c2.773-1.971,5.064-4.253,6.029-7.365c0.844-2.593,1.567-5.394,2.05-8.195
		c0.482-3.319,0.482-6.639,0.723-10.062C296.031,261.363,295.67,256.799,294.584,252.027z"/>
	<path fill="#00A651" d="M379.012,283.571c-1.545,0-3.09-0.226-4.517-0.339c-1.308-0.113-2.14-0.905-2.259-2.149
		c-0.356-3.054-0.713-5.995-0.95-9.049c-0.119-1.923,0.476-2.489,2.496-2.489c4.517,0.113,9.033,0.339,13.432,0.453
		c3.804,0.113,7.488,0.113,11.174,0.226c0.95,0,1.901,0,2.733,0.227c2.496,0.452,2.972,0.905,2.972,3.28
		c0.237,4.75-0.119,9.501-1.545,14.252c-0.951,3.28-1.783,6.674-3.686,9.728c-2.258,3.846-5.586,6.561-9.865,7.918
		c-5.706,1.923-11.53,2.828-17.474,1.81c-7.251-1.357-13.313-4.411-17.83-10.18c-4.397-5.769-7.251-12.216-8.915-19.003
		c-1.901-7.239-2.853-14.592-1.782-22.057c0.713-5.542,1.901-10.972,4.397-16.062c1.783-3.846,3.804-7.579,6.3-11.085
		c3.328-4.638,7.727-7.692,13.432-9.163c4.637-1.244,9.391-2.375,14.383-1.131c6.657,1.697,12.125,5.09,15.453,11.085
		c2.377,4.298,3.685,8.936,4.517,13.574c0.714,4.185,1.308,8.37,2.021,12.556c0.238,2.149,0,2.488-2.258,2.941
		c-2.734,0.452-5.468,1.131-8.202,1.697c-0.951,0.226-1.901,0.339-2.972,0.452c-1.901,0.113-2.377-0.339-2.615-2.149
		c-0.356-3.394-0.713-6.787-1.188-10.18c-0.594-4.186-1.901-8.145-4.041-11.877c-1.308-2.262-2.972-4.185-5.706-5.09
		c-2.021-0.792-4.041-0.452-5.824,0.566c-1.308,0.678-2.496,1.696-3.566,2.714c-1.426,1.471-2.733,3.054-4.16,4.638
		c-1.664,2.036-2.853,4.186-3.685,6.674c-2.496,7.353-3.565,14.818-2.615,22.51c0.714,6.334,3.091,12.103,7.251,17.08
		c2.972,3.393,6.895,5.655,11.53,6.673c4.755,1.018,8.083-0.452,10.936-4.298c0.951-1.244,1.069-2.602,0.713-4.75
		C384.361,283.571,381.627,283.684,379.012,283.571z"/>
	<path fill="#00A651" d="M441.895,269.092c4.517-0.113,8.915-0.113,13.313-0.226c1.664,0,2.021,0.339,2.614,2.036
		c0.238,1.471,0.476,2.941,0.595,4.412c0.119,2.715,0.119,5.429,0,8.144s-0.595,3.054-3.566,3.167
		c-6.656,0.226-13.313,0.339-19.851,0.452c-0.594,0.113-1.307,0-2.377,0c0.119,1.697,0.238,2.941,0.476,4.638h2.496
		c6.419-0.905,13.075-0.339,19.494-0.226c2.496,0.113,4.873,0,7.369,0.113c1.902,0.113,2.14,0.339,2.259,2.149l0.356,10.859
		c0,1.923-0.237,2.262-2.14,2.262c-5.229,0.226-10.46,0.453-15.571,0.565c-8.796,0.113-17.592,0.227-26.388,0.227
		c-0.714,0.113-1.546,0-2.259-0.113c-1.902-0.339-2.972-1.471-2.972-3.28c-0.595-7.918-1.188-15.723-1.427-23.641
		c-0.356-8.71-0.476-17.533-0.594-26.242v-31.106c0-1.131,0-2.149,0-3.167c0.118-1.357,0.356-1.81,1.664-1.923
		c1.664-0.113,3.447-0.113,5.111-0.113c9.628-0.339,19.375-0.792,29.122-1.018c3.447-0.113,7.013,0.113,10.698,0.226
		c1.782,0.113,2.377,0.679,2.496,2.149c0.237,3.732,0.594,7.352,0,10.859c0,0.679-0.119,1.244-0.238,1.81
		c-0.237,1.018-0.713,1.583-1.901,1.81c-1.664,0.113-3.328,0.339-4.874,0.339c-6.3,0.226-12.6,0.339-18.78,0.565
		c-2.14,0-4.279,0.339-6.657,0.565c0.357,5.656,0.714,11.425,0.832,17.08c0.238,5.656,0.119,11.312,0.238,17.193
		C435.119,269.432,438.566,269.205,441.895,269.092z"/>
	<path fill="#00A651" d="M509.529,253.482c0.119,8.71,0,17.646,0.119,26.355c0.118,7.013,0.476,13.913,0.832,21.039v3.167
		c0,2.149-0.595,2.714-2.972,2.941c-0.951,0.113-2.14,0.226-3.328,0.226c-2.496,0-4.992-0.113-7.607-0.226
		c-2.854-0.227-3.566-0.905-3.566-3.62c-0.237-9.841-0.356-19.795-0.594-29.636l-0.714-19.569c-0.119-2.375-0.356-4.864-0.594-7.239
		c-0.238-3.62-0.595-7.239-0.951-11.085c-0.713,0-1.545-0.113-2.259,0c-3.804,0.113-7.488,0.339-11.173,0.565
		c-0.357,0-0.714,0.113-1.189,0.113c-2.496,0-3.09-0.453-3.328-2.828c-0.237-3.732-0.594-7.579-0.713-11.424
		c-0.119-2.488,0.595-3.28,3.328-3.394c4.279-0.339,8.796-0.565,13.075-0.565c9.034-0.226,18.187-0.226,27.221-0.226
		c2.615,0,5.111,0.113,7.845,0.226c2.14,0.113,2.378,0.565,2.496,2.602c0.119,2.036,0.119,4.186,0.119,6.108
		c-0.119,2.262-0.119,4.524-0.356,6.673c-0.119,1.923-0.356,2.036-2.259,2.149c-3.804,0.113-7.726,0.113-11.411,0.226h-2.615
		C509.054,242.171,509.41,247.827,509.529,253.482z"/>
</g>
<g>
	<path fill="#F15A29" d="M245.218,455.949c-1.608,0-3.271-0.124-4.992-0.376c-21.001-4.253-34.372-17.52-40.108-39.796
		c-1.953-8.635-2.927-17.082-2.927-25.342c0-18.271,4.705-35.728,14.116-52.374c6.197-11.263,15.148-18.707,26.854-22.338
		c3.327-0.874,6.654-1.314,9.984-1.314c4.36,0,8.779,0.815,13.255,2.44c7.687,2.754,14.056,7.509,19.107,14.267
		c4.82,7.509,7.23,14.894,7.23,22.15c0,4.007-0.688,7.884-2.066,11.639c-4.131,10.765-11.705,18.147-22.722,22.151
		c-2.642,0.877-5.28,1.314-7.918,1.314c-4.936,0-9.64-1.563-14.116-4.693c-5.164-3.754-7.746-8.884-7.746-15.393
		c0.229-8.007,3.443-12.325,9.64-12.953c4.589,0,8.091,3.693,10.5,11.076c5.049,0,8.892-1.813,11.534-5.444
		c2.065-2.628,3.098-5.379,3.098-8.26c0-2.376-0.632-4.754-1.893-7.133c-4.019-6.758-9.872-10.137-17.559-10.137
		c-1.953,0-3.959,0.375-6.025,1.126c-5.164,1.877-9.411,5.256-12.738,10.137c-8.607,13.14-12.911,28.284-12.911,45.428
		c0,21.525,6.886,35.041,20.657,40.547c2.867,1.252,5.45,1.877,7.747,1.877c5.853,0,10.097-3.815,12.738-11.45l1.205-3.567
		c2.065-8.133,5.622-12.201,10.672-12.201c0.802,0,1.663,0.126,2.583,0.375c4.588,1.628,6.942,5.257,7.058,10.888
		c-0.46,8.636-3.33,16.458-8.607,23.465C263.75,451.32,255.202,455.949,245.218,455.949z"/>
	<path fill="#F15A29" d="M398.076,486.734c-19.625,0-38.504-16.959-56.635-50.871c-4.936-9.011-9.295-18.271-13.082-27.782
		c-3.33,1.754-6.428,3.505-9.295,5.256l4.646,36.793c0.457,2.003,0.689,3.692,0.689,5.068c0,2.754-0.891,5.194-2.668,7.32
		c-1.781,2.127-4.105,3.191-6.973,3.191c-5.623,0-9.067-4.13-10.328-12.389c-4.707-32.162-7.058-61.507-7.058-88.04
		c0-10.635,0.285-21.335,0.86-32.1c-4.707-0.375-8.29-1.126-10.759-2.253c-2.466-1.126-3.701-4.003-3.701-8.635
		c0-8.26,8.435-12.39,25.305-12.39c12.852,0,25.359,3.13,37.525,9.386c6.887,3.88,12.193,9.01,15.924,15.393
		c3.727,6.382,5.594,12.765,5.594,19.147s-1.549,13.14-4.646,20.273c-4.02,7.635-9.928,15.144-17.73,22.526
		c3.898,10.765,8.777,21.024,14.631,30.786c15.721,26.782,28.516,40.171,38.387,40.171c7.688,0,14-3.003,18.936-9.01
		c3.213-3.502,6.369-5.256,9.469-5.256c2.639,0.126,4.82,1.19,6.541,3.19c1.721,2.004,2.639,4.317,2.754,6.946
		c0,3.754-1.607,7.068-4.82,9.948C422.461,482.291,411.271,486.734,398.076,486.734z M317.17,389.685
		c7.459-3.127,13.771-7.256,18.936-12.39c8.262-8.259,12.395-15.891,12.395-22.901c0-5.505-2.814-10.26-8.436-14.267
		c-6.313-4.253-13.486-6.758-21.518-7.509c-1.033,9.888-1.549,19.775-1.549,29.66L317.17,389.685z M448.686,444.873
		c-4.477,0-7.863-3.689-10.156-11.075l-9.125,2.065c-15.723,4.007-25.648,6.007-29.779,6.007c-3.559,0-7.117-0.563-10.672-1.689
		c-9.756-3.379-14.633-10.574-14.633-21.588c0.113-8.007,2.41-15.328,6.885-21.963c7.574-11.263,19.109-16.895,34.602-16.895
		c8.951,0,17.213,1.566,24.787,4.693v-1.314c0-14.014-1.721-24.151-5.164-30.41c-2.869-5.256-7.689-7.884-14.459-7.884
		c-9.295,0-17.846,3.003-25.648,9.011c-3.1,2.252-5.797,3.379-8.092,3.379c-2.41,0-4.592-1.126-6.541-3.379
		c-1.607-2.253-2.41-4.567-2.41-6.946c0-5.004,3.443-9.697,10.328-14.079c9.984-6.007,20.541-9.011,31.674-9.011
		c26.279,0,39.533,19.147,39.766,57.442l0.344,14.642c-0.461,19.775-0.977,32.727-1.549,38.857
		C457.809,441.245,454.422,444.624,448.686,444.873z M400.486,419.72c3.787,0,8.547-0.563,14.287-1.689
		c9.408-1.878,17.73-4.755,24.961-8.636c-8.379-5.881-16.871-8.822-25.477-8.822c-5.969,0-10.818,1.408-14.547,4.224
		c-3.73,2.815-5.594,6.165-5.594,10.043C394.117,418.095,396.238,419.72,400.486,419.72z"/>
	<path fill="#F15A29" d="M508.934,458.014c-8.494-0.123-15.147-1.596-19.968-4.411s-7.229-6.101-7.229-9.855
		c0-2,0.629-4.004,1.893-6.007c1.262-2,2.639-3.253,4.132-3.754c1.49-0.499,2.639-0.751,3.442-0.751
		c1.378,0,2.755,0.313,4.132,0.938c3.556,1.877,7.286,2.815,11.189,2.815c4.244,0,7.63-1.877,10.156-5.632
		c6.31-10.512,9.468-23.212,9.468-38.106v-3.191c-2.526,4.382-5.224,8.7-8.091,12.953c-4.82,7.509-11.076,12.891-18.764,16.144
		c-2.87,1.126-5.624,1.689-8.263,1.689c-5.739,0-10.96-2.689-15.665-8.072c-4.476-6.007-7.116-12.826-7.918-20.461
		c-0.46-4.88-0.688-9.697-0.688-14.454c0-11.639,2.467-29.407,7.402-53.312c1.605-6.13,4.819-9.198,9.64-9.198
		c3.099,0,5.564,1.379,7.401,4.13c1.378,2.129,2.066,4.505,2.066,7.133c-0.116,2.754-0.748,6.758-1.894,12.014
		c-3.675,20.273-5.509,34.854-5.509,43.738c0,10.638,2.007,15.956,6.025,15.956c6.77,0,16.525-16.144,29.264-48.431
		c1.949-5.505,3.442-9.386,4.476-11.638c2.179-4.253,5.449-6.382,9.812-6.382c5.277,0.126,8.607,2.88,9.984,8.259
		c1.722,7.386,2.582,16.646,2.582,27.782c0,17.898-1.894,35.604-5.681,53.124c-1.953,9.011-5.567,17.147-10.845,24.403
		C525.632,453.447,518.114,457.639,508.934,458.014z"/>
</g>
<g>
	<path fill="#F15A29" d="M544.783,248.512c-6.958,0.019-11.526-5.502-11.194-13.273c0.287-6.719,6.372-12.588,11.373-9.93
		c1.442,0.766,3.062,1.033,4.51,1.787c5.571,2.903,7.519,12.724,3.483,18.13c-0.985,1.319-2.645,2.052-4.107,2.63
		C547.518,248.382,546.035,248.331,544.783,248.512z"/>
	<path fill="#F15A29" d="M544.671,280.37c-6.958,0.019-11.526-5.502-11.194-13.273c0.287-6.719,6.372-12.588,11.373-9.93
		c1.442,0.766,3.062,1.033,4.51,1.787c5.571,2.903,7.519,12.724,3.483,18.13c-0.985,1.319-2.645,2.052-4.107,2.63
		C547.406,280.241,545.924,280.19,544.671,280.37z"/>
	<path fill="#F15A29" d="M544.564,311.193c-6.958,0.019-11.526-5.502-11.194-13.273c0.287-6.719,6.371-12.588,11.373-9.93
		c1.442,0.766,3.062,1.033,4.51,1.787c5.571,2.903,7.519,12.724,3.483,18.13c-0.985,1.319-2.645,2.052-4.107,2.63
		C547.299,311.063,545.816,311.013,544.564,311.193z"/>
</g>
<path fill="#2E3192" d="M230.296,330.063c-0.027,0-0.027-0.304-0.027-0.936c-0.435,5.029-3.721,10.105-9.887,15.251
	c0.027-0.959,0.489-3.883,1.385-8.725c0.923-4.865,1.059-7.953,0.435-9.24s-1.277-1.965-1.956-2.035
	c-1.792-0.164-3.612-0.117-5.486,0.117c-0.136,0.444-0.245,1.24-0.326,2.386l-1.005,15.462c-1.874,0.819-3.531,1.193-4.998,1.123
	c-0.679-1.1-1.059-2.479-1.114-4.188c0-0.491,0.027-1.216,0.055-2.175c0.027-0.982,0.054-1.708,0.027-2.175
	c-0.108-2.129,0.109-4.538,0.679-7.181c-0.027-2.339-1.25-3.649-3.694-3.907c-0.543,0-1.82,0.117-3.83,0.351
	c0.353,1.661,0.244,4.749-0.353,9.263c-0.162,1.156-0.227,2.247-0.204,3.279c-1.344,4.351-2.795,6.604-4.335,6.709
	c-1.059-0.094-1.847-0.562-2.417-1.427c-0.516-0.771-0.706-1.614-0.57-2.549c0.516-2.737,0.869-6.012,1.059-9.848l0.435-8.327
	c0.19-2.503-0.299-4.866-1.439-7.088c-1.222-2.409-3.042-4.187-5.405-5.357c-1.385-0.187-3.042,0.117-4.943,0.936
	c-0.462,0.421-1.114,1.123-1.956,2.082c-0.842,0.959-1.494,1.638-1.983,2.082c-2.553-3.603-3.802-5.427-3.748-5.474
	c-1.956-0.562-4.047-0.375-6.274,0.562c-0.95,0.538-1.765,1.521-2.444,2.947c-0.842,1.754-1.467,2.854-1.928,3.322
	c-0.109-3.018-0.082-4.913,0.108-5.731l0.055-0.211c0.082-0.491,0-0.959-0.272-1.403c-0.299-0.444-0.706-0.725-1.249-0.889
	c-0.245-0.07-0.679-0.188-1.304-0.304c-1.06-0.21-2.173,0.023-3.368,0.678c-0.299,0.164-0.815,0.491-1.494,0.936
	c-0.625,0.398-1.114,0.702-1.467,0.866c0.271,1.263,0.407,2.877,0.407,4.865c0,1.942,0.136,3.579,0.435,4.866
	c0.109,2.433,0.136,5.637,0.109,9.614c-0.027,4.772-0.027,8.21,0.027,10.292c0.435,3.603,0.679,5.708,0.706,6.339
	c0.733,0.304,1.304,0.515,1.738,0.678c0.896,0.351,1.765,0.328,2.634-0.07c0.869-0.374,1.413-0.959,1.603-1.778
	c0.625-2.549,1.06-5.521,1.25-8.912c-0.027-0.631,0.054-1.754,0.245-3.345c0.19-1.427,0.217-2.549,0.082-3.368
	c-0.354-4.375,1.195-8.866,4.644-13.474c1.06,0.444,1.576,1.801,1.521,4.07l-0.244,3.485c-0.136,1.614-0.19,2.947-0.163,4
	c0,0.795-0.082,2.737-0.271,5.824c-0.136,2.456-0.163,4.468-0.055,6.035c0.055,0.398,0.354,1.801,0.924,4.164
	c0.244,1.123,0.978,1.965,2.146,2.526c0.842,0.375,1.494,0.655,2.01,0.819c0.652,0.234,1.277,0.187,1.874-0.14
	c0.571-0.328,0.896-0.795,0.924-1.38c0.027-0.678,0.082-2.503,0.136-5.474c0.054-2.246,0.163-4.351,0.326-6.316l0.625-5.006
	c0.244-2.315,0.38-4.21,0.461-5.684c0.027-0.959,0.245-1.824,0.652-2.62c1.195-2.55,2.499-4.538,3.911-5.988
	c0.245-0.328,0.543-0.468,0.896-0.444c0.38,0.023,0.625,0.21,0.76,0.608c0.354,1.474,0.299,3.672-0.19,6.597
	c-0.136,0.982-0.217,2.269-0.245,3.859c-0.027,2.035-0.081,3.322-0.108,3.86c-0.353,4.795-0.108,8.959,0.761,12.491
	c0.516,2.105,1.548,3.813,3.15,5.099s3.857,1.731,6.763,1.287c2.271-0.347,4.054-2.13,5.363-5.306
	c0.393,1.013,0.905,1.946,1.565,2.78c2.091,2.644,5.649,3.205,10.647,1.708c0.136,0.772,0.108,2.035-0.109,3.79
	c-0.597,0.632-1.521,1.45-2.743,2.409c-1.603,1.217-2.58,1.988-2.933,2.316c-2.581,1.895-4.346,3.603-5.324,5.076
	c-1.494,1.895-2.254,3.766-2.227,5.614c-0.353,1.567,0.054,3.158,1.25,4.772c1.412,1.404,2.716,2.339,3.884,2.831
	c0.923,0.538,2.2,0.842,3.83,0.889c1.548,0.07,3.287-0.538,5.242-1.824c1.956-1.287,3.585-4.468,4.889-9.567
	c0.733-3.041,1.168-7.836,1.304-14.386l6.03-5.801c3.477-3.345,5.514-6.152,6.138-8.421
	C232.931,331.233,232.279,330.087,230.296,330.063z M212.153,358.508c-0.163,2.246-0.951,4.702-2.39,7.345
	c-1.413,2.643-2.852,3.906-4.319,3.766c-1.467-0.117-2.526-1.029-3.178-2.737c-0.57-1.895-0.326-3.509,0.788-4.842
	c1.304-2.246,4.481-5.24,9.506-8.959C212.479,353.9,212.343,355.725,212.153,358.508z"/>
<path fill="#F15A29" d="M363.436,532.271c-0.258-32.265-6.667-48.398-19.224-48.398c-5.076,0-9.935,3.049-14.579,9.146
	c-5.505,6.66-9.892,14.068-13.159,22.229l-2.581,5.908c-1.548-17.164-2.753-27.294-3.612-30.39c-1.205-3.095-3.398-4.643-6.58-4.643
	c-3.441,0.095-5.721,2.019-6.838,5.769c-0.173,0.752-0.258,1.736-0.258,2.954c0.584,8.633,1.584,19.268,3,31.902
	c-0.348,0.109-0.7,0.233-1.063,0.388c-1.206,0.517-2.474,1.126-3.806,1.829c-1.334,0.704-2.516,1.291-3.548,1.759l-0.516-6.894
	c-0.689-8.91-3.183-17.07-7.483-24.48c-3.012-5.814-7.225-10.177-12.644-13.085c-2.925-1.594-5.764-2.392-8.515-2.392
	c-3.958,0-7.741,1.596-11.354,4.783l-2.452,2.11c-3.012-3.281-5.721-4.924-8.128-4.924c-3.612,0-7.699,3.096-12.257,9.286
	c-9.118,12.851-13.676,27.061-13.676,42.63c0,14.351,3.655,26.45,10.967,36.298c6.708,8.255,14.321,12.382,22.836,12.382
	c4.213,0,8.644-1.031,13.289-3.096c6.193-3.188,11.396-7.784,15.611-13.788c4.729-6.472,8.471-13.646,11.225-21.525
	c4.396-0.925,8.861-2.534,13.396-4.817c1.603,15.159,2.685,24.273,3.246,27.328c0.429,2.063,1.31,3.658,2.645,4.783
	c1.332,1.126,2.858,1.688,4.58,1.688c3.87-0.281,6.277-2.625,7.225-7.035l0.646-5.064c0.858-12.381,3.354-24.292,7.482-35.736
	c2.923-9.566,7.483-18.195,13.676-25.887c0.945-1.126,1.72-1.688,2.322-1.688c0.945,0,1.678,1.079,2.193,3.235
	c2.407,10.225,3.612,23.591,3.612,40.098c0,7.129-0.173,14.305-0.516,21.526l-0.258,11.818c0,2.251,0.665,4.174,2,5.768
	c1.332,1.597,3.031,2.486,5.096,2.674c4.042,0,6.493-2.298,7.354-6.895c0.517-3.845,0.774-13.365,0.774-28.561L363.436,532.271z
	 M259.449,565.755c-4.044,3.096-7.828,4.644-11.354,4.644c-5.076,0-9.592-3.142-13.547-9.427
	c-3.786-6.564-5.677-14.303-5.677-23.214c0-11.537,3.181-22.089,9.547-31.656c0.859-1.313,2.581-3.236,5.161-5.769l-0.129,3.939
	c0,21.948,9.805,35.736,29.416,41.363C269.77,553.796,265.297,560.504,259.449,565.755z M275.963,529.315
	c-11.87-3-17.804-10.362-17.804-22.088c0-1.313,0.171-2.579,0.516-3.799c0.774-2.251,1.891-3.377,3.354-3.377
	c1.633,0,3.354,0.985,5.161,2.954c5.848,7.035,8.773,15.29,8.773,24.763V529.315z"/>
<g>
	<path fill="#2E3192" d="M453.635,589.131c-6.399,0.969-11.82-0.426-16.263-4.18c-5.2-4.491-8.332-10.571-9.401-18.243
		c-0.789-5.669-0.351-11.013,1.319-16.034c2.76-8.335,7.089-15.076,12.987-20.227c0.798-0.717,1.553-1.449,2.267-2.194
		c0.712-0.747,1.628-1.502,2.747-2.268c-5.642-2.381-11.9-3.052-18.779-2.011s-12.943,3.534-18.191,7.478
		c-7.248,5.438-12.975,12.989-17.182,22.649c-1.865,4.199-2.548,8.092-2.049,11.676c0.627,4.502-1.168,7.157-5.384,7.966
		c-2.96,0.448-5.294-1.07-7.005-4.56c-0.414-1.215-0.703-2.403-0.865-3.571c-0.639-4.585,0.059-9.544,2.094-14.876
		c7.227-19.055,19.476-31.68,36.745-37.869c3.654-1.318,7.241-2.244,10.762-2.777c11.917-1.803,23.966,1.439,36.146,9.726
		c7.153-0.826,13.103-0.619,17.851,0.62c5.5,1.382,11.541,3.702,18.12,6.963l4.223,2.17c10.47,5.398,21.275,7.338,32.418,5.821
		c11.277-1.707,19.938-7.825,25.986-18.362c3.596-6.418,4.943-12.881,4.038-19.383c-1.425-8.468-5.607-15.326-12.544-20.578
		c-6.39-4.821-13.104-6.7-20.141-5.635c-5.189,0.87-9.023,3.536-11.505,7.998c-2.289,4.094-3.142,8.223-2.562,12.393
		c0.581,4.168,2.381,7.131,5.403,8.887c2.219,1.282,4.608,1.729,7.169,1.341c1.279-0.194,2.564-0.643,3.855-1.349
		c-3.24-2.148-5.068-4.425-5.484-6.832c-0.174-1.252,0.024-2.601,0.6-4.051c0.573-1.447,1.542-2.701,2.906-3.76
		c1.363-1.056,2.844-1.707,4.445-1.949c3.278-0.496,6.34,0.659,9.18,3.464c2.096,2.153,3.349,4.687,3.755,7.604
		c0.33,5.314-1.185,9.971-4.548,13.97c-3.362,4-7.524,6.374-12.482,7.124c-3.921,0.594-7.916,0.049-11.988-1.633
		c-4.074-1.683-7.603-4.298-10.588-7.849c-2.986-3.548-4.838-7.907-5.558-13.078c-0.256-1.833-0.323-3.782-0.201-5.843
		c1.336-15.61,9.168-25.651,23.492-30.117l2.622-0.525c2.559-0.387,5.091-0.387,7.596,0.001c19.23,2.625,32.044,13.411,38.44,32.364
		c0.714,2.191,1.228,4.412,1.541,6.664c0.72,5.17,0.343,10.377-1.132,15.622c-5.14,17.635-16.156,29.435-33.048,35.394
		c-2.569,0.9-5.174,1.549-7.813,1.948c-4.079,0.617-8.149,0.723-12.207,0.315c-10.747-0.928-21.059-4.006-30.934-9.237
		c-9.416-4.279-16.034-6.641-19.852-7.084c2.296,5.356,3.829,10.786,4.596,16.288c1.081,8.947-0.159,16.752-3.721,23.421
		c-3.37,6.301-8.275,10.958-14.715,13.976C458.341,588.036,455.954,588.78,453.635,589.131z M451.821,575.23
		c1.039-0.157,2.137-0.493,3.29-1.009c6.143-2.802,9.762-7.606,10.855-14.412c0.531-3.23,0.581-6.388,0.151-9.474
		c-0.743-5.334-2.795-10.388-6.154-15.159c-5.733,2.231-10.361,5.954-13.88,11.168c-4.001,5.884-5.668,11.797-5.003,17.741
		c0.256,1.835,0.751,3.634,1.487,5.394C444.737,573.92,447.82,575.836,451.821,575.23z"/>
</g>
<g>
	<path fill="#00A651" d="M144.37,568.049c-0.726,0.321-1.585,0.405-2.58,0.248c-2.073-0.347-3.471-1.407-4.19-3.173
		c-0.284-0.698-1.037-3.94-2.258-9.734c-2.583-0.197-5.027-0.491-7.331-0.886c-2.357-0.519-3.884-1.635-4.581-3.338
		c-0.464-1.139-0.476-2.399-0.039-3.785c0.731-2.409,2.18-4.208,4.343-5.39c2.18-0.967,4.093-1.888,5.738-2.763l-0.988-8.735
		c-0.335-3.274,0.648-5.504,2.961-6.68c1.874-0.83,3.983-0.309,6.319,1.561l6.527,6.278c3.721-2.098,6.251-3.441,7.583-4.028
		c2.605-1.156,4.687-0.777,6.256,1.139c0.437,0.552,0.774,1.108,1.005,1.675c0.748,1.832,0.388,3.932-1.078,6.296l-3.515,5.582
		l4.998,5.946c0.852,1.037,1.459,1.999,1.821,2.882c0.592,1.45,0.529,2.839-0.182,4.16c-0.711,1.323-1.554,2.199-2.522,2.629
		c-1.211,0.536-3.034,0.617-5.476,0.245c-2.44-0.369-4.717-0.612-6.833-0.716l-2.194,5.668
		C147.142,565.739,145.882,567.379,144.37,568.049z"/>
</g>
<path fill="#2E3192" d="M142.209,505.924c-0.971,0.43-2.066,0.547-3.294,0.339l-4.466-0.698c-3.673-0.762-6.836-1.333-9.499-1.721
	c-3.012,5.063-4.998,8.477-5.957,10.245c-0.959,1.764-2.075,2.93-3.347,3.494c-1.032,0.456-2.173,0.552-3.423,0.286
	c-1.709-0.509-2.872-1.521-3.491-3.036c-0.437-1.075-0.74-3.398-0.913-6.974l-0.485-6.718l-10.249-0.934
	c-3.969-0.256-6.452-1.617-7.457-4.076c-1.466-3.598,0.024-6.607,4.471-9.026l12.018-6.556c-0.269-8.378-0.381-13.209-0.333-14.499
	c0.194-2.323,1.323-3.94,3.384-4.853c2.566-1.063,4.714-0.708,6.438,1.06l8.125,9.145c8.297-3.677,12.635-5.617,13.016-5.825
	c0.381-0.205,0.755-0.39,1.119-0.549c3.088-1.369,5.578-0.87,7.472,1.495c0.328,0.453,0.583,0.898,0.762,1.341
	c0.643,1.579,0.374,3.373-0.803,5.385c-2.474,3.93-4.945,7.783-7.409,11.556l-1.522,2.578c5.544,6.933,8.445,10.716,8.702,11.349
	c0.619,1.516,0.51,3.09-0.325,4.727C144.081,504.643,143.239,505.468,142.209,505.924z"/>
<path fill="#F15A29" d="M197.49,514.183c-1.211,0.536-2.658,0.585-4.34,0.139c-1.908-0.645-3.881-1.45-5.916-2.411
	c-1.617-0.625-3.022-1.27-4.221-1.931l-4.564,5.374c-1.376,1.359-2.629,2.323-3.753,2.897c-1.393,0.617-2.784,0.582-4.173-0.111
	c-1.391-0.686-2.357-1.693-2.898-3.021c-0.282-0.691-0.401-1.422-0.352-2.186c0.146-1.035,0.209-2.108,0.187-3.216
	c-0.002-1.938,0.114-4.188,0.357-6.754c-7.076-2.978-11.028-5.476-11.851-7.495c-0.386-0.946-0.476-1.953-0.262-3.014
	c0.413-2.492,1.646-4.198,3.707-5.109c1.027-0.455,4.09-1.106,9.178-1.943l0.947-9.254c0.415-2.492,1.622-4.183,3.622-5.068
	c3.69-1.637,6.525-0.658,8.494,2.943l4.668,8.555c8.671-2.055,13.822-2.925,15.456-2.601c2.182,0.445,3.639,1.554,4.36,3.322
	c1.134,2.776,0.056,5.491-3.226,8.138l-7.729,6.554l4.988,9.082c0.774,1.895,0.595,3.651-0.534,5.268
	C199.053,513.193,198.339,513.808,197.49,514.183z"/>
<g>
</g>
<g>
</g>
<g>
</g>
<g>
</g>
<g>
</g>
<g>
</g>
</svg>
