<?xml version="1.0" encoding="iso-8859-1"?>
<!-- Generator: Adobe Illustrator 21.0.0, SVG Export Plug-In . SVG Version: 6.00 Build 0)  -->
<svg version="1.1" id="Layer_1" xmlns="http://www.w3.org/2000/svg" xmlns:xlink="http://www.w3.org/1999/xlink" x="0px" y="0px"
	 width="612px" height="792px" viewBox="0 0 612 792" enable-background="new 0 0 612 792" xml:space="preserve">
<g>
	<g>
		<path fill="#273884" d="M295.832,522.294c-8.112,1.338-16.427,2.105-24.594,3.043c-1.386,0.156-6.805,0.087-7.546,1.842
			c-1.108,2.626-0.432,7.122,0.246,9.849c0.349,1.405,2.243,1.156,2.217-0.291c-0.044-2.6,0.527-5.971-0.018-8.46
			c0.209,0.944,5.33-0.313,7.232-0.523c5.767-0.637,11.533-1.178,17.283-1.892c4.029-0.499,6.052-1.141,7.006,3.41
			c0.984,4.696,1.383,5.277-2.929,8.97c-4.908,4.205-10.91,7.656-15.079,12.655c-0.768,0.921,0.333,2.258,1.393,1.803
			c3.271-1.396,6.4-4.69,9.024-7.093c3.49-3.201,8.637-5.666,10.924-10.023C302.371,532.953,300.352,521.548,295.832,522.294z"/>
		<path fill="#273884" d="M284.366,560.795c-2.615-1.114-5.931-0.082-8.581,0.287c-3.136,0.438-3.856,2.639-4.891-1.392
			c-0.647-2.521-1.059-5.176-1.269-7.767c-0.584-7.216,12.221-9.151,11.543-15.648c-0.062-0.591-0.581-1.123-1.175-1.183
			c-5.069-0.523-10.195,0.325-15.201,1.001c-1.118,0.149-1.053,1.699-0.007,1.913c2.618,0.54,5.464,0.104,8.122,0.029
			c2.027-0.059,3.89-0.47,5.939-0.24c-1.678-0.187-2.59,1.178-4.106,2.469c-2.542,2.164-5.13,4.349-7.46,6.746
			c-1.307,1.346-0.554,5.086-0.433,6.712c0.178,2.367,0.724,12.218,5.098,11.487c2.019-0.337,3.781-1.24,5.854-1.495
			c1.444-0.208,2.895-0.34,4.353-0.4c4.415,3.387,4.609,6.503,0.58,9.344c-3.977,3.71-8.777,1.851-13.314,1.629
			c-1.738-0.084-2.085,2.306-0.371,2.678c5.84,1.267,12.947,2.124,17.227-3.33C289.876,569.05,290.393,563.365,284.366,560.795z"/>
		<path fill="#273884" d="M305.754,558.304c-4.555-8.837-17.184-10.949-25.474-7.105c-0.918,0.426-0.58,2.037,0.486,1.789
			c6.811-1.585,13.129-1.162,19.046,3.007c9.102,6.41,5.107,19.148-1.613,25.339c-5.189,4.78-14.427,7.124-21.259,6.169
			c-4.707-0.658-6.579-3.341-7.123-7.872c-0.025-0.952-0.129-1.897-0.311-2.832c-0.005-0.04-0.054-0.077-0.092-0.113
			c0.253,0.074,0.535,0.152,0.923,0.255c0.996,0.264,1.629-1.313,0.775-1.847c-7.296-4.566-4.609,8.453-2.813,11.802
			c1.85,3.452,6.726,3.403,10.073,3.837c5.946,0.769,12.254-1.58,17.323-4.373C306.057,580.649,311.574,569.592,305.754,558.304z"/>
	</g>
	<g>
		<path fill="#273884" d="M408.784,557.956c-3.87-1.718-7.512-2.206-11.697-1.92c-2.596,0.177-6.216,0.594-8.663,1.551
			c-3.876,1.511-5.794-8.987-6.385-11.065c-0.953-3.35-1.753-6.614-2.222-10.063c-0.293-1.702-0.444-3.417-0.448-5.146
			c0.06-2.548,5.654-2.586,7.17-2.793c7.211-0.981,14.528-1.44,21.706-2.591c1.129-0.182,1.24-2.07,0.009-2.095
			c-5.119-0.109-10.168,0.606-15.255,1.095c-3.788,0.365-11.463-0.141-14.628,2.317c-2.23,1.733-1.996,4.88-1.736,7.363
			c0.608,5.812,1.857,11.788,3.736,17.33c0.942,2.777,2.278,7.74,5.425,9.066c0.738,0.313,1.795,0.105,2.504-0.155
			c3.109-1.147,7.045-1.577,10.339-1.782c3.665-0.231,7.077,0.659,10.175,2.684c7.975,5.21,0.914,12.283-3.456,14.513
			c-6.127,3.124-11.059,0.792-17.136-0.016c-0.991-0.131-1.533,1.165-0.743,1.776c6.389,4.954,15.894,3.651,22.307-0.613
			C416.81,572.738,417.076,561.638,408.784,557.956z"/>
		<path fill="#273884" d="M428.866,563.799c-1.263-5.59-6.017-11.172-10.897-14.003c-2.788-1.62-5.686-2.53-8.807-3.253
			c-5.598-1.297-10.507-0.641-12.224-7.196c-0.034-0.126-0.19-0.195-0.386-0.226c0.363-0.048,0.823-0.116,1.412-0.211
			c1.99-0.32,3.933-0.863,5.909-1.253c1.953-0.385,5.898,0.145,7.326-1.716c2.04-2.654-0.104-9.291-1.819-11.718
			c-0.903-1.275-3.013-0.347-2.782,1.16c0.013,0.098,0.029,0.199,0.044,0.297c0.055,0.357,0.216,0.612,0.413,0.82
			c0.348,1.051,0.994,3.88,1.04,4.128c0.663,3.526-1.939,3.435-4.64,3.849c-2.292,0.347-8.168,0.522-9.691,2.506
			c-1.247,1.625,0.685,5.386,1.222,7.074c1.264,3.98,3.939,3.939,7.647,4.579c7.2,1.24,13.166,2.723,18.46,8.045
			c5.787,5.813,5.861,15.172,3.092,22.358c-3.562,9.243-12.204,12.416-21.38,13.612c-3.354,0.436-7.651-0.107-10.735-1.213
			c-6.283-2.254-1.07-12.117-4.396-13.419c1.026,0.401,2.014-1.118,1.003-1.726c-0.153-0.092-0.306-0.183-0.457-0.276
			c-0.62-0.37-1.263-0.213-1.609,0.427c-2.488,4.584-1.293,11.515,1.242,15.787c2.79,4.713,13.622,3.661,17.881,3.152
			C421.494,593.5,432.488,579.813,428.866,563.799z"/>
	</g>
	<g>
		<path fill="#273884" d="M355.443,541.608c-3.053,0.147-6.084,0.443-9.136,0.624c-0.834,0.051-2.068-0.294-2.826,0.295
			c-2.309,1.795-3.855,8.556-4.957,11.268c-0.06,0.149-0.07,0.266-0.094,0.394c-2.543-2.29-5.552-4.511-7.652-7.213
			c-2.181-2.809-9.627-0.38-12.083,0.196c-1.357,0.319-1.131,2.232,0.283,2.157c5.224-0.279,8.28-1.381,12.358,2.151
			c2.319,2.007,4.331,4.587,7.074,6.074c0.577,0.314,1.199-0.019,1.602-0.423c1.989-2.009,3.435-6.86,4.279-9.503
			c0.601-1.883,0.385-2.449,2.004-2.439c3.119,0.018,6.249-0.34,9.36-0.559c0.013-0.002,0.021,0.005,0.034,0.003
			c0.051-0.007,0.098-0.013,0.149-0.017C357.804,544.378,357.366,541.516,355.443,541.608z"/>
		<path fill="#273884" d="M332.004,562.209c-0.277-0.973-0.949-1.336-1.733-1.953c-1.456-1.152-2.669-2.643-4.064-3.856
			c-1.663-1.445-3.383-2.964-4.839-4.625c-0.286-0.324-1.52-1.581-2.164-2.406c0.06-0.033,0.117-0.067,0.177-0.1
			c0.859-0.484,0.712-1.598-0.242-1.844c-0.91-0.236-1.163-0.075-2.071,0.29c-0.373,0.149-0.738,0.564-0.755,0.984
			c-0.057,1.36,0.286,1.59,1.261,2.574c1.496,1.513,2.765,3.294,4.27,4.841c2.548,2.622,5.142,5.623,8.259,7.566
			C331.208,564.364,332.351,563.422,332.004,562.209z"/>
		<path fill="#273884" d="M356.187,542.038c-0.818-0.038-1.413,1.008-0.651,1.559c1.286,0.933-7.69,15.466-7.911,17.743
			c-0.046,0.467,0.349,0.959,0.854,0.862c2.124-0.412,2.498-2.168,3.432-3.972c1.375-2.664,2.753-5.356,4.005-8.078
			C356.677,548.496,360.44,542.248,356.187,542.038z"/>
		<path fill="#273884" d="M336.043,580.537c-4.318-0.347-9.023-0.134-13.397,0.495c0.423-1.56,1.608-3.284,2.177-4.476
			c0.927-1.938,2.012-3.798,3.019-5.694c1.335-2.513,4.286-5.294,3.956-8.292c-0.106-0.965-1.425-1.074-1.808-0.244
			c-1.697,3.678-4.527,7.183-6.557,10.746c-1.597,2.801-4.033,6.519-3.769,9.831c0.066,0.834,0.868,1.282,1.625,1.247
			c2.616-0.123,5.232-0.301,7.848-0.419c2.749-0.12,5.065,0.167,7.381-1.421C337.215,581.833,336.887,580.605,336.043,580.537z"/>
		<path fill="#273884" d="M368.41,576.021c-0.423-0.997-1.437-1.751-2.258-2.404c-2.099-1.661-3.982-3.72-6.008-5.486
			c-2.972-2.592-6.941-6.547-10.787-7.672c-1.098-0.322-1.806,0.898-0.982,1.69c4.74,4.574,10.137,8.414,14.982,12.892
			c0.312,0.344,0.669,0.629,1.028,0.921c-0.791,0.104-1.578,0.238-2.339,0.336c-3.027,0.388-7.068,0.255-9.734,1.807
			c-0.54,0.315-0.78,1.297-0.001,1.535c3.67,1.117,7.689-0.088,11.381-0.583C365.152,578.859,369.613,578.875,368.41,576.021z"/>
		<path fill="#273884" d="M341.387,569.525c-1.676,1.522-2.854,3.109-3.814,5.158c-0.488,1.043-1.057,2.038-1.592,3.056
			c-0.512,0.977-1.007,2.457-1.862,3.205c-0.869,0.76-0.387,2.616,0.954,2.286c1.909-0.469,2.766-2.765,3.618-4.35
			c0.65-1.218,1.238-2.454,1.781-3.722c0.676-1.58,1.775-2.873,2.414-4.482C343.224,569.817,342.145,568.839,341.387,569.525z"/>
		<path fill="#273884" d="M359.366,576.793c-1.578-0.113-2.994-0.024-4.54,0.363c-1.742,0.436-3.138-1.2-4.513-2.221
			c-2.431-1.807-5.098-5.216-8.211-5.773c-1.031-0.185-1.467,1.164-0.743,1.776c3.193,2.712,6.322,5.496,9.552,8.155
			c2.578,2.124,5.961,0.47,8.646-0.844C360.188,577.94,360.165,576.849,359.366,576.793z"/>
	</g>
</g>
<g>
	<path fill="#273884" d="M461.601,153.74c-0.072,0.015-0.072-0.109-0.001-0.124C461.677,153.625,461.672,153.725,461.601,153.74z"/>
	<path fill="#273884" d="M468.167,156.785c-0.006-0.272-0.055-0.51-0.086-0.778c-0.015-0.072-0.025-0.119-0.063-0.186
		c0.167,0.09,0.302,0.261,0.37,0.47C468.375,156.469,468.285,156.636,468.167,156.785z"/>
	<path fill="#273884" d="M461.601,153.74c-0.072,0.015-0.072-0.109-0.001-0.124C461.677,153.625,461.672,153.725,461.601,153.74z"/>
	<path fill="#273884" d="M461.601,153.74c-0.072,0.015-0.072-0.109-0.001-0.124C461.677,153.625,461.672,153.725,461.601,153.74z"/>
	<path fill="#273884" d="M468.167,156.785c-0.006-0.272-0.055-0.51-0.086-0.778c-0.015-0.072-0.025-0.119-0.063-0.186
		c0.167,0.09,0.302,0.261,0.37,0.47C468.375,156.469,468.285,156.636,468.167,156.785z"/>
	<path fill="#273884" d="M536.381,335.4c-4.574-6.76-8.819-13.738-13.103-20.657c-3.753-6.035-7.349-12.152-11.079-18.192
		c-3.585-5.821-8.319-11.43-11.475-17.464c-0.328-0.628-1.169-0.728-1.621-0.387c-0.372,0.002-0.724,0.224-0.774,0.706
		c-1.567,16.151,1.696,33.071,1.962,49.317c0.122,6.982,0.53,14.029,1.072,20.999c0.634,8.02-0.708,16.819,1.637,24.585
		c0.092,0.329,0.332,0.528,0.619,0.593c0.285,0.662,1.066,1.073,1.687,0.472c1.913-1.811,4.515-2.57,6.721-3.92
		c3.601-2.183,7.177-4.361,10.696-6.701c6.841-4.541,13.983-9.317,21.316-13.04c0.133-0.077,0.261-0.178,0.361-0.298
		c0.746,0.244,1.568-0.348,1.258-1.253C543.863,344.941,539.482,339.955,536.381,335.4z M533.459,347.507
		c-0.39,1-7.04,4.06-8.068,4.62c-3.916,2.099-7.85,4.351-11.381,6.992c-2.751,2.083-5.7,3.933-8.639,5.706
		c-0.118-4.548-0.55-9.18-0.875-13.412c-0.524-7.123-0.752-14.257-1.227-21.39c-0.494-7.825-0.287-15.744-1.082-23.581
		c-0.299-3.02-0.484-6.087-0.621-9.165c2.723,4.533,5.399,9.075,8.169,13.598c4.231,6.906,8.481,13.782,12.892,20.601
		c3.463,5.349,6.746,11.034,10.951,15.883C533.54,347.416,533.473,347.454,533.459,347.507z"/>
	<path fill="#273884" d="M487.077,190.088c-0.464-1.259-2.068-0.932-2.489,0.033c-0.59,0.553-1.776,1.06-2.34,1.499
		c-0.966,0.762-1.915,1.523-2.899,2.259c-1.047,0.78-2.213,1.383-3.26,2.165c-0.36,0.265-0.762,0.974-1.08,1.074
		c-0.97,0.289-0.781,1.918,0.226,1.984c0.862,0.055,1.265-0.266,1.932-0.816c1.517-1.258,3.32-2.163,4.962-3.261
		c1.29-0.868,2.492-1.756,3.83-2.55C486.845,191.947,487.465,191.137,487.077,190.088z"/>
	<path fill="#273884" d="M540.878,274.22c-0.464-1.264-2.071-0.934-2.489,0.031c-0.59,0.553-1.774,1.062-2.337,1.501
		c-0.968,0.76-1.915,1.523-2.901,2.257c-1.045,0.779-2.213,1.385-3.26,2.167c-0.359,0.265-0.76,0.974-1.083,1.069
		c-0.965,0.293-0.778,1.922,0.231,1.983c0.862,0.055,1.263-0.263,1.932-0.814c1.515-1.255,3.318-2.16,4.96-3.261
		c1.291-0.866,2.492-1.758,3.827-2.55C540.648,276.079,541.268,275.269,540.878,274.22z"/>
	<path fill="#273884" d="M513.194,233.318c-0.466-1.261-2.068-0.932-2.489,0.031c-0.592,0.551-1.776,1.06-2.339,1.499
		c-0.964,0.762-1.915,1.525-2.899,2.259c-1.047,0.782-2.215,1.383-3.265,2.166c-0.355,0.265-0.757,0.974-1.076,1.073
		c-0.968,0.288-0.781,1.918,0.226,1.984c0.859,0.053,1.265-0.266,1.931-0.816c1.517-1.258,3.32-2.163,4.963-3.262
		c1.291-0.865,2.492-1.755,3.83-2.55C512.961,235.175,513.581,234.364,513.194,233.318z"/>
	<path fill="#273884" d="M499.83,211.501c-1.104,1.113-2.919,1.924-4.223,2.815c-1.18,0.809-2.486,1.59-3.581,2.512
		c-0.616,0.511-0.281,1.717,0.618,1.549c1.594-0.297,2.941-1.462,4.235-2.371c1.507-1.055,3.318-1.875,4.605-3.191
		C502.437,211.834,500.777,210.549,499.83,211.501z"/>
	<path fill="#273884" d="M525.233,253.809c-1.104,1.115-2.919,1.924-4.223,2.817c-1.178,0.803-2.487,1.585-3.581,2.507
		c-0.614,0.512-0.282,1.716,0.62,1.551c1.594-0.297,2.938-1.459,4.233-2.368c1.504-1.057,3.32-1.876,4.604-3.195
		C527.842,254.144,526.18,252.857,525.233,253.809z"/>
	<path fill="#273884" d="M552.102,293.115c-1.102,1.112-2.919,1.921-4.221,2.812c-1.183,0.809-2.489,1.59-3.583,2.51
		c-0.611,0.515-0.284,1.717,0.62,1.554c1.594-0.3,2.938-1.464,4.231-2.37c1.506-1.058,3.322-1.878,4.604-3.195
		C554.709,293.445,553.046,292.158,552.102,293.115z"/>
	<path fill="#273884" d="M494.654,201.51c-0.031-0.248-0.214-0.433-0.46-0.481c-0.951-0.176-1.734,0.789-2.435,1.312
		c-0.728,0.541-1.967,1.046-2.486,1.8c-0.209,0.304-0.089,0.802,0.328,0.843c1.784,0.168,3.371-1.678,4.754-2.498
		c0.241-0.143,0.364-0.5,0.329-0.764C494.675,201.652,494.668,201.583,494.654,201.51z"/>
	<path fill="#273884" d="M497.837,206.476c-0.036-0.249-0.22-0.435-0.462-0.481c-0.952-0.178-1.734,0.787-2.438,1.31
		c-0.723,0.541-1.963,1.045-2.486,1.8c-0.206,0.303-0.086,0.803,0.33,0.84c1.784,0.17,3.371-1.676,4.754-2.495
		c0.243-0.143,0.364-0.498,0.328-0.765C497.855,206.615,497.849,206.548,497.837,206.476z"/>
	<path fill="#273884" d="M490.915,196.615c-0.031-0.248-0.215-0.435-0.463-0.481c-0.952-0.178-1.731,0.789-2.432,1.312
		c-0.728,0.541-1.968,1.043-2.489,1.798c-0.206,0.304-0.087,0.804,0.331,0.845c1.783,0.166,3.371-1.678,4.754-2.495
		c0.241-0.145,0.364-0.501,0.328-0.769C490.935,196.754,490.929,196.687,490.915,196.615z"/>
	<path fill="#273884" d="M506.837,222.558c-0.034-0.25-0.22-0.437-0.463-0.481c-0.952-0.178-1.736,0.787-2.437,1.31
		c-0.725,0.541-1.965,1.045-2.489,1.798c-0.206,0.304-0.086,0.804,0.33,0.843c1.784,0.167,3.374-1.677,4.754-2.495
		c0.246-0.141,0.364-0.498,0.328-0.764C506.854,222.697,506.846,222.626,506.837,222.558z"/>
	<path fill="#273884" d="M510.015,227.521c-0.031-0.25-0.215-0.435-0.463-0.481c-0.949-0.178-1.734,0.787-2.433,1.31
		c-0.73,0.541-1.965,1.045-2.491,1.801c-0.204,0.301-0.084,0.803,0.33,0.84c1.786,0.167,3.374-1.676,4.756-2.496
		c0.241-0.14,0.362-0.495,0.326-0.764C510.035,227.66,510.026,227.589,510.015,227.521z"/>
	<path fill="#273884" d="M503.098,217.662c-0.036-0.249-0.22-0.437-0.463-0.483c-0.952-0.178-1.736,0.787-2.437,1.31
		c-0.725,0.541-1.965,1.045-2.489,1.8c-0.207,0.304-0.087,0.803,0.33,0.842c1.784,0.168,3.374-1.676,4.756-2.495
		c0.243-0.143,0.362-0.498,0.326-0.766C503.115,217.799,503.109,217.733,503.098,217.662z"/>
	<path fill="#273884" d="M520.1,244.16c-0.034-0.252-0.22-0.439-0.463-0.486c-0.951-0.176-1.739,0.79-2.435,1.312
		c-0.73,0.541-1.968,1.043-2.489,1.798c-0.206,0.304-0.089,0.804,0.328,0.843c1.786,0.167,3.371-1.676,4.756-2.496
		c0.24-0.145,0.361-0.5,0.326-0.764C520.117,244.297,520.108,244.227,520.1,244.16z"/>
	<path fill="#273884" d="M516.758,239.285c-0.033-0.247-0.217-0.435-0.463-0.481c-0.952-0.178-1.734,0.789-2.435,1.312
		c-0.728,0.541-1.965,1.045-2.486,1.8c-0.206,0.303-0.089,0.801,0.328,0.843c1.786,0.167,3.371-1.678,4.756-2.498
		c0.239-0.142,0.361-0.5,0.326-0.764C516.776,239.426,516.769,239.357,516.758,239.285z"/>
	<path fill="#273884" d="M522.996,249.111c-0.033-0.25-0.218-0.438-0.465-0.483c-0.949-0.178-1.734,0.787-2.432,1.312
		c-0.728,0.541-1.968,1.043-2.491,1.798c-0.206,0.304-0.084,0.806,0.333,0.845c1.781,0.166,3.371-1.678,4.756-2.498
		c0.238-0.142,0.362-0.498,0.326-0.766C523.013,249.25,523.007,249.182,522.996,249.111z"/>
	<path fill="#273884" d="M533.183,264.192c-0.036-0.252-0.22-0.437-0.463-0.483c-0.952-0.178-1.734,0.789-2.437,1.31
		c-0.725,0.545-1.965,1.045-2.487,1.8c-0.206,0.306-0.086,0.806,0.326,0.843c1.786,0.167,3.379-1.675,4.756-2.498
		c0.244-0.141,0.367-0.496,0.331-0.765C533.2,264.329,533.192,264.263,533.183,264.192z"/>
	<path fill="#273884" d="M529.842,259.322c-0.034-0.25-0.218-0.438-0.46-0.484c-0.951-0.176-1.736,0.787-2.437,1.31
		c-0.728,0.541-1.965,1.048-2.486,1.803c-0.206,0.304-0.089,0.804,0.326,0.841c1.786,0.167,3.376-1.677,4.756-2.496
		c0.243-0.143,0.364-0.498,0.328-0.764C529.862,259.46,529.853,259.392,529.842,259.322z"/>
	<path fill="#273884" d="M536.077,269.146c-0.034-0.252-0.215-0.435-0.46-0.484c-0.951-0.176-1.736,0.789-2.437,1.313
		c-0.725,0.541-1.965,1.045-2.484,1.8c-0.209,0.302-0.089,0.801,0.325,0.841c1.786,0.167,3.376-1.677,4.756-2.495
		c0.241-0.143,0.364-0.501,0.329-0.765C536.097,269.285,536.088,269.214,536.077,269.146z"/>
	<path fill="#273884" d="M546.852,284.384c-0.034-0.252-0.215-0.438-0.463-0.481c-0.952-0.178-1.734,0.786-2.433,1.31
		c-0.73,0.541-1.967,1.046-2.491,1.801c-0.209,0.302-0.087,0.803,0.33,0.84c1.781,0.168,3.374-1.677,4.756-2.496
		c0.241-0.143,0.362-0.496,0.326-0.764C546.869,284.523,546.862,284.452,546.852,284.384z"/>
	<path fill="#273884" d="M543.513,279.513c-0.034-0.25-0.22-0.437-0.462-0.481c-0.954-0.178-1.737,0.787-2.435,1.31
		c-0.728,0.541-1.968,1.046-2.491,1.801c-0.204,0.303-0.084,0.803,0.333,0.842c1.784,0.168,3.371-1.676,4.754-2.498
		c0.241-0.143,0.362-0.498,0.328-0.764C543.53,279.652,543.522,279.583,543.513,279.513z"/>
	<path fill="#273884" d="M549.748,289.337c-0.034-0.25-0.217-0.437-0.463-0.483c-0.951-0.176-1.734,0.789-2.432,1.312
		c-0.73,0.539-1.97,1.046-2.491,1.798c-0.206,0.304-0.086,0.806,0.331,0.845c1.786,0.165,3.374-1.676,4.754-2.495
		c0.243-0.145,0.364-0.5,0.328-0.767C549.767,289.473,549.759,289.407,549.748,289.337z"/>
	<path fill="#273884" d="M573.298,323.965c-0.034-0.254-0.218-0.442-0.463-0.486c-0.952-0.178-1.734,0.789-2.432,1.312
		c-0.73,0.541-1.968,1.046-2.491,1.801c-0.209,0.304-0.086,0.806,0.33,0.84c1.782,0.17,3.374-1.674,4.756-2.496
		c0.241-0.14,0.362-0.498,0.326-0.764C573.315,324.102,573.309,324.033,573.298,323.965z"/>
	<path fill="#273884" d="M596.215,354.33c-3.018-3.553-5.083-8.146-7.674-12.036c-5.725-8.61-12.306-16.672-17.698-25.475
		c-10.726-17.445-23.454-33.632-34.114-51.115c-10.973-18.04-23.263-35.237-33.975-53.454c-5.539-9.394-11.206-18.688-16.878-28.005
		c-2.819-4.637-5.619-9.303-8.51-13.925c-2.597-4.161-7.69-9.224-8.935-13.937c-0.01-0.048-0.015-0.072-0.043-0.09
		c-0.013,0.177-0.103,0.344-0.221,0.493c-0.006-0.272-0.055-0.51-0.086-0.778c-0.015-0.072-0.025-0.119-0.063-0.186
		c0.167,0.09,0.302,0.261,0.37,0.47c0.041-0.282-0.018-0.568-0.22-0.825c-0.634-0.789-1.625-1.131-2.534-1.565
		c-1.187-0.575-2.602-0.93-3.896-1.061c-0.277-0.018-0.505,0.079-0.685,0.29c-0.067,0.038-0.133,0.077-0.166,0.158
		c-0.219,0.144-0.336,0.417-0.315,0.761c0.782,23.693-3.423,47.42-3.18,71.149c0.277,25.462-0.328,50.981-1.067,76.454
		c-0.688,23.673-1.137,47.421-1.18,71.085c-0.028,12.405,0.116,24.799,0.059,37.185c-0.014,5.842,0.345,11.682,0.255,17.515
		c-0.062,5.728,1.195,10.985,1.629,16.586c0.031,0.391,0.219,0.7,0.477,0.871l0.005,0.024c0.011,0.172,0.116,0.324,0.299,0.485
		c0.029,0.019,0.034,0.043,0.062,0.062c0.538,0.684,1.377,1.257,2.138,1.572c0.952,0.4,1.948,1.015,2.995,1.147
		c0.382,0.045,0.706-0.071,0.963-0.273c0.987-0.154,1.841-0.951,2.683-1.448c3.182-1.799,6.309-3.511,9.39-5.438
		c5.902-3.676,12.035-6.953,17.898-10.695c12.963-8.237,26.182-15.956,39.193-24.079c11.87-7.391,24.044-14.273,35.866-21.778
		c5.906-3.776,11.784-7.448,17.333-11.747c4.129-3.236,10.336-6.155,13.254-10.682c0.109-0.196,0.188-0.412,0.216-0.641
		c0.342-0.269,0.544-0.733,0.45-1.31C599.95,358.107,597.584,355.911,596.215,354.33z M461.6,153.616
		c0.076,0.009,0.072,0.109,0.001,0.124C461.529,153.755,461.529,153.631,461.6,153.616z M597.052,360.444
		c-0.538,0.285-0.754,0.802-0.752,1.298c-3.168,3.436-7.982,6.242-11.624,8.707c-5.771,3.948-11.327,8.099-17.266,11.832
		c-11.247,7.039-22.562,13.868-33.92,20.731c-11.886,7.195-23.709,14.452-35.483,21.823c-6.03,3.777-12.099,7.488-18.211,11.108
		c-3.429,2.048-6.829,4.24-10.307,6.174c-1.137,0.632-2.923,2.093-4.412,2.947c-0.346-4.575-1.151-9.081-1.406-13.7
		c-0.324-5.673-0.144-11.55-0.196-17.229c-0.151-13.635-0.451-27.513,0.052-41.109c0.898-24.461,0.464-48.997,1.209-73.476
		c0.718-24.126,1.031-48.294,0.852-72.434c-0.092-12.504,0.838-24.996,1.495-37.481c0.5-9.272,1.952-18.989,1.453-28.403
		c0.954,1.493,2.064,2.904,2.917,4.269c2.905,4.57,5.629,9.227,8.376,13.879c5.948,10.055,12.068,19.976,17.949,30.07
		c10.428,17.928,21.542,35.566,33.136,52.758c8.042,11.935,15.829,24.051,23.779,36.06c-0.574,0.268-1.089,0.8-1.562,1.153
		c-0.727,0.544-1.968,1.046-2.489,1.801c-0.207,0.303-0.086,0.803,0.328,0.84c1.734,0.165,3.281-1.563,4.633-2.414
		c0.783,1.179,1.576,2.35,2.362,3.527c-0.546,0.279-1.041,0.778-1.495,1.118c-0.728,0.541-1.965,1.046-2.487,1.8
		c-0.206,0.304-0.089,0.802,0.326,0.841c1.716,0.162,3.245-1.521,4.587-2.383c0.77,1.147,1.547,2.287,2.321,3.431
		c-0.695,0.188-1.302,0.851-1.851,1.264c-0.727,0.541-1.965,1.043-2.489,1.798c-0.204,0.303-0.086,0.806,0.328,0.843
		c1.788,0.167,3.374-1.676,4.759-2.494c0.05-0.03,0.072-0.096,0.112-0.142c0.886,1.303,1.755,2.616,2.648,3.913
		c-0.035,0.056-0.1,0.088-0.126,0.149c-0.592,0.553-1.778,1.065-2.339,1.504c-0.966,0.758-1.915,1.523-2.899,2.254
		c-1.047,0.782-2.214,1.386-3.262,2.168c-0.357,0.265-0.76,0.974-1.08,1.071c-0.965,0.29-0.778,1.92,0.229,1.983
		c0.859,0.056,1.265-0.263,1.929-0.816c1.52-1.253,3.32-2.163,4.963-3.259c1.293-0.866,2.494-1.758,3.83-2.548
		c0.115-0.068,0.208-0.154,0.312-0.232c0.768,1.117,1.535,2.235,2.302,3.352c-0.557,0.275-1.059,0.786-1.52,1.13
		c-0.728,0.541-1.965,1.046-2.491,1.801c-0.204,0.303-0.084,0.804,0.333,0.842c1.726,0.162,3.266-1.551,4.619-2.405
		c1.902,2.773,3.805,5.546,5.71,8.316c-0.729,0.154-1.362,0.843-1.935,1.27c-0.728,0.541-1.963,1.048-2.489,1.798
		c-0.204,0.303-0.086,0.806,0.331,0.845c1.786,0.165,3.374-1.676,4.754-2.495c0.077-0.046,0.12-0.136,0.171-0.216
		c0.866,1.258,1.736,2.513,2.607,3.767c-1.093,0.867-2.533,1.571-3.635,2.323c-1.176,0.808-2.487,1.587-3.579,2.509
		c-0.614,0.512-0.284,1.714,0.62,1.549c1.594-0.295,2.938-1.459,4.233-2.368c1.129-0.791,2.431-1.451,3.554-2.288
		c0.487,0.699,0.966,1.406,1.456,2.104c0.236,0.334,0.46,0.67,0.695,1.004c-0.499,0.29-0.956,0.74-1.377,1.055
		c-0.728,0.539-1.965,1.045-2.489,1.796c-0.206,0.306-0.084,0.806,0.331,0.845c1.671,0.155,3.168-1.443,4.488-2.32
		c0.808,1.158,1.618,2.316,2.409,3.481c-0.508,0.289-0.972,0.747-1.398,1.066c-0.727,0.544-1.968,1.046-2.489,1.801
		c-0.209,0.304-0.089,0.804,0.328,0.84c1.673,0.157,3.174-1.444,4.495-2.323c0.758,1.129,1.487,2.283,2.227,3.426
		c-0.618,0.246-1.166,0.834-1.668,1.209c-0.725,0.541-1.962,1.045-2.486,1.8c-0.206,0.304-0.089,0.804,0.328,0.84
		c1.77,0.169,3.348-1.645,4.721-2.473c0.327,0.514,0.671,1.012,0.995,1.531c0.444,0.724,0.93,1.418,1.392,2.13
		c-0.073,0.09-0.176,0.155-0.223,0.262c-0.592,0.555-1.776,1.065-2.337,1.504c-0.968,0.76-1.915,1.523-2.902,2.255
		c-1.047,0.782-2.212,1.388-3.262,2.168c-0.36,0.265-0.757,0.974-1.08,1.072c-0.967,0.291-0.778,1.92,0.231,1.983
		c0.86,0.058,1.263-0.263,1.93-0.811c1.515-1.26,3.32-2.163,4.96-3.264c1.293-0.866,2.495-1.756,3.83-2.55
		c0.14-0.083,0.257-0.185,0.38-0.281c0.205,0.303,0.395,0.619,0.602,0.921c0.183,0.285,2.705,2.996,3.303,4.09
		C597.186,360.367,597.119,360.405,597.052,360.444z"/>
</g>
<g>
	<path fill="#2E3192" d="M138.196,256.057c4.085-15.489,8.169-30.701,11.347-46.466c3.178-14.105,4.765-28.213,7.036-42.594
		c2.268-13,1.588-11.893,12.027-11.893c6.127,0,12.027-0.278,18.382-0.278c4.085,0,4.765,1.108,4.991,6.087
		c0.681,12.446,1.59,24.615,2.271,37.061c0.907,19.36,1.814,38.169,2.495,57.251c1.364,26.83,2.271,53.382,3.406,80.209
		c0.226,10.512,0.907,21.021,1.133,31.255c0,6.084-0.907,6.638-5.901,6.638c-4.991,0-10.211,0.276-15.205,0.276h-3.404
		c-6.127-0.554-7.488-2.213-7.943-9.68c-1.816-25.447-3.63-51.169-3.858-76.613c0-2.766-0.226-5.255-0.907-7.743
		c-0.681,1.935-1.588,3.872-2.268,6.36c-5.22,21.297-10.44,42.87-15.886,64.167c-1.364,5.533-1.816,6.084-6.355,5.809
		c-3.632-0.276-7.036-0.829-10.666-1.383c-3.178-0.554-5.22-2.488-6.129-6.084c-2.495-8.021-4.765-15.489-7.488-23.234
		c-2.723-9.126-5.446-18.531-9.078-27.933c-0.226,1.381-0.226,2.764-0.226,4.147v62.784c0,0.829,0,1.937,0,3.042
		c-0.455,3.32-1.588,4.979-4.085,4.979c-9.304,0.829-18.382,1.108-27.461,1.383c-3.404,0-4.991-1.937-5.22-6.914
		c-0.681-13.554-1.588-27.106-1.814-40.659c-0.455-23.507-0.681-47.571-0.909-71.356l-0.681-81.868c0-3.32,0-6.362,0-9.68
		c0-6.638,0.681-7.467,6.355-7.192c2.949,0.276,5.672,0.829,8.624,1.105h14.75c3.404,0,3.632,0,4.765,4.15
		c9.533,31.531,19.744,63.059,27.915,95.144c1.133,5.255,2.723,9.958,4.084,15.213c0.226,0.829,0.681,1.659,1.588,3.596
		L138.196,256.057z"/>
	<path fill="#2E3192" d="M257.329,330.734c-1.59,10.509-3.178,20.743-4.539,30.699c-0.226,2.215-0.455,4.425-0.907,6.916
		c-0.228,2.766-1.364,3.872-4.087,3.872h-20.651c-3.63,0-4.994-1.105-4.539-5.53c0.681-8.299,1.59-16.596,2.271-25.169
		c3.404-31.809,7.943-63.615,13.163-95.698c3.63-23.785,7.943-47.295,12.027-71.083c0.681-4.701,1.361-9.126,1.816-13.276
		c0.452-2.488,1.361-3.596,3.404-3.872c1.588-0.276,3.404-0.829,4.991-0.829c12.027-0.276,23.828-0.829,35.858-1.105
		c4.765-0.278,4.537,0,5.672,5.806c2.042,11.341,4.539,22.405,6.355,33.468c2.723,13.552,4.311,27.381,7.488,40.933
		c3.632,15.213,5.901,30.701,8.397,46.19l12.708,79.377c1.135,6.916,0,9.682-5.901,11.066c-4.539,1.105-9.304,1.381-13.843,2.21
		c-2.723,0.278-5.672,0.832-8.397,0.832c-3.856,0-5.446-1.108-6.127-6.087c-1.135-6.084-1.816-12.722-2.723-18.531
		c-1.361-7.743-2.949-15.21-4.539-23.51L257.329,330.734z M275.257,192.442c-3.178,9.68-14.524,99.293-13.389,107.868
		c8.85,1.383,17.699,1.383,27.006-1.661C285.697,262.695,283.2,227.844,275.257,192.442z"/>
	<path fill="#2E3192" d="M422.077,242.228c0.228,21.297,0,43.145,0.228,64.442c0.226,17.15,0.907,34.019,1.588,51.445v7.743
		c0,5.257-1.135,6.64-5.672,7.192c-1.816,0.278-4.087,0.554-6.355,0.554c-4.765,0-9.53-0.276-14.524-0.554
		c-5.446-0.551-6.807-2.213-6.807-8.851c-0.455-24.061-0.681-48.4-1.135-72.464l-1.362-47.849
		c-0.226-5.809-0.681-11.893-1.135-17.701c-0.455-8.851-1.135-17.701-1.816-27.106c-1.362,0-2.949-0.276-4.311,0
		c-7.262,0.278-14.298,0.832-21.332,1.383c-0.681,0-1.364,0.278-2.271,0.278c-4.765,0-5.901-1.108-6.355-6.916
		c-0.452-9.126-1.133-18.531-1.361-27.935c-0.226-6.084,1.135-8.021,6.355-8.297c8.169-0.829,16.793-1.383,24.964-1.383
		c17.247-0.551,34.72-0.551,51.97-0.551c4.991,0,9.757,0.276,14.977,0.551c4.084,0.278,4.539,1.383,4.765,6.362
		c0.228,4.979,0.228,10.234,0.228,14.935c-0.228,5.533-0.228,11.063-0.681,16.318c-0.228,4.703-0.681,4.979-4.313,5.255
		c-7.262,0.278-14.75,0.278-21.786,0.554h-4.991C421.17,214.568,421.851,228.398,422.077,242.228z"/>
</g>
<g>
	<path fill="#EC008C" d="M179.258,372.716c-1.777,2.936-2.562,6.46-2.355,10.573c0.422,3.721,1.672,6.755,3.769,9.104
		c2.092,2.351,4.606,3.429,7.543,3.231c2.721-0.389,4.974-2.054,6.758-4.993c1.777-2.936,2.564-6.361,2.358-10.28
		c-0.422-3.913-1.679-7.047-3.771-9.398c-2.097-2.349-4.611-3.422-7.543-3.229C183.291,368.117,181.037,369.778,179.258,372.716z"/>
	<path fill="#EC008C" d="M484.88,455.098c-1.886-0.486-3.143,0.051-3.771,1.614c-7.125,19.973-13.463,34.318-19.013,43.028
		c-5.553,8.714-10.213,13.318-13.985,13.804c-3.771,0.49-6.755-2.349-8.956-8.516c-2.199-6.169-3.406-14.145-3.612-23.937
		c-0.211-9.79,0.47-20.56,2.042-32.308c1.57-11.747,4.134-23.006,7.699-33.777c0.629-1.366-0.109-2.298-2.199-2.789
		c-2.097-0.486-4.559-0.684-7.386-0.587c-2.83,0.101-5.451,0.44-7.856,1.027c-2.412,0.587-3.615,1.174-3.615,1.762l-2.201,9.106
		c-9.426-6.462-18.491-10.133-27.182-11.015c-8.698-0.88-16.554,0.442-23.57,3.966c-7.023,3.526-12.939,8.811-17.756,15.86
		c-4.822,7.049-7.965,15.176-9.428,24.376c0,0.001,0,0.002-0.001,0.003c-6.078,6.658-11.577,11.943-16.496,15.857
		c-4.926,3.919-9.326,6.754-13.2,8.518c-3.88,1.762-7.282,2.642-10.213,2.642c-2.936,0-5.451-0.779-7.543-2.349
		c-1.257-0.781-2.514-1.955-3.771-3.524c1.257-2.543,3.193-6.706,5.814-12.482c2.619-5.774,4.556-11.749,5.814-17.917
		s1.257-11.646,0-16.447c-1.257-4.795-4.924-7.489-10.999-8.076c-3.565-0.194-6.442,1.665-8.641,5.58
		c-2.201,3.919-3.669,8.765-4.4,14.538c-0.738,5.778-0.629,11.895,0.313,18.357c0.944,6.462,2.775,11.945,5.5,16.447
		c-3.143,5.681-6.758,10.966-10.842,15.86c-4.087,4.896-8.437,8.811-13.043,11.747c-3.982,2.547-7.071,2.496-9.269-0.147
		c-2.201-2.644-3.771-6.801-4.715-12.482c-0.942-5.677-1.364-12.286-1.257-19.826c0.104-7.535,0.365-15.024,0.787-22.467
		c0.417-7.439,0.942-14.244,1.57-20.413c0.629-6.167,1.046-10.72,1.257-13.656c0-0.977-1.051-1.762-3.143-2.349
		c-2.097-0.587-4.454-0.882-7.071-0.882c-2.623,0-5.028,0.249-7.227,0.735c-2.201,0.49-3.302,1.322-3.302,2.496
		c-0.629,3.919-1.468,9.499-2.514,16.742c-1.051,7.245-1.781,15.079-2.199,23.494c-3.982,12.532-7.652,23.644-11.001,33.335
		c-3.354,9.693-7.021,17.283-10.999,22.762c-2.936,3.915-5.028,5.334-6.286,4.26c-1.257-1.08-1.886-3.864-1.886-8.371
		c0-4.502,0.363-10.377,1.101-17.622c0.731-7.243,1.414-15.024,2.042-23.349c0.629-8.32,1.046-16.742,1.257-25.258
		c0.206-8.518-0.107-16.397-0.942-23.644c-0.84-1.953-2.097-3.524-3.771-4.698c-1.679-1.174-3.458-1.859-5.344-2.056
		c-1.886-0.191-3.771,0.198-5.657,1.175c-1.886,0.983-3.456,2.547-4.713,4.7c1.257,4.309,1.62,9.251,1.101,14.831
		c-0.52,5.513-1.087,13.286-1.707,23.288c-0.125,0.204-0.266,0.393-0.333,0.648c-2.936,9.596-6.286,18.115-10.057,25.553
		c-3.771,7.443-7.595,13.267-11.471,17.475c-3.878,4.212-7.699,6.658-11.471,7.342c-3.771,0.688-7.071-0.732-9.898-4.258
		c-2.83-3.523-4.974-9.398-6.437-17.622c-1.463-8.224-1.881-19.186-1.262-32.895c0.206-4.304,0.574-10.72,1.098-19.236
		c0.522-8.518,1.257-17.815,2.201-27.902c0.942-10.082,1.988-20.266,3.143-30.544c1.148-10.28,2.562-19.335,4.241-27.168
		c1.675-8.224,3.876-16.054,6.601-23.497c2.721-7.439,6.914-13.41,12.571-17.917c5.444-4.304,11.048-6.801,16.812-7.489
		c5.759-0.684,10.892,0.051,15.399,2.204c4.504,2.155,7.96,5.631,10.37,10.425c2.408,4.801,2.88,10.529,1.416,17.182
		c-0.84,3.524-2.569,6.856-5.185,9.985c-2.623,3.134-5.816,5.338-9.585,6.609c-3.771,1.276-7.754,1.225-11.943-0.147
		c-4.194-1.368-8.28-4.795-12.258-10.28c-1.883-1.564-3.456-1.711-4.713-0.44c-1.257,1.276-1.257,2.789,0,4.553
		c4.817,5.681,9.791,9.352,14.929,11.013c5.13,1.667,9.948,2.01,14.454,1.029c4.504-0.979,8.487-3.086,11.943-6.315
		c3.456-3.231,6.02-6.902,7.699-11.015c3.349-9.005,3.615-16.786,0.785-23.349c-2.827-6.557-7.384-11.501-13.669-14.831
		c-6.286-3.328-13.672-4.746-22.156-4.26c-8.484,0.493-16.499,3.378-24.042,8.666c-5.028,3.524-9.379,8.47-13.041,14.831
		c-3.669,6.365-6.743,13.465-9.217,21.293c-2.474,7.834-4.537,16.155-6.181,24.966c-1.651,8.811-2.986,17.428-4.013,25.846
		c-1.032,8.419-1.85,16.401-2.469,23.937c-0.619,7.54-1.233,14.05-1.845,19.531c-3.771-4.304-8.226-8.123-13.356-11.455
		c-5.138-3.328-10.842-4.993-17.128-4.993c-5.451,0-10.479,1.174-15.085,3.523c-4.611,2.349-8.695,5.534-12.256,9.546
		c-3.565,4.016-6.708,8.617-9.428,13.804c-2.725,5.191-4.822,10.623-6.286,16.3c-2.092,7.636-3.245,15.42-3.456,23.349
		c-0.206,7.931,0.681,15.126,2.671,21.588c1.988,6.462,5.13,11.747,9.428,15.86c4.291,4.111,9.791,6.167,16.497,6.167
		c6.703,0,12.676-1.665,17.915-4.993c5.232-3.332,9.843-7.489,13.826-12.482c3.978-4.993,7.277-10.428,9.9-16.3
		c2.616-5.875,4.661-11.257,6.129-16.155c0.41,4.898,1.129,9.794,2.158,14.686c1.027,4.896,2.623,9.301,4.784,13.216
		c2.161,3.919,4.998,7.1,8.52,9.546c3.515,2.45,7.896,3.671,13.133,3.671c6.074,0,11.52-1.859,16.343-5.58
		c4.817-3.717,9.113-8.371,12.884-13.951c3.535-5.23,6.541-10.996,9.065-17.26c-0.087,1.692-0.188,3.371-0.267,5.07
		c-0.417,9.009-0.365,17.085,0.157,24.231c0.524,7.15,1.831,12.777,3.928,16.887c2.092,4.113,5.342,5.774,9.741,4.993
		c4.189-0.785,7.96-2.694,11.314-5.727c3.349-3.037,6.388-6.754,9.113-11.16c2.721-4.405,5.133-9.2,7.23-14.391
		c2.092-5.186,3.928-10.326,5.498-15.42c0.547-1.771,1.059-3.476,1.555-5.152c0.007,0.102,0.01,0.205,0.018,0.307
		c0.522,6.952,1.62,13.216,3.299,18.796c1.675,5.58,4.243,10.133,7.702,13.656c3.456,3.526,8.012,5.287,13.669,5.287
		c3.771,0,7.543-0.882,11.314-2.644c3.771-1.762,7.332-4.157,10.686-7.194c3.347-3.033,6.544-6.508,9.585-10.428
		c3.034-3.915,5.814-7.929,8.328-12.042c4.606,4.7,9.791,6.711,15.555,6.022c5.759-0.684,11.364-2.741,16.815-6.167
		c5.444-3.425,10.527-7.39,15.24-11.897c2.067-1.972,3.907-3.768,5.59-5.44c-0.072,2.421-0.066,4.989,0.067,7.792
		c0.313,6.658,1.463,13.069,3.456,19.236c1.99,6.167,5.185,11.409,9.585,15.713c4.4,4.309,10.263,6.462,17.6,6.462
		c5.657,0,10.686-1.027,15.085-3.084s8.273-4.7,11.627-7.931c3.349-3.229,6.286-6.946,8.8-11.16
		c2.514-4.208,4.606-8.371,6.286-12.482c0.206,3.134,0.629,6.952,1.257,11.455c0.629,4.507,1.727,8.912,3.299,13.216
		c1.57,4.309,3.662,8.224,6.286,11.747c2.616,3.526,6.02,5.774,10.213,6.755c4.4,0.979,8.534,0.391,12.412-1.762
		c3.876-2.155,7.543-5.191,10.999-9.103c3.458-3.915,6.648-8.468,9.585-13.659c2.932-5.184,5.55-10.375,7.858-15.565
		c2.303-5.186,4.241-10.032,5.814-14.538c1.57-4.502,2.775-8.026,3.615-10.573C487.499,456.616,486.766,455.589,484.88,455.098z
		 M107.769,457.3c-1.257,7.049-3.041,14.098-5.344,21.148c-2.308,7.049-5.342,13.656-9.113,19.824
		c-3.771,6.169-8.382,11.015-13.828,14.538c-5.24,3.526-9.692,3.864-13.356,1.029c-3.667-2.837-6.442-7.344-8.328-13.511
		c-1.886-6.167-2.78-13.216-2.671-21.145c0.102-7.931,1.203-15.222,3.299-21.882c1.886-6.264,4.502-12.381,7.856-18.357
		c3.349-5.969,7.23-10.425,11.63-13.362c4.4-2.938,9.319-3.671,14.77-2.204c5.446,1.469,11.314,6.513,17.6,15.126
		C109.858,443.989,109.026,450.253,107.769,457.3z M289.723,470.811c-1.679-4.113-2.725-8.562-3.143-13.364
		c-0.422-4.795-0.422-9.348,0-13.656c0.417-1.762,0.733-3.425,0.944-4.993c0.206-1.566,0.519-3.033,0.942-4.405
		c0.629-2.543,1.518-4.355,2.671-5.435c1.15-1.073,2.303-1.513,3.458-1.322c1.148,0.198,2.199,0.882,3.143,2.056
		c0.942,1.174,1.516,2.745,1.729,4.7c0.415,2.743,0.259,5.974-0.472,9.691c-0.738,3.721-1.679,7.344-2.83,10.867
		c-1.153,3.523-2.355,6.754-3.612,9.693C291.296,467.58,290.352,469.637,289.723,470.811z M418.099,441.147
		c-0.942,4.896-2.097,10.183-3.456,15.86c-1.366,5.681-2.986,11.409-4.872,17.182c-1.886,5.776-4.139,11.063-6.755,15.858
		c-2.623,4.801-5.657,8.666-9.115,11.602c-3.456,2.936-7.384,4.405-11.784,4.405c-6.497,0-11.423-2.886-14.77-8.664
		c-3.354-5.774-5.24-12.675-5.657-20.706c-0.422-8.028,0.519-16.302,2.827-24.819c2.303-8.518,5.97-15.612,10.999-21.293
		c5.028-5.677,11.314-9.055,18.857-10.133c7.543-1.073,16.233,1.909,26.084,8.958C419.828,432.336,419.043,436.256,418.099,441.147z
		"/>
</g>
<g>
	<g>
		<path fill="#FDD10C" d="M108.988,558.908c0.244,13.15-9.63,21.945-23.731,21.541c-12.192-0.349-23.016-11.68-18.347-21.211
			c1.346-2.748,1.781-5.817,3.105-8.575c5.096-10.614,22.845-14.578,32.769-7.107c2.422,1.824,3.8,4.94,4.892,7.687
			C108.671,553.742,108.624,556.546,108.988,558.908z"/>
		<path fill="#FDD10C" d="M181.771,562.098c0.244,13.15-9.63,21.945-23.731,21.541c-12.192-0.349-23.016-11.68-18.347-21.211
			c1.346-2.748,1.781-5.817,3.105-8.575c5.096-10.614,22.845-14.578,32.769-7.107c2.422,1.824,3.8,4.94,4.892,7.687
			C181.454,556.932,181.407,559.736,181.771,562.098z"/>
		<path fill="#FDD10C" d="M247.626,560.065c0.244,13.15-9.63,21.945-23.731,21.541c-12.192-0.349-23.016-11.68-18.347-21.211
			c1.346-2.748,1.781-5.817,3.105-8.575c5.096-10.614,22.845-14.578,32.769-7.107c2.422,1.824,3.8,4.94,4.892,7.687
			C247.309,554.9,247.261,557.704,247.626,560.065z"/>
	</g>
</g>
<g>
	<g>
		<path fill="#EC008C" d="M45.78,184.468c-8.827-0.068-14.554-6.847-14.035-16.3c0.449-8.174,8.241-15.237,14.553-11.936
			c1.82,0.952,3.872,1.297,5.699,2.234c7.031,3.606,9.379,15.584,4.192,22.11c-1.266,1.593-3.381,2.463-5.243,3.147
			C49.252,184.346,47.371,184.265,45.78,184.468z"/>
		<path fill="#EC008C" d="M42.36,233.243c-8.827-0.068-14.554-6.847-14.035-16.3c0.449-8.174,8.241-15.237,14.553-11.936
			c1.82,0.952,3.872,1.297,5.699,2.234c7.031,3.606,9.379,15.584,4.192,22.11c-1.266,1.593-3.381,2.463-5.243,3.147
			C45.832,233.122,43.951,233.041,42.36,233.243z"/>
		<path fill="#EC008C" d="M42.565,277.462c-8.827-0.068-14.554-6.847-14.035-16.3c0.449-8.174,8.241-15.237,14.553-11.936
			c1.82,0.952,3.872,1.297,5.699,2.234c7.031,3.606,9.379,15.584,4.192,22.11c-1.266,1.593-3.381,2.463-5.243,3.147
			C46.037,277.34,44.156,277.259,42.565,277.462z"/>
	</g>
	<g>
		<path fill="#EC008C" d="M42.283,320.994c-8.827-0.068-14.554-6.847-14.035-16.3c0.449-8.174,8.241-15.237,14.553-11.936
			c1.82,0.952,3.872,1.297,5.699,2.234c7.031,3.606,9.379,15.584,4.192,22.11c-1.266,1.593-3.381,2.463-5.243,3.147
			C45.755,320.873,43.874,320.792,42.283,320.994z"/>
		<path fill="#EC008C" d="M44.923,365.726c-8.827-0.068-14.554-6.847-14.035-16.3c0.449-8.174,8.241-15.237,14.553-11.936
			c1.82,0.952,3.872,1.297,5.699,2.234c7.031,3.606,9.379,15.584,4.192,22.11c-1.266,1.593-3.381,2.463-5.243,3.147
			C48.395,365.604,46.514,365.523,44.923,365.726z"/>
	</g>
</g>
<g>
</g>
<g>
</g>
<g>
</g>
<g>
</g>
<g>
</g>
<g>
</g>
</svg>
